<svg width="23" height="22" viewBox="0 0 23 22" fill="none" xmlns="http://www.w3.org/2000/svg">
<path id="Vector" d="M17.5518 21.385H5.33178C2.80529 21.385 0.749268 19.329 0.749268 16.8025V4.58251C0.749268 2.05602 2.80529 0 5.33178 0H12.9693C13.3744 0 13.7629 0.160933 14.0494 0.447396C14.3359 0.733858 14.4968 1.12238 14.4968 1.5275C14.4968 1.93262 14.3359 2.32115 14.0494 2.60761C13.7629 2.89407 13.3744 3.05501 12.9693 3.05501H5.33178C4.4886 3.05501 3.80427 3.74086 3.80427 4.58251V16.8025C3.80427 17.6442 4.4886 18.33 5.33178 18.33H17.5518C18.395 18.33 19.0793 17.6442 19.0793 16.8025V12.22C19.0793 11.8149 19.2402 11.4264 19.5267 11.1399C19.8132 10.8535 20.2017 10.6925 20.6068 10.6925C21.0119 10.6925 21.4005 10.8535 21.6869 11.1399C21.9734 11.4264 22.1343 11.8149 22.1343 12.22V16.8025C22.1343 19.329 20.0783 21.385 17.5518 21.385ZM13.2229 15.0199C12.6882 15.0199 12.1704 14.8076 11.7855 14.4227L7.7101 10.3488C7.34352 9.96353 7.14212 9.45017 7.14888 8.91839C7.15565 8.3866 7.37005 7.87854 7.7463 7.50268C8.12256 7.12682 8.63086 6.91296 9.16265 6.90676C9.69444 6.90055 10.2076 7.10251 10.5925 7.46949L12.7554 9.63396L18.0635 1.30143C18.189 1.05965 18.3616 0.84548 18.5713 0.671574C18.7809 0.497669 19.0233 0.367561 19.2841 0.288943C19.5449 0.210325 19.8188 0.184792 20.0896 0.213855C20.3605 0.242917 20.6227 0.325985 20.8609 0.458147C21.0991 0.590309 21.3083 0.768883 21.4763 0.983311C21.6443 1.19774 21.7676 1.44367 21.8389 1.70656C21.9102 1.96945 21.928 2.24397 21.8914 2.51389C21.8548 2.7838 21.7644 3.04363 21.6257 3.27802L15.0055 13.9705C14.8526 14.2461 14.6378 14.4824 14.378 14.6608C14.1183 14.8392 13.8206 14.9548 13.5085 14.9986L13.2229 15.0199Z" fill="#E74451"/>
</svg>
