<svg width="14" height="14" viewBox="0 0 14 14" fill="none" xmlns="http://www.w3.org/2000/svg">
<path fill-rule="evenodd" clip-rule="evenodd" d="M0.450418 0.28165C0.40198 0.307758 0.327838 0.371735 0.28566 0.423849L0.208984 0.518598V6.73454V12.9505L0.272353 13.0441C0.307206 13.0955 0.382107 13.1603 0.438784 13.188C0.538856 13.2368 0.598219 13.2383 2.49679 13.2383H4.45174L4.45954 12.5304C4.46694 11.8583 4.47004 11.8188 4.52038 11.7509C4.71208 11.4924 5.08737 11.5019 5.22138 11.7686C5.26034 11.8462 5.26572 11.9405 5.26574 12.5476L5.26579 13.2383H6.12611H6.98642L6.99426 12.5476C7.00156 11.9043 7.00566 11.8508 7.05415 11.7682C7.20583 11.51 7.5829 11.4913 7.74213 11.734C7.78261 11.7958 7.7893 11.8855 7.80053 12.5147L7.81321 13.2256H8.67502H9.53683L9.5495 12.5147C9.56073 11.8855 9.56742 11.7958 9.6079 11.734C9.76714 11.4913 10.1442 11.51 10.2959 11.7682C10.3444 11.8508 10.3485 11.9043 10.3558 12.5476L10.3636 13.2383L11.6231 13.2379L12.8827 13.2374L12.9836 13.1803C13.0398 13.1484 13.1099 13.0786 13.1419 13.0223L13.1994 12.9214L13.1931 11.5102C13.187 10.1293 13.1857 10.0974 13.1346 10.0289C13.0591 9.92781 12.9688 9.86697 12.8554 9.84064C12.7977 9.82726 10.8387 9.81734 8.18708 9.81699L3.61821 9.81638L3.61765 5.20949C3.61712 0.764822 3.61542 0.598924 3.56972 0.498269C3.54366 0.440883 3.47923 0.361038 3.42651 0.320837L3.33069 0.247735L1.93461 0.240968C0.611172 0.234529 0.533913 0.236659 0.450418 0.28165ZM2.73105 5.60253V10.0828L1.90726 10.9063L1.08347 11.7298V10.3675V9.00526H1.34105C1.56968 9.00526 1.61072 8.99819 1.70615 8.94225C1.82909 8.87021 1.91993 8.71217 1.91993 8.57035C1.91993 8.43812 1.81953 8.26745 1.70258 8.20089C1.61764 8.15258 1.56507 8.14421 1.34328 8.14386L1.08347 8.14345V7.30699V6.47052H1.32508C1.59381 6.47052 1.69237 6.44079 1.79791 6.32789C1.98442 6.12844 1.94706 5.82122 1.71786 5.66955C1.62489 5.608 1.58365 5.59895 1.34833 5.58851L1.08347 5.57672V4.75625V3.93578L1.31793 3.93523C1.59508 3.93457 1.72476 3.88752 1.8301 3.74938C2.01027 3.51317 1.88615 3.15569 1.59597 3.07509C1.54413 3.06069 1.40761 3.04885 1.29259 3.04878L1.08347 3.04862V2.08542V1.12222H1.90726H2.73105V5.60253Z" fill="url(#paint0_linear_241_3376)"/>
<defs>
<linearGradient id="paint0_linear_241_3376" x1="6.70418" y1="0.238281" x2="6.70418" y2="13.2383" gradientUnits="userSpaceOnUse">
<stop stop-color="#E4404A"/>
<stop offset="1" stop-color="#EB4B5E"/>
</linearGradient>
</defs>
</svg>
