<svg width="436" height="110" viewBox="0 0 436 110" fill="none" xmlns="http://www.w3.org/2000/svg">
<g clip-path="url(#clip0_380_2696)">
<path d="M0 106.11V92.7498H4.13843C5.04007 92.7347 5.9371 92.8825 6.78703 93.1862C7.53854 93.4482 8.1979 93.9254 8.68435 94.5594C9.18658 95.2832 9.43729 96.1541 9.39743 97.0364C9.38973 97.7036 9.22383 98.3593 8.91355 98.9487C8.61257 99.5121 8.17438 99.9891 7.64019 100.335C7.11232 100.701 6.52679 100.974 5.90841 101.143C5.28652 101.352 4.64001 101.477 3.98563 101.516H2.54673V106.174H0V106.11ZM2.54673 94.8803V99.3594H4.11297C4.56916 99.3687 5.02293 99.2903 5.45 99.1284C5.82009 98.9932 6.14011 98.7468 6.36682 98.4225C6.60928 98.0392 6.73745 97.5937 6.7361 97.1391C6.73442 96.6728 6.60675 96.2158 6.36682 95.8172C6.16042 95.4917 5.85741 95.2402 5.50094 95.0985C5.03742 94.9425 4.55057 94.8687 4.06203 94.8803H2.54673Z" fill="white"/>
<path d="M13.8287 96.0867C14.5051 96.0804 15.1774 96.1934 15.8152 96.4204C16.3779 96.6121 16.8733 96.9643 17.2414 97.4343C17.6321 97.9247 17.8395 98.538 17.8271 99.1669C17.8369 99.7376 17.6724 100.298 17.356 100.771C17.0465 101.212 16.63 101.566 16.1463 101.798L18.5784 106.11H16.5537L14.4527 102.26H12.6318V106.11H10.7472V96.0867H13.8287ZM12.619 97.6653V100.745H13.816C14.1587 100.754 14.5 100.697 14.822 100.579C15.0907 100.488 15.3289 100.324 15.5096 100.104C15.6914 99.8608 15.7817 99.5605 15.7642 99.2567C15.781 98.9348 15.6963 98.6159 15.5223 98.3455C15.3529 98.1106 15.1179 97.9319 14.8474 97.8321C14.5026 97.7168 14.1411 97.6604 13.7778 97.6653H12.619Z" fill="white"/>
<path d="M19.6225 106.11V96.0867H21.5071V106.11H19.6225Z" fill="white"/>
<path d="M28.014 103.055L25.6328 99.9881V106.097H23.6973V96.0737H24.8815L28.256 100.694L31.312 96.0737H32.4708V106.097H30.5607V100.322L28.6889 102.966L28.014 103.055Z" fill="white"/>
<path d="M34.661 106.11V96.0867H40.5949L40.8877 97.5883H36.5456V100.232H39.7926L40.0982 101.747H36.5456V104.557H41.2952L41.6136 106.046H34.661V106.11Z" fill="white"/>
<path d="M61.4653 96.0867C62.1417 96.0804 62.8139 96.1934 63.4518 96.4204C64.0145 96.6121 64.5099 96.9643 64.8779 97.4343C65.2505 97.9316 65.4396 98.5442 65.4127 99.1669C65.4225 99.7376 65.2581 100.298 64.9416 100.771C64.6145 101.221 64.1752 101.575 63.6682 101.798L66.215 106.11H64.1521L62.051 102.26H60.2683V106.11H58.3838V96.0867H61.4653ZM60.1919 97.6781V100.745H61.3889C61.7316 100.754 62.0729 100.697 62.3949 100.579C62.6636 100.488 62.9018 100.324 63.0825 100.104C63.2643 99.8608 63.3546 99.5605 63.3372 99.2567C63.3539 98.9348 63.2692 98.6159 63.0952 98.3455C62.9258 98.1106 62.6908 97.9319 62.4203 97.8321C62.0755 97.7168 61.714 97.6604 61.3507 97.6653H60.1919V97.6781Z" fill="white"/>
<path d="M71.3848 106.315C70.4628 106.341 69.5527 106.101 68.7617 105.622C68.0427 105.171 67.4679 104.52 67.1063 103.748C66.7162 102.916 66.5139 102.006 66.5139 101.085C66.5139 100.165 66.7162 99.2551 67.1063 98.4223C67.4994 97.6592 68.0887 97.0165 68.8126 96.5614C69.5817 96.0963 70.4624 95.8522 71.3593 95.8555C72.2899 95.8256 73.2093 96.0662 74.0079 96.5486C74.7202 97.0023 75.2933 97.6466 75.6633 98.4095C76.0485 99.2459 76.2481 100.157 76.2481 101.079C76.2481 102.001 76.0485 102.912 75.6633 103.748C75.2739 104.507 74.6889 105.145 73.9697 105.597C73.1986 106.057 72.3192 106.301 71.423 106.302L71.3848 106.315ZM71.3848 104.711C71.8975 104.715 72.4008 104.573 72.8365 104.3C73.3043 103.984 73.6714 103.539 73.8933 103.017C74.3889 101.782 74.3889 100.402 73.8933 99.1667C73.6875 98.6539 73.3435 98.2093 72.9001 97.8833C72.4495 97.5657 71.909 97.4036 71.3593 97.4213C70.8401 97.4225 70.3335 97.5837 69.9077 97.8833C69.4438 98.2071 69.0745 98.6503 68.8381 99.1667C68.555 99.7676 68.4155 100.427 68.4306 101.092C68.4172 101.731 68.5387 102.365 68.7872 102.953C68.9915 103.47 69.3411 103.916 69.7931 104.236C70.2437 104.554 70.7843 104.716 71.3339 104.698L71.3848 104.711Z" fill="white"/>
<path d="M77.6752 106.11V96.0865H80.7695C81.4479 96.0664 82.1245 96.1663 82.7687 96.3817C83.3323 96.5783 83.8276 96.9348 84.1949 97.4084C84.5078 97.9015 84.6898 98.4673 84.7233 99.0517C84.7567 99.636 84.6405 100.219 84.3859 100.745C84.1689 101.162 83.8541 101.519 83.469 101.785C83.0815 102.057 82.6509 102.261 82.1957 102.388C81.7014 102.522 81.1921 102.591 80.6804 102.593H79.5853V106.084H77.6752V106.11ZM79.6107 97.6651V101.028H80.8077C81.1464 101.037 81.4837 100.981 81.8009 100.861C82.0727 100.757 82.3077 100.574 82.4758 100.335C82.6482 100.039 82.7391 99.7022 82.7391 99.3592C82.7391 99.0162 82.6482 98.6795 82.4758 98.3838C82.3167 98.1305 82.0796 97.9367 81.8009 97.832C81.4519 97.7157 81.0861 97.6593 80.7186 97.6651H79.5725H79.6107Z" fill="white"/>
<path d="M86.0922 106.11V96.0867H92.0261L92.3189 97.5883H87.9768V100.232H91.2238L91.5294 101.747H87.9768V104.557H92.7264L93.0447 106.046H86.0922V106.11Z" fill="white"/>
<path d="M97.3869 96.0865C98.044 96.0738 98.6985 96.1736 99.3224 96.3817C99.8852 96.5734 100.381 96.9257 100.749 97.3956C101.121 97.893 101.31 98.5056 101.283 99.1282C101.293 99.699 101.129 100.259 100.812 100.732C100.503 101.173 100.086 101.527 99.6026 101.759L102.035 106.071H100.074L97.9727 102.221H96.19V106.071H94.3054V96.0865H97.3869ZM96.1136 97.678V100.745H97.3105C97.6532 100.754 97.9945 100.697 98.3165 100.578C98.5852 100.488 98.8234 100.324 99.0041 100.104C99.186 99.8606 99.2762 99.5604 99.2588 99.2566C99.2755 98.9347 99.1909 98.6157 99.0168 98.3453C98.8474 98.1105 98.6125 97.9318 98.3419 97.832C97.9971 97.7167 97.6356 97.6603 97.2723 97.6651H96.1136V97.678Z" fill="white"/>
<path d="M110.426 97.5883H106.963V106.097H105.053V97.5883H102.073V96.0867H110.108L110.413 97.5883H110.426Z" fill="white"/>
<path d="M111.521 106.11V96.0867H113.406V106.11H111.521Z" fill="white"/>
<path d="M115.596 106.11V96.0867H121.53L121.823 97.5883H117.481V100.232H120.728L121.033 101.747H117.481V104.557H122.243L122.561 106.046H115.596V106.11Z" fill="white"/>
<path d="M123.669 103.902C123.905 104.019 124.147 104.122 124.395 104.211C124.681 104.322 124.975 104.412 125.274 104.48C125.888 104.636 126.531 104.636 127.145 104.48C127.374 104.419 127.581 104.294 127.744 104.121C127.886 103.953 127.959 103.737 127.948 103.517C127.949 103.402 127.924 103.288 127.876 103.184C127.827 103.079 127.756 102.987 127.668 102.914C127.444 102.715 127.2 102.539 126.942 102.388L126.05 101.862L125.006 101.195C124.673 100.971 124.354 100.727 124.051 100.463C123.772 100.212 123.536 99.9176 123.351 99.5902C123.172 99.2691 123.08 98.9062 123.083 98.5378C123.081 98.0455 123.232 97.5649 123.516 97.1646C123.813 96.743 124.218 96.4103 124.688 96.202C125.272 95.9572 125.901 95.8391 126.534 95.8555C127.039 95.8576 127.542 95.9355 128.024 96.0865C128.46 96.2263 128.886 96.3979 129.297 96.5999L128.661 98.1272C128.47 98.0245 128.253 97.9346 128.037 97.8448C127.808 97.7686 127.574 97.7086 127.336 97.6651C127.074 97.6014 126.804 97.5712 126.534 97.5753C126.161 97.5624 125.792 97.651 125.465 97.832C125.33 97.9082 125.22 98.0207 125.146 98.1567C125.072 98.2927 125.036 98.447 125.044 98.602C125.045 98.847 125.141 99.082 125.312 99.2565C125.521 99.4631 125.756 99.6401 126.012 99.7828C126.305 99.9496 126.611 100.129 126.916 100.335L127.973 100.963C128.318 101.162 128.642 101.394 128.941 101.657C129.219 101.898 129.456 102.184 129.641 102.504C129.827 102.845 129.919 103.231 129.909 103.62C129.918 104.125 129.766 104.62 129.476 105.032C129.147 105.467 128.707 105.805 128.202 106.007C127.564 106.27 126.879 106.397 126.19 106.379C125.951 106.376 125.712 106.35 125.477 106.302C125.198 106.251 124.921 106.182 124.65 106.097C124.381 106.025 124.117 105.935 123.86 105.828C123.649 105.741 123.445 105.638 123.249 105.52L123.669 103.967V103.902Z" fill="white"/>
<path d="M133.054 103.736C133.359 104.091 133.518 104.55 133.5 105.019C133.487 105.541 133.374 106.055 133.168 106.533C132.95 107.079 132.64 107.583 132.252 108.022C131.892 108.463 131.461 108.841 130.978 109.139L130.393 107.855C130.697 107.604 130.983 107.33 131.246 107.034C131.484 106.749 131.65 106.41 131.73 106.046C131.553 106.035 131.387 105.963 131.258 105.84C131.085 105.692 130.939 105.514 130.825 105.314C130.71 105.106 130.649 104.872 130.647 104.634C130.649 104.39 130.715 104.151 130.838 103.941C130.959 103.717 131.134 103.527 131.348 103.389C131.56 103.251 131.808 103.179 132.061 103.184C132.259 103.184 132.456 103.228 132.636 103.312C132.816 103.396 132.976 103.519 133.105 103.671L133.054 103.736Z" fill="white"/>
<path d="M141.7 101.053C141.679 101.677 141.806 102.298 142.069 102.863C142.292 103.313 142.654 103.678 143.101 103.902C143.57 104.128 144.084 104.243 144.603 104.236C145.13 104.247 145.652 104.123 146.119 103.877C146.56 103.637 146.916 103.265 147.137 102.812C147.398 102.259 147.525 101.652 147.507 101.04V92.7368H150.053V101.246C150.064 102.147 149.83 103.035 149.378 103.813C148.93 104.581 148.277 105.208 147.494 105.622C146.598 106.08 145.607 106.313 144.603 106.302C143.606 106.338 142.615 106.117 141.725 105.661C140.938 105.242 140.281 104.611 139.828 103.838C139.388 103.056 139.16 102.171 139.166 101.271V92.7625H141.713V101.066L141.7 101.053Z" fill="white"/>
<path d="M152.371 106.11V96.0867H154.255L158.228 101.875L158.852 102.773V96.0867H160.75V106.11H158.852L154.625 99.9754L154.243 99.3979V106.097H152.371V106.11Z" fill="white"/>
<path d="M162.991 106.11V96.0867H164.875V106.11H162.991Z" fill="white"/>
<path d="M173.827 96.5486C174.543 97.0036 175.117 97.6531 175.482 98.4223C175.868 99.2587 176.067 100.17 176.067 101.092C176.067 102.014 175.868 102.925 175.482 103.761C175.093 104.52 174.508 105.158 173.789 105.609C173.018 106.07 172.138 106.314 171.242 106.315C170.316 106.343 169.401 106.103 168.606 105.622C167.887 105.171 167.312 104.52 166.951 103.748C166.561 102.916 166.358 102.006 166.358 101.085C166.358 100.165 166.561 99.2551 166.951 98.4223C167.344 97.6592 167.933 97.0165 168.657 96.5614C169.426 96.0963 170.307 95.8522 171.204 95.8555C172.126 95.8305 173.036 96.071 173.827 96.5486ZM168.632 102.966C168.832 103.485 169.182 103.932 169.638 104.249C170.085 104.564 170.62 104.726 171.166 104.711C171.683 104.717 172.19 104.574 172.63 104.3C173.098 103.984 173.465 103.539 173.687 103.017C174.183 101.782 174.183 100.402 173.687 99.1667C173.481 98.6539 173.137 98.2093 172.694 97.8833C172.243 97.5657 171.703 97.4036 171.153 97.4213C170.634 97.4225 170.127 97.5837 169.701 97.8833C169.237 98.2071 168.868 98.6503 168.632 99.1667C168.349 99.7676 168.209 100.427 168.224 101.092C168.211 101.726 168.332 102.357 168.581 102.94L168.632 102.966ZM175.788 105.635L174.68 106.623L171.153 103.325L172.426 102.337L175.788 105.635Z" fill="white"/>
<path d="M179.277 102.324C179.258 102.794 179.354 103.261 179.557 103.684C179.726 104.022 179.999 104.297 180.334 104.467C180.682 104.641 181.066 104.729 181.454 104.724C181.849 104.73 182.238 104.638 182.588 104.454C182.92 104.278 183.187 103.999 183.352 103.659C183.541 103.258 183.637 102.819 183.632 102.375V96.0994H185.542V102.516C185.553 103.197 185.377 103.868 185.033 104.454C184.695 105.03 184.206 105.501 183.619 105.815C182.945 106.161 182.198 106.338 181.442 106.328C180.691 106.35 179.947 106.183 179.277 105.84C178.687 105.526 178.197 105.05 177.864 104.467C177.529 103.873 177.358 103.2 177.367 102.516V96.0994H179.264V102.337L179.277 102.324Z" fill="white"/>
<path d="M187.592 106.11V96.0867H193.551L193.844 97.5883H189.477V100.232H192.724L193.029 101.747H189.477V104.557H194.226L194.545 106.046H187.592V106.11Z" fill="white"/>
<path d="M208.959 106.11H200.211V92.7498H202.758V104.082H208.628L208.959 106.11Z" fill="white"/>
<path d="M226.914 97.909L226.188 97.6909L225.564 97.5497C225.318 97.5267 225.071 97.5267 224.825 97.5497C224.324 97.5422 223.834 97.6949 223.425 97.9861C222.981 98.3116 222.637 98.7563 222.431 99.2695C222.171 99.8856 222.045 100.551 222.062 101.22C222.062 101.684 222.122 102.145 222.24 102.593C222.353 103.002 222.525 103.391 222.75 103.749C222.96 104.072 223.243 104.341 223.577 104.531C223.928 104.726 224.323 104.824 224.723 104.814C225.118 104.82 225.511 104.777 225.895 104.685C226.233 104.604 226.565 104.496 226.888 104.365L227.601 105.776C227.32 105.917 227.026 106.029 226.723 106.11C226.398 106.211 226.066 106.289 225.729 106.341C225.426 106.39 225.12 106.415 224.813 106.418C224.113 106.435 223.418 106.299 222.775 106.02C222.206 105.769 221.701 105.392 221.298 104.916C220.894 104.428 220.587 103.866 220.394 103.261C220.186 102.61 220.083 101.93 220.088 101.246C220.082 100.526 220.194 99.811 220.419 99.1283C220.629 98.5128 220.958 97.9456 221.387 97.4598C221.81 96.9927 222.327 96.621 222.902 96.369C223.527 96.1049 224.199 95.9739 224.876 95.9839C225.126 95.9695 225.377 95.9695 225.627 95.9839C225.95 96.0303 226.269 96.099 226.582 96.1893C226.905 96.2786 227.217 96.4034 227.512 96.5615L226.926 97.9347L226.914 97.909Z" fill="white"/>
<path d="M233.14 96.0866L236.96 105.982L235.063 106.251L234.172 103.684H230.352L229.473 106.046H227.576L231.396 96.0225L233.14 96.0866ZM232.287 98.6534L231.014 102.131H233.65L232.376 98.6534H232.287Z" fill="white"/>
<path d="M245.352 97.6651H241.939V106.174H240.029V97.6651H236.999V96.0994H245.034L245.339 97.601L245.352 97.6651Z" fill="white"/>
<path d="M246.447 106.11V96.0867H248.306V106.11H246.447Z" fill="white"/>
<path d="M254.673 106.315C253.747 106.343 252.832 106.103 252.037 105.622C251.318 105.171 250.743 104.52 250.382 103.748C249.992 102.916 249.789 102.006 249.789 101.085C249.789 100.165 249.992 99.2551 250.382 98.4223C250.785 97.6543 251.388 97.0111 252.126 96.5614C252.895 96.0963 253.776 95.8522 254.673 95.8555C255.603 95.8256 256.523 96.0662 257.321 96.5486C258.034 97.0023 258.607 97.6466 258.977 98.4095C259.362 99.2459 259.562 100.157 259.562 101.079C259.562 102.001 259.362 102.912 258.977 103.748C258.57 104.515 257.962 105.154 257.22 105.597C256.449 106.057 255.569 106.301 254.673 106.302V106.315ZM254.673 104.711C255.186 104.715 255.689 104.573 256.125 104.3C256.592 103.984 256.959 103.539 257.181 103.017C257.677 101.782 257.677 100.402 257.181 99.1667C256.976 98.6539 256.632 98.2093 256.188 97.8833C255.738 97.5657 255.197 97.4036 254.647 97.4213C254.128 97.4225 253.622 97.5837 253.196 97.8833C252.732 98.2071 252.363 98.6503 252.126 99.1667C251.843 99.7676 251.704 100.427 251.719 101.092C251.705 101.731 251.827 102.365 252.075 102.953C252.28 103.47 252.629 103.916 253.081 104.236C253.532 104.554 254.072 104.716 254.622 104.698L254.673 104.711Z" fill="white"/>
<path d="M261.04 106.11V96.0867H262.924L266.897 101.875L267.521 102.773V96.0867H269.418V106.11H267.521L263.294 99.9754L262.912 99.3979V106.097H261.04V106.11Z" fill="white"/>
<path d="M271.456 103.902C271.692 104.019 271.934 104.122 272.182 104.211C272.468 104.322 272.761 104.412 273.06 104.48C273.675 104.636 274.318 104.636 274.932 104.48C275.161 104.419 275.368 104.294 275.531 104.121C275.673 103.953 275.746 103.737 275.734 103.517C275.735 103.402 275.711 103.288 275.662 103.184C275.614 103.079 275.543 102.987 275.454 102.914C275.23 102.715 274.987 102.539 274.728 102.388L273.837 101.862L272.793 101.195C272.459 100.971 272.14 100.727 271.838 100.463C271.559 100.212 271.322 99.9176 271.137 99.5902C270.959 99.2691 270.866 98.9062 270.87 98.5378C270.86 98.0484 271.002 97.568 271.278 97.1646C271.575 96.7434 271.98 96.4109 272.449 96.202C273.034 95.9572 273.663 95.8391 274.295 95.8555C274.801 95.8576 275.303 95.9355 275.785 96.0865C276.222 96.2263 276.647 96.3979 277.059 96.5999L276.422 98.1272C276.231 98.0245 276.014 97.9346 275.798 97.8448C275.566 97.7506 275.328 97.6734 275.085 97.6138C274.822 97.5501 274.553 97.5199 274.283 97.5239C273.91 97.511 273.54 97.5997 273.213 97.7806C273.079 97.8569 272.968 97.9693 272.894 98.1054C272.82 98.2414 272.785 98.3956 272.793 98.5507C272.794 98.7957 272.89 99.0307 273.06 99.2052C273.269 99.4117 273.505 99.5887 273.761 99.7314C274.054 99.8983 274.359 100.078 274.665 100.283L275.722 100.912C276.066 101.11 276.39 101.343 276.689 101.605C276.968 101.847 277.204 102.133 277.39 102.452C277.575 102.794 277.667 103.179 277.657 103.569C277.666 104.074 277.515 104.569 277.224 104.981C276.895 105.416 276.455 105.753 275.951 105.956C275.313 106.219 274.628 106.346 273.939 106.328C273.699 106.325 273.461 106.299 273.226 106.251C272.946 106.199 272.67 106.131 272.398 106.046C272.129 105.973 271.866 105.883 271.609 105.776C271.398 105.689 271.193 105.586 270.997 105.468L271.418 103.915L271.456 103.902Z" fill="white"/>
<path d="M280.841 103.736C281.146 104.091 281.305 104.55 281.286 105.019C281.274 105.541 281.161 106.055 280.955 106.533C280.736 107.079 280.426 107.583 280.038 108.022C279.678 108.463 279.248 108.841 278.765 109.139L278.179 107.855C278.484 107.604 278.769 107.33 279.032 107.034C279.27 106.749 279.436 106.41 279.516 106.046C279.34 106.035 279.173 105.963 279.045 105.84C278.872 105.692 278.725 105.514 278.612 105.314C278.497 105.106 278.435 104.872 278.434 104.634C278.436 104.39 278.502 104.151 278.625 103.941C278.746 103.717 278.921 103.527 279.134 103.389C279.346 103.251 279.595 103.179 279.847 103.184C280.046 103.184 280.242 103.228 280.422 103.312C280.603 103.396 280.763 103.519 280.891 103.671L280.841 103.736Z" fill="white"/>
<path d="M289.487 101.066C289.466 101.69 289.592 102.311 289.856 102.876C290.079 103.326 290.441 103.691 290.887 103.915C291.356 104.141 291.87 104.256 292.39 104.249C292.917 104.26 293.438 104.136 293.905 103.89C294.347 103.65 294.703 103.278 294.924 102.825C295.185 102.272 295.311 101.665 295.293 101.053V92.7498H297.84V101.259C297.85 102.16 297.617 103.048 297.165 103.826C296.717 104.594 296.064 105.221 295.28 105.635C294.385 106.093 293.394 106.326 292.39 106.315C291.392 106.351 290.402 106.13 289.512 105.674C288.725 105.255 288.068 104.624 287.615 103.851C287.175 103.069 286.947 102.184 286.953 101.284V92.7754H289.499V101.079L289.487 101.066Z" fill="white"/>
<path d="M300.157 106.11V96.0867H302.042L306.015 101.875L306.639 102.773V96.0867H308.536V106.11H306.639L302.411 99.9754L302.029 99.3979V106.097H300.157V106.11Z" fill="white"/>
<path d="M310.701 106.11V96.0866H314.521C315.102 96.0735 315.681 96.1693 316.227 96.369C316.696 96.5352 317.101 96.8448 317.386 97.2545C317.688 97.7418 317.835 98.3106 317.806 98.8845C317.807 99.2517 317.686 99.6086 317.462 99.8984C317.249 100.185 317.001 100.444 316.724 100.668C317.165 100.895 317.544 101.225 317.832 101.631C318.133 102.081 318.284 102.616 318.265 103.158C318.282 103.599 318.2 104.038 318.023 104.442C317.859 104.801 317.615 105.117 317.31 105.366C316.977 105.631 316.597 105.827 316.189 105.943C315.722 106.081 315.237 106.15 314.75 106.149H310.701V106.11ZM312.624 97.6652V100.232H314.024C314.343 100.238 314.661 100.195 314.967 100.104C315.217 100.031 315.442 99.8887 315.616 99.693C315.765 99.4757 315.829 99.2105 315.794 98.9486C315.805 98.6886 315.744 98.4306 315.616 98.2043C315.492 98.0186 315.307 97.8825 315.094 97.8192C314.826 97.7368 314.547 97.6978 314.266 97.7037L312.624 97.6652ZM312.624 101.708V104.519H314.674C314.975 104.529 315.275 104.472 315.552 104.352C315.789 104.26 315.993 104.099 316.138 103.89C316.282 103.674 316.358 103.419 316.355 103.158C316.373 102.958 316.345 102.756 316.272 102.569C316.199 102.381 316.083 102.214 315.934 102.08C315.621 101.817 315.221 101.684 314.814 101.708H312.624Z" fill="white"/>
<path d="M319.615 106.11V96.0867H325.548L325.841 97.5883H321.525V100.232H324.772L325.077 101.747H321.525V104.557H326.274L326.593 106.046H319.615V106.11Z" fill="white"/>
<path d="M332.221 96.0866L336.041 105.982L334.144 106.251L333.252 103.684H329.432L328.553 106.046H326.745L330.565 96.0225L332.221 96.0866ZM331.368 98.6534L330.094 102.131H332.73L331.457 98.6534H331.368Z" fill="white"/>
<path d="M344.432 97.6651H341.02V106.174H339.11V97.6651H336.079V96.0994H344.114L344.42 97.601L344.432 97.6651Z" fill="white"/>
<path d="M349.908 96.0867L353.728 105.982L351.831 106.251L350.939 103.684H347.119L346.355 106.11H344.458L348.278 96.0867H349.908ZM349.055 98.6535L347.781 102.132H350.417L349.144 98.6535H349.055Z" fill="white"/>
<path d="M354.861 106.11V96.0866H358.681C359.262 96.0735 359.841 96.1693 360.388 96.369C360.856 96.5352 361.261 96.8448 361.546 97.2545C361.848 97.7418 361.995 98.3106 361.967 98.8845C361.968 99.2517 361.847 99.6086 361.623 99.8984C361.41 100.185 361.162 100.444 360.884 100.668C361.325 100.895 361.705 101.225 361.992 101.631C362.293 102.081 362.445 102.616 362.425 103.158C362.443 103.599 362.36 104.038 362.183 104.442C362.019 104.801 361.775 105.117 361.47 105.366C361.138 105.631 360.757 105.827 360.349 105.943C359.882 106.081 359.397 106.15 358.91 106.149H354.823L354.861 106.11ZM356.746 97.6652V100.232H358.146C358.465 100.238 358.783 100.195 359.089 100.104C359.339 100.031 359.564 99.8887 359.738 99.693C359.896 99.4931 359.977 99.2425 359.967 98.9871C359.979 98.7271 359.917 98.4691 359.789 98.2428C359.665 98.0571 359.48 97.921 359.267 97.8577C358.999 97.7753 358.72 97.7364 358.439 97.7422L356.746 97.6652ZM356.746 101.708V104.519H358.796C359.097 104.529 359.398 104.472 359.675 104.352C359.911 104.26 360.115 104.099 360.26 103.89C360.404 103.674 360.48 103.419 360.477 103.158C360.495 102.958 360.467 102.756 360.394 102.569C360.321 102.381 360.206 102.214 360.057 102.08C359.743 101.817 359.343 101.684 358.936 101.708H356.746Z" fill="white"/>
<path d="M370.32 106.11H363.762V96.0867H365.647V104.621H370.04L370.32 106.11Z" fill="white"/>
<path d="M371.428 106.11V96.0867H377.362L377.654 97.5883H373.312V100.232H376.559L376.865 101.747H373.312V104.557H378.062L378.38 106.046H371.428V106.11Z" fill="white"/>
<path d="M388.847 102.619L392.489 92.7753H395.036L389.853 106.136H387.714L382.621 92.9165L385.167 92.5571L388.911 102.619H388.847Z" fill="white"/>
<path d="M414.404 106.11H407.846V96.0867H409.73V104.621H414.124L414.404 106.11Z" fill="white"/>
<path d="M417.269 102.324C417.249 102.794 417.346 103.261 417.549 103.684C417.718 104.022 417.99 104.297 418.326 104.467C418.674 104.641 419.058 104.729 419.446 104.724C419.84 104.73 420.23 104.638 420.58 104.454C420.912 104.278 421.179 103.999 421.344 103.659C421.533 103.258 421.629 102.819 421.624 102.375V96.0994H423.534V102.516C423.545 103.197 423.369 103.868 423.024 104.454C422.687 105.03 422.197 105.501 421.611 105.815C420.937 106.161 420.19 106.338 419.434 106.328C418.683 106.35 417.939 106.183 417.269 105.84C416.679 105.526 416.189 105.05 415.855 104.467C415.521 103.873 415.35 103.2 415.359 102.516V96.0994H417.256V102.337L417.269 102.324Z" fill="white"/>
<path d="M425.584 106.11V96.0867H431.518L431.811 97.5883H427.468V100.232H430.716L431.021 101.747H427.468V104.557H432.218L432.536 106.046H425.584V106.11Z" fill="white"/>
<path d="M435.58 103.659C435.718 103.79 435.826 103.95 435.899 104.127C435.971 104.304 436.006 104.494 436 104.685C436.004 104.877 435.969 105.066 435.896 105.243C435.824 105.42 435.716 105.579 435.58 105.712C435.307 105.979 434.941 106.127 434.561 106.123C434.375 106.125 434.19 106.09 434.017 106.02C433.844 105.949 433.687 105.845 433.555 105.712C433.417 105.58 433.309 105.421 433.236 105.244C433.164 105.067 433.129 104.877 433.135 104.685C433.13 104.493 433.166 104.302 433.241 104.125C433.316 103.948 433.427 103.789 433.568 103.659C433.697 103.526 433.852 103.421 434.023 103.351C434.193 103.28 434.377 103.245 434.561 103.248C434.749 103.245 434.937 103.279 435.112 103.35C435.287 103.42 435.446 103.525 435.58 103.659ZM433.237 92.3262H435.873L435.605 102.26L433.581 101.31L433.25 92.3262H433.237Z" fill="white"/>
<path d="M47.2928 97.9218C47.2928 98.063 47.2928 98.217 47.2928 98.3325C47.662 97.986 48.0313 97.6394 48.3751 97.2929C48.4439 97.2146 48.4843 97.115 48.4897 97.0106V95.0983C48.4897 94.9443 48.4897 94.8673 48.6807 94.8673C49.1137 94.8673 49.5466 94.8673 49.9541 94.8673C49.9541 94.8673 50.0942 94.9571 50.1069 95.0213C50.1197 95.1493 50.1197 95.2783 50.1069 95.4063L52.0424 93.3914L56.9067 98.2812C56.9308 97.9993 56.9308 97.7159 56.9067 97.4341V94.6491C56.9324 94.2597 56.8269 93.873 56.6074 93.5515C56.3878 93.2301 56.067 92.9928 55.697 92.878C55.3403 92.7813 54.9707 92.7423 54.6019 92.7625H49.2792C49.0186 92.744 48.757 92.7815 48.5118 92.8724C48.2665 92.9634 48.0433 93.1058 47.8567 93.2901C47.6702 93.4745 47.5246 93.6967 47.4295 93.9421C47.3345 94.1874 47.2922 94.4502 47.3055 94.7133C47.3055 95.7785 47.3055 96.8566 47.3055 97.9218H47.2928Z" fill="#E74451"/>
<path d="M49.8013 104.339C49.8013 103.838 49.8013 103.351 49.8013 102.85C49.8013 102.632 49.8013 102.593 50.056 102.593H55.1494C55.2633 102.612 55.3794 102.612 55.4932 102.593C55.9598 102.491 56.3689 102.211 56.6348 101.811C56.9007 101.412 57.0027 100.924 56.9194 100.45C56.9072 100.37 56.8665 100.297 56.8048 100.245L53.8506 97.2801L52.0551 95.509L51.5203 96.0224L47.4074 100.232C47.3264 100.319 47.281 100.434 47.28 100.553V105.943C47.28 106.123 47.3564 106.161 47.4965 106.136C47.9497 106.058 48.3966 105.946 48.8335 105.802C49.1304 105.697 49.3853 105.497 49.5598 105.233C49.7344 104.969 49.8191 104.656 49.8013 104.339ZM52.6791 98.1914C53.112 98.1914 53.1248 98.1914 53.112 98.6406C53.0993 99.0898 53.1884 99.0384 52.6664 99.0641C52.6063 99.0732 52.5449 99.0678 52.4873 99.0482C52.4298 99.0287 52.3777 98.9956 52.3353 98.9516C52.293 98.9077 52.2617 98.8543 52.2439 98.7957C52.2262 98.7371 52.2226 98.6751 52.2334 98.6149C52.2334 98.1785 52.1443 98.1914 52.6664 98.1914H52.6791ZM52.2079 99.8341C52.196 99.76 52.2021 99.684 52.2258 99.6128C52.2496 99.5416 52.2901 99.4774 52.3441 99.4255C52.398 99.3737 52.4637 99.3359 52.5353 99.3154C52.607 99.2949 52.6826 99.2923 52.7555 99.3079H53.0866V100.014C53.0866 100.014 52.9847 100.155 52.921 100.155C52.794 100.168 52.666 100.168 52.539 100.155C52.3225 100.155 52.2207 100.039 52.2207 99.8213L52.2079 99.8341ZM51.5713 100.232C51.0619 100.232 51.1638 100.232 51.1511 99.7956C51.1383 99.3593 51.1511 99.3593 51.5967 99.3593C52.0424 99.3593 51.9915 99.5133 51.9915 99.8085C51.9915 100.104 52.0933 100.232 51.5713 100.219V100.232ZM51.1383 98.6406C51.1359 98.5877 51.1451 98.5349 51.1653 98.486C51.1855 98.4371 51.2161 98.3933 51.2551 98.3577C51.294 98.3221 51.3402 98.2957 51.3905 98.2802C51.4408 98.2648 51.4938 98.2607 51.5458 98.2684C51.8132 98.2684 51.9533 98.4224 51.9915 98.7176V99.1539H51.2657C51.2657 99.1539 51.1383 99.0641 51.1256 98.9999C51.1129 98.8848 51.1129 98.7685 51.1256 98.6534L51.1383 98.6406Z" fill="#E74451"/>
<path d="M214.218 106.315C214.887 105.692 215.513 105.023 216.09 104.313C217.094 103.034 217.985 101.668 218.751 100.232C219.231 99.3378 219.418 98.3137 219.286 97.3059C219.168 96.1362 218.645 95.0457 217.809 94.2257C217.126 93.5333 216.262 93.0515 215.317 92.8367C214.372 92.6219 213.386 92.6832 212.474 93.0132C211.563 93.3433 210.763 93.9285 210.17 94.7002C209.577 95.4718 209.214 96.398 209.125 97.3701C209.013 98.4011 209.222 99.4416 209.723 100.348C210.086 100.988 210.482 101.609 210.907 102.209C211.751 103.463 212.688 104.651 213.709 105.764L214.205 106.29L214.218 106.315ZM211.2 97.922C211.195 97.3218 211.367 96.7337 211.694 96.2323C212.021 95.7308 212.489 95.3386 213.038 95.1054C213.586 94.8723 214.191 94.8086 214.776 94.9225C215.36 95.0365 215.898 95.3229 216.321 95.7455C216.744 96.168 217.033 96.7077 217.151 97.2959C217.269 97.8841 217.211 98.4944 216.984 99.0494C216.757 99.6043 216.372 100.079 215.878 100.413C215.383 100.747 214.801 100.925 214.205 100.925C213.413 100.925 212.652 100.61 212.089 100.047C211.527 99.4846 211.207 98.7208 211.2 97.922Z" fill="#E74451"/>
<path d="M403.02 104.698L402.116 102.953L401.212 104.005L402.332 106.046H406.751L406.025 104.698H403.02Z" fill="#E74451"/>
<path d="M395.864 104.698H392.871L392.145 106.046H396.551L397.71 103.903L396.819 102.953L395.864 104.698Z" fill="#E74451"/>
<path d="M403.809 103.312H405.286L399.467 92.4932L393.622 103.312H395.074L399.467 95.2012L403.809 103.312Z" fill="#E74451"/>
<path d="M400.97 102.876C400.847 103.085 400.671 103.258 400.46 103.376C400.212 103.51 399.939 103.589 399.658 103.607V104.146H399.238V103.595C398.85 103.572 398.478 103.433 398.168 103.197C398.04 103.08 397.936 102.937 397.864 102.778C397.791 102.619 397.752 102.447 397.748 102.273H398.741C398.74 102.411 398.788 102.546 398.877 102.652C398.965 102.758 399.089 102.829 399.225 102.85V101.567C398.963 101.51 398.708 101.429 398.461 101.323C398.265 101.241 398.093 101.108 397.965 100.938C397.812 100.726 397.736 100.468 397.748 100.206C397.747 100.028 397.783 99.8518 397.853 99.6883C397.923 99.5247 398.026 99.3777 398.156 99.2566C398.458 99.0036 398.833 98.8551 399.225 98.8331V98.3069H399.645V98.8459C400.017 98.8641 400.373 98.9988 400.664 99.2309C400.793 99.348 400.897 99.4904 400.969 99.6493C401.041 99.8081 401.08 99.9803 401.084 100.155H400.091C400.08 100.032 400.031 99.9154 399.951 99.8213C399.871 99.7246 399.765 99.6533 399.645 99.616V100.899C399.909 100.966 400.168 101.048 400.422 101.143C400.619 101.225 400.79 101.358 400.919 101.528C401.071 101.735 401.148 101.989 401.135 102.247C401.135 102.477 401.074 102.703 400.957 102.901L400.97 102.876ZM398.843 100.527C398.951 100.63 399.082 100.705 399.225 100.745V99.5903C399.082 99.6075 398.948 99.6705 398.843 99.77C398.748 99.88 398.698 100.022 398.703 100.168C398.697 100.3 398.743 100.429 398.831 100.527H398.843ZM400.04 102.645C400.133 102.539 400.183 102.401 400.18 102.26C400.184 102.195 400.173 102.131 400.149 102.071C400.125 102.011 400.088 101.957 400.04 101.913C399.927 101.81 399.792 101.736 399.645 101.695V102.863C399.796 102.84 399.934 102.767 400.04 102.658V102.645Z" fill="#E74451"/>
<path d="M30.4461 0.331322L0.0891356 44.0443C0.0332036 44.1278 0.00226502 44.2258 8.67588e-08 44.3266V71.2782C-6.13884e-05 71.3817 0.0325485 71.4826 0.093112 71.5661C0.153675 71.6497 0.239052 71.7117 0.336889 71.7432C0.434726 71.7746 0.539951 71.7738 0.63734 71.741C0.734729 71.7082 0.819231 71.645 0.878622 71.5606L49.9414 0.883188C49.9893 0.810313 50.017 0.725779 50.0214 0.63844C50.0258 0.551102 50.0068 0.464173 49.9665 0.386756C49.9261 0.30934 49.8659 0.244286 49.792 0.198406C49.7181 0.152527 49.6334 0.12751 49.5466 0.125977H30.8409C30.7636 0.125944 30.6874 0.14457 30.6188 0.180296C30.5501 0.216022 30.4909 0.267809 30.4461 0.331322Z" fill="#E74451"/>
<path d="M8.67588e-08 0.613672V33.9823C-6.13884e-05 34.0858 0.0325485 34.1867 0.093112 34.2703C0.153675 34.3538 0.239052 34.4158 0.336889 34.4473C0.434726 34.4787 0.539951 34.478 0.63734 34.4451C0.734729 34.4123 0.819231 34.3491 0.878622 34.2647L24.0666 0.883188C24.1146 0.810313 24.1422 0.725779 24.1466 0.638441C24.151 0.551102 24.1321 0.464173 24.0917 0.386756C24.0514 0.30934 23.9911 0.244286 23.9172 0.198406C23.8433 0.152526 23.7586 0.12751 23.6718 0.125977H0.483879C0.355546 0.125977 0.23247 0.177359 0.141725 0.268819C0.05098 0.36028 8.67588e-08 0.484327 8.67588e-08 0.613672Z" fill="#E74451"/>
<path d="M56.3336 0.331322L0.534814 80.66C0.48685 80.7328 0.459211 80.8174 0.454791 80.9047C0.450371 80.992 0.469333 81.079 0.509691 81.1564C0.550049 81.2338 0.610318 81.2989 0.684186 81.3447C0.758054 81.3906 0.842803 81.4156 0.929557 81.4172H23.9393C24.0165 81.4172 24.0927 81.3986 24.1614 81.3628C24.2301 81.3271 24.2893 81.2753 24.334 81.2118L80.1201 0.883188C80.1681 0.810313 80.1957 0.725779 80.2001 0.638441C80.2045 0.551102 80.1856 0.464173 80.1452 0.386756C80.1049 0.30934 80.0446 0.244286 79.9707 0.198406C79.8969 0.152527 79.8121 0.12751 79.7253 0.125977H56.7157C56.6384 0.125944 56.5622 0.14457 56.4935 0.180296C56.4248 0.216022 56.3657 0.267809 56.3209 0.331322H56.3336Z" fill="#E74451"/>
<path d="M60.8668 72.8183L89.0209 81.1476C89.1159 81.1722 89.2161 81.1671 89.3082 81.1331C89.4003 81.099 89.4799 81.0375 89.5365 80.9568C89.5931 80.876 89.6241 80.7799 89.6252 80.681C89.6264 80.5821 89.5977 80.4853 89.543 80.4032L61.1215 39.4881C61.0768 39.4245 61.0176 39.3727 60.9489 39.3369C60.8803 39.3011 60.8041 39.2825 60.7268 39.2825C60.6494 39.2825 60.5733 39.3011 60.5046 39.3369C60.4359 39.3727 60.3767 39.4245 60.332 39.4881L31.4521 81.0578C31.4313 81.092 31.4209 81.1317 31.4222 81.1719C31.4236 81.212 31.4366 81.2509 31.4596 81.2837C31.4826 81.3165 31.5147 81.3417 31.5519 81.3563C31.589 81.3709 31.6296 81.3742 31.6686 81.3658L60.5867 72.8183H60.8668Z" fill="#E74451"/>
<path d="M116.691 64.72C115.94 63.9343 115.045 63.3024 114.055 62.859C113.089 62.446 112.049 62.2363 110.999 62.243C109.864 62.2294 108.739 62.4632 107.702 62.9284C106.664 63.3936 105.739 64.0791 104.989 64.9381C103.303 66.8317 102.417 69.3136 102.519 71.8557C102.472 73.1053 102.673 74.3518 103.11 75.522C103.547 76.6922 104.212 77.7627 105.065 78.6706C105.825 79.5351 106.758 80.227 107.803 80.7005C108.848 81.174 109.981 81.4183 111.127 81.4171C112.122 81.4246 113.109 81.2326 114.03 80.8524C115.021 80.4111 115.924 79.7889 116.691 79.0172V80.9808H121.237V62.705H116.704V64.72H116.691ZM115.418 75.7188C114.965 76.2085 114.414 76.5957 113.802 76.8546C113.189 77.1134 112.529 77.2381 111.865 77.2204C111.208 77.2358 110.556 77.1071 109.954 76.8434C109.351 76.5797 108.813 76.1872 108.376 75.6931C107.427 74.6435 106.92 73.2626 106.963 71.8429C106.905 70.4254 107.403 69.042 108.351 67.9927C108.794 67.5042 109.335 67.1174 109.94 66.8583C110.544 66.5993 111.196 66.474 111.852 66.4911C112.516 66.4731 113.176 66.5951 113.79 66.8492C114.404 67.1034 114.958 67.4841 115.418 67.967C115.894 68.4826 116.265 69.0884 116.507 69.7493C116.75 70.4103 116.86 71.1131 116.831 71.8172C116.887 73.2622 116.38 74.6719 115.418 75.7445V75.7188Z" fill="white"/>
<path d="M135.04 62.243C134.166 62.2427 133.3 62.4172 132.494 62.7564C131.473 63.2171 130.529 63.8316 129.692 64.5788V62.7051H125.134V80.9808H129.679V73.6654C129.632 72.4296 129.701 71.1921 129.883 69.9692C130.075 68.9964 130.549 68.103 131.246 67.4023C131.886 66.7952 132.735 66.4637 133.614 66.4783C134.255 66.4584 134.883 66.6574 135.397 67.043C135.903 67.4582 136.257 68.0318 136.403 68.6729C136.654 70.1042 136.752 71.5585 136.696 73.0108V80.9808H141.191V68.9039C141.255 68.0443 141.148 67.1804 140.877 66.3629C140.606 65.5453 140.176 64.7904 139.612 64.1425C139.018 63.5286 138.307 63.0435 137.521 62.7169C136.735 62.3902 135.89 62.229 135.04 62.243Z" fill="white"/>
<path d="M158.254 64.7202C157.502 63.9345 156.607 63.3026 155.618 62.8592C154.651 62.4462 153.611 62.2365 152.562 62.2432C151.426 62.2296 150.302 62.4634 149.264 62.9286C148.227 63.3938 147.302 64.0793 146.552 64.9383C144.866 66.8319 143.979 69.3138 144.081 71.8559C144.034 73.1055 144.235 74.352 144.673 75.5222C145.11 76.6924 145.775 77.7629 146.628 78.6708C147.388 79.5353 148.321 80.2272 149.366 80.7007C150.411 81.1742 151.543 81.4185 152.689 81.4173C153.684 81.4248 154.671 81.2328 155.592 80.8526C156.584 80.4113 157.486 79.7891 158.254 79.0173V80.981H162.8V55.6721H158.254V64.656V64.7202ZM156.98 75.719C156.528 76.2087 155.977 76.5959 155.364 76.8548C154.752 77.1136 154.092 77.2383 153.428 77.2206C152.771 77.2359 152.119 77.1073 151.517 76.8436C150.914 76.5799 150.376 76.1874 149.939 75.6933C148.989 74.6437 148.482 73.2628 148.525 71.8431C148.467 70.4256 148.966 69.0422 149.913 67.9929C150.356 67.5044 150.898 67.1176 151.502 66.8585C152.106 66.5995 152.759 66.4742 153.415 66.4913C154.078 66.4733 154.738 66.5953 155.352 66.8494C155.966 67.1036 156.521 67.4843 156.98 67.9672C157.457 68.4828 157.827 69.0886 158.07 69.7495C158.313 70.4104 158.423 71.1133 158.394 71.8174C158.45 73.2624 157.943 74.6721 156.98 75.7446V75.719Z" fill="white"/>
<path d="M187.07 67.3768C187.866 66.8154 188.523 66.0778 188.993 65.2207C189.393 64.426 189.594 63.5448 189.579 62.6539C189.612 61.2914 189.161 59.9618 188.305 58.9063C187.399 57.8211 186.172 57.0566 184.803 56.7245C183.198 56.3736 181.555 56.227 179.914 56.2882H176.094V80.981H182.957C184.55 81.0556 186.139 80.766 187.605 80.1339C188.742 79.5544 189.695 78.6651 190.355 77.5671C191.066 76.4352 191.437 75.1205 191.425 73.781C191.45 72.4573 191.092 71.1549 190.393 70.0335C189.572 68.8637 188.443 67.948 187.134 67.3897L187.07 67.3768ZM180.703 60.7801H181.9C182.749 60.7153 183.593 60.9563 184.281 61.4603C184.542 61.6864 184.748 61.969 184.885 62.2868C185.021 62.6046 185.085 62.9495 185.071 63.2956C185.086 63.6643 185.019 64.0317 184.876 64.3713C184.733 64.7109 184.517 65.0142 184.243 65.2592C183.506 65.7967 182.603 66.0516 181.696 65.9779H180.678V60.7801H180.703ZM185.797 75.7447C184.587 76.3505 183.233 76.6039 181.887 76.4762H180.716V70.1618H181.684C183.059 70.0431 184.437 70.3665 185.618 71.0859C186.01 71.3826 186.323 71.7721 186.529 72.2198C186.736 72.6676 186.83 73.1597 186.803 73.6527C186.826 74.0662 186.746 74.4791 186.571 74.8535C186.395 75.228 186.129 75.552 185.797 75.796V75.7447Z" fill="white"/>
<path d="M205.954 71.6505C206.017 72.779 205.922 73.9108 205.674 75.013C205.459 75.6579 205.049 76.2188 204.502 76.6173C203.931 76.9897 203.26 77.1778 202.58 77.1563C201.901 77.1798 201.233 76.9866 200.67 76.6044C200.14 76.2217 199.747 75.6771 199.549 75.0515C199.264 73.8896 199.148 72.692 199.205 71.4965V62.7179H194.621V70.3157C194.529 72.3415 194.709 74.3705 195.156 76.3478C195.572 77.8422 196.467 79.1556 197.703 80.0825C199.13 81.0165 200.817 81.4661 202.516 81.3659C204.102 81.4306 205.672 81.0293 207.036 80.2108C208.248 79.4141 209.19 78.2633 209.736 76.9125C210.362 74.7957 210.617 72.5849 210.487 70.3799V62.6794H205.941V71.6633L205.954 71.6505Z" fill="white"/>
<path d="M216.141 55.2101C215.761 55.2021 215.383 55.2745 215.032 55.4226C214.681 55.5707 214.365 55.7912 214.104 56.0699C213.831 56.3387 213.617 56.6605 213.472 57.0158C213.327 57.3711 213.256 57.7523 213.263 58.1362C213.256 58.5309 213.328 58.9229 213.475 59.289C213.621 59.655 213.839 59.9875 214.116 60.2667C214.381 60.5501 214.7 60.7752 215.055 60.9276C215.411 61.0801 215.793 61.1566 216.179 61.1523C216.558 61.16 216.933 61.0874 217.282 60.9393C217.631 60.7912 217.945 60.5707 218.204 60.2924C218.747 59.7313 219.052 58.9782 219.052 58.194C219.052 57.4098 218.747 56.6567 218.204 56.0956C217.94 55.8161 217.622 55.5944 217.269 55.4442C216.916 55.2941 216.536 55.2187 216.154 55.2229L216.141 55.2101Z" fill="white"/>
<path d="M218.42 62.718H213.874V80.9553H218.42V62.718Z" fill="white"/>
<path d="M225.895 55.6721H221.349V80.9425H225.895V55.6721Z" fill="white"/>
<path d="M242.691 64.7202C241.939 63.9345 241.044 63.3026 240.055 62.8592C239.088 62.4462 238.048 62.2365 236.999 62.2432C235.863 62.2296 234.739 62.4634 233.701 62.9286C232.664 63.3938 231.738 64.0793 230.988 64.9383C229.302 66.8319 228.416 69.3138 228.518 71.8559C228.471 73.1055 228.672 74.352 229.11 75.5222C229.547 76.6924 230.212 77.7629 231.065 78.6708C231.824 79.5353 232.758 80.2272 233.802 80.7007C234.847 81.1742 235.98 81.4185 237.126 81.4173C238.121 81.4248 239.108 81.2328 240.029 80.8526C241.021 80.4113 241.923 79.7891 242.691 79.0173V80.981H247.236V55.6721H242.703V64.656L242.691 64.7202ZM241.417 75.719C240.967 76.2084 240.418 76.5955 239.808 76.8544C239.197 77.1133 238.539 77.2381 237.877 77.2206C237.221 77.2359 236.569 77.1073 235.966 76.8436C235.364 76.5799 234.825 76.1874 234.388 75.6933C233.439 74.6437 232.932 73.2628 232.975 71.8431C232.917 70.4256 233.415 69.0422 234.363 67.9929C234.806 67.5044 235.348 67.1176 235.952 66.8585C236.556 66.5995 237.208 66.4742 237.865 66.4913C238.528 66.4733 239.188 66.5953 239.802 66.8494C240.416 67.1036 240.97 67.4843 241.43 67.9672C241.907 68.4828 242.277 69.0886 242.519 69.7495C242.762 70.4104 242.872 71.1133 242.843 71.8174C242.9 73.2624 242.392 74.6721 241.43 75.7446L241.417 75.719Z" fill="white"/>
<path d="M259.652 62.2431C258.407 62.2103 257.168 62.4386 256.015 62.9136C254.862 63.3886 253.82 64.0999 252.954 65.0024C252.069 65.9173 251.376 67.0026 250.917 68.1933C250.457 69.384 250.241 70.6558 250.28 71.9328C250.237 73.1872 250.453 74.437 250.913 75.6033C251.373 76.7696 252.068 77.8271 252.954 78.7092C253.865 79.6149 254.952 80.3225 256.145 80.7883C257.339 81.2541 258.615 81.4681 259.894 81.4172C261.526 81.4621 263.147 81.1284 264.631 80.4418C266.011 79.7445 267.19 78.7016 268.056 77.413L264.236 75.6034C263.664 76.1819 262.983 76.639 262.233 76.9476C261.482 77.2562 260.678 77.4101 259.868 77.4002C258.604 77.4479 257.363 77.0433 256.366 76.2579C255.442 75.4733 254.839 74.3714 254.673 73.1649H269.253V72.2922C269.318 70.9611 269.116 69.6304 268.659 68.38C268.202 67.1295 267.499 65.9851 266.592 65.0153C265.685 64.0962 264.599 63.3765 263.402 62.9016C262.205 62.4267 260.924 62.2068 259.639 62.2559L259.652 62.2431ZM254.877 69.5457C255.232 68.6326 255.805 67.8216 256.545 67.1842C257.507 66.462 258.681 66.0827 259.881 66.1062C260.978 66.0856 262.053 66.4183 262.95 67.0559C263.803 67.6541 264.427 68.528 264.72 69.5329H254.877V69.5457Z" fill="white"/>
<path d="M276.766 63.0132C276.021 63.5085 275.426 64.2013 275.047 65.0153V62.718H271.227V80.9809H275.734V72.6901C275.597 70.9479 275.835 69.1964 276.435 67.5564C276.583 67.1981 276.826 66.8883 277.139 66.6616C277.452 66.435 277.821 66.3004 278.205 66.273C278.653 66.3104 279.087 66.4462 279.478 66.6709L280.891 62.7308C280.318 62.4371 279.688 62.2749 279.045 62.256C278.228 62.2503 277.428 62.4966 276.753 62.9618L276.766 63.0132Z" fill="white"/>
<path d="M289.283 69.8793L287.615 69.045C287.123 68.8376 286.667 68.5516 286.265 68.198C286.092 68.0133 285.993 67.7714 285.985 67.5178C285.985 67.3573 286.024 67.1993 286.1 67.0581C286.175 66.9169 286.285 66.797 286.418 66.7092C286.772 66.4748 287.192 66.3622 287.615 66.3884C288.839 66.5419 289.954 67.1732 290.722 68.1467L293.536 65.3103C292.854 64.3419 291.949 63.5538 290.9 63.013C289.872 62.4965 288.738 62.2284 287.589 62.2301C286.037 62.1695 284.522 62.7169 283.362 63.7574C282.837 64.2161 282.417 64.7841 282.131 65.4223C281.846 66.0604 281.701 66.7535 281.706 67.4536C281.706 69.6867 283.171 71.5477 286.1 73.0364L287.628 73.8065C288.901 74.4739 289.601 75.1669 289.601 75.8728C289.593 76.0709 289.539 76.2645 289.444 76.4381C289.349 76.6118 289.216 76.761 289.054 76.8738C288.634 77.1828 288.121 77.3368 287.602 77.3102C286.932 77.277 286.281 77.0787 285.705 76.7327C284.992 76.3502 284.357 75.8365 283.833 75.2182L281.044 78.2856C281.772 79.2902 282.733 80.0998 283.843 80.6435C284.953 81.1872 286.178 81.4484 287.411 81.4043C289.143 81.495 290.844 80.9115 292.161 79.7743C293.137 78.8671 293.755 77.6345 293.9 76.3041C294.045 74.9737 293.708 73.6353 292.95 72.5359C291.967 71.3802 290.734 70.467 289.347 69.8664L289.283 69.8793Z" fill="white"/>
<path d="M313.732 55.2099H309.147C307.887 57.0562 306.904 59.0802 306.231 61.2163C305.599 63.4523 305.298 65.7705 305.34 68.0954C305.304 70.4461 305.586 72.7908 306.181 75.0643C306.862 77.3343 307.861 79.495 309.147 81.4813H313.732C312.324 79.7883 311.182 77.8883 310.344 75.8472C309.449 73.3824 309.017 70.771 309.071 68.1467C309.027 65.7046 309.42 63.2745 310.23 60.9724C311.038 58.83 312.229 56.8552 313.744 55.1458L313.732 55.2099Z" fill="white"/>
<path d="M329.063 57.0454C327.196 56.447 325.238 56.1948 323.282 56.301H318.341V80.981H323.002V70.5083C324.645 70.5752 326.291 70.4459 327.904 70.1233C329.332 69.7378 330.602 68.9067 331.533 67.749C332.454 66.5174 332.926 65.0037 332.87 63.4624C332.909 62.062 332.556 60.6789 331.852 59.471C331.199 58.3896 330.222 57.5448 329.063 57.0582V57.0454ZM327.981 64.8485C327.724 65.2371 327.348 65.5302 326.911 65.6827C326.118 65.893 325.298 65.9796 324.479 65.9394H323.002V60.8828H324.275C325.284 60.8023 326.298 60.9697 327.229 61.3705C327.585 61.581 327.875 61.8868 328.069 62.2538C328.262 62.6209 328.35 63.0348 328.324 63.4496C328.342 63.9461 328.204 64.4357 327.93 64.8485H327.981Z" fill="white"/>
<path d="M343.516 73.473L338.944 62.718H334.322L342.038 80.9424H344.98L352.684 62.718H348.074L343.516 73.473Z" fill="white"/>
<path d="M359.738 55.9929H355.192V62.718H352.875V66.6452H355.192V80.9424H359.738V66.6452H362.425V62.718H359.738V55.9929Z" fill="white"/>
<path d="M369.008 55.21H364.424C365.822 56.8792 366.968 58.7475 367.824 60.7543C368.723 63.2182 369.155 65.8302 369.097 68.4548C369.141 70.901 368.749 73.3353 367.939 75.6418C367.133 77.7818 365.942 79.7529 364.424 81.4557H369.008C370.264 79.6067 371.246 77.5834 371.924 75.4493C372.557 73.2133 372.857 70.8951 372.816 68.5703C372.852 66.2195 372.569 63.8748 371.975 61.6013C371.288 59.3536 370.289 57.2149 369.008 55.2485V55.21Z" fill="white"/>
<path d="M390.439 56.2881H385.779V80.9424H397.213V76.4761H390.439V56.2881Z" fill="white"/>
<path d="M404.663 55.9929H400.129V62.718H397.799V66.6452H400.129V80.9424H404.663V66.6452H407.362V62.718H404.663V55.9929Z" fill="white"/>
<path d="M422.464 64.7202C421.713 63.9345 420.818 63.3026 419.828 62.8592C418.862 62.4462 417.822 62.2365 416.772 62.2432C415.637 62.2296 414.512 62.4634 413.475 62.9286C412.437 63.3938 411.512 64.0793 410.762 64.9383C409.076 66.8319 408.19 69.3138 408.292 71.8559C408.245 73.1055 408.446 74.352 408.883 75.5222C409.32 76.6924 409.985 77.7629 410.838 78.6708C411.598 79.5353 412.531 80.2272 413.576 80.7007C414.621 81.1742 415.754 81.4185 416.9 81.4173C417.895 81.4248 418.882 81.2328 419.803 80.8526C420.794 80.4113 421.697 79.7891 422.464 79.0173V80.981H427.01V55.6721H422.464V64.656V64.7202ZM421.254 75.719C420.798 76.215 420.241 76.606 419.622 76.8652C419.002 77.1243 418.334 77.2456 417.664 77.2206C417.007 77.2359 416.355 77.1073 415.752 76.8436C415.15 76.5799 414.612 76.1874 414.175 75.6933C413.225 74.6437 412.718 73.2628 412.761 71.8431C412.703 70.4256 413.202 69.0422 414.149 67.9929C414.59 67.4958 415.132 67.1007 415.739 66.8349C416.346 66.569 417.002 66.4387 417.664 66.4528C418.327 66.4348 418.987 66.5568 419.601 66.8109C420.215 67.0651 420.77 67.4458 421.229 67.9287C421.706 68.4443 422.076 69.0501 422.319 69.711C422.561 70.3719 422.671 71.0748 422.642 71.7789C422.699 73.2239 422.191 74.6336 421.229 75.7061L421.254 75.719Z" fill="white"/>
<path d="M435.236 76.9382C434.995 76.6933 434.707 76.5001 434.389 76.3699C434.072 76.2398 433.732 76.1756 433.39 76.181C433.047 76.1756 432.707 76.2398 432.39 76.3699C432.073 76.5001 431.785 76.6933 431.543 76.9382C431.3 77.1789 431.106 77.4666 430.975 77.7841C430.844 78.1015 430.777 78.4424 430.779 78.7863C430.779 79.4841 431.054 80.1533 431.544 80.6467C432.033 81.1401 432.697 81.4173 433.39 81.4173C434.082 81.4173 434.746 81.1401 435.235 80.6467C435.725 80.1533 436 79.4841 436 78.7863C436.007 78.4416 435.943 78.0992 435.812 77.781C435.68 77.4627 435.484 77.1757 435.236 76.9382Z" fill="white"/>
<path d="M126.012 27.3727L109.535 1.8457H102.506V40.6432H109.84V15.1932L126.292 40.6432H133.347V1.8457H126.012V27.3727Z" fill="white"/>
<path d="M153.53 19.1589L166.964 1.8457H158.165L147.723 15.2188V1.8457H140.312V40.6432H147.723V23.407L159.591 40.6432H168.275L153.53 19.1589Z" fill="white"/>
<path d="M193.399 1.8457L178.551 40.6432H186.191L189.324 32.6475H205.012L208.03 40.6432H215.67L200.835 1.8457H193.399ZM191.998 25.4604L197.168 12.1386L202.261 25.4604H191.998Z" fill="white"/>
<path d="M229.371 23.2275L226.824 21.9441C226.05 21.6307 225.328 21.1977 224.685 20.6607C224.528 20.4993 224.409 20.3048 224.335 20.0912C224.262 19.8776 224.237 19.6503 224.261 19.4256C224.285 19.2009 224.359 18.9845 224.476 18.7919C224.594 18.5994 224.752 18.4355 224.94 18.3121C225.496 17.9387 226.158 17.7585 226.824 17.7987C228.285 17.7987 229.914 18.6971 231.714 20.4938L236.133 16.0404C235.049 14.5343 233.623 13.3107 231.976 12.4714C230.328 11.6321 228.505 11.2013 226.659 11.2148C224.213 11.1218 221.827 11.9865 219.999 13.6276C219.173 14.349 218.512 15.2423 218.061 16.246C217.611 17.2497 217.381 18.3398 217.389 19.4415C217.389 22.958 219.694 25.8842 224.303 28.22L226.71 29.4392C228.785 30.4916 229.817 31.5825 229.817 32.6862C229.81 33.0004 229.728 33.3083 229.577 33.5833C229.426 33.8583 229.211 34.0922 228.951 34.2648C228.292 34.7496 227.486 34.9899 226.672 34.945C225.615 34.8909 224.588 34.5781 223.679 34.0338C222.56 33.4298 221.562 32.6202 220.738 31.6467L216.345 36.4723C217.483 38.0418 218.983 39.3083 220.716 40.1625C222.449 41.0167 224.362 41.4328 226.29 41.3749C229.014 41.5076 231.687 40.5898 233.764 38.8081C234.666 38.009 235.383 37.0203 235.865 35.9116C236.347 34.8028 236.582 33.6011 236.553 32.3911C236.593 30.5982 236.052 28.8411 235.012 27.3858C233.473 25.5822 231.543 24.1594 229.371 23.2275Z" fill="white"/>
<path d="M251.082 23.2275L248.459 21.9441C247.685 21.6358 246.967 21.2023 246.332 20.6607C246.064 20.3705 245.91 19.9918 245.899 19.5954C245.901 19.3425 245.963 19.0936 246.08 18.8701C246.198 18.6466 246.367 18.4551 246.574 18.312C247.13 17.9387 247.792 17.7585 248.459 17.7987C249.927 17.7987 251.557 18.697 253.349 20.4938L257.767 16.0404C256.682 14.5504 255.259 13.3444 253.616 12.5238C251.998 11.6936 250.211 11.2543 248.395 11.2404C245.949 11.1475 243.563 12.0121 241.736 13.6532C240.92 14.3801 240.271 15.2759 239.831 16.2794C239.392 17.2829 239.172 18.3703 239.189 19.4671C239.189 22.9836 241.494 25.9098 246.103 28.2456L248.51 29.4649C250.585 30.5172 251.63 31.6081 251.63 32.7119C251.62 33.0254 251.536 33.332 251.386 33.6065C251.235 33.881 251.022 34.1155 250.764 34.2905C250.104 34.7752 249.299 35.0155 248.484 34.9707C247.428 34.9165 246.401 34.6038 245.492 34.0595C244.37 33.4599 243.371 32.6496 242.55 31.6723L238.119 36.4723C239.257 38.0417 240.758 39.3083 242.49 40.1625C244.223 41.0166 246.136 41.4328 248.064 41.3749C250.789 41.5076 253.461 40.5898 255.539 38.8081C256.441 38.009 257.158 37.0203 257.64 35.9115C258.122 34.8028 258.356 33.6011 258.327 32.391C258.367 30.5982 257.826 28.8411 256.787 27.3857C255.23 25.5788 253.283 24.1562 251.095 23.2275H251.082Z" fill="white"/>
<path d="M283.005 13.2424C280.7 11.9089 278.087 11.2096 275.429 11.2146C271.773 11.1841 268.243 12.5613 265.56 15.0648C263.984 16.4627 262.729 18.1909 261.885 20.1284C261.04 22.0659 260.626 24.166 260.67 26.2818C260.633 28.2631 260.998 30.2311 261.742 32.0651C262.487 33.8991 263.595 35.5604 265 36.947C266.351 38.3612 267.977 39.4805 269.775 40.2355C271.573 40.9906 273.506 41.3652 275.454 41.3362C278.131 41.3667 280.767 40.6802 283.094 39.3469C285.379 38.0367 287.268 36.1246 288.557 33.8155C289.879 31.5058 290.569 28.8839 290.556 26.2177C290.567 23.5659 289.875 20.9594 288.552 18.6672C287.229 16.375 285.323 14.4801 283.031 13.1782L283.005 13.2424ZM281.108 32.3395C280.392 33.105 279.525 33.7098 278.561 34.1145C277.598 34.5192 276.561 34.7147 275.518 34.6882C274.48 34.7242 273.446 34.5354 272.486 34.1347C271.526 33.734 270.662 33.1306 269.953 32.3652C269.209 31.5489 268.632 30.5923 268.257 29.5504C267.881 28.5086 267.713 27.4021 267.763 26.2947C267.714 25.2009 267.882 24.1082 268.258 23.0811C268.634 22.0539 269.211 21.113 269.953 20.314C271.431 18.8257 273.435 17.9897 275.524 17.9897C277.613 17.9897 279.617 18.8257 281.095 20.314C281.836 21.1198 282.411 22.0654 282.786 23.0963C283.162 24.1273 283.332 25.223 283.285 26.3203C283.333 27.4186 283.165 28.5155 282.791 29.5483C282.417 30.5811 281.845 31.5296 281.108 32.3395Z" fill="white"/>
<path d="M309.262 17.9012C310.567 17.876 311.865 18.1071 313.082 18.5814C314.343 19.1581 315.47 19.9929 316.393 21.0328L322.339 17.7344C320.938 15.6932 319.039 14.0492 316.826 12.9601C314.447 11.795 311.83 11.2103 309.186 11.2532C306.304 11.2101 303.457 11.8986 300.909 13.2553C298.513 14.5166 296.515 16.4282 295.14 18.774C293.477 21.6259 292.791 24.9499 293.186 28.2338C293.582 31.5177 295.038 34.5794 297.331 36.947C300.166 39.9331 304.088 41.4261 309.097 41.4261C314.665 41.4261 318.974 39.424 322.021 35.4198L316.393 31.5696C315.481 32.6468 314.333 33.4969 313.041 34.0535C311.749 34.6101 310.347 34.858 308.944 34.7781C307.799 34.8301 306.655 34.6515 305.579 34.2526C304.503 33.8537 303.517 33.2426 302.679 32.4551C301.889 31.6817 301.269 30.7497 300.858 29.7195C300.448 28.6893 300.257 27.5837 300.298 26.4744C300.266 25.3284 300.471 24.1883 300.898 23.1259C301.325 22.0634 301.966 21.1017 302.781 20.3012C303.647 19.4845 304.667 18.8504 305.78 18.4361C306.893 18.0218 308.077 17.8356 309.262 17.8884V17.9012Z" fill="white"/>
<path d="M333.29 11.9463H326.147V40.6433H333.29V11.9463Z" fill="white"/>
<path d="M329.712 0.126089C329.114 0.118112 328.521 0.233556 327.97 0.465312C327.418 0.697069 326.919 1.04023 326.503 1.47367C326.072 1.89375 325.73 2.39872 325.5 2.95727C325.27 3.51582 325.157 4.11603 325.166 4.7207C325.159 5.34228 325.273 5.95928 325.502 6.5363C325.732 7.11332 326.072 7.63901 326.503 8.08323C326.925 8.5362 327.436 8.89396 328.005 9.13289C328.573 9.37183 329.186 9.48649 329.801 9.46931C330.397 9.48068 330.988 9.36541 331.537 9.13101C332.085 8.89661 332.579 8.54834 332.985 8.1089C333.417 7.68114 333.758 7.16932 333.988 6.60452C334.218 6.03973 334.331 5.43375 334.322 4.82337C334.332 4.20725 334.218 3.59547 333.988 3.02442C333.759 2.45337 333.417 1.93473 332.985 1.49934C332.565 1.05196 332.057 0.698509 331.493 0.461925C330.93 0.225342 330.323 0.11092 329.712 0.126089Z" fill="white"/>
<path d="M358.923 15.1163C357.742 13.8718 356.326 12.877 354.759 12.1901C353.239 11.534 351.6 11.2019 349.946 11.2147C348.154 11.2017 346.38 11.5804 344.746 12.3249C343.113 13.0693 341.659 14.1618 340.485 15.527C337.829 18.5097 336.431 22.4184 336.588 26.4231C336.517 28.3914 336.836 30.3543 337.527 32.1967C338.218 34.0391 339.267 35.7239 340.612 37.1524C341.817 38.502 343.293 39.5785 344.941 40.3108C346.59 41.0431 348.374 41.4145 350.175 41.4005C351.738 41.4158 353.288 41.1147 354.734 40.515C356.293 39.8176 357.713 38.8389 358.923 37.6273V40.6561H366.067V11.9463H358.923V15.1163ZM357.026 32.4295C356.315 33.1979 355.45 33.8048 354.488 34.2098C353.527 34.6148 352.49 34.8085 351.449 34.7781C350.416 34.8043 349.39 34.6032 348.442 34.1887C347.494 33.7742 346.647 33.1563 345.96 32.3781C344.449 30.7115 343.649 28.5126 343.732 26.2563C343.643 24.0252 344.43 21.8486 345.922 20.1986C346.622 19.4301 347.478 18.8226 348.432 18.4174C349.385 18.0121 350.414 17.8186 351.449 17.8499C352.491 17.8239 353.528 18.017 354.493 18.417C355.457 18.8169 356.329 19.4149 357.051 20.1729C357.802 20.986 358.384 21.9415 358.765 22.9837C359.145 24.0259 359.316 25.134 359.267 26.2434C359.352 28.5215 358.547 30.7423 357.026 32.4295Z" fill="white"/>
<path d="M379.424 1.37085H372.281V11.9461H368.614V18.145H372.281V40.6432H379.424V18.145H383.665V11.9461H379.424V1.37085Z" fill="white"/>
<path d="M399.009 11.2019C397.052 11.147 395.105 11.5032 393.292 12.2478C391.479 12.9924 389.84 14.1091 388.478 15.527C387.087 16.968 385.998 18.6765 385.276 20.5507C384.554 22.4249 384.214 24.4265 384.276 26.436C384.209 28.4107 384.549 30.378 385.275 32.2137C386 34.0493 387.095 35.7135 388.491 37.1011C389.925 38.5238 391.634 39.6356 393.51 40.3684C395.387 41.1011 397.392 41.4393 399.404 41.362C401.975 41.4268 404.527 40.9001 406.865 39.8219C409.04 38.7273 410.899 37.0877 412.265 35.0605L406.203 32.2113C405.302 33.1242 404.228 33.8446 403.044 34.3297C401.86 34.8148 400.592 35.0546 399.314 35.0348C397.321 35.1145 395.365 34.4726 393.801 33.2252C392.358 31.9877 391.423 30.2542 391.178 28.3611H414.098V26.9878C414.202 24.8947 413.889 22.8018 413.176 20.8331C412.463 18.8645 411.365 17.0601 409.947 15.527C408.518 14.0846 406.809 12.9557 404.927 12.2113C403.044 11.467 401.029 11.1233 399.009 11.2019ZM391.496 22.7526C392.056 21.315 392.957 20.0372 394.119 19.0307C395.635 17.9005 397.48 17.3092 399.365 17.3494C401.096 17.3168 402.791 17.843 404.204 18.851C405.538 19.7803 406.521 21.1373 406.993 22.7013L391.496 22.7526Z" fill="white"/>
<path d="M434.446 27.4242C432.901 25.6018 430.957 24.1653 428.767 23.2274L426.144 21.944C425.371 21.6357 424.652 21.2022 424.018 20.6606C423.742 20.3753 423.587 19.9935 423.585 19.5954C423.586 19.3424 423.648 19.0935 423.766 18.87C423.883 18.6465 424.053 18.455 424.26 18.3119C424.816 17.9386 425.477 17.7584 426.144 17.7986C427.604 17.7986 429.234 18.697 431.034 20.4937L435.491 15.9505C434.408 14.4726 432.996 13.2725 431.368 12.4475C429.739 11.6225 427.941 11.1957 426.119 11.2019C423.673 11.1089 421.286 11.9736 419.459 13.6147C418.633 14.3268 417.968 15.2103 417.511 16.2047C417.054 17.1991 416.815 18.2812 416.81 19.3772C416.81 22.8937 419.115 25.8199 423.725 28.1557L426.131 29.3749C428.207 30.4273 429.251 31.5182 429.251 32.622C429.241 32.9355 429.158 33.2421 429.007 33.5166C428.857 33.7911 428.644 34.0256 428.385 34.2006C427.723 34.6797 426.92 34.9194 426.106 34.8808C425.05 34.8266 424.023 34.5139 423.114 33.9695C422.009 33.3811 421.024 32.5888 420.21 31.6337L415.817 36.4594C416.955 38.0297 418.455 39.2968 420.188 40.1511C421.921 41.0053 423.834 41.421 425.762 41.362C428.487 41.4947 431.159 40.5769 433.237 38.7952C434.776 37.3716 435.752 35.4353 435.986 33.3433C436.22 31.2513 435.696 29.1445 434.51 27.4113L434.446 27.4242Z" fill="white"/>
</g>
<defs>
<clipPath id="clip0_380_2696">
<rect width="436" height="109" fill="white" transform="translate(0 0.125977)"/>
</clipPath>
</defs>
</svg>
