<svg width="56" height="35" viewBox="0 0 56 35" fill="none" xmlns="http://www.w3.org/2000/svg">
<path fill-rule="evenodd" clip-rule="evenodd" d="M45.1178 0.573625C44.5542 1.13561 44.1669 2.09917 44.1669 2.93946C44.1669 3.77976 44.5542 4.74333 45.1178 5.30531C45.6015 5.78769 45.8127 5.87454 46.5023 5.87454C47.1903 5.87454 47.4033 5.78752 47.8816 5.31048C49.0331 4.16218 49.0399 1.81533 47.895 0.604875C47.402 0.0836406 47.2189 0.00439453 46.5078 0.00439453C45.812 0.00439453 45.6025 0.0902018 45.1178 0.573625ZM47.1849 1.76941C47.3331 1.98039 47.4545 2.50697 47.4545 2.93946C47.4545 4.26784 46.6475 4.91235 45.8667 4.20759C45.6384 4.00162 45.5501 3.67496 45.5501 3.03753C45.5501 2.00249 45.9057 1.3856 46.5023 1.3856C46.7331 1.3856 47.0345 1.55515 47.1849 1.76941ZM14.3855 4.64457C12.6374 5.21518 11.323 6.75575 11.016 8.59379L10.8934 9.32756H12.4722C13.8264 9.32756 14.0638 9.28457 14.1407 9.02542C14.4175 8.0919 14.8561 7.51248 15.4579 7.28544C16.0309 7.06911 16.1639 7.0774 16.7563 7.3659C17.2622 7.61227 17.4752 7.85709 17.6682 8.41406C17.8929 9.06237 17.89 9.2036 17.6407 9.72483C17.3265 10.3821 16.449 10.8814 15.6085 10.8814H15.065L15.1154 12.3058L15.1656 13.7302L15.9932 13.825C18.0905 14.0653 18.7657 16.7821 16.9596 17.7136C15.9345 18.2421 14.6692 17.5881 14.2643 16.3199L14.099 15.802L12.5706 15.7517C11.7298 15.7241 10.9838 15.763 10.9127 15.8381C10.8415 15.9132 10.932 16.4522 11.114 17.0359C11.5382 18.3964 12.6414 19.6556 13.9054 20.222C15.1384 20.7747 17.3774 20.7954 18.5505 20.2652C20.2276 19.5071 21.2013 18.1828 21.4146 16.3698C21.5739 15.0162 21.2562 14.0924 20.2759 13.0584L19.4395 12.1763L19.8713 11.6584C21.3336 9.90456 21.3348 7.59483 19.8746 6.07498C18.9253 5.08673 17.7846 4.61436 16.2044 4.55496C15.4426 4.52648 14.6241 4.5667 14.3855 4.64457ZM38.1458 4.77095C37.1279 5.14439 35.6771 6.51714 35.1018 7.65111C34.43 8.97483 34.1335 10.1877 34.0163 12.09C33.7855 15.836 35.2005 18.9197 37.7128 20.1454C39.0166 20.7816 40.9302 20.8134 42.0875 20.2184C44.6217 18.9151 45.7589 16.8793 45.9948 13.224C46.2457 9.33705 44.7824 6.07205 42.2945 4.96812C41.2258 4.49402 39.1676 4.39612 38.1458 4.77095ZM26.4901 5.39974C25.0571 7.35709 23.3717 10.056 22.8905 11.1639C21.4707 14.4327 21.7567 17.3558 23.6774 19.2034C26.5142 21.9321 31.8561 20.6804 33.1809 16.9764C33.5 16.0843 33.4899 14.051 33.1619 13.0905C32.8203 12.0908 31.8971 11.0114 30.871 10.4118C30.2721 10.0618 29.7538 9.92131 28.8052 9.8519L27.5388 9.75919L29.273 7.34449C30.2268 6.01628 31.0071 4.8704 31.0071 4.79788C31.0071 4.72537 30.1116 4.66598 29.0171 4.66598H27.0273L26.4901 5.39974ZM41.1501 8.09984C42.6809 9.03077 43.2412 13.633 42.0961 15.8714C41.1288 17.7621 39.2677 17.976 38.1344 16.3267C36.7334 14.2877 37.1924 9.11986 38.865 8.10277C39.5511 7.68547 40.4668 7.68427 41.1501 8.09984ZM6.87524 10.5736C4.80512 11.8041 3.31533 13.0682 2.35757 14.4068C-1.65266 20.0109 2.38821 26 12.4296 29.3351C14.5972 30.055 17.5856 30.7702 19.7901 31.0966L21.1253 31.2943L21.1752 32.6515L21.2252 34.0087L26.1111 31.3798C28.7985 29.9338 30.9984 28.6731 31.0002 28.5782C31.0024 28.4495 22.1324 23.5126 21.2809 23.1685C21.2027 23.1367 21.1386 23.6953 21.1386 24.4093V25.7077L20.4894 25.6151C12.4383 24.4673 6.29733 21.611 4.93185 18.3785C4.56758 17.5162 4.57347 16.1658 4.94518 15.3042C5.31153 14.4551 6.72981 12.9522 7.82798 12.2495L8.67321 11.7088V10.6908C8.67321 10.1309 8.6095 9.67286 8.53176 9.67286C8.45385 9.67286 7.70852 10.0782 6.87524 10.5736ZM48.147 10.6723V11.7088L49.0078 12.2595C50.3853 13.1409 51.7307 14.707 52.0492 15.7994C53.0143 19.1102 49.6382 22.1492 42.6351 24.2738C40.6532 24.875 36.7877 25.6103 34.5563 25.8104C33.8897 25.8703 33.0523 25.961 32.6951 26.0121L32.0459 26.1051V28.8746V31.6441L33.4742 31.5245C41.3904 30.8615 48.6385 28.394 52.6993 24.9793C53.8235 24.0342 55.1566 22.2467 55.6169 21.0678C56.1206 19.778 56.1291 17.7113 55.6358 16.4537C54.8075 14.3422 52.8887 12.3339 50.1119 10.6727C48.0726 9.45273 48.147 9.45273 48.147 10.6723ZM28.7801 12.8792C29.1122 13.0504 29.4331 13.4367 29.6504 13.9266C30.1132 14.9698 29.9602 15.8619 29.1762 16.6908C28.6068 17.293 28.5583 17.3092 27.5498 17.2365C26.3364 17.149 25.7482 16.7201 25.4416 15.6994C25.0864 14.5173 25.5668 13.4684 26.7654 12.8089C27.265 12.534 28.1722 12.5656 28.7801 12.8792Z" fill="url(#paint0_linear_171_4485)"/>
<defs>
<linearGradient id="paint0_linear_171_4485" x1="28.4132" y1="0.00439453" x2="28.4132" y2="34.0087" gradientUnits="userSpaceOnUse">
<stop stop-color="#E4404A"/>
<stop offset="1" stop-color="#EB4B5E"/>
</linearGradient>
</defs>
</svg>
