<svg width="13" height="19" viewBox="0 0 13 19" fill="none" xmlns="http://www.w3.org/2000/svg">
<path d="M6.3996 9.48604C5.80287 9.48604 5.23057 9.24898 4.80862 8.82703C4.38666 8.40507 4.14961 7.83277 4.14961 7.23603C4.14961 6.6393 4.38666 6.067 4.80862 5.64504C5.23057 5.22309 5.80287 4.98603 6.3996 4.98603C6.99634 4.98603 7.56864 5.22309 7.99059 5.64504C8.41255 6.067 8.6496 6.6393 8.6496 7.23603C8.6496 7.53151 8.5914 7.82409 8.47833 8.09707C8.36526 8.37006 8.19952 8.61809 7.99059 8.82703C7.78166 9.03596 7.53362 9.20169 7.26064 9.31476C6.98766 9.42784 6.69508 9.48604 6.3996 9.48604ZM6.3996 0.936035C4.72874 0.936035 3.12631 1.59978 1.94484 2.78126C0.763357 3.96274 0.0996094 5.56517 0.0996094 7.23603C0.0996094 11.961 6.3996 18.936 6.3996 18.936C6.3996 18.936 12.6996 11.961 12.6996 7.23603C12.6996 5.56517 12.0359 3.96274 10.8544 2.78126C9.6729 1.59978 8.07047 0.936035 6.3996 0.936035Z" fill="url(#paint0_linear_241_3407)"/>
<defs>
<linearGradient id="paint0_linear_241_3407" x1="6.3996" y1="0.936035" x2="6.3996" y2="18.936" gradientUnits="userSpaceOnUse">
<stop stop-color="#E4404A"/>
<stop offset="1" stop-color="#EB4B5E"/>
</linearGradient>
</defs>
</svg>
