<svg width="15" height="25" viewBox="0 0 15 25" fill="none" xmlns="http://www.w3.org/2000/svg">
<path fill-rule="evenodd" clip-rule="evenodd" d="M0.737573 22.8255C0.84396 23.0406 2.16724 24.3552 2.35758 24.4348C2.54329 24.5125 2.82085 24.5126 3.00769 24.435C3.20907 24.3515 14.4053 13.1555 14.5691 12.8738C14.7004 12.6482 14.7185 12.4234 14.6239 12.1941C14.5407 11.9927 3.22361 0.655044 2.99402 0.54323C2.80242 0.449861 2.5944 0.443846 2.39624 0.525848C2.21646 0.60026 0.844705 1.95359 0.7349 2.16482C0.637392 2.3525 0.637431 2.62942 0.735057 2.8169C0.778037 2.8995 2.87518 5.02808 5.56711 7.72144L10.3232 12.4801L5.55164 17.2588C2.1758 20.6398 0.762402 22.0804 0.71958 22.1838C0.636686 22.3841 0.643757 22.6358 0.737573 22.8255Z" fill="white"/>
</svg>
