<svg width="15" height="25" viewBox="0 0 15 25" fill="none" xmlns="http://www.w3.org/2000/svg">
<path fill-rule="evenodd" clip-rule="evenodd" d="M14.1587 22.8255C14.0523 23.0406 12.729 24.3552 12.5387 24.4348C12.353 24.5125 12.0754 24.5126 11.8885 24.435C11.6872 24.3515 0.490968 13.1555 0.327105 12.8738C0.195811 12.6482 0.177699 12.4234 0.272339 12.1941C0.355508 11.9927 11.6726 0.655044 11.9022 0.54323C12.0938 0.449861 12.3018 0.443846 12.5 0.525848C12.6798 0.60026 14.0515 1.95359 14.1613 2.16482C14.2588 2.3525 14.2588 2.62942 14.1612 2.8169C14.1182 2.8995 12.0211 5.02808 9.32913 7.72144L4.57305 12.4801L9.3446 17.2588C12.7204 20.6398 14.1338 22.0804 14.1767 22.1838C14.2596 22.3841 14.2525 22.6358 14.1587 22.8255Z" fill="white"/>
</svg>
