<svg width="28" height="28" viewBox="0 0 28 28" fill="none" xmlns="http://www.w3.org/2000/svg">
<path d="M3.96809 5.04487C3.96819 4.61413 4.11829 4.19687 4.39261 3.86478C4.66693 3.53269 5.04834 3.30651 5.47131 3.22508C5.89428 3.14365 6.3324 3.21207 6.71041 3.41857C7.08842 3.62508 7.3827 3.95678 7.54272 4.3567L7.70597 4.76257C7.00688 5.27372 6.4649 5.97044 6.14144 6.77379C5.68145 7.9014 5.67333 9.16283 6.11876 10.2963C6.16061 10.4022 6.22333 10.4987 6.30318 10.5799C6.38304 10.6612 6.47842 10.7256 6.58364 10.7692C6.68886 10.8129 6.80179 10.835 6.91571 10.8342C7.02963 10.8334 7.14223 10.8097 7.24681 10.7645L14.0038 7.85536C14.2066 7.76817 14.3676 7.60549 14.4527 7.40173C14.5377 7.19798 14.5402 6.96913 14.4595 6.76359C14.2434 6.20585 13.9184 5.69674 13.5034 5.26598C13.0884 4.83522 12.5918 4.49142 12.0425 4.25466C11.16 3.87599 10.1771 3.79946 9.2467 4.03699L9.12199 3.72522C8.81533 2.95815 8.25106 2.32186 7.52616 1.92571C6.80125 1.52955 5.96099 1.39828 5.14979 1.55446C4.3386 1.71063 3.60714 2.14449 3.08114 2.78148C2.55513 3.41846 2.26744 4.21878 2.26751 5.04487V12.8279H1.98408C1.75857 12.8279 1.54229 12.9174 1.38283 13.0769C1.22337 13.2364 1.13379 13.4526 1.13379 13.6782C1.13379 13.9037 1.22337 14.1199 1.38283 14.2794C1.54229 14.4389 1.75857 14.5284 1.98408 14.5284H2.26751V14.9309C2.26751 15.3561 2.26751 15.6055 2.28565 15.8832C2.44664 18.4194 3.81617 20.7605 5.80245 22.291C5.78637 22.3159 5.77161 22.3417 5.75824 22.3681L4.62452 24.6356C4.52586 24.8371 4.51085 25.0694 4.58275 25.282C4.65466 25.4945 4.80765 25.67 5.00839 25.7702C5.20913 25.8704 5.44134 25.8872 5.65443 25.817C5.86751 25.7467 6.04419 25.5951 6.14597 25.3952L7.24341 23.2014C8.15681 23.6679 9.14839 23.9619 10.1684 24.0687C10.4462 24.0971 10.6151 24.1027 10.9031 24.1141H10.911C11.75 24.1458 12.5708 24.1651 13.3213 24.1651C14.0718 24.1651 14.8926 24.1458 15.7316 24.1141H15.7395C16.0275 24.1027 16.1975 24.0971 16.4742 24.0687C17.4942 23.9619 18.4858 23.6679 19.3992 23.2014L20.4966 25.3963C20.5466 25.4962 20.6157 25.5853 20.7001 25.6585C20.7845 25.7316 20.8824 25.7875 20.9884 25.8228C21.0943 25.8581 21.2062 25.8722 21.3176 25.8643C21.429 25.8564 21.5378 25.8266 21.6377 25.7767C21.7376 25.7267 21.8267 25.6576 21.8999 25.5732C21.973 25.4888 22.0289 25.3909 22.0642 25.2849C22.0995 25.1789 22.1136 25.0671 22.1057 24.9556C22.0978 24.8442 22.068 24.7355 22.0181 24.6356L20.8843 22.3681C20.8713 22.3417 20.8569 22.316 20.8413 22.291C22.8264 20.7605 24.1971 18.4182 24.3581 15.8832C24.3751 15.6055 24.3751 15.3561 24.3751 14.9309V14.8878C24.3751 14.8198 24.3751 14.7484 24.3705 14.6838C24.3673 14.6318 24.362 14.58 24.3547 14.5284H24.6585C24.884 14.5284 25.1003 14.4389 25.2598 14.2794C25.4192 14.1199 25.5088 13.9037 25.5088 13.6782C25.5088 13.4526 25.4192 13.2364 25.2598 13.0769C25.1003 12.9174 24.884 12.8279 24.6585 12.8279H3.96809V5.04487Z" fill="url(#paint0_linear_171_4489)"/>
<defs>
<linearGradient id="paint0_linear_171_4489" x1="13.3213" y1="1.49036" x2="13.3213" y2="25.8665" gradientUnits="userSpaceOnUse">
<stop stop-color="#E4404A"/>
<stop offset="1" stop-color="#EB4B5E"/>
</linearGradient>
</defs>
</svg>
