<svg width="25" height="21" viewBox="0 0 25 21" fill="none" xmlns="http://www.w3.org/2000/svg">
<path d="M11.389 6.88534H13.0896V6.03504C13.0896 5.80953 13.1792 5.59326 13.3386 5.4338C13.4981 5.27434 13.7143 5.18475 13.9399 5.18475H16.4907C16.7162 5.18475 16.9325 5.27434 17.092 5.4338C17.2514 5.59326 17.341 5.80953 17.341 6.03504V6.88534H20.7422V3.48417C20.7422 2.58213 20.3839 1.71703 19.746 1.07919C19.1082 0.441344 18.2431 0.0830078 17.341 0.0830078H7.13753C6.23549 0.0830078 5.37039 0.441344 4.73255 1.07919C4.0947 1.71703 3.73637 2.58213 3.73637 3.48417V6.88534H7.13753V6.03504C7.13753 5.80953 7.22712 5.59326 7.38658 5.4338C7.54604 5.27434 7.76231 5.18475 7.98782 5.18475H10.5387C10.7642 5.18475 10.9805 5.27434 11.1399 5.4338C11.2994 5.59326 11.389 5.80953 11.389 6.03504V6.88534ZM4.58666 8.58592C3.4591 8.58592 2.37773 9.03384 1.58043 9.83114C0.783125 10.6284 0.335205 11.7098 0.335205 12.8374V19.6397C0.335205 19.8652 0.424789 20.0815 0.584249 20.2409C0.74371 20.4004 0.959985 20.49 1.1855 20.49C1.41101 20.49 1.62728 20.4004 1.78674 20.2409C1.9462 20.0815 2.03579 19.8652 2.03579 19.6397V15.3882H22.4428V19.6397C22.4428 19.8652 22.5324 20.0815 22.6918 20.2409C22.8513 20.4004 23.0675 20.49 23.2931 20.49C23.5186 20.49 23.7348 20.4004 23.8943 20.2409C24.0538 20.0815 24.1434 19.8652 24.1434 19.6397V12.8374C24.1434 11.7098 23.6954 10.6284 22.8981 9.83114C22.1008 9.03384 21.0195 8.58592 19.8919 8.58592H4.58666Z" fill="url(#paint0_linear_451_2544)"/>
<defs>
<linearGradient id="paint0_linear_451_2544" x1="12.2393" y1="0.0830078" x2="12.2393" y2="20.49" gradientUnits="userSpaceOnUse">
<stop stop-color="#E4404A"/>
<stop offset="1" stop-color="#EB4B5E"/>
</linearGradient>
</defs>
</svg>
