<svg width="25" height="22" viewBox="0 0 25 22" fill="none" xmlns="http://www.w3.org/2000/svg">
<path d="M11.9639 7.56038H13.6645V6.71009C13.6645 6.48458 13.7541 6.26831 13.9136 6.10885C14.073 5.94939 14.2893 5.8598 14.5148 5.8598H17.0657C17.2912 5.8598 17.5075 5.94939 17.6669 6.10885C17.8264 6.26831 17.916 6.48458 17.916 6.71009V7.56038H21.3171V4.15922C21.3171 3.25718 20.9588 2.39208 20.321 1.75423C19.6831 1.11639 18.818 0.758057 17.916 0.758057H7.71248C6.81044 0.758057 5.94534 1.11639 5.3075 1.75423C4.66966 2.39208 4.31132 3.25718 4.31132 4.15922V7.56038H7.71248V6.71009C7.71248 6.48458 7.80207 6.26831 7.96153 6.10885C8.12099 5.94939 8.33726 5.8598 8.56277 5.8598H11.1136C11.3392 5.8598 11.5554 5.94939 11.7149 6.10885C11.8744 6.26831 11.9639 6.48458 11.9639 6.71009V7.56038ZM5.16161 9.26097C4.03405 9.26097 2.95268 9.70889 2.15538 10.5062C1.35808 11.3035 0.910156 12.3849 0.910156 13.5124V20.3147C0.910156 20.5403 0.99974 20.7565 1.1592 20.916C1.31866 21.0755 1.53494 21.165 1.76045 21.165C1.98596 21.165 2.20223 21.0755 2.36169 20.916C2.52115 20.7565 2.61074 20.5403 2.61074 20.3147V16.0633H23.0177V20.3147C23.0177 20.5403 23.1073 20.7565 23.2668 20.916C23.4262 21.0755 23.6425 21.165 23.868 21.165C24.0935 21.165 24.3098 21.0755 24.4693 20.916C24.6287 20.7565 24.7183 20.5403 24.7183 20.3147V13.5124C24.7183 12.3849 24.2704 11.3035 23.4731 10.5062C22.6758 9.70889 21.5944 9.26097 20.4668 9.26097H5.16161Z" fill="url(#paint0_linear_171_4492)"/>
<defs>
<linearGradient id="paint0_linear_171_4492" x1="12.8142" y1="0.758057" x2="12.8142" y2="21.165" gradientUnits="userSpaceOnUse">
<stop stop-color="#E4404A"/>
<stop offset="1" stop-color="#EB4B5E"/>
</linearGradient>
</defs>
</svg>
