<svg width="36" height="29" viewBox="0 0 36 29" fill="none" xmlns="http://www.w3.org/2000/svg">
<path d="M31.9185 0.358887H4.08144C2.16764 0.358887 0.619205 1.92472 0.619205 3.83852L0.601807 24.7163C0.601807 26.6301 2.16764 28.1959 4.08144 28.1959H31.9185C33.8323 28.1959 35.3981 26.6301 35.3981 24.7163V3.83852C35.3981 1.92472 33.8323 0.358887 31.9185 0.358887ZM31.2226 7.75311L18.9221 15.4431C18.3653 15.7911 17.6346 15.7911 17.0779 15.4431L4.77737 7.75311C4.60291 7.65517 4.45014 7.52286 4.3283 7.36418C4.20646 7.20549 4.11809 7.02374 4.06852 6.82991C4.01896 6.63608 4.00924 6.43421 4.03996 6.23652C4.07067 6.03883 4.14118 5.84942 4.24721 5.67977C4.35325 5.51011 4.4926 5.36374 4.65684 5.2495C4.82109 5.13526 5.0068 5.05554 5.20274 5.01515C5.39869 4.97477 5.60079 4.97456 5.79682 5.01454C5.99285 5.05453 6.17873 5.13387 6.3432 5.24777L18 12.5376L29.6568 5.24777C29.8212 5.13387 30.0071 5.05453 30.2031 5.01454C30.3992 4.97456 30.6013 4.97477 30.7972 5.01515C30.9932 5.05554 31.1789 5.13526 31.3431 5.2495C31.5074 5.36374 31.6467 5.51011 31.7527 5.67977C31.8588 5.84942 31.9293 6.03883 31.96 6.23652C31.9907 6.43421 31.981 6.63608 31.9314 6.82991C31.8819 7.02374 31.7935 7.20549 31.6717 7.36418C31.5498 7.52286 31.397 7.65517 31.2226 7.75311Z" fill="url(#paint0_linear_253_22426)"/>
<defs>
<linearGradient id="paint0_linear_253_22426" x1="18" y1="0.358887" x2="18" y2="28.1959" gradientUnits="userSpaceOnUse">
<stop stop-color="#E4404A"/>
<stop offset="1" stop-color="#EB4B5E"/>
</linearGradient>
</defs>
</svg>
