<svg width="156" height="45" viewBox="0 0 156 45" fill="none" xmlns="http://www.w3.org/2000/svg">
<rect x="1.375" y="1" width="154" height="43" rx="21.5" fill="white" fill-opacity="0.15"/>
<path d="M35.147 22.988V21.58H39.691V25.964C38.651 27.02 36.923 27.692 35.371 27.692C32.283 27.692 29.643 25.084 29.643 21.996C29.643 18.908 32.283 16.316 35.371 16.316C36.923 16.316 38.651 16.972 39.691 18.044L38.555 19.132C37.803 18.316 36.507 17.804 35.371 17.804C33.163 17.804 31.307 19.724 31.307 21.996C31.307 24.284 33.163 26.204 35.371 26.204C36.299 26.204 37.339 25.868 38.091 25.292V22.988H35.147ZM45.7253 26.284C46.5893 26.284 47.5973 25.9 48.0933 25.388L49.0853 26.412C48.3493 27.196 46.9093 27.692 45.7413 27.692C43.4373 27.692 41.4853 25.884 41.4853 23.34C41.4853 20.86 43.3253 19.036 45.6133 19.036C48.1413 19.036 49.5972 20.956 49.5972 23.916H43.0853C43.2933 25.292 44.3013 26.284 45.7253 26.284ZM45.6773 20.444C44.3973 20.444 43.3573 21.308 43.1013 22.652H48.0613C47.8853 21.372 47.1013 20.444 45.6773 20.444ZM55.3053 26.012L55.8813 27.1C55.4333 27.468 54.8253 27.692 54.2333 27.692C52.9533 27.692 52.0573 26.764 52.0573 25.436V20.572H50.8092V19.228H52.0573V16.956H53.6093V19.228H55.5613V20.572H53.6093V25.324C53.6093 25.9 53.9933 26.316 54.4573 26.316C54.8093 26.316 55.1293 26.188 55.3053 26.012ZM62.8579 17.852C62.3139 17.852 61.8979 17.404 61.8979 16.892C61.8979 16.396 62.3139 15.948 62.8579 15.948C63.3699 15.948 63.8019 16.396 63.8019 16.892C63.8019 17.404 63.3699 17.852 62.8579 17.852ZM62.0579 27.5V19.228H63.6419V27.5H62.0579ZM70.1413 19.036C71.9653 19.036 73.2453 20.364 73.2453 22.236V27.5H71.6933V22.508C71.6933 21.276 70.9093 20.412 69.7893 20.412C68.6373 20.412 67.6453 21.164 67.5173 22.14V27.5H65.9333V19.228H67.5173V20.428C68.0133 19.612 69.0213 19.036 70.1413 19.036ZM83.1935 27.5V18.012H79.5935V16.508H88.4255V18.012H84.8095V27.5H83.1935ZM94.1345 27.692C91.7665 27.692 89.7665 25.708 89.7665 23.356C89.7665 21.004 91.7665 19.036 94.1345 19.036C96.4865 19.036 98.4705 21.004 98.4705 23.356C98.4705 25.708 96.4865 27.692 94.1345 27.692ZM94.1345 26.316C95.6225 26.316 96.8865 24.972 96.8865 23.356C96.8865 21.756 95.6225 20.412 94.1345 20.412C92.6145 20.412 91.3505 21.756 91.3505 23.356C91.3505 24.972 92.6145 26.316 94.1345 26.316ZM106.02 19.228H107.604V27.5H106.02V26.3C105.524 27.116 104.516 27.692 103.396 27.692C101.572 27.692 100.292 26.364 100.292 24.492V19.228H101.844V24.22C101.844 25.452 102.628 26.316 103.748 26.316C104.9 26.316 105.892 25.564 106.02 24.588V19.228ZM113.806 27.692C111.454 27.692 109.454 25.708 109.454 23.356C109.454 21.004 111.454 19.036 113.822 19.036C115.006 19.036 116.078 19.532 116.862 20.316L115.79 21.308C115.294 20.748 114.574 20.412 113.806 20.412C112.302 20.412 111.054 21.756 111.054 23.356C111.054 24.972 112.302 26.316 113.822 26.316C114.59 26.316 115.326 25.964 115.838 25.388L116.91 26.364C116.11 27.18 115.038 27.692 113.806 27.692ZM122.813 19.036C124.637 19.036 125.917 20.364 125.917 22.236V27.5H124.365V22.508C124.365 21.276 123.581 20.412 122.461 20.412C121.213 20.412 120.173 21.292 120.173 22.364V27.5H118.605V16.316H120.173V20.46C120.669 19.628 121.677 19.036 122.813 19.036Z" fill="#E74451"/>
<rect x="1.375" y="1" width="154" height="43" rx="21.5" stroke="#E74451"/>
</svg>
