<svg width="143" height="33" viewBox="0 0 143 33" fill="none" xmlns="http://www.w3.org/2000/svg">
<path fill-rule="evenodd" clip-rule="evenodd" d="M52.4018 20.0497H45.1903V22.1639H50.3048C50.052 25.1289 47.5554 26.3932 45.1988 26.3932C42.1838 26.3932 39.5528 24.0494 39.5528 20.7642C39.5528 17.564 42.0609 15.0993 45.2053 15.0993C47.6316 15.0993 49.0612 16.6274 49.0612 16.6274L50.5597 15.0943C50.5597 15.0943 48.6364 12.979 45.1288 12.979C40.6624 12.9788 37.207 16.7035 37.207 20.7265C37.207 24.6686 40.4573 28.5125 45.2427 28.5125C49.4513 28.5123 52.5321 25.6639 52.5321 21.4513C52.5321 20.5626 52.4016 20.0491 52.4016 20.0491L52.4018 20.0497Z" fill="#FFFFFE"/>
<path fill-rule="evenodd" clip-rule="evenodd" d="M58.5321 18.5186C55.5728 18.5186 53.4521 20.8041 53.4521 23.4702C53.4521 26.1752 55.5089 28.5036 58.5666 28.5036C61.3345 28.5036 63.6022 26.4131 63.6022 23.5282C63.6022 20.2214 60.9644 18.5186 58.5321 18.5186ZM58.5612 20.4793C60.0164 20.4793 61.3954 21.6416 61.3954 23.5147C61.3954 25.3479 60.0222 26.5435 58.5545 26.5435C56.9418 26.5435 55.6695 25.2674 55.6695 23.5003C55.6695 21.7708 56.9261 20.4793 58.5612 20.4793Z" fill="#FFFFFE"/>
<path fill-rule="evenodd" clip-rule="evenodd" d="M69.6996 18.5186C66.7404 18.5186 64.6196 20.8041 64.6196 23.4702C64.6196 26.1752 66.6766 28.5036 69.7344 28.5036C72.5022 28.5036 74.7698 26.4131 74.7698 23.5282C74.7698 20.2214 72.1322 18.5186 69.6996 18.5186ZM69.7291 20.4793C71.1843 20.4793 72.5633 21.6416 72.5633 23.5147C72.5633 25.3479 71.1901 26.5435 69.7223 26.5435C68.1098 26.5435 66.8376 25.2674 66.8376 23.5003C66.8376 21.7708 68.0939 20.4793 69.7291 20.4793Z" fill="#FFFFFE"/>
<path fill-rule="evenodd" clip-rule="evenodd" d="M80.6387 18.5237C77.9228 18.5237 75.7876 20.8741 75.7876 23.5122C75.7876 26.5172 78.2628 28.5101 80.5919 28.5101C82.0323 28.5101 82.7979 27.9452 83.3632 27.2969V28.2814C83.3632 30.0038 82.3047 31.0352 80.707 31.0352C79.1636 31.0352 78.3893 29.9014 78.1204 29.2578L76.1782 30.06C76.8674 31.4994 78.2542 33.0003 80.723 33.0003C83.4237 33.0003 85.4819 31.3198 85.4819 27.795V18.8238H83.3634V19.6696C82.712 18.976 81.8212 18.5238 80.6387 18.5238V18.5237ZM80.8349 20.481C82.1667 20.481 83.5342 21.6045 83.5342 23.5229C83.5342 25.473 82.1695 26.5478 80.8056 26.5478C79.3577 26.5478 78.0103 25.3861 78.0103 23.5416C78.0103 21.6249 79.4097 20.481 80.8349 20.481Z" fill="#FFFFFE"/>
<path fill-rule="evenodd" clip-rule="evenodd" d="M95.3469 18.512C92.7849 18.512 90.6338 20.5261 90.6338 23.4978C90.6338 26.6424 93.0315 28.5075 95.5931 28.5075C97.731 28.5075 99.043 27.352 99.8262 26.3164L98.0795 25.1682C97.6262 25.8632 96.8683 26.5426 95.6037 26.5426C94.1833 26.5425 93.5301 25.7739 93.1253 25.0295L99.901 22.2517L99.5491 21.4376C98.8946 19.8435 97.3678 18.5123 95.3471 18.5123L95.3469 18.512ZM95.4358 20.4318C96.359 20.4318 97.0234 20.9167 97.3055 21.4982L92.7807 23.3667C92.5857 21.9202 93.9729 20.4318 95.4356 20.4318H95.4358Z" fill="#FFFFFE"/>
<path fill-rule="evenodd" clip-rule="evenodd" d="M87.1807 28.2106H89.4062V13.4951H87.1807V28.2106Z" fill="#FFFFFE"/>
<path fill-rule="evenodd" clip-rule="evenodd" d="M117.02 28.2106H119.245V13.4951H117.02V28.2106Z" fill="#FFFFFE"/>
<path fill-rule="evenodd" clip-rule="evenodd" d="M105.218 28.2106H107.443V13.4951H105.218V28.2106Z" fill="#FFFFFE"/>
<path fill-rule="evenodd" clip-rule="evenodd" d="M107.443 15.6945V20.6723H110.601C111.982 20.6723 113.12 19.5481 113.12 18.1833C113.12 16.8187 111.982 15.6945 110.601 15.6945H107.443ZM105.218 13.4951H110.601C113.211 13.4951 115.346 15.6048 115.346 18.183C115.346 20.7615 113.211 22.8708 110.601 22.8708H105.218V13.4951Z" fill="#FFFFFE"/>
<path fill-rule="evenodd" clip-rule="evenodd" d="M135.677 33.0002L142.121 18.512H139.69L133.246 33.0002H135.677Z" fill="#FFFFFE"/>
<path fill-rule="evenodd" clip-rule="evenodd" d="M136.397 29.684L131.428 18.512H133.858L137.286 26.2173H136.397V29.684Z" fill="#FFFFFE"/>
<path fill-rule="evenodd" clip-rule="evenodd" d="M128.354 23.957C128.069 25.1807 127.109 26.0608 125.891 26.3887C123.318 27.0818 122.677 22.9505 126.502 23.5186C127.158 23.5969 127.731 23.7577 128.354 23.957ZM128.354 28.2109H130.579V22.9185C130.928 17.4599 123.923 16.176 121.273 20.111L123.064 21.2985C124.36 19.0599 128.058 19.5749 128.301 21.9739C127.189 21.6832 125.989 21.4721 124.892 21.5818C123.18 21.753 121.714 22.8275 121.481 24.5871C121.355 25.5377 121.57 26.7101 122.242 27.4244C123.289 28.537 125.008 28.6872 126.42 28.307C127.215 28.0927 127.841 27.6262 128.354 27.0232V28.2109Z" fill="#FFFFFE"/>
<path fill-rule="evenodd" clip-rule="evenodd" d="M46.0555 3.21362H42.6719V4.14881H45.0718C44.9531 5.46032 43.7817 6.01948 42.676 6.01948C41.2613 6.01948 40.0268 4.98274 40.0268 3.52972C40.0268 2.11422 41.2035 1.02396 42.6789 1.02396C43.8176 1.02396 44.4883 1.69992 44.4883 1.69992L45.1913 1.02182C45.1913 1.02182 44.2889 0.0861816 42.6431 0.0861816C40.5474 0.0860292 38.9263 1.73362 38.9263 3.51295C38.9263 5.2566 40.4513 6.95679 42.6964 6.95679C44.6713 6.95679 46.1169 5.69682 46.1169 3.83362C46.1169 3.44052 46.0555 3.21332 46.0555 3.21332V3.21362Z" fill="#FFFFFE"/>
<path fill-rule="evenodd" clip-rule="evenodd" d="M60.4985 6.95679H61.697V0.0861816H60.4985V6.95679Z" fill="#FFFFFE"/>
<path fill-rule="evenodd" clip-rule="evenodd" d="M53.9466 6.95679H55.0659V1.11277H56.9031V0.0861816C55.3053 0.0861816 53.7074 0.0861816 52.1094 0.0861816V1.11277H53.9466V6.95679Z" fill="#FFFFFE"/>
<path fill-rule="evenodd" clip-rule="evenodd" d="M47.3154 6.95679H50.9108V5.93021H48.253V4.03494H50.5908V3.0082H48.253V1.11277H50.9108V0.0861816H47.3154C47.3154 2.37644 47.3154 4.66654 47.3154 6.95679Z" fill="#FFFFFE"/>
<path fill-rule="evenodd" clip-rule="evenodd" d="M64.7323 6.95679H65.8515V1.11277H67.6888V0.0861816C66.0909 0.0861816 64.4929 0.0861816 62.895 0.0861816V1.11277H64.7323V6.95679Z" fill="#FFFFFE"/>
<path fill-rule="evenodd" clip-rule="evenodd" d="M73.6813 0.0861817C71.6541 0.0860292 70.0859 1.73361 70.0859 3.51325C70.0859 5.24318 71.5378 6.93011 73.6813 6.95679C75.8248 6.93011 77.2766 5.24318 77.2766 3.51325C77.2766 1.73361 75.7084 0.0860292 73.6813 0.0861817ZM73.6815 6.01975C72.3264 6.00374 71.1508 4.97194 71.1508 3.53008C71.1508 2.12588 72.2707 1.04208 73.6815 1.02455C75.0924 1.04208 76.2122 2.12588 76.2122 3.53008C76.2122 4.97194 75.0365 6.00374 73.6815 6.01975Z" fill="#FFFFFE"/>
<path fill-rule="evenodd" clip-rule="evenodd" d="M78.4746 6.95679H79.3948V1.95216L82.3498 6.95679H83.2684V0.0861816H82.3482V5.08824L79.3948 0.0861816H78.4746V6.95679Z" fill="#FFFFFE"/>
<path fill-rule="evenodd" clip-rule="evenodd" d="M0.761422 3.31828L12.6403 15.5326L0.818453 27.8534C0.473465 27.6282 0.288526 27.1392 0.285395 26.5076C0.279461 25.297 0.185343 6.08126 0.178256 4.63952C0.174959 3.94801 0.419236 3.52604 0.761422 3.31828ZM16.5574 11.4502L2.11263 3.33492C1.95835 3.24801 1.78313 3.19522 1.60858 3.17163L13.1316 15.0205L16.5574 11.4502ZM17.1998 19.2033L13.6265 15.5291L17.1962 11.809L22.1121 14.5703C23.3231 15.2503 22.7036 16.101 22.1121 16.4345L17.1998 19.2033ZM1.79792 27.8572C1.89863 27.8182 2.00379 27.7685 2.11291 27.707L16.5607 19.5634L13.1354 16.0413L1.79792 27.8572Z" fill="#FFFFFE"/>
</svg>
