<svg width="46" height="41" viewBox="0 0 46 41" fill="none" xmlns="http://www.w3.org/2000/svg">
<path fill-rule="evenodd" clip-rule="evenodd" d="M19.0808 0.663135C12.53 2.10763 7.27528 7.06052 5.55624 13.4111L5.13087 14.9834L3.77758 15.0812C2.22858 15.1933 1.13773 15.8353 0.492673 17.0145C-0.116047 18.1272 -0.116047 25.4832 0.492673 26.5959C1.2819 28.0387 2.18156 28.4455 4.78364 28.5372C9.06273 28.688 8.98697 28.8196 8.98697 21.2314C8.98697 16.0797 9.01998 15.6695 9.5755 13.9206C12.6215 4.32876 24.7016 1.15382 31.9891 8.02953C33.7778 9.71723 35.1263 11.8227 35.8685 14.0863C36.3286 15.4895 36.3844 16.293 36.4808 22.906C36.606 31.4775 36.4948 32.1917 34.766 33.9202C33.513 35.1735 31.9644 35.6991 29.526 35.6991C27.9338 35.6991 27.8084 35.6606 27.5497 35.093C27.059 34.0162 25.9136 33.7459 22.223 33.8366L18.9227 33.9178L18.2299 34.6935C17.6295 35.3657 17.5371 35.6571 17.5371 36.8793C17.5371 39.8528 18.1137 40.2117 22.8928 40.2117H26.3722L27.2035 39.3804C27.9974 38.5864 28.111 38.5489 29.7329 38.5453C35.2947 38.5332 39.0553 35.3512 39.3418 30.4147L39.4484 28.574H40.8867C42.5528 28.574 43.9982 27.97 44.7312 26.9673C45.1575 26.3842 45.2131 25.8795 45.2743 22.0427C45.3354 18.2137 45.2955 17.6809 44.8913 16.9364C44.3006 15.8481 43.1337 15.1834 41.5565 15.0363L40.282 14.9176L39.7652 13.1363C37.9452 6.86458 32.4905 1.86253 26.1482 0.648885C23.99 0.236105 20.9906 0.242042 19.0808 0.663135ZM27.5094 14.5488C27.3118 14.6647 25.8195 16.217 24.1931 17.9985L21.2362 21.2378L19.6045 19.5767C17.7945 17.7344 17.0302 17.4076 15.899 17.9925C15.011 18.4516 14.687 19.0226 14.687 20.1284C14.687 20.8768 14.9858 21.3002 17.2183 23.7185C19.8929 26.6151 20.2646 26.9165 21.1433 26.9032C22.0874 26.8887 22.5983 26.4384 26.7738 21.9425C30.6912 17.7244 30.8372 17.5313 30.8372 16.5716C30.8372 15.2461 29.9656 14.3207 28.7268 14.331C28.2546 14.335 27.7067 14.4331 27.5094 14.5488Z" fill="url(#paint0_linear_253_22432)"/>
<defs>
<linearGradient id="paint0_linear_253_22432" x1="22.6667" y1="0.343262" x2="22.6667" y2="40.2117" gradientUnits="userSpaceOnUse">
<stop stop-color="#E4404A"/>
<stop offset="1" stop-color="#EB4B5E"/>
</linearGradient>
</defs>
</svg>
