<svg width="20" height="20" viewBox="0 0 20 20" fill="none" xmlns="http://www.w3.org/2000/svg">
<g clip-path="url(#clip0_648_2142)">
<path d="M9.81595 2.24619C12.3618 2.24619 12.6606 2.25754 13.6668 2.30294C14.5974 2.34455 15.1005 2.49964 15.4372 2.63204C15.8835 2.80605 16.2013 3.01032 16.5342 3.3432C16.8671 3.67609 17.0751 3.99384 17.2453 4.44021C17.374 4.77688 17.5328 5.27999 17.5745 6.21055C17.6198 7.21677 17.6312 7.51561 17.6312 10.0614C17.6312 12.6072 17.6198 12.9061 17.5745 13.9123C17.5328 14.8429 17.3777 15.346 17.2453 15.6826C17.0713 16.129 16.8671 16.4468 16.5342 16.7797C16.2013 17.1125 15.8835 17.3206 15.4372 17.4908C15.1005 17.6194 14.5974 17.7783 13.6668 17.8199C12.6606 17.8653 12.3618 17.8767 9.81595 17.8767C7.27014 17.8767 6.9713 17.8653 5.96508 17.8199C5.03451 17.7783 4.5314 17.6232 4.19473 17.4908C3.74836 17.3168 3.43061 17.1125 3.09772 16.7797C2.76484 16.4468 2.55678 16.129 2.38656 15.6826C2.25794 15.346 2.09907 14.8429 2.05745 13.9123C2.01206 12.9061 2.00071 12.6072 2.00071 10.0614C2.00071 7.51561 2.01206 7.21677 2.05745 6.21055C2.09907 5.27999 2.25416 4.77688 2.38656 4.44021C2.56057 3.99384 2.76484 3.67609 3.09772 3.3432C3.43061 3.01032 3.74836 2.80226 4.19473 2.63204C4.5314 2.50342 5.03451 2.34455 5.96508 2.30294C6.9713 2.25376 7.27392 2.24619 9.81595 2.24619ZM9.81595 0.528809C7.22853 0.528809 6.90321 0.540157 5.88564 0.58555C4.87185 0.630944 4.1796 0.793604 3.57435 1.02814C2.94641 1.27023 2.41682 1.59934 1.88723 2.12893C1.35764 2.65852 1.03232 3.19189 0.786437 3.81605C0.551905 4.4213 0.389245 5.11354 0.343851 6.13111C0.298458 7.1449 0.287109 7.47022 0.287109 10.0576C0.287109 12.6451 0.298458 12.9704 0.343851 13.988C0.389245 15.0017 0.551905 15.694 0.786437 16.303C1.02854 16.931 1.35764 17.4606 1.88723 17.9901C2.41682 18.5197 2.95019 18.8451 3.57435 19.0909C4.1796 19.3255 4.87185 19.4881 5.88942 19.5335C6.90699 19.5789 7.22853 19.5903 9.81974 19.5903C12.4109 19.5903 12.7325 19.5789 13.7501 19.5335C14.7638 19.4881 15.4561 19.3255 16.0651 19.0909C16.6931 18.8488 17.2227 18.5197 17.7522 17.9901C18.2818 17.4606 18.6072 16.9272 18.853 16.303C19.0876 15.6978 19.2502 15.0055 19.2956 13.988C19.341 12.9704 19.3524 12.6489 19.3524 10.0576C19.3524 7.46644 19.341 7.1449 19.2956 6.12733C19.2502 5.11354 19.0876 4.42129 18.853 3.81227C18.6109 3.18432 18.2818 2.65473 17.7522 2.12514C17.2227 1.59555 16.6893 1.27023 16.0651 1.02435C15.4599 0.789821 14.7676 0.627161 13.7501 0.581768C12.7287 0.540157 12.4034 0.528809 9.81595 0.528809Z" fill="white"/>
<path d="M9.81595 2.24619C12.3618 2.24619 12.6606 2.25754 13.6668 2.30294C14.5974 2.34455 15.1005 2.49964 15.4372 2.63204C15.8835 2.80605 16.2013 3.01032 16.5342 3.3432C16.8671 3.67609 17.0751 3.99384 17.2453 4.44021C17.374 4.77688 17.5328 5.27999 17.5745 6.21055C17.6198 7.21677 17.6312 7.51561 17.6312 10.0614C17.6312 12.6072 17.6198 12.9061 17.5745 13.9123C17.5328 14.8429 17.3777 15.346 17.2453 15.6826C17.0713 16.129 16.8671 16.4468 16.5342 16.7797C16.2013 17.1125 15.8835 17.3206 15.4372 17.4908C15.1005 17.6194 14.5974 17.7783 13.6668 17.8199C12.6606 17.8653 12.3618 17.8767 9.81595 17.8767C7.27014 17.8767 6.9713 17.8653 5.96508 17.8199C5.03451 17.7783 4.5314 17.6232 4.19473 17.4908C3.74836 17.3168 3.43061 17.1125 3.09772 16.7797C2.76484 16.4468 2.55678 16.129 2.38656 15.6826C2.25794 15.346 2.09907 14.8429 2.05745 13.9123C2.01206 12.9061 2.00071 12.6072 2.00071 10.0614C2.00071 7.51561 2.01206 7.21677 2.05745 6.21055C2.09907 5.27999 2.25416 4.77688 2.38656 4.44021C2.56057 3.99384 2.76484 3.67609 3.09772 3.3432C3.43061 3.01032 3.74836 2.80226 4.19473 2.63204C4.5314 2.50342 5.03451 2.34455 5.96508 2.30294C6.9713 2.25376 7.27392 2.24619 9.81595 2.24619Z" fill="white"/>
<path d="M9.81582 5.1665C7.11491 5.1665 4.9209 7.35674 4.9209 10.0614C4.9209 12.7661 7.11113 14.9563 9.81582 14.9563C12.5205 14.9563 14.7107 12.7661 14.7107 10.0614C14.7107 7.35674 12.5205 5.1665 9.81582 5.1665ZM9.81582 13.2352C8.06061 13.2352 6.63828 11.8129 6.63828 10.0576C6.63828 8.30243 8.06061 6.88011 9.81582 6.88011C11.571 6.88011 12.9934 8.30243 12.9934 10.0576C12.9934 11.8129 11.571 13.2352 9.81582 13.2352Z" fill="url(#paint0_linear_648_2142)"/>
<path d="M14.9041 6.11195C15.5351 6.11195 16.0465 5.60048 16.0465 4.96955C16.0465 4.33862 15.5351 3.82715 14.9041 3.82715C14.2732 3.82715 13.7617 4.33862 13.7617 4.96955C13.7617 5.60048 14.2732 6.11195 14.9041 6.11195Z" fill="url(#paint1_linear_648_2142)"/>
</g>
<defs>
<linearGradient id="paint0_linear_648_2142" x1="9.81582" y1="5.1665" x2="9.81582" y2="14.9563" gradientUnits="userSpaceOnUse">
<stop stop-color="#E4404A"/>
<stop offset="1" stop-color="#EB4B5E"/>
</linearGradient>
<linearGradient id="paint1_linear_648_2142" x1="14.9041" y1="3.82715" x2="14.9041" y2="6.11195" gradientUnits="userSpaceOnUse">
<stop stop-color="#E4404A"/>
<stop offset="1" stop-color="#EB4B5E"/>
</linearGradient>
<clipPath id="clip0_648_2142">
<rect width="19.0577" height="19.0577" fill="white" transform="translate(0.287109 0.528809)"/>
</clipPath>
</defs>
</svg>
