<svg width="28" height="48" viewBox="0 0 28 48" fill="none" xmlns="http://www.w3.org/2000/svg">
<path fill-rule="evenodd" clip-rule="evenodd" d="M27.5135 44.1764C27.3068 44.5943 24.7363 47.148 24.3665 47.3026C24.0058 47.4535 23.4666 47.4537 23.1037 47.303C22.7125 47.1406 0.963468 25.392 0.645158 24.8449C0.390113 24.4066 0.354932 23.9699 0.538774 23.5246C0.700334 23.1332 22.6842 1.10949 23.1302 0.892292C23.5024 0.710922 23.9065 0.699234 24.2914 0.858524C24.6407 1.00307 27.3054 3.63196 27.5187 4.0423C27.7081 4.40687 27.708 4.94479 27.5183 5.30898C27.4349 5.46942 23.3611 9.60428 18.1319 14.8362L8.89306 24.0801L18.162 33.3629C24.7196 39.9306 27.4652 42.729 27.5484 42.9299C27.7094 43.319 27.6957 43.8078 27.5135 44.1764Z" fill="white"/>
</svg>
