<svg width="20" height="20" viewBox="0 0 20 20" fill="none" xmlns="http://www.w3.org/2000/svg">
<g clip-path="url(#clip0_648_2144)">
<path d="M18.3169 0.528809H2.07284C1.69973 0.528809 1.3419 0.677028 1.07807 0.940859C0.814235 1.20469 0.666016 1.56252 0.666016 1.93564V18.1797C0.666016 18.5528 0.814235 18.9106 1.07807 19.1744C1.3419 19.4383 1.69973 19.5865 2.07284 19.5865H18.3169C18.69 19.5865 19.0478 19.4383 19.3116 19.1744C19.5755 18.9106 19.7237 18.5528 19.7237 18.1797V1.93564C19.7237 1.56252 19.5755 1.20469 19.3116 0.940859C19.0478 0.677028 18.69 0.528809 18.3169 0.528809ZM6.34626 16.7636H3.48099V7.6622H6.34626V16.7636ZM4.91164 6.40095C4.58663 6.39912 4.26944 6.30106 4.0001 6.11913C3.73077 5.9372 3.52136 5.67957 3.39831 5.37874C3.27526 5.07791 3.24408 4.74738 3.3087 4.42885C3.37333 4.11032 3.53086 3.81807 3.76142 3.58898C3.99198 3.35989 4.28524 3.20424 4.60418 3.14166C4.92312 3.07909 5.25345 3.11239 5.55348 3.23737C5.85351 3.36235 6.10979 3.5734 6.28999 3.8439C6.47018 4.1144 6.56621 4.43221 6.56595 4.75723C6.56902 4.97483 6.52824 5.19082 6.44606 5.39233C6.36387 5.59384 6.24196 5.77674 6.08758 5.93012C5.93321 6.08351 5.74953 6.20425 5.5475 6.28514C5.34547 6.36603 5.12922 6.40542 4.91164 6.40095ZM16.9074 16.7715H14.0434V11.7993C14.0434 10.3329 13.4201 9.8803 12.6154 9.8803C11.7658 9.8803 10.932 10.5209 10.932 11.8364V16.7715H8.06675V7.66882H10.8222V8.93007H10.8592C11.1358 8.37025 12.1046 7.41339 13.5829 7.41339C15.1816 7.41339 16.9087 8.36231 16.9087 11.1416L16.9074 16.7715Z" fill="white"/>
</g>
<defs>
<clipPath id="clip0_648_2144">
<rect width="19.0577" height="19.0577" fill="white" transform="translate(0.666016 0.528809)"/>
</clipPath>
</defs>
</svg>
