<svg width="37" height="35" viewBox="0 0 37 35" fill="none" xmlns="http://www.w3.org/2000/svg">
<path d="M4.154 7.50604C3.5 8.22937 3.5 9.47187 3.5 11.954V25.6535C3.5 27.4123 3.5 28.2917 3.9725 28.9537C4.4435 29.6158 5.2685 29.8944 6.9185 30.45L8.8595 31.1048C9.911 31.4592 10.7195 31.7319 11.399 31.9069C11.843 32.0221 12.2495 31.6837 12.2495 31.2375V9.14375C12.2443 8.96664 12.179 8.79619 12.0636 8.659C11.9483 8.52181 11.7895 8.42561 11.612 8.38542C11.0285 8.24104 10.3265 8.00479 9.365 7.68104C7.0355 6.895 5.87 6.50271 4.985 6.90083C4.66756 7.04393 4.38448 7.25009 4.154 7.50604ZM19.43 5.07646L17.126 6.62958C16.2935 7.19104 15.6815 7.60375 15.161 7.89687C15.0384 7.96349 14.9358 8.06024 14.8637 8.17745C14.7916 8.29466 14.7524 8.42823 14.75 8.56479V30.5083C14.75 31.0479 15.326 31.3862 15.794 31.0946C16.2965 30.7825 16.8725 30.3946 17.57 29.925L19.874 28.3719C20.7065 27.8104 21.3185 27.3977 21.839 27.1046C21.9616 27.038 22.0642 26.9412 22.1363 26.824C22.2084 26.7068 22.2476 26.5732 22.25 26.4367V4.49167C22.25 3.95062 21.674 3.61375 21.206 3.90396C20.7035 4.2175 20.1275 4.60542 19.43 5.07646ZM30.08 4.55L28.1405 3.89667C27.089 3.54229 26.2805 3.26958 25.601 3.09458C25.157 2.97937 24.7505 3.31771 24.7505 3.76396V25.8577C24.7557 26.0348 24.821 26.2053 24.9364 26.3425C25.0517 26.4796 25.2105 26.5758 25.388 26.616C25.9715 26.7604 26.6735 26.9952 27.635 27.3204C29.9645 28.1065 31.13 28.4987 32.015 28.1006C32.3324 27.9575 32.6155 27.7514 32.846 27.4954C33.5 26.7721 33.5 25.5296 33.5 23.0475V9.34792C33.5 7.58917 33.5 6.70833 33.0275 6.04771C32.5565 5.38562 31.7315 5.10708 30.0815 4.55146L30.08 4.55Z" fill="white"/>
</svg>
