<svg width="5" height="5" viewBox="0 0 13 18" fill="none" xmlns="http://www.w3.org/2000/svg">
<path d="M6.42092 8.29052C5.84899 8.29052 5.30048 8.06332 4.89607 7.65891C4.49165 7.25449 4.26445 6.70599 4.26445 6.13406C4.26445 5.56212 4.49165 5.01362 4.89607 4.6092C5.30048 4.20479 5.84899 3.97759 6.42092 3.97759C6.99285 3.97759 7.54136 4.20479 7.94577 4.6092C8.35019 5.01362 8.57739 5.56212 8.57739 6.13406C8.57739 6.41725 8.52161 6.69767 8.41324 6.9593C8.30486 7.22093 8.14602 7.45866 7.94577 7.65891C7.74553 7.85915 7.5078 8.018 7.24616 8.12637C6.98453 8.23474 6.70411 8.29052 6.42092 8.29052ZM6.42092 0.0959473C4.81951 0.0959473 3.2837 0.732103 2.15133 1.86447C1.01897 2.99683 0.382813 4.53265 0.382812 6.13406C0.382813 10.6626 6.42092 17.3477 6.42092 17.3477C6.42092 17.3477 12.459 10.6626 12.459 6.13406C12.459 4.53265 11.8229 2.99683 10.6905 1.86447C9.55814 0.732103 8.02233 0.0959473 6.42092 0.0959473Z" fill="url(#paint0_linear_171_5198)"/>
<defs>
<linearGradient id="paint0_linear_171_5198" x1="6.42092" y1="0.0959473" x2="6.42092" y2="17.3477" gradientUnits="userSpaceOnUse">
<stop stop-color="#E4404A"/>
<stop offset="1" stop-color="#EB4B5E"/>
</linearGradient>
</defs>
</svg>
