<svg width="112" height="21" viewBox="0 0 112 21" fill="none" xmlns="http://www.w3.org/2000/svg">
<g clip-path="url(#clip0_451_3132)">
<path d="M7.8247 0.141966L-0.000124059 11.2544C-0.00288833 11.2768 -0.00288833 11.2995 -0.000124059 11.322L-0.000124059 18.1692C-0.000197246 18.1954 0.00818629 18.2209 0.0237826 18.2419C0.039379 18.2629 0.061357 18.2784 0.0864557 18.286C0.111554 18.2936 0.138436 18.2929 0.163113 18.284C0.187789 18.2752 0.208946 18.2586 0.223442 18.2368L12.8312 0.283913C12.843 0.265018 12.8497 0.243395 12.8505 0.221162C12.8514 0.19893 12.8465 0.17685 12.8363 0.157087C12.826 0.137324 12.8108 0.120556 12.7921 0.108426C12.7734 0.0962954 12.7519 0.0892194 12.7296 0.0878908H7.92632C7.90623 0.0878537 7.88644 0.0927707 7.86871 0.102205C7.85098 0.111639 7.83586 0.125297 7.8247 0.141966Z" fill="#E74451"/>
<path d="M4.75129e-07 0.209559V8.69933C-7.27113e-05 8.7255 0.00831083 8.75099 0.0239072 8.77203C0.0395035 8.79306 0.0614815 8.80852 0.0865803 8.81611C0.111679 8.8237 0.138561 8.82301 0.163237 8.81415C0.187914 8.80529 0.20907 8.78873 0.223567 8.76693L6.17856 0.283912C6.19004 0.266421 6.19706 0.246399 6.19901 0.225586C6.20097 0.204773 6.19781 0.183798 6.1898 0.164482C6.18179 0.145166 6.16917 0.128093 6.15304 0.114745C6.13692 0.101398 6.11777 0.0921796 6.09727 0.0878906L0.121946 0.0878906C0.0896039 0.0878906 0.0585866 0.100709 0.0357174 0.123527C0.0128482 0.146344 4.75129e-07 0.177291 4.75129e-07 0.209559Z" fill="#E74451"/>
<path d="M14.4707 0.141966L0.13538 20.5688C0.123603 20.5877 0.116948 20.6093 0.116067 20.6315C0.115186 20.6538 0.12011 20.6759 0.130355 20.6956C0.140601 20.7154 0.155817 20.7321 0.174512 20.7443C0.193207 20.7564 0.21474 20.7635 0.237001 20.7648H6.14457C6.16467 20.7649 6.18446 20.7599 6.20219 20.7505C6.21991 20.7411 6.23503 20.7274 6.24619 20.7107L20.5815 0.283913C20.5933 0.265018 20.6 0.243395 20.6009 0.221162C20.6017 0.19893 20.5968 0.17685 20.5866 0.157087C20.5763 0.137324 20.5611 0.120556 20.5424 0.108426C20.5237 0.0962954 20.5022 0.0892194 20.4799 0.0878908H14.5723C14.5523 0.0878537 14.5325 0.0927707 14.5147 0.102205C14.497 0.111639 14.4819 0.125297 14.4707 0.141966Z" fill="#E74451"/>
<path d="M15.636 18.5747L22.8646 20.6904C22.8894 20.6986 22.9161 20.6987 22.9409 20.6907C22.9657 20.6826 22.9873 20.6668 23.0024 20.6457C23.0176 20.6245 23.0256 20.599 23.0251 20.573C23.0247 20.547 23.016 20.5218 23.0001 20.5011L15.697 10.0984C15.6849 10.083 15.6695 10.0705 15.6519 10.0619C15.6343 10.0533 15.6149 10.0488 15.5953 10.0488C15.5757 10.0488 15.5564 10.0533 15.5388 10.0619C15.5212 10.0705 15.5058 10.083 15.4937 10.0984L8.04151 20.6701C8.0363 20.6789 8.03368 20.6889 8.03395 20.6991C8.03423 20.7093 8.03737 20.7192 8.04304 20.7277C8.0487 20.7361 8.05665 20.7428 8.06597 20.747C8.07529 20.7512 8.08559 20.7526 8.09571 20.7512L15.5479 18.5747H15.6292H15.636Z" fill="#E74451"/>
<path d="M29.9781 16.5131C29.7838 16.3147 29.554 16.1543 29.3007 16.04C29.0526 15.9335 28.7848 15.8805 28.5148 15.8845C28.2238 15.8803 27.9354 15.9384 27.6689 16.055C27.4024 16.1717 27.1641 16.344 26.9701 16.5604C26.5358 17.0406 26.3071 17.6715 26.3333 18.3179C26.3234 18.637 26.3783 18.9548 26.4947 19.2522C26.6111 19.5496 26.7867 19.8204 27.0108 20.0483C27.2063 20.2664 27.4467 20.4398 27.7157 20.5565C27.9847 20.6732 28.2758 20.7304 28.569 20.7242C28.8243 20.7262 29.0776 20.6779 29.3142 20.5823C29.5665 20.469 29.796 20.311 29.9917 20.1159V20.6093H31.1637V16.0062H29.9781V16.5199V16.5131ZM29.6665 19.3115C29.5512 19.4358 29.4104 19.5338 29.2538 19.5992C29.0972 19.6645 28.9283 19.6954 28.7587 19.69C28.5906 19.694 28.4236 19.6616 28.2693 19.5951C28.1149 19.5286 27.9768 19.4295 27.8644 19.3047C27.6309 19.03 27.5028 18.6815 27.5028 18.3212C27.5028 17.961 27.6309 17.6125 27.8644 17.3378C27.9798 17.2191 28.1193 17.1263 28.2735 17.0657C28.4277 17.0051 28.5931 16.978 28.7587 16.9863C28.9285 16.9828 29.0972 17.014 29.2544 17.0779C29.4117 17.1419 29.5542 17.2372 29.6733 17.358C29.7952 17.4895 29.8898 17.6439 29.9514 17.8121C30.013 17.9804 30.0406 18.1592 30.0323 18.3381C30.0463 18.7053 29.9176 19.0637 29.6733 19.3385L29.6665 19.3115Z" fill="white"/>
<path d="M34.6868 15.8845C34.4545 15.8805 34.2239 15.9243 34.0093 16.013C33.7472 16.1304 33.5049 16.2878 33.2912 16.4794V16.0062H32.1462V20.6431H33.3115V18.7843C33.3009 18.4701 33.319 18.1556 33.3657 17.8448C33.4131 17.5895 33.5358 17.3541 33.718 17.1688C33.8829 17.0142 34.1014 16.9294 34.3277 16.9322C34.4928 16.9273 34.6548 16.9772 34.7884 17.0742C34.9169 17.18 35.0073 17.3248 35.0458 17.4865C35.1091 17.8502 35.1341 18.2194 35.1204 18.5883V20.6161H36.2721V17.5744C36.2882 17.3559 36.2606 17.1363 36.1908 16.9286C36.1211 16.7209 36.0105 16.5291 35.8656 16.3644C35.7133 16.209 35.5308 16.0863 35.3292 16.0037C35.1277 15.9212 34.9114 15.8806 34.6935 15.8845H34.6868Z" fill="white"/>
<path d="M40.6483 16.513C40.4539 16.3147 40.2242 16.1542 39.9708 16.0399C39.7228 15.9334 39.455 15.8804 39.185 15.8844C38.894 15.8802 38.6055 15.9383 38.339 16.055C38.0726 16.1716 37.8343 16.3439 37.6403 16.5603C37.2059 17.0406 36.9773 17.6714 37.0035 18.3178C36.9935 18.6369 37.0484 18.9547 37.1649 19.2521C37.2813 19.5495 37.4569 19.8203 37.681 20.0482C37.8764 20.2664 38.1169 20.4397 38.3859 20.5564C38.6548 20.6731 38.9459 20.7303 39.2392 20.7241C39.4945 20.7261 39.7477 20.6779 39.9844 20.5822C40.2367 20.4689 40.4662 20.3109 40.6618 20.1158V20.6092H41.8271V14.2148H40.6483V16.513ZM40.3367 19.3114C40.2213 19.4357 40.0806 19.5338 39.924 19.5991C39.7674 19.6644 39.5985 19.6954 39.4288 19.6899C39.2608 19.6939 39.0938 19.6615 38.9394 19.595C38.7851 19.5285 38.647 19.4294 38.5346 19.3047C38.3011 19.0299 38.173 18.6814 38.173 18.3212C38.173 17.961 38.3011 17.6124 38.5346 17.3377C38.65 17.219 38.7895 17.1263 38.9437 17.0657C39.0979 17.005 39.2633 16.9779 39.4288 16.9862C39.5986 16.9827 39.7673 17.0139 39.9246 17.0778C40.0819 17.1418 40.2244 17.2371 40.3434 17.358C40.4654 17.4894 40.5599 17.6438 40.6216 17.812C40.6832 17.9803 40.7107 18.1591 40.7025 18.3381C40.7164 18.7052 40.5878 19.0636 40.3434 19.3384L40.3367 19.3114Z" fill="white"/>
<path d="M48.0535 17.1888C48.2586 17.0469 48.4279 16.8595 48.548 16.6413C48.6542 16.4322 48.7055 16.1996 48.6971 15.9653C48.7046 15.6182 48.5868 15.2799 48.3651 15.0123C48.1318 14.7362 47.816 14.542 47.4641 14.458C47.0501 14.3702 46.6269 14.3339 46.204 14.3498H45.2148V20.6158H46.9763C47.385 20.6344 47.7926 20.5605 48.1686 20.3995C48.4531 20.2415 48.6878 20.0074 48.8461 19.7235C49.0283 19.4343 49.1225 19.0985 49.1171 18.757C49.1242 18.4203 49.0324 18.089 48.8529 17.8039C48.6441 17.5024 48.3523 17.2677 48.0128 17.128L48.0535 17.1888ZM46.4207 15.5125H46.7459C46.9642 15.4914 47.1823 15.5542 47.3557 15.6882C47.4228 15.7455 47.4759 15.8173 47.5111 15.8981C47.5463 15.9788 47.5627 16.0666 47.5589 16.1546C47.564 16.2484 47.5478 16.3421 47.5114 16.4287C47.475 16.5154 47.4195 16.5927 47.3489 16.6548C47.1533 16.7968 46.9121 16.8618 46.6714 16.8373H46.4072V15.4854L46.4207 15.5125ZM47.7215 19.318C47.4122 19.4751 47.0643 19.5407 46.7188 19.5073H46.4207V17.8985H46.6714C47.0245 17.8688 47.378 17.9516 47.6808 18.1351C47.7796 18.2099 47.8588 18.3072 47.9119 18.419C47.965 18.5308 47.9903 18.6537 47.9857 18.7772C47.9884 18.8822 47.9665 18.9863 47.9218 19.0813C47.8771 19.1764 47.8108 19.2597 47.7283 19.3247L47.7215 19.318Z" fill="white"/>
<path d="M52.9038 18.2775C52.9229 18.5651 52.9024 18.8539 52.8429 19.1359C52.7886 19.3008 52.6815 19.4434 52.538 19.5415C52.3915 19.6373 52.2184 19.6846 52.0434 19.6767C51.8697 19.6836 51.6985 19.6337 51.5557 19.5347C51.4192 19.4383 51.3172 19.301 51.2643 19.1427C51.1902 18.8468 51.1606 18.5415 51.1763 18.2369V16.0063H49.9839V17.9395C49.9619 18.4547 50.0074 18.9705 50.1194 19.4739C50.2354 19.8566 50.4732 20.1912 50.7969 20.427C51.1626 20.6705 51.5976 20.7891 52.0367 20.7649C52.443 20.7828 52.8456 20.6817 53.1951 20.4743C53.5012 20.2702 53.7375 19.9778 53.8726 19.6361C54.0326 19.0971 54.0968 18.5344 54.0623 17.9733V16.0063H52.8971V18.2775H52.9038Z" fill="white"/>
<path d="M55.5529 14.093C55.4554 14.093 55.3588 14.1122 55.2688 14.1497C55.1787 14.1871 55.097 14.242 55.0284 14.3112C54.9597 14.3803 54.9055 14.4623 54.8687 14.5525C54.832 14.6427 54.8136 14.7392 54.8145 14.8365C54.8123 15.0382 54.8903 15.2326 55.0313 15.3773C55.1 15.4465 55.1817 15.5015 55.2719 15.5391C55.362 15.5766 55.4587 15.5959 55.5563 15.5959C55.654 15.5959 55.7507 15.5766 55.8408 15.5391C55.9309 15.5015 56.0127 15.4465 56.0814 15.3773C56.1513 15.3071 56.2065 15.2238 56.2437 15.1321C56.2809 15.0404 56.2994 14.9422 56.2982 14.8433C56.2998 14.7443 56.2815 14.646 56.2443 14.5543C56.207 14.4625 56.1516 14.3792 56.0814 14.3093C56.0131 14.2387 55.9308 14.1831 55.8399 14.1459C55.7489 14.1087 55.6512 14.0906 55.5529 14.093Z" fill="white"/>
<path d="M56.1018 16.0063H54.9365V20.6433H56.1018V16.0063Z" fill="white"/>
<path d="M58.0256 14.2148H56.8604V20.643H58.0256V14.2148Z" fill="white"/>
<path d="M62.3273 16.513C62.1329 16.3147 61.9031 16.1542 61.6498 16.0399C61.4017 15.9334 61.1339 15.8804 60.8639 15.8844C60.5729 15.8802 60.2845 15.9383 60.018 16.055C59.7515 16.1716 59.5132 16.3439 59.3193 16.5603C58.8849 17.0406 58.6563 17.6714 58.6824 18.3178C58.6725 18.6369 58.7274 18.9547 58.8438 19.2521C58.9603 19.5495 59.1358 19.8203 59.3599 20.0482C59.5554 20.2664 59.7958 20.4397 60.0648 20.5564C60.3338 20.6731 60.6249 20.7303 60.9181 20.7241C61.1734 20.7261 61.4267 20.6779 61.6633 20.5822C61.9165 20.4706 62.1464 20.3123 62.3408 20.1158V20.6092H63.5061V14.2148H62.3273V16.513ZM62.0156 19.3114C61.9003 19.4357 61.7595 19.5338 61.6029 19.5991C61.4463 19.6644 61.2775 19.6954 61.1078 19.6899C60.9397 19.6939 60.7727 19.6615 60.6184 19.595C60.464 19.5285 60.3259 19.4294 60.2135 19.3047C59.9801 19.0299 59.8519 18.6814 59.8519 18.3212C59.8519 17.961 59.9801 17.6124 60.2135 17.3377C60.3305 17.2172 60.4722 17.1235 60.6289 17.0628C60.7856 17.0021 60.9536 16.976 61.1213 16.9862C61.2912 16.9819 61.4602 17.0127 61.6176 17.0767C61.775 17.1407 61.9174 17.2364 62.0359 17.358C62.1579 17.4894 62.2524 17.6438 62.3141 17.812C62.3757 17.9803 62.4032 18.1591 62.395 18.3381C62.4089 18.7052 62.2803 19.0636 62.0359 19.3384L62.0156 19.3114Z" fill="white"/>
<path d="M66.6974 15.8844C66.3795 15.8732 66.0626 15.9274 65.7665 16.0437C65.4705 16.16 65.2016 16.3359 64.9766 16.5604C64.7515 16.7945 64.5756 17.0712 64.4593 17.3742C64.343 17.6772 64.2885 18.0003 64.2992 18.3246C64.2865 18.643 64.3402 18.9606 64.4568 19.2572C64.5734 19.5539 64.7504 19.8233 64.9766 20.0482C65.2118 20.2761 65.4911 20.4536 65.7975 20.5698C66.1039 20.6861 66.4309 20.7386 66.7584 20.7242C67.1788 20.7363 67.5963 20.6507 67.9778 20.4741C68.3339 20.2985 68.6376 20.0328 68.8586 19.7035L67.8762 19.2439C67.7291 19.3911 67.5536 19.5072 67.3603 19.585C67.1671 19.6628 66.96 19.7009 66.7516 19.6967C66.426 19.7111 66.1061 19.6079 65.8506 19.4061C65.6135 19.2075 65.4589 18.928 65.417 18.622H69.1634V18.3989C69.1806 18.0607 69.1295 17.7224 69.0131 17.4043C68.8967 17.0861 68.7175 16.7946 68.486 16.5469C68.2494 16.3199 67.9685 16.144 67.6608 16.03C67.3531 15.916 67.0251 15.8665 66.6974 15.8844ZM65.4712 17.7433C65.5616 17.5107 65.7082 17.3041 65.898 17.1417C66.1436 16.9576 66.4446 16.8623 66.7516 16.8713C67.0348 16.8678 67.312 16.9529 67.5443 17.1147C67.7628 17.2666 67.9229 17.4884 67.9982 17.7433H65.4712Z" fill="white"/>
<path d="M71.0942 16.06C70.9035 16.1923 70.7534 16.3748 70.6606 16.5873V16.006H69.658V20.6429H70.8164V18.5407C70.7827 18.0978 70.8451 17.6528 70.9994 17.2362C71.0361 17.1439 71.0982 17.0639 71.1785 17.0053C71.2588 16.9467 71.354 16.9119 71.4533 16.905C71.5723 16.9133 71.688 16.948 71.792 17.0063L72.1578 16.006C72.0113 15.9294 71.849 15.8877 71.6836 15.8843C71.474 15.8833 71.2689 15.9444 71.0942 16.06Z" fill="white"/>
<path d="M74.3121 17.8245L73.8853 17.6082C73.7588 17.5561 73.6419 17.483 73.5398 17.3919C73.4952 17.3444 73.4708 17.2813 73.4721 17.2162C73.4721 17.1752 73.4819 17.1347 73.5008 17.0983C73.5196 17.0618 73.5469 17.0304 73.5805 17.0066C73.6709 16.948 73.7777 16.9196 73.8853 16.9255C74.198 16.9608 74.4846 17.1159 74.6848 17.3581L75.4097 16.6349C75.2342 16.3928 75.0015 16.1977 74.7322 16.0671C74.4677 15.934 74.1748 15.8667 73.8786 15.8711C73.4795 15.8536 73.0898 15.9946 72.7946 16.2631C72.6592 16.3793 72.5508 16.5235 72.4771 16.6858C72.4034 16.8481 72.3661 17.0245 72.3678 17.2027C72.3678 17.7705 72.7404 18.2436 73.4924 18.6221L73.8853 18.8182C74.2241 18.9894 74.3934 19.1651 74.3934 19.3454C74.3916 19.3963 74.3778 19.4462 74.3531 19.4908C74.3284 19.5354 74.2934 19.5736 74.2512 19.6022C74.143 19.6797 74.0115 19.7179 73.8786 19.7104C73.706 19.7027 73.5382 19.6516 73.3908 19.5617C73.2091 19.4623 73.0463 19.3319 72.9098 19.1764L72.1917 19.9537C72.3786 20.2067 72.6241 20.4108 72.9072 20.5485C73.1904 20.6862 73.5027 20.7535 73.8176 20.7446C74.2619 20.7677 74.6983 20.6201 75.037 20.3323C75.2873 20.1003 75.4456 19.7862 75.4829 19.4473C75.5202 19.1085 75.4341 18.7676 75.2403 18.4869C74.9872 18.1933 74.6696 17.962 74.3121 17.811V17.8245Z" fill="white"/>
<path d="M80.6191 14.0933H79.4403C79.1077 14.5669 78.8453 15.086 78.6612 15.6344C78.5004 16.2039 78.4228 16.7935 78.4309 17.3851C78.4222 17.9825 78.4951 18.5783 78.6477 19.156C78.8245 19.7269 79.0799 20.2706 79.4064 20.7715H80.6191C80.2623 20.3467 79.9681 19.8733 79.7452 19.3656C79.5115 18.7413 79.3988 18.0784 79.4132 17.4121C79.404 16.791 79.505 16.1732 79.7113 15.5871C79.9167 15.042 80.2223 14.54 80.6123 14.1068L80.6191 14.0933Z" fill="white"/>
<path d="M84.5286 14.5597C84.0497 14.4072 83.5469 14.3431 83.045 14.3704H81.7781V20.6363H82.9772V17.9799C83.3995 17.9952 83.8221 17.9634 84.2373 17.8853C84.6056 17.7863 84.933 17.5733 85.1722 17.2769C85.4094 16.9646 85.5315 16.5803 85.5177 16.1887C85.5282 15.8325 85.4365 15.4808 85.2535 15.1748C85.086 14.8986 84.8344 14.6831 84.5354 14.5597H84.5286ZM84.2509 16.5469C84.1855 16.6468 84.0873 16.7209 83.9731 16.7565C83.7694 16.8069 83.5594 16.8274 83.3498 16.8173H82.9704V15.533H83.3092C83.5682 15.5122 83.8285 15.554 84.0679 15.6547C84.1599 15.7074 84.2353 15.7847 84.2855 15.8778C84.3358 15.971 84.359 16.0763 84.3525 16.1819C84.3561 16.3089 84.3206 16.4339 84.2509 16.5402V16.5469Z" fill="white"/>
<path d="M88.2411 18.7371L87.0691 16.0063H85.8767L87.8617 20.6365H88.6205L90.5919 16.0063H89.4131L88.2411 18.7371Z" fill="white"/>
<path d="M92.4072 14.2959H91.2419V16.006H90.6458V17.0064H91.2419V20.6362H92.4072V17.0064H93.0982V16.006H92.4072V14.2959Z" fill="white"/>
<path d="M94.7855 14.0933H93.6067C93.9637 14.5204 94.258 14.9961 94.4806 15.506C94.7138 16.128 94.8265 16.7887 94.8126 17.4527C94.8229 18.0739 94.722 18.6919 94.5145 19.2777C94.3091 19.8228 94.0035 20.3248 93.6135 20.758H94.7923C95.1071 20.2858 95.3534 19.7715 95.5239 19.2304C95.6848 18.6609 95.7624 18.0713 95.7543 17.4797C95.763 16.8823 95.69 16.2865 95.5375 15.7088C95.3607 15.1378 95.1053 14.5942 94.7787 14.0933H94.7855Z" fill="white"/>
<path d="M100.293 14.3706H99.1008V20.6365H102.034V19.501H100.293V14.3706Z" fill="white"/>
<path d="M103.951 14.2959H102.786V16.006H102.183V17.0064H102.786V20.6362H103.951V17.0064H104.642V16.006H103.951V14.2959Z" fill="white"/>
<path d="M108.518 16.513C108.323 16.3147 108.094 16.1542 107.84 16.0399C107.592 15.9334 107.324 15.8804 107.054 15.8844C106.763 15.8802 106.475 15.9383 106.208 16.055C105.942 16.1716 105.704 16.3439 105.51 16.5603C105.075 17.0406 104.847 17.6714 104.873 18.3178C104.863 18.6369 104.918 18.9547 105.034 19.2521C105.151 19.5495 105.326 19.8203 105.55 20.0482C105.746 20.2664 105.986 20.4397 106.255 20.5564C106.524 20.6731 106.815 20.7303 107.109 20.7241C107.364 20.7261 107.617 20.6779 107.854 20.5822C108.107 20.4706 108.337 20.3123 108.531 20.1158V20.6092H109.696V14.2148H108.531L108.518 16.513ZM108.206 19.3114C108.091 19.4357 107.95 19.5338 107.793 19.5991C107.637 19.6644 107.468 19.6954 107.298 19.6899C107.13 19.6939 106.963 19.6615 106.809 19.595C106.654 19.5285 106.516 19.4294 106.404 19.3047C106.17 19.0299 106.042 18.6814 106.042 18.3212C106.042 17.961 106.17 17.6124 106.404 17.3377C106.518 17.2132 106.657 17.1149 106.813 17.0496C106.968 16.9842 107.136 16.9534 107.305 16.9591C107.475 16.9549 107.644 16.9857 107.801 17.0497C107.959 17.1137 108.101 17.2094 108.22 17.3309C108.342 17.4624 108.436 17.6168 108.498 17.785C108.559 17.9533 108.587 18.1321 108.579 18.311C108.593 18.6782 108.464 19.0365 108.22 19.3114H108.206Z" fill="white"/>
<path d="M111.783 19.6156C111.657 19.4917 111.486 19.4224 111.309 19.4224C111.132 19.4224 110.961 19.4917 110.835 19.6156C110.711 19.7419 110.641 19.9118 110.641 20.0887C110.641 20.2657 110.711 20.4355 110.835 20.5619C110.893 20.6394 110.967 20.7035 111.052 20.7498C111.138 20.7962 111.232 20.8237 111.329 20.8306C111.426 20.8374 111.523 20.8235 111.614 20.7896C111.705 20.7557 111.787 20.7028 111.856 20.6343C111.924 20.5658 111.978 20.4834 112.011 20.3927C112.045 20.302 112.059 20.205 112.053 20.1084C112.046 20.0118 112.018 19.9178 111.972 19.8328C111.925 19.7478 111.861 19.6737 111.783 19.6156Z" fill="white"/>
<path d="M32.3698 7.01585L28.1356 0.526855H26.3335V10.3888H28.2169V3.92006L32.4443 10.3888H34.2532V0.526855H32.3698V7.01585Z" fill="white"/>
<path d="M39.4356 4.92721L42.8908 0.526855H40.628L37.9452 3.92682V0.526855H36.0415V10.3888H37.9452V6.00871L40.9938 10.3888H43.2295L39.4356 4.92721Z" fill="white"/>
<path d="M49.6794 0.526855L45.8652 10.3955H47.8231L48.6293 8.36773H52.6942L53.4665 10.3955H55.4244L51.5967 0.526855H49.6794ZM49.3204 6.52918L50.6753 3.14949L51.9964 6.52918H49.3204Z" fill="white"/>
<path d="M58.9401 5.96196L58.2626 5.62399C58.0634 5.54009 57.8783 5.4261 57.7139 5.28602C57.6443 5.21312 57.6055 5.11631 57.6055 5.01564C57.6065 4.95141 57.623 4.88836 57.6537 4.83187C57.6844 4.77538 57.7282 4.72712 57.7816 4.69119C57.9236 4.59704 58.0925 4.55193 58.2626 4.56277C58.7535 4.6201 59.2041 4.86179 59.5227 5.2387L60.6473 4.14369C60.3774 3.76237 60.0203 3.45069 59.6056 3.23441C59.1909 3.01814 58.7305 2.90349 58.2626 2.89996C57.6328 2.8743 57.0178 3.095 56.5486 3.51506C56.3343 3.69754 56.1626 3.92461 56.0455 4.18034C55.9285 4.43606 55.869 4.71425 55.8711 4.99537C55.8711 5.8876 56.4605 6.63113 57.6461 7.22596L58.2626 7.52337C58.7978 7.79375 59.062 8.06412 59.062 8.34802C59.0592 8.42835 59.0375 8.5069 58.9986 8.57734C58.9598 8.64778 58.905 8.70814 58.8385 8.75358C58.6694 8.87536 58.4643 8.93722 58.2559 8.92932C57.9835 8.91664 57.7184 8.83774 57.4835 8.6995C57.195 8.54536 56.9377 8.33908 56.7248 8.09116L55.5527 9.33488C55.8449 9.73438 56.23 10.057 56.675 10.2748C57.12 10.4927 57.6114 10.5993 58.1068 10.5854C58.8096 10.6169 59.4971 10.3745 60.0241 9.90943C60.4197 9.54629 60.67 9.05235 60.7286 8.51915C60.7871 7.98595 60.65 7.44966 60.3425 7.00966C59.9582 6.56321 59.4791 6.20764 58.9401 5.96872V5.96196Z" fill="white"/>
<path d="M64.4954 5.96147L63.8179 5.6235C63.6187 5.53961 63.4336 5.42562 63.2692 5.28553C63.1996 5.21263 63.1608 5.11582 63.1608 5.01516C63.1618 4.95092 63.1783 4.88787 63.209 4.83138C63.2396 4.77489 63.2835 4.72663 63.3369 4.69071C63.4789 4.59655 63.6478 4.55144 63.8179 4.56228C64.3088 4.61962 64.7594 4.86131 65.078 5.23822L66.223 4.1432C65.951 3.7591 65.5906 3.4457 65.1722 3.22929C64.7537 3.01288 64.2893 2.89978 63.8179 2.89947C63.1881 2.87381 62.5731 3.09452 62.1039 3.51458C61.8896 3.69705 61.7179 3.92412 61.6008 4.17985C61.4838 4.43558 61.4243 4.71376 61.4264 4.99488C61.4264 5.88712 62.0158 6.63065 63.2014 7.22547L63.8179 7.5364C64.3531 7.80678 64.6173 8.07715 64.6173 8.36105C64.6145 8.44138 64.5928 8.51993 64.5539 8.59037C64.5151 8.66081 64.4603 8.72117 64.3938 8.76661C64.2247 8.88839 64.0196 8.95025 63.8112 8.94235C63.5388 8.92967 63.2737 8.85077 63.0388 8.71253C62.7503 8.55839 62.493 8.35211 62.2801 8.10419L61.1487 9.3344C61.4388 9.73103 61.8208 10.0519 62.2619 10.2696C62.703 10.4873 63.1904 10.5955 63.6824 10.5849C64.3852 10.6164 65.0728 10.374 65.5997 9.90894C65.9954 9.54581 66.2457 9.05186 66.3042 8.51866C66.3628 7.98547 66.2256 7.44917 65.9181 7.00917C65.526 6.55947 65.0374 6.20368 64.4886 5.96823L64.4954 5.96147Z" fill="white"/>
<path d="M72.6998 3.42003C72.1084 3.08073 71.4376 2.9035 70.7554 2.90632C69.8143 2.90067 68.9071 3.25645 68.2217 3.89994C67.8154 4.25459 67.492 4.6938 67.2743 5.18664C67.0566 5.67947 66.9498 6.21394 66.9616 6.7524C66.9537 7.25463 67.0481 7.75323 67.2391 8.21798C67.4301 8.68273 67.7137 9.10396 68.0726 9.45615C68.4228 9.81842 68.8444 10.1045 69.3107 10.2964C69.7771 10.4884 70.2782 10.582 70.7825 10.5714C71.4685 10.5777 72.144 10.4028 72.7404 10.0645C73.3267 9.73094 73.8113 9.24506 74.1428 8.65854C74.4835 8.07123 74.6612 7.40395 74.6577 6.72536C74.6529 6.05372 74.4681 5.39559 74.1225 4.81922C73.7847 4.23232 73.2928 3.74853 72.6998 3.42003ZM72.212 8.27326C72.0283 8.46802 71.8053 8.62173 71.5578 8.72426C71.3102 8.82679 71.0437 8.87581 70.7757 8.86808C70.5104 8.87603 70.2464 8.82773 70.0012 8.72636C69.7559 8.62499 69.535 8.47286 69.3531 8.28002C68.9688 7.86064 68.7667 7.30655 68.7907 6.73888C68.7791 6.46031 68.8234 6.18223 68.9211 5.92103C69.0189 5.65983 69.168 5.4208 69.3598 5.21802C69.5412 5.02396 69.7618 4.87057 70.0071 4.76802C70.2524 4.66547 70.5167 4.61611 70.7825 4.6232C71.0498 4.61588 71.3156 4.66442 71.563 4.7657C71.8103 4.86697 72.0337 5.01874 72.2188 5.21126C72.6015 5.62609 72.8038 6.17548 72.7811 6.73888C72.7925 7.02003 72.7475 7.30063 72.6486 7.56415C72.5497 7.82766 72.3989 8.06877 72.2052 8.27326H72.212Z" fill="white"/>
<path d="M79.4404 4.60982C79.7763 4.6032 80.1101 4.66293 80.4227 4.78556C80.746 4.93401 81.0362 5.14544 81.2764 5.40743L82.8007 4.56927C82.4421 4.04493 81.9546 3.62131 81.3847 3.33906C80.7756 3.0425 80.1046 2.89425 79.4268 2.90646C78.6865 2.896 77.9553 3.07026 77.2996 3.41341C76.6826 3.73385 76.1684 4.22107 75.8159 4.81936C75.39 5.54532 75.2144 6.39058 75.3159 7.22564C75.4175 8.0607 75.7906 8.83952 76.3782 9.44277C76.8174 9.83802 77.3312 10.142 77.8895 10.3368C78.4478 10.5317 79.0394 10.6136 79.6298 10.5777C80.2202 10.5418 80.7975 10.3889 81.328 10.1279C81.8585 9.86688 82.3315 9.50299 82.7194 9.05749L81.2967 8.06386C81.0589 8.34153 80.759 8.55959 80.4213 8.70048C80.0836 8.84137 79.7174 8.90114 79.3523 8.87499C79.059 8.88802 78.766 8.84274 78.4903 8.74179C78.2147 8.64083 77.9619 8.48621 77.7467 8.28692C77.5447 8.08966 77.3861 7.85252 77.2811 7.59065C77.1761 7.32878 77.127 7.04793 77.137 6.76606C77.128 6.47486 77.18 6.185 77.2897 5.91499C77.3994 5.64498 77.5642 5.40074 77.7738 5.19789C78.23 4.79046 78.8289 4.57913 79.4404 4.60982Z" fill="white"/>
<path d="M85.6121 3.0957H83.7761V10.3958H85.6121V3.0957Z" fill="white"/>
<path d="M84.6844 0.0879319C84.5302 0.0854209 84.3772 0.11475 84.235 0.174075C84.0928 0.233401 83.9644 0.32144 83.8579 0.43266C83.7473 0.539248 83.6601 0.667576 83.6018 0.809522C83.5435 0.951469 83.5153 1.10395 83.5191 1.2573C83.5189 1.41701 83.5505 1.57516 83.6122 1.72254C83.6738 1.86993 83.7642 2.00359 83.8782 2.11574C83.9856 2.22612 84.114 2.31387 84.256 2.3738C84.398 2.43372 84.5506 2.4646 84.7047 2.4646C84.8589 2.4646 85.0115 2.43372 85.1534 2.3738C85.2954 2.31387 85.4239 2.22612 85.5312 2.11574C85.6425 2.00685 85.7301 1.87619 85.7883 1.73196C85.8466 1.58773 85.8744 1.43303 85.87 1.27758C85.8729 1.12072 85.8437 0.96492 85.7843 0.819661C85.7249 0.674402 85.6365 0.542728 85.5245 0.43266C85.4167 0.319397 85.2861 0.230137 85.1414 0.170728C84.9966 0.11132 84.8409 0.083105 84.6844 0.0879319Z" fill="white"/>
<path d="M92.1977 3.90011C91.8941 3.58353 91.5302 3.33073 91.1272 3.15658C90.7382 2.98839 90.3182 2.9032 89.8942 2.90648C89.4346 2.90092 88.9793 2.99471 88.5594 3.1814C88.1396 3.36809 87.7653 3.64325 87.4621 3.98798C86.7813 4.74766 86.422 5.74094 86.4595 6.75933C86.4438 7.25608 86.5273 7.75098 86.7053 8.21517C86.8832 8.67937 87.152 9.10358 87.496 9.46308C87.8032 9.80906 88.1809 10.0857 88.6038 10.2745C89.0267 10.4633 89.4851 10.56 89.9484 10.5581C90.3501 10.5618 90.7484 10.486 91.1205 10.335C91.5224 10.1586 91.8878 9.90869 92.1977 9.59826V10.3688H94.0336V3.09575H92.1977V3.90011ZM91.7099 8.30046C91.5265 8.49611 91.3038 8.65085 91.0562 8.75453C90.8087 8.85821 90.542 8.90848 90.2736 8.90205C90.0086 8.90859 89.7453 8.85758 89.502 8.75253C89.2587 8.64749 89.0411 8.49093 88.8645 8.2937C88.4764 7.87038 88.2698 7.31241 88.2886 6.73905C88.2668 6.17172 88.4686 5.61844 88.8509 5.19791C89.0301 5.00245 89.2492 4.8476 89.4935 4.74382C89.7377 4.64004 90.0015 4.58975 90.2669 4.59633C90.535 4.58973 90.8017 4.63856 91.05 4.73977C91.2984 4.84097 91.523 4.99236 91.7099 5.18439C91.9026 5.39067 92.0522 5.6332 92.1499 5.89781C92.2476 6.16242 92.2915 6.44381 92.279 6.72553C92.3028 7.30454 92.0986 7.86986 91.7099 8.30046Z" fill="white"/>
<path d="M97.4615 0.405273H95.6324V3.0955H94.6907V4.67044H95.6324V10.3889H97.4615V4.67044H98.5523V3.0955H97.4615V0.405273Z" fill="white"/>
<path d="M102.495 2.90611C101.991 2.89091 101.49 2.98109 101.023 3.17084C100.556 3.3606 100.135 3.64573 99.785 4.00789C99.4289 4.37453 99.1501 4.8087 98.9651 5.28471C98.78 5.76072 98.6926 6.26891 98.7078 6.77923C98.6912 7.2802 98.7789 7.77915 98.9655 8.24454C99.1521 8.70994 99.4335 9.13164 99.7918 9.48298C100.16 9.84542 100.599 10.1285 101.081 10.3145C101.564 10.5005 102.08 10.5856 102.596 10.5645C103.257 10.5818 103.913 10.4477 104.514 10.1724C105.061 9.8908 105.528 9.47434 105.869 8.96251L104.331 8.24601C104.099 8.47759 103.823 8.66036 103.52 8.78345C103.216 8.90653 102.89 8.96743 102.563 8.96251C102.051 8.98207 101.549 8.81912 101.147 8.50287C100.774 8.18946 100.532 7.74819 100.469 7.26591H106.363V6.91442C106.389 6.38151 106.307 5.84884 106.122 5.34827C105.937 4.8477 105.653 4.38952 105.286 4.00113C104.919 3.63352 104.48 3.34581 103.996 3.15616C103.512 2.96652 102.994 2.87908 102.475 2.89935L102.495 2.90611ZM100.564 5.83292C100.71 5.46749 100.942 5.14278 101.242 4.88661C101.634 4.59965 102.11 4.44996 102.596 4.46077C103.04 4.45239 103.474 4.58497 103.836 4.83929C104.182 5.07925 104.435 5.42979 104.554 5.83292H100.564Z" fill="white"/>
<path d="M111.6 7.02983C111.203 6.567 110.705 6.20157 110.144 5.96185L109.466 5.62388C109.267 5.53999 109.082 5.426 108.918 5.28591C108.848 5.21302 108.809 5.11621 108.809 5.01554C108.81 4.9513 108.827 4.88826 108.857 4.83177C108.888 4.77528 108.932 4.72701 108.985 4.69109C109.127 4.59694 109.296 4.55182 109.466 4.56266C109.957 4.62 110.408 4.86169 110.726 5.2386L111.871 4.14358C111.596 3.76572 111.234 3.45886 110.816 3.24844C110.397 3.03802 109.935 2.93011 109.466 2.93365C108.837 2.90799 108.222 3.12869 107.752 3.54875C107.538 3.73123 107.366 3.9583 107.249 4.21403C107.132 4.46976 107.073 4.74794 107.075 5.02906C107.075 5.92129 107.664 6.66483 108.85 7.25965L109.466 7.57058C110.002 7.84096 110.266 8.11133 110.266 8.39523C110.263 8.47556 110.241 8.55411 110.202 8.62455C110.164 8.69499 110.109 8.75535 110.042 8.80079C109.875 8.92554 109.668 8.98772 109.46 8.97653C109.187 8.96385 108.922 8.88495 108.687 8.74671C108.399 8.59257 108.141 8.38629 107.928 8.13837L106.797 9.36857C107.089 9.76807 107.474 10.0907 107.919 10.3085C108.364 10.5264 108.856 10.6329 109.351 10.6191C110.054 10.6506 110.742 10.4082 111.268 9.94312C111.664 9.57999 111.914 9.08604 111.973 8.55284C112.032 8.01964 111.894 7.48335 111.587 7.04335L111.6 7.02983Z" fill="white"/>
</g>
<defs>
<clipPath id="clip0_451_3132">
<rect width="112" height="20.6769" fill="white" transform="translate(0 0.0878906)"/>
</clipPath>
</defs>
</svg>
