<svg width="25" height="26" viewBox="0 0 25 26" fill="none" xmlns="http://www.w3.org/2000/svg">
<path d="M20.6998 22.3654C18.5374 22.3654 16.4297 21.8661 14.3766 20.8674C12.3236 19.8688 10.5048 18.5494 8.92045 16.9091C7.33606 15.2688 6.06211 13.3851 5.09861 11.2581C4.1351 9.13098 3.65301 6.948 3.65234 4.70911C3.65234 4.39661 3.75292 4.13619 3.95407 3.92786C4.15522 3.71952 4.40665 3.61536 4.70838 3.61536H8.78165C9.01633 3.61536 9.22586 3.69348 9.41025 3.84973C9.59463 4.00598 9.70359 4.20563 9.73711 4.44869L10.3908 8.09452C10.4244 8.33758 10.42 8.55911 10.3778 8.75911C10.3355 8.95911 10.2393 9.13688 10.0891 9.29244L7.67533 11.8445C8.37935 13.0945 9.25938 14.2664 10.3154 15.3601C11.3715 16.4539 12.5364 17.4001 13.8104 18.1987L16.1739 15.7508C16.3248 15.5945 16.5219 15.4775 16.7653 15.3997C17.0087 15.322 17.2474 15.3001 17.4814 15.3341L20.9512 16.0633C21.1859 16.1154 21.3786 16.2327 21.5295 16.4154C21.6804 16.598 21.7558 16.8105 21.7558 17.0529V21.2716C21.7558 21.5841 21.6552 21.8445 21.4541 22.0529C21.2529 22.2612 21.0015 22.3654 20.6998 22.3654Z" fill="white"/>
</svg>
