<svg width="19" height="19" viewBox="0 0 19 19" fill="none" xmlns="http://www.w3.org/2000/svg">
<g opacity="0.4">
<path d="M14.2745 13.1553L17.6652 16.5452L16.545 17.6654L13.155 14.2747C11.8937 15.2858 10.3248 15.8358 8.70825 15.8335C4.77525 15.8335 1.58325 12.6415 1.58325 8.7085C1.58325 4.7755 4.77525 1.5835 8.70825 1.5835C12.6413 1.5835 15.8333 4.7755 15.8333 8.7085C15.8356 10.3251 15.2856 11.894 14.2745 13.1553ZM12.6864 12.5679C13.6911 11.5347 14.2522 10.1497 14.2499 8.7085C14.2499 5.64712 11.7696 3.16683 8.70825 3.16683C5.64688 3.16683 3.16659 5.64712 3.16659 8.7085C3.16659 11.7699 5.64688 14.2502 8.70825 14.2502C10.1494 14.2524 11.5344 13.6913 12.5676 12.6866L12.6864 12.5679Z" fill="#969696"/>
</g>
</svg>
