<svg width="40" height="39" viewBox="0 0 40 39" fill="none" xmlns="http://www.w3.org/2000/svg">
<g id="ri:search-line">
<path id="Vector" d="M30.1754 27.0026L37.1353 33.9609L34.8359 36.2603L27.8776 29.3004C25.2886 31.3759 22.0683 32.5047 18.75 32.5C10.677 32.5 4.125 25.948 4.125 17.875C4.125 9.802 10.677 3.25 18.75 3.25C26.823 3.25 33.375 9.802 33.375 17.875C33.3797 21.1933 32.2509 24.4136 30.1754 27.0026ZM26.9156 25.7969C28.9779 23.6761 30.1297 20.8332 30.125 17.875C30.125 11.5911 25.0339 6.5 18.75 6.5C12.4661 6.5 7.375 11.5911 7.375 17.875C7.375 24.1589 12.4661 29.25 18.75 29.25C21.7082 29.2547 24.5511 28.1029 26.6719 26.0406L26.9156 25.7969Z" fill="#E74451"/>
</g>
</svg>
