<svg width="47" height="46" viewBox="0 0 47 46" fill="none" xmlns="http://www.w3.org/2000/svg">
<path d="M21.2915 4.13074C30.8135 4.13074 38.5415 11.6907 38.5415 21.0057C38.5415 30.3207 30.8135 37.8807 21.2915 37.8807C11.7695 37.8807 4.0415 30.3207 4.0415 21.0057C4.0415 11.6907 11.7695 4.13074 21.2915 4.13074ZM21.2915 34.1307C28.7033 34.1307 34.7082 28.2564 34.7082 21.0057C34.7082 13.7551 28.7033 7.88074 21.2915 7.88074C13.8798 7.88074 7.87484 13.7551 7.87484 21.0057C7.87484 28.2564 13.8798 34.1307 21.2915 34.1307ZM37.5544 34.2639L42.9767 39.5664L40.2646 42.2195L34.8443 36.9151L37.5544 34.2639Z" fill="white"/>
</svg>
