<svg width="20" height="20" viewBox="0 0 20 20" fill="none" xmlns="http://www.w3.org/2000/svg">
<path d="M18.3882 14.4628C15.3808 13.0302 14.9015 10.8184 14.8802 10.6543C14.8544 10.4556 14.8251 10.2994 15.0479 10.0972C15.2627 9.90194 16.2159 9.3214 16.4803 9.13977C16.9175 8.83901 17.11 8.53873 16.9681 8.1696C16.8688 7.91425 16.6272 7.81806 16.3727 7.81806C16.2924 7.8183 16.2124 7.82714 16.134 7.84443C15.6537 7.94696 15.1873 8.18376 14.9174 8.24773C14.8849 8.25595 14.8516 8.26038 14.8181 8.26091C14.6742 8.26091 14.6197 8.19792 14.6336 8.02752C14.6673 7.51094 14.7387 6.50269 14.6559 5.56084C14.5423 4.26501 14.1175 3.62295 13.6139 3.05511C13.3703 2.77973 12.239 1.59668 10.0558 1.59668C7.87261 1.59668 6.74281 2.77973 6.50068 3.05169C5.99557 3.61953 5.57133 4.26159 5.4587 5.55743C5.37584 6.49928 5.45026 7.50704 5.48103 8.0241C5.49095 8.18621 5.44034 8.25749 5.29645 8.25749C5.26296 8.25693 5.22965 8.2525 5.19721 8.24431C4.92779 8.18035 4.46138 7.94354 3.98108 7.84101C3.90273 7.82372 3.8227 7.81488 3.74241 7.81464C3.48688 7.81464 3.24623 7.91229 3.147 8.16619C3.00509 8.53531 3.19662 8.83559 3.63524 9.13635C3.8997 9.31799 4.85286 9.89804 5.06771 10.0938C5.29 10.296 5.26122 10.4522 5.23542 10.6509C5.21408 10.8174 4.73428 13.0292 1.72743 14.4593C1.55128 14.5433 1.25159 14.721 1.78002 15.0081C2.60963 15.4593 3.16188 15.411 3.59108 15.6829C3.95527 15.9139 3.73993 16.4119 4.00489 16.5916C4.33039 16.8127 5.29248 16.5759 6.53541 16.9797C7.57739 17.3176 8.21051 18.2721 10.0583 18.2721C11.9061 18.2721 12.5575 17.3132 13.5812 16.9797C14.8216 16.5759 15.7857 16.8127 16.1117 16.5916C16.3761 16.4119 16.1613 15.9139 16.5255 15.6829C16.9547 15.411 17.5064 15.4593 18.3365 15.0081C18.864 14.7245 18.5643 14.5467 18.3882 14.4628Z" fill="white"/>
</svg>
