<svg width="23" height="23" viewBox="0 0 23 23" fill="none" xmlns="http://www.w3.org/2000/svg">
<path d="M20.8225 22.6144C18.2765 22.6144 15.7949 22.0378 13.3776 20.8845C10.9603 19.7313 8.8189 18.2075 6.95343 16.3132C5.08797 14.419 3.58801 12.2436 2.45357 9.78713C1.31914 7.33066 0.751522 4.80964 0.750732 2.22406C0.750732 1.86317 0.86915 1.56242 1.10598 1.32183C1.34282 1.08123 1.63886 0.960938 1.99411 0.960938H6.79002C7.06632 0.960938 7.31303 1.05116 7.53013 1.23161C7.74722 1.41205 7.87551 1.64262 7.91498 1.92331L8.68469 6.13371C8.72417 6.4144 8.71904 6.67023 8.6693 6.9012C8.61957 7.13217 8.50628 7.33748 8.32944 7.51712L5.48743 10.4644C6.31635 11.908 7.3525 13.2613 8.59588 14.5244C9.83926 15.7875 11.2109 16.8802 12.7109 17.8025L15.4937 14.9755C15.6713 14.7951 15.9034 14.66 16.19 14.5701C16.4766 14.4803 16.7576 14.4551 17.0331 14.4943L21.1185 15.3364C21.3948 15.3966 21.6218 15.5321 21.7994 15.743C21.977 15.954 22.0659 16.1994 22.0659 16.4792V21.3513C22.0659 21.7122 21.9474 22.0129 21.7106 22.2535C21.4738 22.4941 21.1777 22.6144 20.8225 22.6144Z" fill="url(#paint0_linear_451_2524)"/>
<defs>
<linearGradient id="paint0_linear_451_2524" x1="11.4083" y1="0.960937" x2="11.4083" y2="22.6144" gradientUnits="userSpaceOnUse">
<stop stop-color="#E4404A"/>
<stop offset="1" stop-color="#EB4B5E"/>
</linearGradient>
</defs>
</svg>
