<svg width="21" height="21" viewBox="0 0 21 21" fill="none" xmlns="http://www.w3.org/2000/svg">
<path id="Vector" d="M18.9167 20.6885C16.5628 20.6885 14.2684 20.1637 12.0335 19.1141C9.79856 18.0645 7.81873 16.6777 6.094 14.9537C4.36927 13.2297 2.98248 11.2499 1.93363 9.01425C0.884774 6.7786 0.359983 4.48419 0.359253 2.13102C0.359253 1.80257 0.468736 1.52886 0.687703 1.3099C0.90667 1.09093 1.18038 0.981445 1.50883 0.981445H5.94291C6.19837 0.981445 6.42646 1.06356 6.62718 1.22778C6.8279 1.39201 6.94651 1.60185 6.98301 1.85731L7.69465 5.68924C7.73114 5.9447 7.7264 6.17753 7.68042 6.38774C7.63443 6.59795 7.52969 6.7848 7.3662 6.9483L4.73859 9.63064C5.50498 10.9444 6.46296 12.1761 7.61253 13.3257C8.76211 14.4753 10.0303 15.4698 11.4171 16.3091L13.9899 13.7363C14.1542 13.572 14.3688 13.4491 14.6337 13.3673C14.8987 13.2856 15.1585 13.2626 15.4132 13.2983L19.1904 14.0647C19.4459 14.1195 19.6557 14.2428 19.8199 14.4348C19.9842 14.6267 20.0663 14.8501 20.0663 15.1048V19.5389C20.0663 19.8674 19.9568 20.1411 19.7378 20.36C19.5189 20.579 19.2452 20.6885 18.9167 20.6885Z" fill="url(#paint0_linear_1396_670)"/>
<defs>
<linearGradient id="paint0_linear_1396_670" x1="10.2128" y1="0.981445" x2="10.2128" y2="20.6885" gradientUnits="userSpaceOnUse">
<stop stop-color="#E4404A"/>
<stop offset="1" stop-color="#EB4B5E"/>
</linearGradient>
</defs>
</svg>
