<svg width="68" height="68" viewBox="0 0 68 68" fill="none" xmlns="http://www.w3.org/2000/svg">
<g filter="url(#filter0_i_192_371)">
<circle cx="33.8659" cy="34.2556" r="33.5358" fill="white"/>
</g>
<path fill-rule="evenodd" clip-rule="evenodd" d="M48.2746 20.0811C47.7885 20.5658 47.4545 21.397 47.4545 22.1218C47.4545 22.8466 47.7885 23.6777 48.2746 24.1625C48.6919 24.5786 48.8741 24.6535 49.4689 24.6535C50.0623 24.6535 50.246 24.5784 50.6586 24.1669C51.6519 23.1764 51.6577 21.1521 50.6701 20.108C50.245 19.6584 50.087 19.5901 49.4736 19.5901C48.8735 19.5901 48.6928 19.6641 48.2746 20.0811ZM50.0577 21.1125C50.1855 21.2945 50.2902 21.7487 50.2902 22.1218C50.2902 23.2676 49.5942 23.8235 48.9207 23.2156C48.7237 23.0379 48.6475 22.7562 48.6475 22.2064C48.6475 21.3136 48.9543 20.7815 49.4689 20.7815C49.6679 20.7815 49.9279 20.9277 50.0577 21.1125ZM21.7661 23.5925C20.2582 24.0847 19.1245 25.4136 18.8597 26.999L18.754 27.6319H20.1158C21.2839 27.6319 21.4886 27.5948 21.5549 27.3713C21.7937 26.5661 22.172 26.0663 22.6911 25.8705C23.1854 25.6839 23.3001 25.691 23.8111 25.9399C24.2475 26.1524 24.4311 26.3635 24.5977 26.844C24.7915 27.4032 24.7889 27.525 24.5739 27.9746C24.3029 28.5415 23.546 28.9722 22.821 28.9722H22.3522L22.3957 30.2008L22.439 31.4294L23.1528 31.5112C24.9619 31.7185 25.5443 34.0619 23.9864 34.8654C23.1022 35.3212 22.0108 34.7571 21.6615 33.6633L21.5189 33.2165L20.2006 33.1732C19.4754 33.1493 18.8319 33.1829 18.7705 33.2476C18.7092 33.3124 18.7873 33.7774 18.9442 34.2809C19.3101 35.4544 20.2617 36.5405 21.352 37.0291C22.4155 37.5058 24.3468 37.5237 25.3587 37.0663C26.8053 36.4124 27.6452 35.2702 27.8291 33.7063C27.9665 32.5388 27.6925 31.7419 26.847 30.85L26.1255 30.0891L26.498 29.6424C27.7592 28.1296 27.7603 26.1373 26.5008 24.8264C25.682 23.9739 24.698 23.5665 23.335 23.5152C22.6779 23.4907 21.9719 23.5254 21.7661 23.5925ZM42.2609 23.7015C41.3829 24.0237 40.1315 25.2077 39.6352 26.1859C39.0558 27.3277 38.8 28.3738 38.6989 30.0147C38.4998 33.2459 39.7203 35.9058 41.8874 36.963C43.012 37.5117 44.6626 37.5391 45.6608 37.026C47.8468 35.9017 48.8276 34.1458 49.0312 30.9928C49.2476 27.6401 47.9854 24.8238 45.8394 23.8716C44.9175 23.4627 43.1422 23.3782 42.2609 23.7015ZM32.2071 24.2439C30.971 25.9323 29.5172 28.2602 29.1022 29.2159C27.8775 32.0354 28.1242 34.5568 29.781 36.1504C32.2278 38.5042 36.8356 37.4245 37.9783 34.2295C38.2536 33.46 38.2449 31.7061 37.9619 30.8777C37.6673 30.0154 36.871 29.0844 35.9859 28.5671C35.4693 28.2653 35.0222 28.1441 34.204 28.0842L33.1116 28.0042L34.6075 25.9214C35.4302 24.7757 36.1033 23.7873 36.1033 23.7248C36.1033 23.6622 35.3309 23.611 34.3868 23.611H32.6705L32.2071 24.2439ZM44.8523 26.5729C46.1727 27.3759 46.656 31.3456 45.6683 33.2764C44.8339 34.9072 43.2286 35.0917 42.251 33.6691C41.0426 31.9103 41.4385 27.4528 42.8812 26.5755C43.473 26.2155 44.2629 26.2145 44.8523 26.5729ZM15.288 28.7067C13.5024 29.7681 12.2174 30.8585 11.3912 32.0131C7.93216 36.847 11.4177 42.0129 20.079 44.8897C21.9487 45.5107 24.5264 46.1275 26.4279 46.4091L27.5796 46.5796L27.6226 47.7503L27.6658 48.921L31.8802 46.6534C34.1982 45.4061 36.0958 44.3187 36.0973 44.2368C36.0992 44.1258 28.4483 39.8674 27.7139 39.5706C27.6464 39.5432 27.5911 40.025 27.5911 40.6409V41.7608L27.0311 41.681C20.0865 40.6909 14.7895 38.2272 13.6117 35.4389C13.2975 34.6952 13.3026 33.5303 13.6232 32.7872C13.9392 32.0548 15.1626 30.7584 16.1098 30.1523L16.8389 29.6859V28.8078C16.8389 28.3248 16.7839 27.9298 16.7169 27.9298C16.6497 27.9298 16.0068 28.2794 15.288 28.7067ZM50.8876 28.7919V29.6859L51.6301 30.1609C52.8182 30.9212 53.9787 32.272 54.2535 33.2143C55.0859 36.07 52.1738 38.6914 46.1331 40.524C44.4237 41.0425 41.0895 41.6768 39.1647 41.8494C38.5897 41.9011 37.8674 41.9793 37.5593 42.0234L36.9993 42.1036V44.4925V46.8814L38.2313 46.7782C45.0596 46.2063 51.3115 44.0779 54.8142 41.1325C55.7839 40.3173 56.9337 38.7755 57.3308 37.7587C57.7652 36.6461 57.7726 34.8634 57.3471 33.7787C56.6327 31.9574 54.9776 30.2251 52.5824 28.7922C50.8233 27.7399 50.8876 27.7399 50.8876 28.7919ZM34.1824 30.6954C34.4688 30.8431 34.7457 31.1763 34.9331 31.5989C35.3322 32.4987 35.2002 33.2682 34.524 33.9832C34.0329 34.5026 33.9911 34.5166 33.1212 34.4539C32.0745 34.3784 31.5672 34.0085 31.3027 33.1281C30.9963 32.1084 31.4107 31.2037 32.4445 30.6348C32.8755 30.3977 33.658 30.425 34.1824 30.6954Z" fill="url(#paint0_linear_192_371)"/>
<defs>
<filter id="filter0_i_192_371" x="0.330078" y="0.719727" width="67.0713" height="67.0717" filterUnits="userSpaceOnUse" color-interpolation-filters="sRGB">
<feFlood flood-opacity="0" result="BackgroundImageFix"/>
<feBlend mode="normal" in="SourceGraphic" in2="BackgroundImageFix" result="shape"/>
<feColorMatrix in="SourceAlpha" type="matrix" values="0 0 0 0 0 0 0 0 0 0 0 0 0 0 0 0 0 0 127 0" result="hardAlpha"/>
<feOffset/>
<feGaussianBlur stdDeviation="1"/>
<feComposite in2="hardAlpha" operator="arithmetic" k2="-1" k3="1"/>
<feColorMatrix type="matrix" values="0 0 0 0 0.191667 0 0 0 0 0.191667 0 0 0 0 0.191667 0 0 0 0.45 0"/>
<feBlend mode="normal" in2="shape" result="effect1_innerShadow_192_371"/>
</filter>
<linearGradient id="paint0_linear_192_371" x1="33.8659" y1="19.5901" x2="33.8659" y2="48.921" gradientUnits="userSpaceOnUse">
<stop stop-color="#E4404A"/>
<stop offset="1" stop-color="#EB4B5E"/>
</linearGradient>
</defs>
</svg>
