<svg width="26" height="26" viewBox="0 0 26 26" fill="none" xmlns="http://www.w3.org/2000/svg">
<path d="M13.2057 2.57373C18.9589 2.57373 23.6224 7.23727 23.6224 12.9904C23.6224 18.7435 18.9589 23.4071 13.2057 23.4071C11.3649 23.41 9.55643 22.9229 7.96616 21.9956L2.79324 23.4071L4.20158 18.2321C3.27355 16.6413 2.786 14.8321 2.78908 12.9904C2.78908 7.23727 7.45262 2.57373 13.2057 2.57373ZM9.65574 8.09456L9.44741 8.1029C9.31254 8.11111 9.18072 8.14654 9.05991 8.20706C8.94691 8.27105 8.84376 8.35105 8.75366 8.44456C8.62866 8.56227 8.55783 8.66435 8.48178 8.76331C8.09649 9.26425 7.88905 9.87926 7.8922 10.5112C7.89428 11.0216 8.02762 11.5185 8.23595 11.9831C8.66199 12.9227 9.36303 13.9175 10.288 14.8394C10.511 15.0612 10.7297 15.2841 10.9651 15.4914C12.1145 16.5034 13.4841 17.2331 14.9651 17.6227L15.5568 17.7133C15.7495 17.7237 15.9422 17.7091 16.136 17.6998C16.4393 17.6841 16.7355 17.602 17.0037 17.4591C17.1401 17.3889 17.2732 17.3124 17.4026 17.23C17.4026 17.23 17.4474 17.2008 17.5328 17.1362C17.6735 17.0321 17.7599 16.9581 17.8766 16.8362C17.963 16.7466 18.038 16.6414 18.0953 16.5216C18.1766 16.3519 18.2578 16.0279 18.2912 15.7581C18.3162 15.5519 18.3089 15.4394 18.3057 15.3696C18.3016 15.2581 18.2089 15.1425 18.1078 15.0935L17.5016 14.8216C17.5016 14.8216 16.5953 14.4269 16.0412 14.1748C15.9832 14.1495 15.921 14.135 15.8578 14.1321C15.7866 14.1247 15.7145 14.1328 15.6466 14.1556C15.5787 14.1784 15.5165 14.2155 15.4641 14.2644C15.4589 14.2623 15.3891 14.3216 14.636 15.2341C14.5927 15.2922 14.5332 15.3361 14.4649 15.3602C14.3966 15.3844 14.3227 15.3876 14.2526 15.3696C14.1848 15.3514 14.1183 15.3284 14.0537 15.3008C13.9245 15.2466 13.8797 15.2258 13.7912 15.1883C13.1933 14.9274 12.6398 14.5749 12.1505 14.1435C12.0193 14.0289 11.8974 13.9039 11.7724 13.7831C11.3626 13.3906 11.0055 12.9467 10.7099 12.4623L10.6485 12.3633C10.6043 12.2968 10.5686 12.2251 10.5422 12.1498C10.5026 11.9966 10.6057 11.8737 10.6057 11.8737C10.6057 11.8737 10.8589 11.5966 10.9766 11.4466C11.0912 11.3008 11.188 11.1591 11.2505 11.0581C11.3735 10.8602 11.412 10.6571 11.3474 10.4998C11.0557 9.78727 10.7537 9.0779 10.4432 8.37373C10.3818 8.23415 10.1995 8.13415 10.0339 8.11435C9.97762 8.1081 9.92137 8.10185 9.86512 8.09769C9.72523 8.09074 9.58505 8.09213 9.44533 8.10185L9.6547 8.09352L9.65574 8.09456Z" fill="white"/>
</svg>
