<svg width="25" height="25" viewBox="0 0 25 25" fill="none" xmlns="http://www.w3.org/2000/svg">
<path d="M12.501 2.8064C18.024 2.8064 22.501 7.2834 22.501 12.8064C22.501 18.3294 18.024 22.8064 12.501 22.8064C10.7338 22.8092 8.99765 22.3416 7.47099 21.4514L2.50499 22.8064L3.85699 17.8384C2.96608 16.3113 2.49804 14.5744 2.50099 12.8064C2.50099 7.2834 6.97799 2.8064 12.501 2.8064ZM9.09299 8.1064L8.89299 8.1144C8.76351 8.12228 8.63697 8.1563 8.52099 8.2144C8.41251 8.27583 8.31349 8.35262 8.22699 8.4424C8.10699 8.5554 8.03899 8.6534 7.96599 8.7484C7.59611 9.2293 7.39696 9.81971 7.39999 10.4264C7.40199 10.9164 7.52999 11.3934 7.72999 11.8394C8.13899 12.7414 8.81199 13.6964 9.69999 14.5814C9.91399 14.7944 10.124 15.0084 10.35 15.2074C11.4534 16.1789 12.7682 16.8794 14.19 17.2534L14.758 17.3404C14.943 17.3504 15.128 17.3364 15.314 17.3274C15.6052 17.3124 15.8896 17.2335 16.147 17.0964C16.2779 17.0289 16.4057 16.9555 16.53 16.8764C16.53 16.8764 16.573 16.8484 16.655 16.7864C16.79 16.6864 16.873 16.6154 16.985 16.4984C17.068 16.4124 17.14 16.3114 17.195 16.1964C17.273 16.0334 17.351 15.7224 17.383 15.4634C17.407 15.2654 17.4 15.1574 17.397 15.0904C17.393 14.9834 17.304 14.8724 17.207 14.8254L16.625 14.5644C16.625 14.5644 15.755 14.1854 15.223 13.9434C15.1673 13.9191 15.1077 13.9052 15.047 13.9024C14.9786 13.8954 14.9094 13.9031 14.8442 13.925C14.779 13.9469 14.7193 13.9825 14.669 14.0294C14.664 14.0274 14.597 14.0844 13.874 14.9604C13.8325 15.0162 13.7753 15.0583 13.7098 15.0815C13.6443 15.1046 13.5733 15.1077 13.506 15.0904C13.4408 15.0729 13.377 15.0509 13.315 15.0244C13.191 14.9724 13.148 14.9524 13.063 14.9164C12.4891 14.6659 11.9577 14.3275 11.488 13.9134C11.362 13.8034 11.245 13.6834 11.125 13.5674C10.7316 13.1906 10.3887 12.7644 10.105 12.2994L10.046 12.2044C10.0036 12.1406 9.96935 12.0717 9.94399 11.9994C9.90599 11.8524 10.005 11.7344 10.005 11.7344C10.005 11.7344 10.248 11.4684 10.361 11.3244C10.471 11.1844 10.564 11.0484 10.624 10.9514C10.742 10.7614 10.779 10.5664 10.717 10.4154C10.437 9.7314 10.147 9.0504 9.84899 8.3744C9.78999 8.2404 9.61499 8.1444 9.45599 8.1254C9.40199 8.1194 9.34799 8.1134 9.29399 8.1094C9.1597 8.10272 9.02513 8.10406 8.89099 8.1134L9.09199 8.1054L9.09299 8.1064Z" fill="white"/>
</svg>
