<?xml version="1.0" encoding="UTF-8" standalone="no" ?>
<!DOCTYPE svg PUBLIC "-//W3C//DTD SVG 1.1//EN" "http://www.w3.org/Graphics/SVG/1.1/DTD/svg11.dtd">
<svg xmlns="http://www.w3.org/2000/svg" xmlns:xlink="http://www.w3.org/1999/xlink" version="1.1" width="25" height="25" viewBox="0 0 1080 1080" xml:space="preserve">
<desc>Created with Fabric.js 5.2.4</desc>
<defs>
</defs>
<rect x="0" y="0" width="100%" height="100%" fill="transparent"></rect>
<g transform="matrix(1 0 0 1 540 540)" id="84796df1-9489-4f9b-8b52-7a976fa20f4c"  >
<rect style="stroke: none; stroke-width: 1; stroke-dasharray: none; stroke-linecap: butt; stroke-dashoffset: 0; stroke-linejoin: miter; stroke-miterlimit: 4; fill: rgb(255,255,255); fill-rule: nonzero; opacity: 1; visibility: hidden;" vector-effect="non-scaling-stroke"  x="-540" y="-540" rx="0" ry="0" width="1080" height="1080" />
</g>
<g transform="matrix(1 0 0 1 540 540)" id="61df167d-e425-4735-b287-dd03b038d5d9"  >
</g>
<g transform="matrix(43.2 0 0 43.2 540 540)"  >
<path style="stroke: none; stroke-width: 1; stroke-dasharray: none; stroke-linecap: butt; stroke-dashoffset: 0; stroke-linejoin: miter; stroke-miterlimit: 4; fill: rgb(232,16,16); fill-rule: nonzero; opacity: 1;"  transform=" translate(-12.5, -12.81)" d="M 12.501 2.8064 C 18.024 2.8064 22.501 7.2834 22.501 12.8064 C 22.501 18.3294 18.024 22.8064 12.501 22.8064 C 10.7338 22.8092 8.99765 22.3416 7.47099 21.4514 L 2.50499 22.8064 L 3.85699 17.8384 C 2.96608 16.3113 2.49804 14.5744 2.50099 12.8064 C 2.50099 7.2834 6.97799 2.8064 12.501 2.8064 Z M 9.09299 8.1064 L 8.89299 8.1144 C 8.76351 8.12228 8.63697 8.1563 8.52099 8.2144 C 8.41251 8.27583 8.31349 8.35262 8.22699 8.4424 C 8.10699 8.5554 8.03899 8.6534 7.96599 8.7484 C 7.59611 9.2293 7.39696 9.81971 7.39999 10.4264 C 7.40199 10.9164 7.52999 11.3934 7.72999 11.8394 C 8.13899 12.7414 8.81199 13.6964 9.69999 14.5814 C 9.91399 14.7944 10.124 15.0084 10.35 15.2074 C 11.4534 16.1789 12.7682 16.8794 14.19 17.2534 L 14.758 17.3404 C 14.943 17.3504 15.128 17.3364 15.314 17.3274 C 15.6052 17.3124 15.8896 17.2335 16.147 17.0964 C 16.2779 17.0289 16.4057 16.9555 16.53 16.8764 C 16.53 16.8764 16.573 16.8484 16.655 16.7864 C 16.79 16.6864 16.873 16.6154 16.985 16.4984 C 17.068 16.4124 17.14 16.3114 17.195 16.1964 C 17.273 16.0334 17.351 15.7224 17.383 15.4634 C 17.407 15.2654 17.4 15.1574 17.397 15.0904 C 17.393 14.9834 17.304 14.8724 17.207 14.8254 L 16.625 14.5644 C 16.625 14.5644 15.755 14.1854 15.223 13.9434 C 15.1673 13.9191 15.1077 13.9052 15.047 13.9024 C 14.9786 13.8954 14.9094 13.9031 14.8442 13.925 C 14.779 13.9469 14.7193 13.9825 14.669 14.0294 C 14.664 14.0274 14.597 14.0844 13.874 14.9604 C 13.8325 15.0162 13.7753 15.0583 13.7098 15.0815 C 13.6443 15.1046 13.5733 15.1077 13.506 15.0904 C 13.4408 15.0729 13.377 15.0509 13.315 15.0244 C 13.191 14.9724 13.148 14.9524 13.063 14.9164 C 12.4891 14.6659 11.9577 14.3275 11.488 13.9134 C 11.362 13.8034 11.245 13.6834 11.125 13.5674 C 10.7316 13.1906 10.3887 12.7644 10.105 12.2994 L 10.046 12.2044 C 10.0036 12.1406 9.96935 12.0717 9.94399 11.9994 C 9.90599 11.8524 10.005 11.7344 10.005 11.7344 C 10.005 11.7344 10.248 11.4684 10.361 11.3244 C 10.471 11.1844 10.564 11.0484 10.624 10.9514 C 10.742 10.7614 10.779 10.5664 10.717 10.4154 C 10.437 9.7314 10.147 9.0504 9.84899 8.3744 C 9.78999 8.2404 9.61499 8.1444 9.45599 8.1254 C 9.40199 8.1194 9.34799 8.1134 9.29399 8.1094 C 9.1597 8.10272 9.02513 8.10406 8.89099 8.1134 L 9.09199 8.1054 L 9.09299 8.1064 Z" stroke-linecap="round" />
</g>
</svg>
