<svg width="1087" height="686" viewBox="0 0 1087 686" fill="none" xmlns="http://www.w3.org/2000/svg">
<g clip-path="url(#clip0_2301_1600)">
<path opacity="0.5" d="M1060.63 237.596C1048.29 193.164 965.99 241.494 965.99 241.494L987.533 202.448C990.138 198.523 992.417 194.392 994.348 190.095C1005.17 165.923 1005.03 139.996 994.348 117.545C991.418 103.878 982.409 84.339 957.765 62.8746C911.125 22.4038 754.753 -5.30736 709.413 0.845453C664.073 6.99827 750.57 26.036 750.57 26.036H743.724C611.887 12.0708 479.235 10.2704 347.617 12.9945C314.607 13.6677 281.502 14.7637 249.182 20.3215C239.891 21.8871 229.896 24.3765 224.349 31.8757C199.846 65.1134 300.35 68.3542 316.173 67.7123C247.129 76.6832 170.471 79.4387 106.236 106.101C97.2907 109.811 88.4075 114.226 81.6551 121.099C74.9026 127.972 70.5159 137.757 72.0356 147.574C76.4693 176.052 115.637 184.506 137.946 190.831C137.946 190.831 9.9162 275.906 25.0035 319.085C31.8562 339.593 43.0268 358.395 57.763 374.226C47.9824 386.245 39.5453 399.296 32.6019 413.147C28.5128 421.507 23.2018 432.952 27.7295 442.58C51.0419 491.615 404.691 659.98 688.075 611.916C763.354 599.156 838.336 578.052 904.278 540.728C969.954 503.576 1036.88 442.204 1053.43 364.832C1053.98 362.28 1054.37 359.807 1054.65 357.396C1065.05 321.747 1070.97 274.763 1060.63 237.596Z" fill="#E74451"/>
<path opacity="0.8" d="M1060.63 237.596C1048.29 193.164 965.99 241.494 965.99 241.494L987.532 202.448C990.138 198.523 992.417 194.392 994.347 190.095C1005.17 165.923 1005.03 139.996 994.347 117.545C991.418 103.878 982.409 84.339 957.765 62.8746C911.125 22.4038 754.753 -5.30736 709.413 0.845453C664.073 6.99827 750.57 26.036 750.57 26.036H743.724C611.886 12.0708 479.235 10.2704 347.617 12.9945C314.606 13.6677 281.502 14.7637 249.181 20.3215C239.891 21.8871 229.895 24.3765 224.349 31.8757C199.846 65.1134 300.35 68.3542 316.173 67.7123C247.129 76.6832 170.471 79.4387 106.236 106.101C97.2905 109.811 88.4073 114.226 81.6549 121.099C74.9025 127.972 72.2547 137.632 72.0354 147.574C71.4087 173.829 113.647 183.583 138.009 190.831C138.009 190.831 9.9787 275.906 25.066 319.085C31.9187 339.593 43.0893 358.395 57.8255 374.226C48.023 386.242 39.5648 399.293 32.6017 413.147C28.5127 421.507 23.2016 432.952 27.7293 442.58C51.0417 491.615 404.691 659.98 688.075 611.916C763.354 599.156 838.336 578.052 904.278 540.728C969.954 503.576 1036.88 442.204 1053.43 364.832C1053.98 362.28 1054.37 359.807 1054.65 357.396C1065.05 321.747 1070.97 274.763 1060.63 237.596Z" fill="#F5F5F5"/>
<path d="M831.615 189.047C831.615 189.047 833.182 184.256 841.203 182.659C849.225 181.062 858.797 189.861 858.797 189.861C858.797 189.861 865.189 177.07 871.582 176.271C877.974 175.473 885.165 181.062 885.165 181.062" stroke="#263238" stroke-miterlimit="10"/>
<path d="M810.762 219.435C810.762 219.435 812.328 214.644 820.366 213.047C828.403 211.45 837.881 220.202 837.881 220.202C837.881 220.202 844.273 207.427 850.665 206.628C857.057 205.83 864.264 211.419 864.264 211.419" stroke="#263238" stroke-miterlimit="10"/>
<path d="M886.699 219.591C886.699 219.591 887.921 215.944 894 214.738C900.079 213.532 907.395 220.202 907.395 220.202C907.395 220.202 912.268 210.48 917.124 209.869C921.981 209.258 927.465 213.517 927.465 213.517" stroke="#263238" stroke-miterlimit="10"/>
<path d="M975.531 251.764C975.531 251.764 976.33 249.369 980.231 248.633C984.132 247.897 989.02 252.219 989.02 252.219C989.02 252.219 992.154 245.847 995.397 245.439C998.64 245.032 1002.18 247.835 1002.18 247.835" stroke="#263238" stroke-miterlimit="10"/>
<path d="M549.829 180.592C541.573 143.503 498.786 115.87 461.499 121.099C452.123 122.188 443.3 126.097 436.197 132.309C426.672 141.155 428.975 151.065 424.275 161.915C423.694 163.459 422.744 164.838 421.507 165.929C420.269 167.021 418.783 167.793 417.177 168.177C407.903 169.743 400.429 160.537 391.045 160.459C384.026 160.459 375.049 164.294 371.132 170.353C367.482 175.989 370.036 185.837 363.471 189.579C356.123 193.759 347.209 185.806 339.266 188.686C329.411 192.272 333.892 199.426 330.304 203.904C326.717 208.382 319.557 206.597 309.687 205.705C299.816 204.812 291.764 216.445 291.764 216.445H602.705C602.705 216.445 605.4 211.967 593.744 194.056C582.087 176.146 565.966 188.686 558.791 188.686C551.615 188.686 549.829 180.608 549.829 180.592Z" stroke="#263238" stroke-miterlimit="10"/>
<path d="M636.435 121.021C633.13 106.148 615.959 95.0633 601.013 97.1925C597.244 97.6201 593.697 99.1879 590.845 101.686C587.038 105.193 587.931 109.185 586.051 113.537C585.811 114.153 585.427 114.702 584.931 115.138C584.435 115.574 583.841 115.884 583.199 116.042C579.471 116.669 576.478 112.911 572.718 112.911C571.173 112.921 569.65 113.283 568.265 113.969C566.881 114.656 565.671 115.649 564.728 116.872C563.255 119.142 564.289 123.135 561.595 124.591C558.665 126.266 555.077 123.025 551.897 124.23C547.933 125.671 549.735 128.536 548.293 130.336C546.852 132.137 543.985 131.417 540.021 131.057C536.057 130.696 532.83 135.378 532.83 135.378H657.711C657.711 135.378 658.792 133.577 654.123 126.391C649.455 119.205 642.969 124.23 640.102 124.23C637.234 124.23 636.435 121.037 636.435 121.021Z" stroke="#263238" stroke-miterlimit="10"/>
<path d="M902.633 303.351C899.311 288.478 882.156 277.393 867.194 279.507C863.43 279.944 859.889 281.517 857.042 284.016C853.219 287.523 854.128 291.515 852.232 295.852C851.999 296.471 851.616 297.023 851.119 297.46C850.622 297.896 850.025 298.205 849.381 298.357C845.668 298.999 842.66 295.226 838.9 295.226C837.354 295.232 835.83 295.592 834.444 296.279C833.059 296.966 831.85 297.96 830.91 299.187C829.453 301.441 830.471 305.449 827.776 306.905C824.831 308.58 821.243 305.339 818.063 306.545C814.115 307.985 815.901 310.85 814.475 312.651C813.049 314.451 810.151 313.731 806.203 313.371C802.255 313.011 799.012 317.676 799.012 317.676H923.783C923.783 317.676 924.864 315.876 920.18 308.69C915.495 301.504 909.041 306.545 906.08 306.545C903.118 306.545 902.633 303.351 902.633 303.351Z" stroke="#263238" stroke-miterlimit="10"/>
<path d="M702.489 287.069C697.413 264.289 671.155 247.303 648.219 250.559C642.455 251.23 637.03 253.632 632.661 257.448C626.802 262.818 628.196 268.923 625.298 275.593C624.935 276.536 624.35 277.377 623.591 278.045C622.833 278.713 621.924 279.188 620.942 279.429C615.24 280.399 610.649 274.732 604.884 274.732C600.56 274.732 595.045 277.08 592.648 280.806C590.408 284.266 591.959 290.325 587.948 292.627C583.436 295.194 577.952 290.294 573.08 292.079C567.017 294.271 569.774 298.686 567.565 301.472C565.356 304.259 560.954 303.132 554.906 302.584C548.859 302.036 543.939 309.175 543.939 309.175H735.076C735.076 309.175 736.721 306.435 729.561 295.429C722.401 284.423 712.5 292.126 708.082 292.126C703.664 292.126 702.489 287.084 702.489 287.069Z" stroke="#263238" stroke-miterlimit="10"/>
<path d="M747.437 549.62C747.437 549.62 736.016 537.8 739.212 538.145C742.408 538.489 748.424 547.35 748.424 547.35C748.424 547.35 748.502 527.859 751.354 532.117C754.205 536.375 750.711 547.429 750.711 547.429C750.711 547.429 758.858 534.731 758.842 536.798C758.842 543.217 752.576 548.243 752.576 548.243C752.576 548.243 765.626 538.583 763.542 542.497C761.459 546.411 753.061 550.121 753.061 550.121C753.061 550.121 768.101 547.084 762.759 549.229C757.417 551.374 752.341 552.83 752.341 552.83H748.173C748.173 552.83 733.979 545.706 739.321 546.771C742.164 547.271 744.906 548.234 747.437 549.62Z" fill="#263238"/>
<path d="M898.294 512.61C898.294 512.61 889.395 503.404 891.902 503.686C894.408 503.967 899.061 510.84 899.061 510.84C899.061 510.84 899.061 495.67 901.349 498.989C903.636 502.308 900.832 510.903 900.832 510.903C900.832 510.903 907.177 501.024 907.098 502.637C907.098 507.631 902.21 511.545 902.21 511.545C902.21 511.545 912.363 504.014 910.702 507.067C909.041 510.12 902.555 513.001 902.555 513.001C902.555 513.001 914.258 510.637 910.091 512.296C905.924 513.956 901.975 515.099 901.975 515.099H898.748C898.748 515.099 887.687 509.557 891.855 510.402C894.107 510.78 896.283 511.526 898.294 512.61Z" fill="#263238"/>
<path d="M1038.42 479.591C1038.42 479.591 1029.54 470.385 1032.03 470.667C1034.52 470.949 1039.19 477.822 1039.19 477.822C1039.19 477.822 1039.19 462.651 1041.47 465.97C1043.76 469.289 1040.97 477.884 1040.97 477.884C1040.97 477.884 1047.24 468.006 1047.24 469.618C1047.24 474.612 1042.35 478.526 1042.35 478.526C1042.35 478.526 1052.5 471.012 1050.84 474.049C1049.18 477.086 1042.68 479.982 1042.68 479.982C1042.68 479.982 1054.38 477.618 1050.23 479.278C1046.08 480.937 1042.12 482.08 1042.12 482.08H1038.87C1038.87 482.08 1027.91 476.538 1031.98 477.384C1034.23 477.758 1036.41 478.504 1038.42 479.591Z" fill="#263238"/>
<path d="M859.815 555.006C859.815 555.006 849.192 544.047 852.185 544.344C855.177 544.642 860.739 552.892 860.739 552.892C860.739 552.892 860.739 534.778 863.465 538.802C866.191 542.826 862.948 552.908 862.948 552.908C862.948 552.908 870.531 541.104 870.515 543.029C870.515 548.994 864.671 553.66 864.671 553.66C864.671 553.66 876.798 544.689 874.808 548.321C872.818 551.953 865.079 555.413 865.079 555.413C865.079 555.413 879.054 552.595 874.087 554.583C869.121 556.572 864.389 557.918 864.389 557.918H860.535C860.535 557.918 847.328 551.311 852.295 552.298C854.931 552.791 857.47 553.705 859.815 555.006Z" fill="#E74451"/>
<path d="M649.707 507.318L555.768 402.062L535.181 418.517L432.187 263.554L342.525 283.515L315.719 233.463L289.649 232.085L240.267 134.767L166.398 202.104L130.787 189.407L1.06445 321.59" stroke="#263238" stroke-miterlimit="10"/>
<path d="M667.331 527.06L657.477 516.022" stroke="#263238" stroke-miterlimit="10"/>
<path d="M294.38 296.384L286.609 298.482" stroke="#263238" stroke-miterlimit="10"/>
<path d="M342.337 283.405L303.123 294.02" stroke="#263238" stroke-miterlimit="10"/>
<path d="M194.379 238.347L216.344 205.955L214.856 194.839L240.064 143.722" stroke="#263238" stroke-miterlimit="10"/>
<path d="M185.213 251.89L190.712 243.764" stroke="#263238" stroke-miterlimit="10"/>
<path d="M151.123 271.053L115.512 319.305" stroke="#263238" stroke-miterlimit="10"/>
<path d="M132.572 194.839L141.471 214.832L161.478 231.146L159.253 260.031L154.412 266.606" stroke="#263238" stroke-miterlimit="10"/>
<path d="M315.718 233.463L297.153 251.138L290.479 240.023" stroke="#263238" stroke-miterlimit="10"/>
<path d="M1065.07 431.48L920.9 329.872L877.142 391.604L823.076 373.6L739.414 490.644L685.348 479.074L658.322 502.23" stroke="#263238" stroke-miterlimit="10"/>
<path d="M920.901 329.872L903.761 405.162L883.551 396.317" stroke="#263238" stroke-miterlimit="10"/>
<path d="M823.547 378.015L781.214 501.102L752.168 496.061" stroke="#263238" stroke-miterlimit="10"/>
<path d="M821.588 369.216C812.698 369.185 803.889 370.904 795.664 374.276C787.439 377.647 779.958 382.604 773.65 388.864C767.342 395.124 762.33 402.564 758.899 410.76C755.469 418.956 753.687 427.747 753.656 436.631C753.626 453.226 759.769 469.24 770.89 481.564C778.884 480.428 787.033 481.173 794.688 483.74C803.236 486.588 811.1 491.178 817.781 497.22H823.876C830.564 491.179 838.432 486.59 846.984 483.74C855.049 481.023 863.661 480.345 872.051 481.767C883.327 469.435 889.58 453.335 889.583 436.631C889.55 427.742 887.765 418.947 884.33 410.748C880.894 402.549 875.876 395.107 869.562 388.846C863.248 382.586 855.761 377.63 847.529 374.262C839.298 370.893 830.483 369.179 821.588 369.216Z" fill="#E74451"/>
<path d="M853.204 463.669C851.115 464.713 849.026 465.756 846.937 466.8C844.89 467.908 842.908 469.131 840.999 470.464C840.294 470.949 839.605 471.466 838.9 472.029L850.039 451.316L834.764 475.207C833.197 476.46 831.63 477.728 830.205 479.027C827.75 481.115 825.348 483.307 822.998 485.603L822.215 463.137L838.195 438.823L822.215 459.677L821.51 439.574L820.319 462.103L819.175 484.648C817.123 482.722 815.055 480.844 812.908 478.996C811.232 477.54 809.524 476.1 807.785 474.722L793.34 450.064L803.947 471.81C803.336 471.372 802.741 470.918 802.114 470.495C800.206 469.162 798.223 467.939 796.176 466.831C794.139 465.751 792.056 464.702 789.909 463.7C785.728 461.659 781.44 459.845 777.062 458.268C781.3 460.127 785.431 462.218 789.439 464.53C791.445 465.657 793.419 466.816 795.361 468.006C797.27 469.201 799.106 470.508 800.861 471.92C804.354 474.713 807.686 477.703 810.84 480.875C813.598 483.615 816.292 486.464 818.862 489.329L817.515 517.854H824.204L823.249 490.394C826.116 487.106 829.171 483.881 832.304 480.765C835.458 477.593 838.79 474.603 842.284 471.81C844.038 470.398 845.874 469.091 847.783 467.896C849.726 466.706 851.7 465.548 853.705 464.42C857.718 462.108 861.856 460.018 866.098 458.158C861.702 459.757 857.397 461.597 853.204 463.669Z" fill="#263238"/>
<path d="M300.052 461.727C300.052 481.094 289.179 482.55 275.768 482.55C262.357 482.55 251.484 481.094 251.484 461.727C251.484 442.361 262.357 401.859 275.768 401.859C289.179 401.859 300.052 442.345 300.052 461.727Z" fill="#E74451"/>
<path d="M283.978 470.526L279.968 470.792L290.433 463.747L282.96 467.52L283.978 464.577L280.563 468.726L276.568 470.761L276.239 456.843L278.37 451.692L276.192 454.588L276.004 446.525L282.662 437.664L275.957 444.522L275.549 426.768L275.189 438.118L270.928 433.374L275.126 440.31L274.562 458.299L270.849 455.872L267.465 449.876L268.813 454.557L262.17 450.205L274.484 460.819L272.62 519.89H277.68L276.615 473.062L277.79 472.264L283.978 470.526Z" fill="#263238"/>
<path d="M953.064 395.017C953.064 432.858 931.82 435.723 905.625 435.723C879.43 435.723 858.186 432.858 858.186 395.017C858.186 357.176 879.414 278.035 905.625 278.035C931.836 278.035 953.064 357.208 953.064 395.017Z" fill="#E74451"/>
<path opacity="0.31" d="M953.064 395.017C953.064 432.858 931.82 435.723 905.625 435.723C879.43 435.723 858.186 432.858 858.186 395.017C858.186 357.176 879.414 278.035 905.625 278.035C931.836 278.035 953.064 357.208 953.064 395.017Z" fill="#F5F5F5"/>
<path d="M921.669 412.192L913.82 412.74L934.249 398.962L919.663 406.336L921.669 400.575L914.995 408.7L907.161 412.646L906.535 385.467L910.686 375.416L906.441 381.068L906.08 365.318L919.084 347.986L905.986 361.372L905.203 326.694L904.498 348.894L896.147 339.595L904.357 353.153L903.244 388.332L895.991 383.588L889.379 371.862L892.027 380.989L879.039 372.504L903.103 393.248L899.453 508.664H909.355L907.271 417.155L909.558 415.605L921.669 412.192Z" fill="#263238"/>
<path d="M1054.62 409.906C1054.62 429.288 1043.75 430.744 1030.33 430.744C1016.92 430.744 1006.05 429.288 1006.05 409.906C1006.05 390.524 1016.92 350.053 1030.33 350.053C1043.75 350.053 1054.62 390.539 1054.62 409.906Z" fill="#E74451"/>
<path opacity="0.5" d="M1054.62 409.906C1054.62 429.288 1043.75 430.744 1030.33 430.744C1016.92 430.744 1006.05 429.288 1006.05 409.906C1006.05 390.524 1016.92 350.053 1030.33 350.053C1043.75 350.053 1054.62 390.539 1054.62 409.906Z" fill="#F5F5F5"/>
<path d="M1038.54 418.705L1034.53 418.986L1044.98 411.941L1037.51 415.714L1038.54 412.755L1035.13 416.92L1031.12 418.939L1030.8 405.037L1032.92 399.886L1030.76 402.782L1030.57 394.72L1037.23 385.843L1030.52 392.7L1030.11 374.946L1029.75 386.312L1025.49 381.553L1029.69 388.488L1029.13 406.493L1025.4 404.066L1022.01 398.07L1023.38 402.735L1016.73 398.399L1029.03 409.014L1027.18 468.084H1032.24L1031.18 421.241L1032.34 420.458L1038.54 418.705Z" fill="#263238"/>
<path d="M64.9854 393.53C64.9854 412.896 54.1126 414.368 40.7017 414.368C27.2908 414.368 16.418 412.896 16.418 393.53C16.418 374.163 27.2908 333.724 40.7017 333.724C54.1126 333.724 64.9854 374.163 64.9854 393.53Z" fill="#E74451"/>
<path opacity="0.5" d="M64.9854 393.53C64.9854 412.896 54.1126 414.368 40.7017 414.368C27.2908 414.368 16.418 412.896 16.418 393.53C16.418 374.163 27.2908 333.724 40.7017 333.724C54.1126 333.724 64.9854 374.163 64.9854 393.53Z" fill="#F5F5F5"/>
<path d="M48.9099 402.329L44.8992 402.61L55.349 395.565L47.8916 399.338L48.9099 396.379L45.4945 400.544L41.4838 402.563L41.1705 388.645L43.2855 383.51L41.1235 386.406L40.9355 378.328L47.5939 369.467L40.8885 376.324L40.4811 358.57L40.1208 369.936L35.8594 365.177L40.0581 372.112L39.4941 390.117L35.7654 387.69L32.3813 381.694L33.7443 386.359L27.1016 382.023L39.4158 392.622L37.5357 451.692H42.6118L41.5465 404.865L42.7058 404.082L48.9099 402.329Z" fill="#263238"/>
<path d="M185.291 349.599C176.401 349.568 167.592 351.287 159.367 354.659C151.142 358.03 143.662 362.987 137.353 369.247C131.045 375.507 126.033 382.947 122.602 391.143C119.172 399.339 117.39 408.13 117.359 417.014C117.33 433.613 123.472 449.632 134.593 461.962C142.586 460.82 150.735 461.559 158.391 464.123C166.939 466.971 174.803 471.561 181.484 477.603H187.704C194.392 471.562 202.261 466.973 210.813 464.123C218.88 461.422 227.489 460.745 235.88 462.15C247.134 449.81 253.365 433.71 253.348 417.014C253.316 408.12 251.528 399.32 248.089 391.117C244.65 382.914 239.626 375.468 233.306 369.207C226.985 362.946 219.49 357.991 211.252 354.627C203.013 351.262 194.191 349.554 185.291 349.599Z" fill="#E74451"/>
<path opacity="0.33" d="M185.291 349.599C176.401 349.568 167.592 351.287 159.367 354.659C151.142 358.03 143.662 362.987 137.353 369.247C131.045 375.507 126.033 382.947 122.602 391.143C119.172 399.339 117.39 408.13 117.359 417.014C117.33 433.613 123.472 449.632 134.593 461.962C142.586 460.82 150.735 461.559 158.391 464.123C166.939 466.971 174.803 471.561 181.484 477.603H187.704C194.392 471.562 202.261 466.973 210.813 464.123C218.88 461.422 227.489 460.745 235.88 462.15C247.134 449.81 253.365 433.71 253.348 417.014C253.316 408.12 251.528 399.32 248.089 391.117C244.65 382.914 239.626 375.468 233.306 369.207C226.985 362.946 219.49 357.991 211.252 354.627C203.013 351.262 194.191 349.554 185.291 349.599Z" fill="#F5F5F5"/>
<path d="M216.907 444.068C214.818 445.111 212.729 446.155 210.64 447.199C208.59 448.296 206.607 449.514 204.703 450.847L202.603 452.412L213.742 431.684L198.467 455.59C196.911 456.832 195.391 458.1 193.908 459.395C191.448 461.54 189.051 463.716 186.701 465.97L185.918 443.504L201.898 419.19L185.808 440.107L185.103 419.989L183.96 442.486L182.816 465.047C180.763 463.105 178.695 461.227 176.549 459.379C174.878 457.928 173.17 456.504 171.426 455.105L156.981 430.447L167.588 452.209C166.977 451.755 166.381 451.316 165.755 450.878C163.85 449.545 161.867 448.327 159.817 447.23C157.78 446.134 155.696 445.085 153.55 444.099C149.369 442.057 145.08 440.244 140.703 438.666C144.996 440.499 149.18 442.574 153.237 444.882C155.242 446.009 157.216 447.173 159.159 448.373C161.067 449.563 162.903 450.865 164.658 452.271C168.148 455.069 171.48 458.059 174.638 461.226C177.395 463.966 180.09 466.816 182.659 469.696L181.202 498.316H187.892L186.936 470.855C189.803 467.567 192.858 464.342 195.992 461.226C199.15 458.059 202.481 455.069 205.972 452.271C207.726 450.865 209.562 449.563 211.471 448.373C213.382 447.089 215.351 445.925 217.377 444.882C221.389 442.595 225.526 440.536 229.77 438.713C225.388 440.262 221.094 442.05 216.907 444.068Z" fill="#263238"/>
<path d="M373.89 550.795V488.718H292.971V448.952L362.375 284.564H421.581V449.892H447.227V488.718H421.581V550.842L373.89 550.795ZM333.156 449.892H373.89V336.855L333.156 449.892Z" fill="#263238"/>
<path d="M542.607 550.935C526.595 550.935 513.331 547.648 502.813 541.072C492.373 534.609 484.115 525.163 479.109 513.956C473.887 502.475 471.275 489.167 471.275 474.033V354.718C471.275 339.167 473.793 325.53 478.827 313.809C483.56 302.451 491.727 292.855 502.186 286.364C512.714 279.789 526.198 276.501 542.638 276.501C558.869 276.501 572.191 279.789 582.605 286.364C592.979 292.907 601.077 302.492 605.792 313.809C610.826 325.52 613.343 339.156 613.343 354.718V474.033C613.343 489.136 610.732 502.443 605.51 513.956C600.508 525.161 592.256 534.607 581.821 541.072C571.241 547.648 558.169 550.935 542.607 550.935ZM542.607 506.237C548.529 506.237 552.806 504.374 555.438 500.648C558.168 496.662 559.967 492.114 560.702 487.341C561.533 482.62 561.973 477.839 562.018 473.047V355.642C561.998 350.58 561.61 345.525 560.859 340.518C560.234 335.642 558.492 330.975 555.767 326.882C553.135 323.062 548.748 321.147 542.607 321.136C536.465 321.126 532.027 323.041 529.29 326.882C526.464 330.939 524.658 335.616 524.026 340.518C523.275 345.525 522.887 350.58 522.867 355.642V473.062C522.904 477.855 523.344 482.637 524.183 487.356C524.925 492.184 526.846 496.754 529.776 500.664C532.627 504.38 536.904 506.237 542.607 506.237Z" fill="#263238"/>
<path d="M721.853 550.795V488.718H640.949V448.952L710.338 284.564H769.543V449.892H795.19V488.718H769.543V550.842L721.853 550.795ZM681.119 449.892H721.853V336.855L681.119 449.892Z" fill="#263238"/>
<path d="M1085.59 422.4C983.161 489.501 780.869 535.123 548.059 535.123C308.104 535.123 100.564 486.589 1.37695 416.137V685.984H1085.53L1085.59 422.4Z" fill="#F5F5F5"/>
<path d="M1063.34 435.785C955.524 495.497 765.046 535.17 548.059 535.17C308.104 535.17 100.564 486.636 1.37695 416.184" stroke="#263238" stroke-miterlimit="10"/>
<path d="M1086.06 422.086C1081.46 425.124 1076.64 428.119 1071.6 431.073" stroke="#263238" stroke-miterlimit="10"/>
<path d="M1020.2 406.759C1020.2 446.338 997.982 449.328 970.596 449.328C943.21 449.328 920.916 446.338 920.916 406.759C920.916 367.181 943.132 284.454 970.533 284.454C997.935 284.454 1020.2 367.181 1020.2 406.759Z" fill="#E74451"/>
<path d="M987.359 424.732L979.166 425.296L1000.54 410.892L985.276 418.611L987.359 412.583L980.388 421.069L972.209 425.202L971.552 396.786L975.891 386.265L971.442 392.183L971.066 375.698L984.665 357.584L970.972 371.596L970.141 335.321L969.421 358.539L960.694 348.816L969.28 363.001L968.12 399.761L960.522 394.814L953.597 382.555L956.37 392.105L942.803 383.228L967.948 404.912L964.141 525.604H974.497L972.303 429.914L974.701 428.302L987.359 424.732Z" fill="#263238"/>
<path d="M967.243 526.669C967.243 526.669 948.944 507.709 954.083 508.273C959.222 508.836 968.826 523.021 968.826 523.021C968.826 523.021 968.967 491.709 973.526 498.613C978.085 505.517 972.476 523.162 972.476 523.162C972.476 523.162 985.526 502.809 985.511 506.128C985.417 516.414 975.437 524.461 975.437 524.461C975.437 524.461 996.368 508.977 992.984 515.334C989.6 521.69 976.189 527.545 976.189 527.545C976.189 527.545 1000.3 522.676 991.731 526.105C983.161 529.534 975.014 531.882 975.014 531.882H968.356C968.356 531.882 945.591 520.469 954.161 522.175C958.74 522.942 963.16 524.46 967.243 526.669Z" fill="#263238"/>
<path d="M90.1456 503.122C90.1456 503.122 74.3063 486.73 78.7401 487.231C83.1738 487.732 91.5086 499.975 91.5086 499.975C91.5086 499.975 91.6183 472.953 95.582 478.871C99.5457 484.789 94.6733 500.085 94.6733 500.085C94.6733 500.085 105.969 482.487 105.938 485.352C105.938 494.261 97.2427 501.212 97.2427 501.212C97.2427 501.212 115.322 487.826 112.361 493.259C109.4 498.691 97.838 503.811 97.838 503.811C97.838 503.811 118.691 499.615 111.28 502.574C103.87 505.533 96.8354 507.506 96.8354 507.506H91.0543C91.0543 507.506 71.3766 497.642 78.7714 499.114C82.7556 499.823 86.5974 501.177 90.1456 503.122Z" fill="#263238"/>
<path d="M147.377 385.185C147.377 424.811 125.146 427.801 97.713 427.801C70.2802 427.801 48.0488 424.811 48.0488 385.185C48.0488 345.56 70.2959 262.739 97.713 262.739C125.13 262.739 147.377 345.56 147.377 385.185Z" fill="#E74451"/>
<path d="M114.508 403.174L106.299 403.738L127.7 389.318L112.409 397.037L114.508 391.009L107.521 399.51L99.3268 403.644L98.6844 375.197L103.024 364.676L98.5748 370.594L98.1988 354.092L111.813 335.963L98.1048 349.975L97.2744 313.668L96.5381 336.902L87.8116 327.18L96.3971 341.38L95.2377 378.187L87.6393 373.224L80.7145 360.95L83.4875 370.515L69.9043 361.623L95.081 383.322L91.2583 504.155H101.63L99.4365 408.356L101.833 406.743L114.508 403.174Z" fill="#263238"/>
<path d="M263.516 544.313C263.516 544.313 247.677 527.921 252.126 528.422C256.576 528.923 264.895 541.166 264.895 541.166C264.895 541.166 265.004 514.144 268.952 520.062C272.9 525.98 268.044 541.276 268.044 541.276C268.044 541.276 279.34 523.678 279.324 526.543C279.324 535.452 270.613 542.403 270.613 542.403C270.613 542.403 288.708 529.017 285.747 534.45C282.786 539.882 271.208 545.08 271.208 545.08C271.208 545.08 292.061 540.884 284.651 543.843C277.24 546.802 270.19 548.838 270.19 548.838H264.472C264.472 548.838 244.778 538.974 252.189 540.446C256.15 541.112 259.975 542.418 263.516 544.313Z" fill="#263238"/>
<path d="M347.506 580.243C347.506 580.243 331.667 563.852 336.116 564.353C340.565 564.854 348.885 577.097 348.885 577.097C348.885 577.097 348.994 550.074 352.942 555.992C356.89 561.91 352.034 577.206 352.034 577.206C352.034 577.206 363.33 559.609 363.314 562.49C363.236 571.382 354.603 578.333 354.603 578.333C354.603 578.333 372.698 564.948 369.737 570.38C366.776 575.813 355.339 580.932 355.339 580.932C355.339 580.932 376.192 576.737 368.782 579.695C361.371 582.654 354.321 584.69 354.321 584.69H348.571C348.571 584.69 328.878 574.827 336.288 576.298C340.216 577 344.004 578.332 347.506 580.243Z" fill="#263238"/>
<path d="M573.016 556.118C573.016 556.118 561.595 544.297 564.806 544.657C568.018 545.017 574.003 553.847 574.003 553.847C574.003 553.847 574.097 534.356 576.948 538.63C579.8 542.904 576.29 553.941 576.29 553.941C576.29 553.941 584.437 541.229 584.421 543.311C584.421 549.73 578.155 554.74 578.155 554.74C578.155 554.74 591.205 545.08 589.121 549.01C587.038 552.939 578.64 556.619 578.64 556.619C578.64 556.619 593.681 553.581 588.322 555.726C582.964 557.871 577.904 559.327 577.904 559.327H573.752C573.752 559.327 559.542 552.204 564.885 553.268C567.731 553.775 570.476 554.738 573.016 556.118Z" fill="#263238"/>
<path d="M1016.49 527.858C1016.49 527.858 1007.6 518.653 1010.09 518.935C1012.58 519.216 1017.25 526.089 1017.25 526.089C1017.25 526.089 1017.25 510.919 1019.54 514.238C1021.83 517.557 1019.02 526.152 1019.02 526.152C1019.02 526.152 1025.29 516.273 1025.29 517.886C1025.29 522.88 1020.4 526.778 1020.4 526.778C1020.4 526.778 1030.55 519.263 1028.89 522.316C1027.23 525.369 1020.75 528.234 1020.75 528.234C1020.75 528.234 1032.45 525.886 1028.28 527.545C1024.11 529.205 1020.17 530.348 1020.17 530.348H1016.96C1016.96 530.348 1005.89 524.806 1010.06 525.651C1012.31 526.026 1014.48 526.772 1016.49 527.858Z" fill="#263238"/>
<path d="M417.852 556.18C417.852 556.18 402.013 539.788 406.462 540.289C410.912 540.79 419.231 553.033 419.231 553.033C419.231 553.033 419.34 526.011 423.288 531.929C427.236 537.847 422.395 553.159 422.395 553.159C422.395 553.159 433.691 535.546 433.66 538.426C433.582 547.319 424.965 554.27 424.965 554.27C424.965 554.27 443.044 540.884 440.083 546.317C437.122 551.75 425.56 556.869 425.56 556.869C425.56 556.869 446.397 552.673 438.987 555.632C431.576 558.591 424.542 560.627 424.542 560.627H418.776C418.776 560.627 399.083 550.763 406.493 552.235C410.47 552.922 414.307 554.255 417.852 556.18Z" fill="#E74451"/>
<path d="M303.639 545.299C303.639 545.299 293.017 534.34 296.009 534.622C299.002 534.904 304.563 543.186 304.563 543.186C304.563 543.186 304.563 525.056 307.29 529.095C310.016 533.135 306.679 543.327 306.679 543.327C306.679 543.327 314.261 531.506 314.246 533.448C314.246 539.413 308.402 544.078 308.402 544.078C308.402 544.078 320.528 535.092 318.538 538.739C316.549 542.387 308.809 545.816 308.809 545.816C308.809 545.816 322.784 542.998 317.818 544.986C312.851 546.974 308.12 548.337 308.12 548.337H304.266C304.266 548.337 291.059 541.714 296.025 542.716C298.688 543.151 301.261 544.024 303.639 545.299Z" fill="#E74451"/>
<path d="M170.878 588.729C170.878 588.729 160.255 577.77 163.248 578.067C166.24 578.365 171.802 586.616 171.802 586.616C171.802 586.616 171.88 568.486 174.528 572.525C177.176 576.564 173.917 586.756 173.917 586.756C173.917 586.756 181.437 574.827 181.437 576.815C181.437 582.78 175.593 587.445 175.593 587.445C175.593 587.445 187.719 578.459 185.745 582.107C183.771 585.754 176.001 589.183 176.001 589.183C176.001 589.183 189.976 586.365 185.009 588.353C180.043 590.342 175.311 591.704 175.311 591.704H171.457C171.457 591.704 158.25 585.081 163.216 586.083C165.9 586.533 168.489 587.427 170.878 588.729Z" fill="#E74451"/>
<path d="M526.109 590.858C526.109 590.858 515.487 579.899 518.463 580.197C521.44 580.494 527.033 588.745 527.033 588.745C527.033 588.745 527.112 570.615 529.759 574.654C532.407 578.694 529.148 588.886 529.148 588.886C529.148 588.886 536.731 577.081 536.7 579.007C536.7 584.972 530.872 589.637 530.872 589.637C530.872 589.637 542.998 580.651 541.008 584.298C539.018 587.946 531.263 591.375 531.263 591.375C531.263 591.375 545.254 588.557 540.287 590.545C535.321 592.534 530.59 593.896 530.59 593.896H526.72C526.72 593.896 513.528 587.273 518.495 588.275C521.158 588.71 523.731 589.583 526.109 590.858Z" fill="#E74451"/>
<path d="M698.446 591.422C698.446 591.422 687.839 580.463 690.816 580.76C693.793 581.058 699.37 589.324 699.37 589.324C699.37 589.324 699.448 571.194 702.096 575.234C704.744 579.273 701.485 589.449 701.485 589.449C701.485 589.449 709.068 577.645 709.052 579.57C709.052 585.551 703.209 590.216 703.209 590.216C703.209 590.216 715.335 581.23 713.361 584.878C711.387 588.526 703.616 591.954 703.616 591.954C703.616 591.954 717.591 589.136 712.624 591.124C707.658 593.113 702.926 594.475 702.926 594.475H699.072C699.072 594.475 685.865 587.852 690.832 588.839C693.493 589.283 696.064 590.155 698.446 591.422Z" fill="#E74451"/>
<path d="M1018.79 557.026C1018.79 557.026 1002.62 540.289 1007.16 540.79C1011.71 541.291 1020.18 553.816 1020.18 553.816C1020.18 553.816 1020.31 526.215 1024.33 532.274C1028.36 538.332 1023.41 553.941 1023.41 553.941C1023.41 553.941 1034.96 535.953 1034.92 538.896C1034.92 547.976 1026.04 555.084 1026.04 555.084C1026.04 555.084 1044.5 541.417 1041.47 546.959C1038.45 552.501 1026.65 557.73 1026.65 557.73C1026.65 557.73 1047.93 553.44 1040.36 556.462C1032.79 559.484 1025.6 561.566 1025.6 561.566H1019.73C1019.73 561.566 999.626 551.483 1007.19 553.002C1011.25 553.707 1015.17 555.066 1018.79 557.026Z" fill="#E74451"/>
<path d="M55.3807 557.026C55.3807 557.026 39.2124 540.289 43.7401 540.79C48.2679 541.291 56.775 553.816 56.775 553.816C56.775 553.816 56.9004 526.215 60.9268 532.274C64.9531 538.332 60.0024 553.941 60.0024 553.941C60.0024 553.941 71.5332 535.953 71.5176 538.896C71.5176 547.976 62.6344 555.084 62.6344 555.084C62.6344 555.084 81.1684 541.417 78.035 546.959C74.9016 552.501 63.1985 557.73 63.1985 557.73C63.1985 557.73 84.4898 553.44 76.9227 556.462C69.3556 559.484 62.1644 561.566 62.1644 561.566H56.3207C56.3207 561.566 36.22 551.483 43.7871 553.002C47.8442 553.707 51.7598 555.066 55.3807 557.026Z" fill="#E74451"/>
<path d="M135.141 533.401C135.141 533.401 118.597 504.875 123.312 502.684C128.028 500.492 137.789 522.175 137.789 522.175C137.789 522.175 135.893 481.297 140.295 485.071C144.698 488.844 148.787 517.776 148.787 517.776C148.787 517.776 157.607 486.323 160.443 492.93C163.279 499.537 158.171 519.545 158.171 519.545C158.171 519.545 170.815 495.482 172.084 503.341C173.353 511.2 166.099 524.085 166.099 524.085C166.099 524.085 182.768 507.427 184.037 514.034C185.306 520.641 179.635 527.232 179.635 527.232C179.635 527.232 201.647 515.287 196.305 521.894C190.962 528.5 183.097 536.986 183.097 536.986C183.097 536.986 204.169 529.44 201.647 533.855C199.125 538.27 189.693 542.967 189.693 542.967C189.693 542.967 206.927 539.835 205.109 542.653C203.348 544.862 201.23 546.762 198.843 548.274H120.508C120.508 548.274 99.7494 540.775 107.975 540.148C113.342 539.909 118.695 540.872 123.641 542.967C123.641 542.967 98.1514 525.745 110.105 524.43C122.059 523.115 131.82 538.254 131.82 538.254C131.82 538.254 114.837 514.363 120.853 518.136L135.141 533.401Z" fill="#E74451"/>
<path d="M136.208 541.511C136.208 541.511 114.838 519.389 120.839 520.062C126.839 520.735 138.072 537.283 138.072 537.283C138.072 537.283 138.229 500.821 143.556 508.805C148.882 516.79 142.271 537.409 142.271 537.409C142.271 537.409 157.515 513.659 157.484 517.541C157.374 529.549 145.733 538.927 145.733 538.927C145.733 538.927 170.142 520.876 166.1 528.187C162.058 535.499 146.501 542.434 146.501 542.434C146.501 542.434 174.701 536.767 164.643 540.759C154.585 544.751 145.138 547.507 145.138 547.507H137.305C137.305 547.507 110.671 534.184 120.745 536.188C126.159 537.094 131.384 538.892 136.208 541.511Z" fill="#263238" stroke="#263238" stroke-miterlimit="10"/>
<path d="M839.762 583.563C839.762 583.563 808.428 529.675 817.406 525.51C826.383 521.346 844.776 562.302 844.776 562.302C844.776 562.302 841.204 485.055 849.476 492.178C857.748 499.302 865.534 553.988 865.534 553.988C865.534 553.988 882.188 494.496 887.546 507.02C892.905 519.545 883.316 557.323 883.316 557.323C883.316 557.323 907.224 511.842 909.605 526.7C911.987 541.558 898.31 565.918 898.31 565.918C898.31 565.918 929.831 534.418 932.213 546.896C934.594 559.374 923.878 571.868 923.878 571.868C923.878 571.868 965.505 549.276 955.4 561.754C945.295 574.232 930.427 590.295 930.427 590.295C930.427 590.295 970.268 576.016 965.505 584.345C960.742 592.674 942.913 601.567 942.913 601.567C942.913 601.567 975.626 595.618 972.054 600.972C968.482 606.326 960.178 611.571 960.178 611.571H812.063C812.063 611.571 772.802 597.403 788.265 596.213C803.728 595.023 818.032 601.567 818.032 601.567C818.032 601.567 769.872 568.877 792.464 566.498C815.056 564.118 833.496 592.643 833.496 592.643C833.496 592.643 801.378 547.475 812.69 554.615L839.762 583.563Z" fill="#E74451"/>
<path d="M841.782 598.906C841.782 598.906 801.393 557.088 812.814 558.341C824.235 559.593 845.354 590.874 845.354 590.874C845.354 590.874 845.652 521.987 855.726 537.049C865.8 552.11 853.423 591.156 853.423 591.156C853.423 591.156 882.219 546.254 882.156 553.581C881.952 576.267 859.971 594.005 859.971 594.005C859.971 594.005 906.079 559.875 898.528 573.652C890.976 587.43 861.382 600.659 861.382 600.659C861.382 600.659 914.539 589.935 895.645 597.528C876.751 605.121 858.781 610.272 858.781 610.272H844.148C844.148 610.272 794.014 585.097 812.814 588.87C831.614 592.643 841.782 598.906 841.782 598.906Z" fill="#263238" stroke="#263238" stroke-miterlimit="10"/>
<path d="M189.036 535.013C189.036 535.013 192.169 532.117 194.974 532.117C197.778 532.117 206.097 536.141 206.097 536.141C206.097 536.141 209.45 541.307 209.748 541.62C210.045 541.933 214.166 543.687 214.448 544.407C214.73 545.127 215.356 547.538 215.356 547.538H189.788L185.088 535.139L189.036 535.013Z" fill="#F5F5F5" stroke="#263238" stroke-miterlimit="10"/>
<path d="M194.973 532.117L194.817 534.559C194.817 534.559 201.365 538.364 201.224 539.741C200.846 541.306 200.321 542.831 199.658 544.297L203.01 547.804H185.229L186.592 537.299C186.592 537.299 190.399 531.819 194.973 532.117Z" fill="#263238"/>
<path d="M155.664 533.495C155.664 533.495 168.464 514.3 171.331 514.003C173.556 514.064 175.734 514.647 177.691 515.705C179.648 516.763 181.328 518.266 182.596 520.093C184.494 524.003 186.026 528.081 187.171 532.274C187.327 532.728 187.938 533.041 191.432 538.661C194.926 544.282 194.785 547.507 194.785 547.507H145.293C145.88 544.743 146.856 542.076 148.191 539.585C149.735 537.634 151.875 536.242 154.286 535.624L155.664 533.495Z" fill="#F5F5F5" stroke="#263238" stroke-miterlimit="10"/>
<path d="M175.311 547.194C175.311 547.194 173.948 543.843 173.744 543.389C173.54 542.935 173.587 538.52 173.133 536.688C171.944 534.074 170.518 531.574 168.872 529.221L171.613 521.314L170.235 520.25L172.522 514.613L171.253 514.019C168.245 514.551 155.586 533.495 155.586 533.495L154.207 535.624C151.797 536.242 149.656 537.634 148.113 539.585C146.812 541.972 145.862 544.535 145.293 547.194H175.311Z" fill="#263238"/>
<path d="M682.528 539.788C683.564 538.829 684.862 538.197 686.257 537.972C687.98 537.972 693.229 540.493 693.229 540.493C693.229 540.493 695.328 543.734 695.516 543.922C695.704 544.109 698.289 545.221 698.477 545.675C698.665 546.129 699.057 547.616 699.057 547.616H682.998L680.037 539.788H682.528Z" fill="#F5F5F5" stroke="#263238" stroke-miterlimit="10"/>
<path d="M686.257 537.972L686.163 539.538C686.163 539.538 690.267 541.933 690.173 542.794C689.946 543.777 689.626 544.737 689.218 545.659L691.317 547.851H680.131L680.993 541.26C680.993 541.26 683.39 537.784 686.257 537.972Z" fill="#263238"/>
<path d="M661.597 538.818C661.597 538.818 669.635 526.778 671.452 526.59C672.846 526.634 674.211 527.002 675.437 527.665C676.664 528.328 677.719 529.268 678.518 530.41C679.705 532.864 680.664 535.422 681.385 538.051C681.479 538.332 681.855 538.536 684.064 542.058C685.26 543.678 685.986 545.596 686.163 547.601H655.111C655.475 545.868 656.087 544.196 656.929 542.638C657.896 541.413 659.239 540.538 660.751 540.148L661.597 538.818Z" fill="#F5F5F5" stroke="#263238" stroke-miterlimit="10"/>
<path d="M673.927 547.428C673.927 547.428 673.065 545.315 672.971 545.033C672.877 544.751 672.878 541.902 672.596 540.837C671.843 539.196 670.946 537.624 669.916 536.14L671.64 531.177L670.778 530.504L672.204 526.982L671.405 526.606C669.525 526.935 661.597 538.818 661.597 538.818L660.751 540.148C659.239 540.538 657.896 541.413 656.929 542.638C656.108 544.135 655.512 545.743 655.158 547.413L673.927 547.428Z" fill="#263238"/>
<path d="M941.627 586.616C941.627 586.616 947.675 581.152 952.861 581.152C958.046 581.152 973.886 588.76 973.886 588.76C973.886 588.76 980.231 598.514 980.795 599.109C981.359 599.704 989.145 603.007 989.725 604.369C990.305 605.732 991.448 610.225 991.448 610.225H943.069L934.139 586.819L941.627 586.616Z" fill="#F5F5F5" stroke="#263238" stroke-miterlimit="10"/>
<path d="M952.862 581.089L952.58 585.692C952.58 585.692 964.957 592.894 964.675 595.477C963.984 598.441 963.019 601.334 961.792 604.119L968.059 610.742H934.375L936.96 590.874C936.96 590.874 944.229 580.588 952.862 581.089Z" fill="#263238"/>
<path d="M878.615 583.751C878.615 583.751 902.82 547.491 908.288 546.912C913.756 546.333 925.271 550.935 929.595 558.419C933.919 565.903 937.946 580.588 938.243 581.449C938.541 582.31 939.685 582.889 946.296 593.536C952.908 604.182 952.641 610.225 952.641 610.225H858.969C858.969 610.225 860.99 600.722 864.452 595.258C867.915 589.794 875.967 587.774 875.967 587.774L878.615 583.751Z" fill="#F5F5F5" stroke="#263238" stroke-miterlimit="10"/>
<path d="M915.714 609.646C915.714 609.646 913.113 603.383 912.831 602.459C912.549 601.536 912.549 593.238 911.672 589.794C910.795 586.349 903.619 575.703 903.619 575.703L908.805 560.736L906.204 558.717L910.528 548.07L908.116 546.959C902.444 547.977 878.552 583.766 878.552 583.766L875.967 587.79C875.967 587.79 867.899 589.809 864.452 595.273C861.491 599.97 859.595 607.548 859.109 609.661L915.714 609.646Z" fill="#263238"/>
<path d="M401.86 641.636V616.904H412.984C418.348 616.904 422.308 620.36 422.308 625.256C422.308 630.152 418.348 633.608 412.984 633.608H407.152V641.636H401.86ZM407.152 628.748H412.408C415.036 628.748 416.836 627.38 416.836 625.256C416.836 623.132 415.036 621.764 412.408 621.764H407.152V628.748ZM433.798 622.592C438.658 622.592 441.97 625.652 441.97 630.512V641.636H436.894V639.764C435.562 641.276 433.438 642.068 431.422 642.068C427.462 642.068 424.402 639.692 424.402 636.128C424.402 632.456 427.822 629.936 432.142 629.936C433.654 629.936 435.31 630.26 436.894 630.872V630.512C436.894 628.532 435.67 626.804 432.61 626.804C430.882 626.804 429.262 627.38 427.786 628.136L426.022 624.644C428.65 623.312 431.206 622.592 433.798 622.592ZM432.61 638.432C434.626 638.432 436.534 637.496 436.894 635.768V634.04C435.706 633.608 434.338 633.356 432.898 633.356C430.99 633.356 429.478 634.472 429.478 635.984C429.478 637.496 430.81 638.432 432.61 638.432ZM459.864 623.024H465.156V639.656C465.156 644.444 461.016 647.828 455.148 647.828C451.872 647.828 448.776 646.784 446.94 645.344L448.776 641.636C450 642.716 452.16 643.4 454.32 643.4C457.704 643.4 459.864 641.852 459.864 639.44V637.388C458.388 639.188 456.156 640.268 453.708 640.268C449.028 640.268 445.464 636.596 445.464 631.412C445.464 626.228 449.028 622.592 453.708 622.592C456.228 622.592 458.604 623.78 459.864 625.544V623.024ZM455.364 635.84C457.992 635.84 459.864 634.004 459.864 631.412C459.864 628.82 457.992 627.02 455.364 627.02C452.736 627.02 450.864 628.82 450.864 631.412C450.864 634.004 452.736 635.84 455.364 635.84ZM478.563 637.424C480.039 637.424 481.839 636.74 482.847 635.768L486.195 639.188C484.539 640.916 481.335 642.068 478.599 642.068C473.055 642.068 468.735 638 468.735 632.276C468.735 626.66 472.875 622.592 478.311 622.592C484.143 622.592 487.563 627.02 487.563 634.04H474.135C474.747 636.056 476.367 637.424 478.563 637.424ZM478.527 627.236C476.547 627.236 474.891 628.388 474.207 630.26H482.523C482.019 628.424 480.651 627.236 478.527 627.236ZM501.533 641.636V616.904H506.825L518.741 632.888V616.904H524.069V641.636H518.741L506.825 625.652V641.636H501.533ZM538.196 642.068C532.652 642.068 528.008 637.604 528.008 632.312C528.008 627.02 532.652 622.592 538.196 622.592C543.704 622.592 548.312 627.02 548.312 632.312C548.312 637.604 543.704 642.068 538.196 642.068ZM538.196 637.64C540.968 637.64 543.308 635.192 543.308 632.312C543.308 629.432 540.968 627.02 538.196 627.02C535.388 627.02 533.048 629.432 533.048 632.312C533.048 635.192 535.388 637.64 538.196 637.64ZM561.66 637.028L562.92 640.448C561.84 641.42 560.148 642.068 558.636 642.068C555.36 642.068 553.056 639.728 553.056 636.38V627.272H550.5V623.024H553.056V617.912H558.096V623.024H562.128V627.272H558.096V635.552C558.096 636.776 558.888 637.64 559.86 637.64C560.58 637.64 561.3 637.388 561.66 637.028ZM595.455 621.692H581.739V627.056H594.159V631.844H581.739V641.636H576.411V616.904H595.455V621.692ZM608.227 642.068C602.683 642.068 598.039 637.604 598.039 632.312C598.039 627.02 602.683 622.592 608.227 622.592C613.735 622.592 618.343 627.02 618.343 632.312C618.343 637.604 613.735 642.068 608.227 642.068ZM608.227 637.64C610.999 637.64 613.339 635.192 613.339 632.312C613.339 629.432 610.999 627.02 608.227 627.02C605.419 627.02 603.079 629.432 603.079 632.312C603.079 635.192 605.419 637.64 608.227 637.64ZM634.248 623.024H639.504V641.636H634.248V639.296C633.132 640.988 631.044 642.068 628.632 642.068C624.6 642.068 621.72 639.08 621.72 634.868V623.024H626.796V633.752C626.796 636.056 628.236 637.64 630.324 637.64C632.52 637.64 634.212 636.056 634.212 634.04L634.248 634.148V623.024ZM654.777 622.592C658.809 622.592 661.689 625.58 661.689 629.792V641.636H656.613V630.908C656.613 628.604 655.173 627.02 653.085 627.02C650.889 627.02 649.197 628.604 649.197 630.62L649.161 630.512V641.636H643.905V623.024H649.161V625.364C650.277 623.672 652.365 622.592 654.777 622.592ZM680.022 616.472H685.278V641.636H680.022V638.972C678.546 640.916 676.386 642.068 673.758 642.068C668.79 642.068 665.19 638.036 665.19 632.312C665.19 626.624 668.79 622.592 673.758 622.592C676.386 622.592 678.546 623.744 680.022 625.688V616.472ZM675.27 637.64C678.042 637.64 680.022 635.444 680.022 632.312C680.022 629.216 678.042 627.02 675.27 627.02C672.354 627.02 670.302 629.216 670.302 632.312C670.302 635.444 672.354 637.64 675.27 637.64Z" fill="#333333"/>
</g>
<defs>
<clipPath id="clip0_2301_1600">
<rect width="1086" height="686" fill="white" transform="translate(0.5)"/>
</clipPath>
</defs>
</svg>
