<svg width="772" height="573" viewBox="0 0 772 573" fill="none" xmlns="http://www.w3.org/2000/svg">
<g clip-path="url(#clip0_2311_2204)">
<path opacity="0.5" d="M744.287 285.908C737.374 230.836 720.082 177.66 699.425 139.538C649.526 47.9336 510.513 -13.3398 405.78 2.50892C316.443 16.0119 273.518 97.5398 192.969 125.831C118.865 151.858 52.1421 171.949 17.2106 240.627C-56.7919 385.692 124.105 544.281 279.146 531.92C328.087 528.004 371.807 509.177 422.032 518.009C523.992 535.938 557.843 555.214 647.894 519.355C736.62 484.007 756.38 382.245 744.287 285.908Z" fill="#E74451"/>
<path opacity="0.8" d="M744.287 285.908C737.374 230.836 720.082 177.66 699.425 139.538C649.526 47.9336 510.513 -13.3398 405.78 2.50892C316.443 16.0119 273.518 97.5398 192.969 125.831C118.865 151.858 52.1421 171.949 17.2106 240.627C-56.7919 385.692 124.105 544.281 279.146 531.92C328.087 528.004 371.807 509.177 422.032 518.009C523.992 535.938 557.843 555.214 647.894 519.355C736.62 484.007 756.38 382.245 744.287 285.908Z" fill="white"/>
<path d="M387.569 563.148L300.598 368.354H511.349L771.245 539.834" fill="#F5F5F5"/>
<path d="M387.569 563.148L300.598 368.354H511.349L771.245 539.834" stroke="#263238" stroke-width="0.75" stroke-linecap="round" stroke-linejoin="round"/>
<path d="M365.995 555.458L300.598 381.347V368.354L393.116 572.225L365.995 555.458Z" fill="#263238" stroke="#263238" stroke-width="0.75" stroke-linecap="round" stroke-linejoin="round"/>
<path d="M421.095 376.391L510.738 481.518L401.926 506.872L340.098 389.384L421.095 376.391Z" fill="white" stroke="#263238" stroke-width="0.75" stroke-linecap="round" stroke-linejoin="round"/>
<path d="M401.926 506.872V509.972L508.882 488.331L510.737 481.518L401.926 506.872Z" fill="#263238" stroke="#263238" stroke-width="0.75" stroke-linecap="round" stroke-linejoin="round"/>
<path d="M417.709 414.228L422.277 420.979L433.961 417.818L429.108 411.229L417.709 414.228Z" fill="#263238"/>
<path d="M461.858 455.655L456.311 448.128L443.057 451.718L448.236 459.387L461.858 455.655Z" fill="#263238"/>
<path d="M408.166 400.113L411.592 405.151L422.563 402.357L419.117 397.686L408.166 400.113Z" fill="#263238"/>
<path d="M429.312 431.382L435.593 440.683L448.42 437.419L441.487 428.037L429.312 431.382Z" fill="#263238"/>
<path d="M462.53 435.747L451.539 438.541L457.045 446.007L468.24 442.988L462.53 435.747Z" fill="#263238"/>
<path d="M436.715 442.315L441.956 450.086L455.129 446.537L449.603 439.031L436.715 442.315Z" fill="#263238"/>
<path d="M395.748 402.866L399.154 408.333L409.676 405.64L406.23 400.541L395.748 402.866Z" fill="#263238"/>
<path d="M423.379 422.611L428.212 429.77L440.304 426.425L435.145 419.429L423.379 422.611Z" fill="#263238"/>
<path d="M412.693 406.783L416.609 412.596L427.906 409.618L423.746 403.968L412.693 406.783Z" fill="#263238"/>
<path d="M388.957 419.898L385.532 413.697L373.031 416.879L376.518 423.182L388.957 419.898Z" fill="#263238"/>
<path d="M370.991 434.849L379.576 432.524L375.599 425.344L367.137 427.588L370.991 434.849Z" fill="#263238"/>
<path d="M392.035 396.87L394.727 401.194L405.106 398.889L402.313 394.769L392.035 396.87Z" fill="#263238"/>
<path d="M384.594 412.025L381.29 406.048L368.586 408.863L372.093 415.207L384.594 412.025Z" fill="#263238"/>
<path d="M379.719 399.378L382.247 403.947L392.81 401.622L390.098 397.257L379.719 399.378Z" fill="#263238"/>
<path d="M361.957 417.777L370.237 415.676L366.688 409.292L358.43 411.107L361.957 417.777Z" fill="#263238"/>
<path d="M364.996 402.397L367.647 407.17L380.351 404.376L377.802 399.766L364.996 402.397Z" fill="#263238"/>
<path d="M404.904 417.614L409.187 424.528L420.402 421.51L415.814 414.717L404.904 417.614Z" fill="#263238"/>
<path d="M433.697 441.172L427.437 431.912L415.752 435.135L421.421 444.293L433.697 441.172Z" fill="#263238"/>
<path d="M383.186 405.64L386.448 411.556L397.256 408.802L393.83 403.274L383.186 405.64Z" fill="#263238"/>
<path d="M385.634 443.437L376.824 445.864L381.392 454.492L390.466 452.167L385.634 443.437Z" fill="#263238"/>
<path d="M410.205 426.18L414.732 433.483L426.335 430.28L421.482 423.121L410.205 426.18Z" fill="#263238"/>
<path d="M402.008 416.451L398.276 410.454L387.387 413.228L390.813 419.409L402.008 416.451Z" fill="#263238"/>
<path d="M422.461 480.417L410.002 483.578L414.447 491.615L426.948 488.514L422.461 480.417Z" fill="#263238"/>
<path d="M403.171 392.688L413.836 390.526L408.105 382.734L397.604 384.468L403.171 392.688Z" fill="#263238"/>
<path d="M376.865 398.073L371.706 388.751L358.635 390.893L364.059 400.684L376.865 398.073Z" fill="#263238"/>
<path d="M393.809 428.689L389.874 421.571L377.455 424.855L381.432 432.034L393.809 428.689Z" fill="#263238"/>
<path d="M425.581 454.533L420.565 446.435L407.596 449.739L412.245 458.143L425.581 454.533Z" fill="#263238"/>
<path d="M419.544 444.783L413.875 435.645L401.66 439.01L406.656 448.046L419.544 444.783Z" fill="#263238"/>
<path d="M440.08 450.616L434.799 442.804L422.441 445.945L427.458 454.023L440.08 450.616Z" fill="#263238"/>
<path d="M407.31 425.038L403.028 418.103L391.73 421.081L395.666 428.179L407.31 425.038Z" fill="#263238"/>
<path d="M400.172 409.985L403.883 415.961L414.711 413.106L410.776 407.272L400.172 409.985Z" fill="#263238"/>
<path d="M412.857 433.993L408.33 426.69L396.584 429.852L400.744 437.338L412.857 433.993Z" fill="#263238"/>
<path d="M446.36 459.897L441.16 452.228L428.477 455.675L433.309 463.467L446.36 459.897Z" fill="#263238"/>
<path d="M437.978 474.542L432.452 465.629L418.504 469.443L423.398 478.255L437.978 474.542Z" fill="#263238"/>
<path d="M396.176 462.488L391.404 453.859L382.289 456.164L386.938 464.996L396.176 462.488Z" fill="#263238"/>
<path d="M380.515 434.197L371.889 436.542L375.926 444.191L384.695 441.764L380.515 434.197Z" fill="#263238"/>
<path d="M421.523 478.724L416.67 469.953L404.312 473.339L409.064 481.906L421.523 478.724Z" fill="#263238"/>
<path d="M398.888 437.848L394.748 430.362L382.35 433.707L386.55 441.254L398.888 437.848Z" fill="#263238"/>
<path d="M404.291 394.361L407.064 398.461L417.913 396.054L415.038 392.158L404.291 394.361Z" fill="#263238"/>
<path d="M357.533 409.414L365.751 407.599L363.1 402.785L354.902 404.457L357.533 409.414Z" fill="#263238"/>
<path d="M390.996 395.177L401.192 393.096L395.584 384.794L385.592 386.447L390.996 395.177Z" fill="#263238"/>
<path d="M378.781 397.686L389.059 395.585L383.614 386.773L373.643 388.425L378.781 397.686Z" fill="#263238"/>
<path d="M374.683 423.672L371.175 417.369L362.855 419.47L366.261 425.895L374.683 423.672Z" fill="#263238"/>
<path d="M415.834 390.098L425.031 388.221L419.26 380.899L410.145 382.388L415.834 390.098Z" fill="#263238"/>
<path d="M362.142 401.071L356.677 391.219L348.602 392.545L354.005 402.744L362.142 401.071Z" fill="#263238"/>
<path d="M408.146 484.068L398.357 486.556L402.599 494.552L412.591 492.084L408.146 484.068Z" fill="#263238"/>
<path d="M454.66 472.197L440.875 475.705L445.912 483.844L460.145 480.315L454.66 472.197Z" fill="#263238"/>
<path d="M438.999 476.195L424.316 479.927L428.823 488.066L444.015 484.313L438.999 476.195Z" fill="#263238"/>
<path d="M470.973 468.036L456.576 471.707L462.062 479.846L476.968 476.154L470.973 468.036Z" fill="#263238"/>
<path d="M485.145 464.425L472.91 467.546L478.905 475.685L491.569 472.543L485.145 464.425Z" fill="#263238"/>
<path d="M402.476 473.849L392.994 476.439L397.46 484.863L407.207 482.375L402.476 473.849Z" fill="#263238"/>
<path d="M431.432 463.997L426.6 456.185L413.182 459.816L417.586 467.791L431.432 463.997Z" fill="#263238"/>
<path d="M453.558 470.565L447.44 461.529L434.328 465.119L439.854 474.053L453.558 470.565Z" fill="#263238"/>
<path d="M415.752 468.28L411.327 460.305L398.949 463.65L403.395 471.666L415.752 468.28Z" fill="#263238"/>
<path d="M392.118 474.746L401.56 472.176L397.114 464.16L387.836 466.669L392.118 474.746Z" fill="#263238"/>
<path d="M404.802 448.536L399.826 439.52L387.469 442.927L392.322 451.697L404.802 448.536Z" fill="#263238"/>
<path d="M469.791 466.424L463.041 457.266L449.338 460.999L455.455 470.075L469.791 466.424Z" fill="#263238"/>
<path d="M410.409 458.633L405.74 450.208L393.26 453.37L398.031 461.998L410.409 458.633Z" fill="#263238"/>
<path d="M443.404 427.506L450.358 436.93L461.268 434.156L453.763 424.651L443.404 427.506Z" fill="#263238"/>
<path d="M429.843 409.108L439.509 406.558L435.165 401.071L425.703 403.478L429.843 409.108Z" fill="#263238"/>
<path d="M421.094 397.257L424.499 401.867L433.92 399.48L430.515 395.177L421.094 397.257Z" fill="#263238"/>
<path d="M483.881 462.834L476.58 453.554L464.957 456.736L471.727 465.935L483.881 462.834Z" fill="#263238"/>
<path d="M431.025 410.719L435.899 417.308L445.85 414.615L440.752 408.149L431.025 410.719Z" fill="#263238"/>
<path d="M458.229 447.618L463.775 455.124L475.317 451.963L469.485 444.558L458.229 447.618Z" fill="#263238"/>
<path d="M419.891 395.625L429.251 393.545L426.315 389.853L417.057 391.75L419.891 395.625Z" fill="#263238"/>
<path d="M442.221 425.895L452.519 423.06L447.115 416.206L437.082 418.919L442.221 425.895Z" fill="#263238"/>
<path d="M524.951 388.16V404.845C523.256 406.483 521.39 407.933 519.383 409.169C516.304 411.025 490.957 415.288 490.957 415.288L523.095 450.555C523.095 450.555 552.561 447.332 560.82 444.987C569.466 442.498 567.611 410.964 567.611 410.964L524.951 388.16Z" fill="white" stroke="#263238" stroke-width="0.75" stroke-linecap="round" stroke-linejoin="round"/>
<path d="M524.95 388.16V404.845C524.95 404.845 524.502 405.294 523.768 405.946L561.35 444.824C569.384 441.213 567.61 411.025 567.61 411.025L524.95 388.16Z" fill="#263238" stroke="#263238" stroke-width="0.75" stroke-linecap="round" stroke-linejoin="round"/>
<path d="M468.078 174.805V351.669L602.849 458.021V184.697L468.078 174.805Z" fill="white" stroke="#263238" stroke-width="0.75" stroke-linecap="round" stroke-linejoin="round"/>
<path d="M477.355 184.085V333.108L590.49 402.989V193.978L477.355 184.085Z" fill="#E74451" stroke="#263238" stroke-width="0.75" stroke-linecap="round" stroke-linejoin="round"/>
<path d="M616.449 184.697H602.848V458.082H616.449V184.697Z" fill="#263238" stroke="#263238" stroke-width="0.75" stroke-linecap="round" stroke-linejoin="round"/>
<path d="M539.771 319.873C551.547 315.918 556.677 299.553 551.228 283.321C545.779 267.088 531.815 257.135 520.039 261.09C508.263 265.045 503.134 281.41 508.583 297.643C514.031 313.875 527.995 323.828 539.771 319.873Z" fill="#263238"/>
<path d="M532.374 292.354L540.306 283.563C540.841 282.779 541.116 281.847 541.09 280.898C541.064 279.95 540.74 279.033 540.163 278.28C538.981 276.587 537.125 276.24 536.085 277.444L528.458 285.908L520.811 273.67C519.71 271.896 517.855 271.345 516.733 272.446C516.142 273.177 515.806 274.08 515.777 275.019C515.747 275.959 516.026 276.882 516.57 277.648L524.502 290.396L516.427 299.146C515.892 299.931 515.619 300.865 515.649 301.814C515.678 302.764 516.008 303.679 516.59 304.429C517.056 305.167 517.785 305.7 518.629 305.918C518.996 306.009 519.381 305.996 519.742 305.881C520.102 305.766 520.423 305.553 520.669 305.265L528.316 296.801L535.942 309.039C536.411 309.871 537.187 310.486 538.104 310.752C538.456 310.863 538.832 310.876 539.191 310.79C539.55 310.704 539.879 310.521 540.143 310.263C540.728 309.529 541.058 308.624 541.084 307.686C541.11 306.748 540.83 305.826 540.286 305.061L532.374 292.354Z" fill="white"/>
<path d="M505.783 247.766L552.522 261.513" stroke="#263238" stroke-width="0.75" stroke-linecap="round" stroke-linejoin="round"/>
<path d="M503.928 234.793L564.512 251.702" stroke="#263238" stroke-width="0.75" stroke-linecap="round" stroke-linejoin="round"/>
<path d="M545.689 526.188C545.689 526.188 516.141 528.922 505.211 537.672C494.281 546.422 502.479 550.808 512.858 553.541C523.238 556.274 569.752 551.889 575.768 545.872C581.783 539.854 575.768 525.087 545.689 526.188Z" fill="white" stroke="#263238" stroke-width="0.75" stroke-linecap="round" stroke-linejoin="round"/>
<path d="M575.769 545.953C576.931 544.793 577.652 543.264 577.808 541.629C564.573 540.976 547.22 544.811 531.457 549.788C526.135 551.482 520.731 552.904 515.266 554.051C529.01 555.703 570.14 551.501 575.769 545.953Z" fill="#263238" stroke="#263238" stroke-width="0.75" stroke-linecap="round" stroke-linejoin="round"/>
<path d="M440.936 201.566L462.531 212.784" stroke="#263238" stroke-linecap="round" stroke-linejoin="round"/>
<path d="M428.537 195.12L434.961 198.465" stroke="#263238" stroke-linecap="round" stroke-linejoin="round"/>
<path d="M445.688 258.189L453.008 259.025" stroke="#263238" stroke-linecap="round" stroke-linejoin="round"/>
<path d="M417.668 254.945L437.407 257.23" stroke="#263238" stroke-linecap="round" stroke-linejoin="round"/>
<path d="M450.297 310.691L425.826 317.504" stroke="#263238" stroke-linecap="round" stroke-linejoin="round"/>
<path d="M418.709 11.5448C407.133 11.5448 395.818 14.9781 386.194 21.4106C376.569 27.8431 369.068 36.9858 364.639 47.6826C360.209 58.3794 359.05 70.1499 361.308 81.5056C363.566 92.8612 369.14 103.292 377.325 111.479C385.51 119.666 395.938 125.242 407.291 127.5C418.644 129.759 430.411 128.6 441.105 124.169C451.799 119.738 460.94 112.235 467.37 102.608C473.801 92.9812 477.234 81.6631 477.234 70.0849C477.234 54.5591 471.068 39.6692 460.092 28.6908C449.117 17.7124 434.23 11.5448 418.709 11.5448ZM418.709 117.121C409.409 117.117 400.319 114.355 392.589 109.184C384.859 104.013 378.835 96.6658 375.279 88.0707C371.723 79.4757 370.794 70.0189 372.611 60.8962C374.428 51.7734 378.908 43.3943 385.485 36.8182C392.063 30.2421 400.441 25.7644 409.563 23.9512C418.684 22.1379 428.138 23.0706 436.729 26.6312C445.32 30.1919 452.663 36.2206 457.829 43.9552C462.996 51.6898 465.753 60.783 465.753 70.0849C465.764 76.2694 464.554 82.3953 462.195 88.1116C459.835 93.8279 456.371 99.0223 452 103.397C447.63 107.772 442.44 111.242 436.727 113.607C431.015 115.973 424.892 117.188 418.709 117.182V117.121Z" fill="#263238"/>
<path d="M422.889 70.1462C422.909 70.9773 422.681 71.7955 422.234 72.4964C421.788 73.1974 421.142 73.7491 420.38 74.0813C419.618 74.4135 418.775 74.511 417.957 74.3613C417.14 74.2117 416.385 73.8218 415.79 73.2412C415.196 72.6607 414.787 71.916 414.617 71.1022C414.448 70.2884 414.524 69.4425 414.837 68.6725C415.151 67.9025 415.686 67.2433 416.376 66.7792C417.065 66.3151 417.877 66.067 418.708 66.0668C419.8 66.0664 420.848 66.493 421.629 67.2552C422.41 68.0175 422.862 69.055 422.889 70.1462Z" fill="#263238"/>
<path d="M404.68 91.3798L418.709 70.1462L442.384 89.7276" stroke="#263238" stroke-linecap="round" stroke-linejoin="round"/>
<path d="M108.139 115.02L101.104 95.7856L104.856 100.008V93.4399L112.829 105.637L105.794 62.0077L115.174 85.9337L116.112 64.8225L117.519 71.8596L119.395 47.9336L122.678 84.5263L127.368 71.8596L126.43 88.2794L139.094 50.7484L132.997 97.6621L141.908 91.0942L136.749 99.5387L143.315 94.8473L135.811 116.428L108.608 116.897" fill="#E74451"/>
<path d="M138.238 162.403H108.914L101.002 111.573H146.129L138.238 162.403Z" fill="#263238" stroke="#263238" stroke-linecap="round" stroke-linejoin="round"/>
<path d="M218.5 162.056H70.4746V555.948H218.5V162.056Z" fill="white" stroke="#263238" stroke-linecap="round" stroke-linejoin="round"/>
<path d="M208.446 174.988H79.0996V269.856H208.446V174.988Z" stroke="#263238" stroke-linecap="round" stroke-linejoin="round"/>
<path d="M169.641 213.804H117.906V231.06H169.641V213.804Z" fill="#263238"/>
<path d="M208.446 285.684H79.0996V380.552H208.446V285.684Z" stroke="#263238" stroke-linecap="round" stroke-linejoin="round"/>
<path d="M169.641 324.48H117.906V341.736H169.641V324.48Z" fill="#263238"/>
<path d="M208.446 396.36H79.0996V491.227H208.446V396.36Z" stroke="#263238" stroke-linecap="round" stroke-linejoin="round"/>
<path d="M169.641 435.176H117.906V452.432H169.641V435.176Z" fill="#263238"/>
<mask id="mask0_2311_2204" style="mask-type:luminance" maskUnits="userSpaceOnUse" x="-19" y="93" width="470" height="466">
<path d="M450.295 93.1339H-18.7207V558.192H450.295V93.1339Z" fill="white"/>
</mask>
<g mask="url(#mask0_2311_2204)">
<path d="M234.386 533.47C234.386 533.47 308.572 500.692 348.459 498.224L377.558 562.536H157.773L234.386 533.47Z" fill="#263238" stroke="#263238" stroke-width="0.75" stroke-linecap="round" stroke-linejoin="round"/>
<path d="M324.68 145.963C324.68 145.963 376.904 208.011 387.896 219.393C398.887 230.775 399.295 239.035 395.747 244.135C392.198 249.234 365.526 258.678 338.037 276.342C310.549 294.006 232.407 339.574 231.632 341.165C230.857 342.756 223.373 286.092 223.373 286.092L354.126 232.284L353.739 228.347L311.324 149.797L324.68 145.963Z" fill="white"/>
<mask id="mask1_2311_2204" style="mask-type:luminance" maskUnits="userSpaceOnUse" x="223" y="145" width="175" height="197">
<path d="M324.68 145.963C324.68 145.963 376.904 208.011 387.896 219.393C398.887 230.775 399.295 239.035 395.747 244.135C392.198 249.234 365.526 258.678 338.037 276.342C310.549 294.006 232.407 339.574 231.632 341.165C230.857 342.756 223.373 286.092 223.373 286.092L354.126 232.284L353.739 228.347L311.324 149.797L324.68 145.963Z" fill="white"/>
</mask>
<g mask="url(#mask1_2311_2204)">
<path d="M374.946 237.546L314.341 149.022L311.425 149.879L353.841 228.429L354.228 232.366L223.475 286.174C223.475 286.174 223.617 287.153 223.821 288.805L232.345 308.366L374.946 237.546Z" fill="#FFD6D9"/>
<path opacity="0.5" d="M374.946 237.546L314.341 149.022L311.425 149.879L353.841 228.429L354.228 232.366L223.475 286.174C223.475 286.174 223.617 287.153 223.821 288.805L232.345 308.366L374.946 237.546Z" fill="white"/>
</g>
<path d="M324.68 145.963C324.68 145.963 376.904 208.011 387.896 219.393C398.887 230.775 399.295 239.035 395.747 244.135C392.198 249.234 365.526 258.678 338.037 276.342C310.549 294.006 232.407 339.574 231.632 341.165C230.857 342.756 223.373 286.092 223.373 286.092L354.126 232.284L353.739 228.347L311.324 149.797L324.68 145.963Z" stroke="#263238" stroke-width="0.75" stroke-linecap="round" stroke-linejoin="round"/>
<path d="M283.062 118.855C283.062 118.855 276.781 113.348 273.641 118.855C270.5 124.362 270.113 133.378 272.071 134.173C274.028 134.969 281.879 133.786 283.062 131.419C284.245 129.053 283.062 118.855 283.062 118.855Z" fill="white" stroke="#263238" stroke-width="0.75" stroke-linecap="round" stroke-linejoin="round"/>
<path d="M294.053 116.101C294.053 116.101 287.385 109.044 283.062 111.777C278.739 114.51 279.922 129.461 281.492 130.644C283.062 131.827 292.483 128.605 293.727 126.708C294.971 124.811 294.053 116.101 294.053 116.101Z" fill="white" stroke="#263238" stroke-width="0.75" stroke-linecap="round" stroke-linejoin="round"/>
<path d="M308.978 116.489C308.978 116.489 303.085 108.33 297.6 108.33C292.114 108.33 288.158 127.972 290.136 129.543C292.114 131.114 305.043 129.155 305.838 127.972C307.097 124.206 308.146 120.372 308.978 116.489Z" fill="white" stroke="#263238" stroke-width="0.75" stroke-linecap="round" stroke-linejoin="round"/>
<path d="M320.459 129.849C320.459 127.503 319.297 107.065 312.302 108.248C305.308 109.431 297.783 125.933 298.171 128.646C298.558 131.358 320.459 129.849 320.459 129.849Z" fill="white" stroke="#263238" stroke-width="0.75" stroke-linecap="round" stroke-linejoin="round"/>
<path d="M354.127 232.366C354.127 232.366 374.152 239.831 381.615 239.423L354.127 232.366Z" fill="white"/>
<path d="M354.127 232.366C354.127 232.366 374.152 239.831 381.615 239.423" stroke="#263238" stroke-width="0.75" stroke-linecap="round" stroke-linejoin="round"/>
<path d="M189.463 563.067C210.793 559.477 238.118 544.811 246.254 526.351C240.137 494.348 232.408 449.27 232.408 421.693C232.408 375.35 244.643 349.038 239.076 317.667C233.509 286.296 221.804 265.817 209.243 257.577C209.243 257.577 190.013 262.676 170.376 281.136C150.738 299.595 133.466 331.333 126.737 361.582C120.007 391.831 111.035 484.904 111.035 509.259C111.035 533.613 109.281 563.842 109.281 563.842C132.793 563.842 156.305 563.842 179.817 563.842C183.049 563.873 186.277 563.613 189.463 563.067Z" fill="white"/>
<mask id="mask2_2311_2204" style="mask-type:luminance" maskUnits="userSpaceOnUse" x="109" y="257" width="138" height="307">
<path d="M189.463 563.067C210.793 559.477 238.118 544.811 246.254 526.351C240.137 494.348 232.408 449.27 232.408 421.693C232.408 375.35 244.643 349.038 239.076 317.667C233.509 286.296 221.804 265.817 209.243 257.577C209.243 257.577 190.013 262.676 170.376 281.136C150.738 299.595 133.466 331.333 126.737 361.582C120.007 391.831 111.035 484.904 111.035 509.259C111.035 533.613 109.281 563.842 109.281 563.842C132.793 563.842 156.305 563.842 179.817 563.842C183.049 563.873 186.277 563.613 189.463 563.067Z" fill="white"/>
</mask>
<g mask="url(#mask2_2311_2204)">
<path d="M246.254 526.331C234.305 536.53 180.49 556.335 172.639 558.09C164.788 559.844 169.152 543.24 181.367 526.657C193.582 510.074 166.522 532.777 162.158 534.51C157.794 536.244 163.911 502.201 163.911 485.557C163.911 468.913 179.634 327.519 179.634 327.519L209.304 273.364L219.5 267.245C216.652 263.458 213.209 260.159 209.304 257.475C209.304 257.475 190.074 262.574 170.437 281.034C150.799 299.493 133.466 331.333 126.737 361.582C120.007 391.831 111.035 484.904 111.035 509.259C111.035 533.613 109.281 563.842 109.281 563.842C132.793 563.842 156.305 563.842 179.817 563.842C183.038 563.843 186.252 563.557 189.422 562.985C210.793 559.477 238.118 544.811 246.254 526.331Z" fill="#FFD6D9"/>
<path opacity="0.5" d="M246.254 526.331C234.305 536.53 180.49 556.335 172.639 558.09C164.788 559.844 169.152 543.24 181.367 526.657C193.582 510.074 166.522 532.777 162.158 534.51C157.794 536.244 163.911 502.201 163.911 485.557C163.911 468.913 179.634 327.519 179.634 327.519L209.304 273.364L219.5 267.245C216.652 263.458 213.209 260.159 209.304 257.475C209.304 257.475 190.074 262.574 170.437 281.034C150.799 299.493 133.466 331.333 126.737 361.582C120.007 391.831 111.035 484.904 111.035 509.259C111.035 533.613 109.281 563.842 109.281 563.842C132.793 563.842 156.305 563.842 179.817 563.842C183.038 563.843 186.252 563.557 189.422 562.985C210.793 559.477 238.118 544.811 246.254 526.331Z" fill="white"/>
</g>
<path d="M189.463 563.067C210.793 559.477 238.118 544.811 246.254 526.351C240.137 494.348 232.408 449.27 232.408 421.693C232.408 375.35 244.643 349.038 239.076 317.667C233.509 286.296 221.804 265.817 209.243 257.577C209.243 257.577 190.013 262.676 170.376 281.136C150.738 299.595 133.466 331.333 126.737 361.582C120.007 391.831 111.035 484.904 111.035 509.259C111.035 533.613 109.281 563.842 109.281 563.842C132.793 563.842 156.305 563.842 179.817 563.842C183.049 563.873 186.277 563.613 189.463 563.067Z" stroke="#263238" stroke-width="0.75" stroke-linecap="round" stroke-linejoin="round"/>
<path d="M208.1 264.797L241.828 326.234L243.643 359.93C243.643 359.93 253.044 335.902 248.863 320.217C244.683 304.531 208.1 264.797 208.1 264.797Z" fill="#263238" stroke="#263238" stroke-width="0.75" stroke-linecap="round" stroke-linejoin="round"/>
<path d="M243.623 359.93L234.223 502.119L244.684 531.41L252.004 472.849L245.724 355.749L243.623 359.93Z" fill="#263238" stroke="#263238" stroke-width="0.75" stroke-linecap="round" stroke-linejoin="round"/>
<path d="M234.365 207.216C234.365 207.216 235.548 222.534 236.73 230C237.913 237.465 219.458 258.352 219.458 258.352L246.151 298.799L276.393 275.241C276.393 275.241 319.216 272.099 323.111 268.55C327.006 265.001 327.046 226.144 327.046 226.144L337.242 220.25C337.242 220.25 327.821 179.455 325.476 170.358L323.111 161.342C323.111 161.342 336.855 156.61 333.715 142.985C330.574 129.359 310.549 122.588 290.524 125.688C270.5 128.788 265.402 136.295 265.402 136.295C265.402 136.295 237.118 135.907 221.029 149.267C204.939 162.627 214.748 183.82 219.846 191.286C224.184 197.032 229.044 202.365 234.365 207.216Z" fill="white"/>
<mask id="mask3_2311_2204" style="mask-type:luminance" maskUnits="userSpaceOnUse" x="212" y="124" width="126" height="175">
<path d="M234.365 207.216C234.365 207.216 235.548 222.534 236.73 230C237.913 237.465 219.458 258.352 219.458 258.352L246.151 298.799L276.393 275.241C276.393 275.241 319.216 272.099 323.111 268.55C327.006 265.001 327.046 226.144 327.046 226.144L337.242 220.25C337.242 220.25 327.821 179.455 325.476 170.358L323.111 161.342C323.111 161.342 336.855 156.61 333.715 142.985C330.574 129.359 310.549 122.588 290.524 125.688C270.5 128.788 265.402 136.295 265.402 136.295C265.402 136.295 237.118 135.907 221.029 149.267C204.939 162.627 214.748 183.82 219.846 191.286C224.184 197.032 229.044 202.365 234.365 207.216Z" fill="white"/>
</mask>
<g mask="url(#mask3_2311_2204)">
<path d="M281.716 262.084C273.865 252.477 281.716 215.803 287.833 197.466C293.951 179.129 279.106 171.276 279.106 171.276L323.682 163.586L323.071 161.281C326.085 160.103 328.767 158.205 330.881 155.754L333.287 141.577C329.209 128.686 309.897 122.486 290.464 125.525C270.439 128.666 265.341 136.131 265.341 136.131C265.341 136.131 237.057 135.744 220.968 149.104C204.879 162.464 214.687 183.657 219.785 191.122C224.115 196.926 228.976 202.313 234.304 207.216C234.304 207.216 235.487 222.534 236.67 230C237.853 237.465 219.459 258.352 219.459 258.352L246.152 298.8L276.393 275.241C276.393 275.241 309.021 272.834 319.951 269.876L323.111 268.55C323.111 268.55 289.607 271.692 281.716 262.084Z" fill="#FFD6D9"/>
<path opacity="0.5" d="M281.716 262.084C273.865 252.477 281.716 215.803 287.833 197.466C293.951 179.129 279.106 171.276 279.106 171.276L323.682 163.586L323.071 161.281C326.085 160.103 328.767 158.205 330.881 155.754L333.287 141.577C329.209 128.686 309.897 122.486 290.464 125.525C270.439 128.666 265.341 136.131 265.341 136.131C265.341 136.131 237.057 135.744 220.968 149.104C204.879 162.464 214.687 183.657 219.785 191.122C224.115 196.926 228.976 202.313 234.304 207.216C234.304 207.216 235.487 222.534 236.67 230C237.853 237.465 219.459 258.352 219.459 258.352L246.152 298.8L276.393 275.241C276.393 275.241 309.021 272.834 319.951 269.876L323.111 268.55C323.111 268.55 289.607 271.692 281.716 262.084Z" fill="white"/>
<path d="M304.656 189.164C304.656 189.164 304.656 188.552 304.656 187.594C304.656 184.554 305.166 177.987 310.244 176.192C316.912 173.846 322.479 180.128 322.479 180.128L322.866 186.411C321.907 185.211 320.646 184.288 319.213 183.736C317.78 183.184 316.225 183.023 314.709 183.269C310.807 184.09 307.278 186.159 304.656 189.164Z" fill="#263238"/>
<path d="M316.055 201.729C316.055 204.972 315.158 207.624 314.016 207.624C312.874 207.624 311.977 204.972 311.977 201.729C311.977 198.486 312.853 195.834 314.016 195.834C315.178 195.834 316.055 198.465 316.055 201.729Z" fill="#263238"/>
<path d="M303.678 242.87C301.497 245.134 298.58 245.869 297.173 244.522C295.766 243.176 296.399 240.219 298.58 237.954C300.762 235.69 303.658 234.956 305.065 236.302C306.472 237.649 305.86 240.606 303.678 242.87Z" fill="#263238"/>
</g>
<path d="M234.365 207.216C234.365 207.216 235.548 222.534 236.73 230C237.913 237.465 219.458 258.352 219.458 258.352L246.151 298.799L276.393 275.241C276.393 275.241 319.216 272.099 323.111 268.55C327.006 265.001 327.046 226.144 327.046 226.144L337.242 220.25C337.242 220.25 327.821 179.455 325.476 170.358L323.111 161.342C323.111 161.342 336.855 156.61 333.715 142.985C330.574 129.359 310.549 122.588 290.524 125.688C270.5 128.788 265.402 136.295 265.402 136.295C265.402 136.295 237.118 135.907 221.029 149.267C204.939 162.627 214.748 183.82 219.846 191.286C224.184 197.032 229.044 202.365 234.365 207.216Z" stroke="#263238" stroke-width="0.75" stroke-linecap="round" stroke-linejoin="round"/>
<path d="M272.07 168.726C279.146 164.014 323.05 161.281 323.05 161.281C323.05 161.281 336.795 156.549 333.654 142.924C330.514 129.298 310.489 122.526 290.464 125.627C270.439 128.727 265.341 136.233 265.341 136.233C265.341 136.233 237.057 135.846 220.968 149.206C204.879 162.566 214.687 183.759 219.785 191.224C224.115 197.028 228.976 202.415 234.304 207.318C234.304 207.318 234.957 215.721 235.773 223.126L248.008 226.573L261.365 219.495L274.721 216.354C274.721 216.354 264.892 208.888 270.398 201.831C275.904 194.773 286.1 192.407 286.487 186.9C286.875 181.393 264.994 173.438 272.07 168.726Z" fill="#263238" stroke="#263238" stroke-width="0.75" stroke-linecap="round" stroke-linejoin="round"/>
<path d="M314.934 145.902C314.934 145.902 310.325 137.457 318.768 138.987C327.21 140.517 327.21 155.121 320.297 158.181C313.384 161.24 275.781 154.346 255.043 160.486C234.304 166.625 219.744 183.514 219.744 183.514" stroke="white" stroke-miterlimit="10" stroke-linecap="round"/>
<path d="M231.266 196.568C231.266 196.568 247.396 182.76 260.426 180.455C273.457 178.15 280.39 178.15 265.81 186.574C251.229 194.998 261.201 193.468 270.418 190.408" stroke="white" stroke-miterlimit="10" stroke-linecap="round"/>
<path d="M264.993 226.858C264.993 226.858 262.648 202.117 250.474 201.341C238.3 200.566 238.688 218.23 242.317 230.408C245.947 242.585 254.553 246.501 261.547 240.219" fill="#FFD6D9"/>
<mask id="mask4_2311_2204" style="mask-type:luminance" maskUnits="userSpaceOnUse" x="240" y="201" width="25" height="43">
<path d="M264.993 226.858C264.993 226.858 262.648 202.117 250.474 201.341C238.3 200.566 238.688 218.23 242.317 230.408C245.947 242.585 254.553 246.501 261.547 240.219" fill="white"/>
</mask>
<g mask="url(#mask4_2311_2204)">
<g opacity="0.5">
<path d="M264.993 226.858C264.993 226.858 262.648 202.117 250.474 201.341C238.3 200.566 238.688 218.23 242.317 230.408C245.947 242.585 254.553 246.501 261.547 240.219" fill="white"/>
<path d="M264.993 226.858C264.993 226.858 262.648 202.117 250.474 201.341C238.3 200.566 238.688 218.23 242.317 230.408C245.947 242.585 254.553 246.501 261.547 240.219" stroke="#263238" stroke-width="0.75" stroke-linecap="round" stroke-linejoin="round"/>
</g>
</g>
<path d="M264.993 226.858C264.993 226.858 262.648 202.117 250.474 201.341C238.3 200.566 238.688 218.23 242.317 230.408C245.947 242.585 254.553 246.501 261.547 240.219" stroke="#263238" stroke-width="0.75" stroke-linecap="round" stroke-linejoin="round"/>
<path d="M220.54 243.36L259.815 303.063L241.748 326.234C233.611 310.533 224.569 295.318 214.667 280.666C201.31 261.819 199.74 258.678 199.74 258.678L220.54 243.36Z" fill="white"/>
<mask id="mask5_2311_2204" style="mask-type:luminance" maskUnits="userSpaceOnUse" x="199" y="243" width="61" height="84">
<path d="M220.54 243.36L259.815 303.063L241.748 326.234C233.611 310.533 224.569 295.318 214.667 280.666C201.31 261.819 199.74 258.678 199.74 258.678L220.54 243.36Z" fill="white"/>
</mask>
<g mask="url(#mask5_2311_2204)">
<path d="M220.54 243.36L199.74 258.678C199.74 258.678 200.903 260.983 209.467 273.283L231.45 259.943L220.54 243.36Z" fill="#FFD6D9"/>
<path opacity="0.5" d="M220.54 243.36L199.74 258.678C199.74 258.678 200.903 260.983 209.467 273.283L231.45 259.943L220.54 243.36Z" fill="white"/>
</g>
<path d="M220.54 243.36L259.815 303.063L241.748 326.234C233.611 310.533 224.569 295.318 214.667 280.666C201.31 261.819 199.74 258.678 199.74 258.678L220.54 243.36Z" stroke="#263238" stroke-width="0.75" stroke-linecap="round" stroke-linejoin="round"/>
<path d="M321.541 391.831C321.541 391.831 327.822 378.859 329.004 370.618C330.187 362.378 330.575 357.646 335.285 353.729C339.996 349.813 355.31 334.087 357.716 328.192C360.123 322.297 361.632 327.804 362.814 332.516C363.997 337.228 363.589 341.552 359.674 344.306C356.915 346.354 354.41 348.723 352.211 351.363L355.738 354.117C355.738 354.117 404.822 335.657 409.94 333.72C415.059 331.782 419.749 333.312 420.136 337.248C420.524 341.185 418.974 341.573 416.608 342.756C414.243 343.939 388.345 352.954 384.797 354.525L381.269 356.096L384.022 358.849C384.022 358.849 398.154 358.462 405.23 358.074C412.306 357.687 422.889 356.503 424.459 358.849C425.16 359.899 425.428 361.179 425.208 362.422C424.987 363.665 424.295 364.774 423.277 365.519C422.451 366.311 421.457 366.905 420.37 367.258C419.282 367.612 418.129 367.714 416.996 367.559C413.468 367.559 383.227 369.904 383.227 369.904L384.022 374.229C384.022 374.229 416.221 379.328 417.383 380.899C418.546 382.469 418.566 383.265 417.383 385.61C416.201 387.956 415.344 387.976 412.285 387.976C409.227 387.976 383.737 384.04 383.737 384.04C383.737 384.04 396.298 391.118 397.868 392.301C399.438 393.484 404.924 394.34 403.354 397.012C401.783 399.684 401.009 400.541 398.643 400.154C396.278 399.766 379.413 392.301 379.413 392.301C379.413 392.301 362.529 394.646 356.982 395.054C352.9 395.244 348.808 395.107 344.747 394.646L329.045 404.845L321.541 391.831Z" fill="white" stroke="#263238" stroke-width="0.75" stroke-linecap="round" stroke-linejoin="round"/>
<path d="M210.038 374.147C210.038 374.147 198.639 326.621 193.929 316.015C189.218 305.408 162.525 295.618 149.556 318.768C136.586 341.919 148.373 368.252 153.104 387.099C157.835 405.946 187.648 491.125 191.971 501.793C196.294 512.461 204.206 509.952 208.468 508.871C212.73 507.79 332.146 411.454 332.146 411.454L322.725 390.261L230.063 437.848L210.038 374.147Z" fill="white"/>
<mask id="mask6_2311_2204" style="mask-type:luminance" maskUnits="userSpaceOnUse" x="143" y="304" width="190" height="206">
<path d="M210.038 374.147C210.038 374.147 198.639 326.621 193.929 316.015C189.218 305.408 162.525 295.618 149.556 318.768C136.586 341.919 148.373 368.252 153.104 387.099C157.835 405.946 187.648 491.125 191.971 501.793C196.294 512.461 204.206 509.952 208.468 508.871C212.73 507.79 332.146 411.454 332.146 411.454L322.725 390.261L230.063 437.848L210.038 374.147Z" fill="white"/>
</mask>
<g mask="url(#mask6_2311_2204)">
<path d="M206.695 478.642C209.72 469.448 213.212 460.413 217.156 451.575C221.52 442.845 196.213 471.666 190.973 455.94C185.732 440.213 152.574 361.643 158.672 335.453C161.316 323.285 168.434 312.554 178.615 305.387C168.888 303.083 156.979 305.53 149.556 318.788C136.608 341.96 148.374 368.272 153.105 387.119C157.836 405.966 187.649 491.145 191.972 501.813C196.295 512.481 204.207 509.972 208.469 508.891C211.609 508.034 275.762 456.776 310.429 428.974L206.695 478.642Z" fill="#FFD6D9"/>
<path opacity="0.5" d="M206.695 478.642C209.72 469.448 213.212 460.413 217.156 451.575C221.52 442.845 196.213 471.666 190.973 455.94C185.732 440.213 152.574 361.643 158.672 335.453C161.316 323.285 168.434 312.554 178.615 305.387C168.888 303.083 156.979 305.53 149.556 318.788C136.608 341.96 148.374 368.272 153.105 387.119C157.836 405.966 187.649 491.145 191.972 501.813C196.295 512.481 204.207 509.972 208.469 508.891C211.609 508.034 275.762 456.776 310.429 428.974L206.695 478.642Z" fill="white"/>
</g>
<path d="M210.038 374.147C210.038 374.147 198.639 326.621 193.929 316.015C189.218 305.408 162.525 295.618 149.556 318.768C136.586 341.919 148.373 368.252 153.104 387.099C157.835 405.946 187.648 491.125 191.971 501.793C196.294 512.461 204.206 509.952 208.468 508.871C212.73 507.79 332.146 411.454 332.146 411.454L322.725 390.261L230.063 437.848L210.038 374.147Z" stroke="#263238" stroke-width="0.75" stroke-linecap="round" stroke-linejoin="round"/>
<path d="M308.979 398.093L319.582 419.694" stroke="#263238" stroke-width="0.75" stroke-linecap="round" stroke-linejoin="round"/>
<path d="M59.8911 289.743L5.64844 327.376C5.64844 327.376 32.3823 355.647 29.6294 429.811C27.5902 486.454 35.0741 550.767 45.943 563.841H103.693C103.693 563.841 83.7294 453.696 85.1568 390.587C86.2784 342.633 71.8816 309.345 59.8911 289.743Z" fill="white" stroke="#263238" stroke-width="0.75" stroke-linecap="round" stroke-linejoin="round"/>
<path d="M66.4165 289.743L12.1738 327.376C12.1738 327.376 38.9077 355.647 36.1344 429.811C34.0952 486.454 41.5791 550.767 52.448 563.841H110.219C110.219 563.841 90.2752 453.696 91.7026 390.587C92.7834 342.633 78.3866 309.345 66.4165 289.743Z" fill="#263238" stroke="#263238" stroke-width="0.75" stroke-linecap="round" stroke-linejoin="round"/>
<path d="M59.8911 289.743H66.3962L12.1739 327.376H5.64844L59.8911 289.743Z" fill="white" stroke="#263238" stroke-width="0.75" stroke-linecap="round" stroke-linejoin="round"/>
</g>
</g>
<defs>
<clipPath id="clip0_2311_2204">
<rect width="772" height="573" fill="white"/>
</clipPath>
</defs>
</svg>
