<svg width="28" height="21" viewBox="0 0 28 21" fill="none" xmlns="http://www.w3.org/2000/svg">
<path fill-rule="evenodd" clip-rule="evenodd" d="M5.6641 1.17409C5.07423 1.45855 4.54361 1.94952 4.21997 2.51066C3.7456 3.33243 3.63513 3.39747 2.71225 3.39747C1.44972 3.39747 0.99274 3.56944 0.99274 4.04504C0.99274 4.67969 1.49135 4.95681 2.63357 4.95681C3.59305 4.95681 3.76527 5.03121 4.05277 5.5694C4.83774 7.03896 6.38045 7.75604 7.99429 7.40162C8.89659 7.20336 10.072 6.24905 10.3876 5.45802L10.5875 4.95681H19.0101C25.256 4.95681 27.5036 4.88775 27.7071 4.68949C28.0946 4.31213 28.0479 3.69263 27.6198 3.53269C27.4208 3.45829 23.5117 3.39747 18.9332 3.39747H10.6083L10.1539 2.52982C9.84097 1.93259 9.38948 1.51625 8.70469 1.19324C7.46343 0.608047 6.84612 0.60426 5.6641 1.17409ZM8.4364 2.83054C9.42287 3.79109 9.12943 5.3335 7.86301 5.84429C7.04968 6.17242 5.93124 5.84206 5.55843 5.16375C4.87662 3.92297 5.79287 2.28366 7.16816 2.28366C7.6137 2.28366 8.08258 2.48571 8.4364 2.83054ZM18.2128 7.62215C17.8089 7.86207 17.2428 8.41719 16.9548 8.85581L16.4313 9.65308L9.22663 9.66154C5.26407 9.666 1.78319 9.76156 1.49135 9.87361C1.11465 10.0184 0.981761 10.2236 1.03391 10.5802L1.1071 11.0828L8.76919 11.1414L16.4313 11.2002L16.8887 12.0144C17.522 13.1418 18.3772 13.6904 19.6736 13.8007C21.0843 13.921 22.1934 13.3585 22.883 12.1734L23.3878 11.3055L25.6276 11.1941C27.7378 11.0892 27.8716 11.0538 27.9404 10.5802C28.0402 9.89723 27.3808 9.68605 25.1773 9.69607C24.2009 9.70053 23.3775 9.66355 23.3475 9.61387C23.3176 9.56419 23.1357 9.22493 22.9438 8.86027C22.1216 7.29692 19.7884 6.68655 18.2128 7.62215ZM21.2916 9.25367C21.6381 9.56264 21.8062 9.96784 21.8062 10.4947C21.8062 12.6577 18.8276 12.999 18.076 10.9219C17.8301 10.2421 18.3866 9.16367 19.1494 8.84245C19.9744 8.49471 20.5681 8.60877 21.2916 9.25367ZM6.29559 13.651C5.4427 13.8377 4.53834 14.5734 4.05895 15.4707C3.78288 15.9878 3.57361 16.0811 2.56038 16.139C0.409277 16.262 0.452047 17.6542 2.60704 17.6542C3.65343 17.6542 3.73371 17.6986 4.22225 18.5453C4.76821 19.4911 6.16156 20.3274 7.19194 20.3274C8.19877 20.3274 9.76321 19.3893 10.2559 18.4903L10.7133 17.6554L18.9856 17.6549C23.5355 17.6545 27.4208 17.5934 27.6198 17.519C28.0479 17.3591 28.0946 16.7396 27.7071 16.3622C27.5036 16.164 25.2658 16.0949 19.0542 16.0949H10.6756L10.1228 15.2769C9.14749 13.8345 7.89251 13.3015 6.29559 13.651ZM8.06657 15.307C9.72684 16.1432 9.04548 18.7681 7.16816 18.7681C5.23296 18.7681 4.64104 16.1582 6.36764 15.2384C6.9845 14.9096 7.30333 14.9225 8.06657 15.307Z" fill="white"/>
</svg>
