<svg width="28" height="20" viewBox="0 0 28 20" fill="none" xmlns="http://www.w3.org/2000/svg">
<path fill-rule="evenodd" clip-rule="evenodd" d="M5.6641 0.836683C5.07423 1.12115 4.54361 1.61212 4.21997 2.17325C3.7456 2.99502 3.63513 3.06007 2.71225 3.06007C1.44972 3.06007 0.99274 3.23204 0.99274 3.70764C0.99274 4.34229 1.49135 4.61941 2.63357 4.61941C3.59305 4.61941 3.76527 4.69381 4.05277 5.232C4.83774 6.70156 6.38045 7.41863 7.99429 7.06422C8.89659 6.86596 10.072 5.91165 10.3876 5.12062L10.5875 4.61941H19.0101C25.256 4.61941 27.5036 4.55035 27.7071 4.35209C28.0946 3.97473 28.0479 3.35523 27.6198 3.19529C27.4208 3.12089 23.5117 3.06007 18.9332 3.06007H10.6083L10.1539 2.19241C9.84097 1.59519 9.38948 1.17885 8.70469 0.85584C7.46343 0.270644 6.84612 0.266858 5.6641 0.836683ZM8.4364 2.49314C9.42287 3.45369 9.12943 4.9961 7.86301 5.50689C7.04968 5.83502 5.93124 5.50466 5.55843 4.82635C4.87662 3.58557 5.79287 1.94626 7.16816 1.94626C7.6137 1.94626 8.08258 2.14831 8.4364 2.49314ZM18.2128 7.28475C17.8089 7.52467 17.2428 8.07979 16.9548 8.51841L16.4313 9.31567L9.22663 9.32414C5.26407 9.3286 1.78319 9.42416 1.49135 9.53621C1.11465 9.681 0.981761 9.88617 1.03391 10.2428L1.1071 10.7454L8.76919 10.8039L16.4313 10.8628L16.8887 11.677C17.522 12.8044 18.3772 13.353 19.6736 13.4633C21.0843 13.5836 22.1934 13.0211 22.883 11.836L23.3878 10.9681L25.6276 10.8567C27.7378 10.7518 27.8716 10.7164 27.9404 10.2428C28.0402 9.55982 27.3808 9.34864 25.1773 9.35867C24.2009 9.36312 23.3775 9.32614 23.3475 9.27647C23.3176 9.22679 23.1357 8.88753 22.9438 8.52287C22.1216 6.95952 19.7884 6.34915 18.2128 7.28475ZM21.2916 8.91626C21.6381 9.22523 21.8062 9.63044 21.8062 10.1573C21.8062 12.3203 18.8276 12.6616 18.076 10.5845C17.8301 9.90466 18.3866 8.82627 19.1494 8.50504C19.9744 8.15731 20.5681 8.27137 21.2916 8.91626ZM6.29559 13.3136C5.4427 13.5003 4.53834 14.236 4.05895 15.1333C3.78288 15.6504 3.57361 15.7437 2.56038 15.8016C0.409277 15.9246 0.452047 17.3168 2.60704 17.3168C3.65343 17.3168 3.73371 17.3612 4.22225 18.2079C4.76821 19.1537 6.16156 19.99 7.19194 19.99C8.19877 19.99 9.76321 19.0519 10.2559 18.1529L10.7133 17.318L18.9856 17.3175C23.5355 17.3171 27.4208 17.256 27.6198 17.1816C28.0479 17.0217 28.0946 16.4022 27.7071 16.0248C27.5036 15.8266 25.2658 15.7575 19.0542 15.7575H10.6756L10.1228 14.9395C9.14749 13.4971 7.89251 12.9641 6.29559 13.3136ZM8.06657 14.9696C9.72684 15.8058 9.04548 18.4307 7.16816 18.4307C5.23296 18.4307 4.64104 15.8208 6.36764 14.901C6.9845 14.5722 7.30333 14.5851 8.06657 14.9696Z" fill="#E74451"/>
</svg>
