<svg width="18" height="18" viewBox="0 0 18 18" fill="none" xmlns="http://www.w3.org/2000/svg">
<path d="M8.85082 8.61906C8.39656 8.61906 7.96089 8.43861 7.63968 8.11739C7.31846 7.79617 7.13801 7.36051 7.13801 6.90624C7.13801 6.45198 7.31846 6.01631 7.63968 5.6951C7.96089 5.37388 8.39656 5.19343 8.85082 5.19343C9.30509 5.19343 9.74075 5.37388 10.062 5.6951C10.3832 6.01631 10.5636 6.45198 10.5636 6.90624C10.5636 7.13117 10.5193 7.3539 10.4333 7.56171C10.3472 7.76952 10.221 7.95834 10.062 8.11739C9.90292 8.27644 9.7141 8.40261 9.50629 8.48868C9.29848 8.57476 9.07575 8.61906 8.85082 8.61906ZM8.85082 2.11035C7.57887 2.11035 6.35902 2.61563 5.45962 3.51504C4.56021 4.41444 4.05493 5.63429 4.05493 6.90624C4.05493 10.5032 8.85082 15.8129 8.85082 15.8129C8.85082 15.8129 13.6467 10.5032 13.6467 6.90624C13.6467 5.63429 13.1414 4.41444 12.242 3.51504C11.3426 2.61563 10.1228 2.11035 8.85082 2.11035Z" fill="#333333"/>
</svg>
