<svg width="190" height="48" viewBox="0 0 190 48" fill="none" xmlns="http://www.w3.org/2000/svg">
<g clip-path="url(#clip0_451_7271)">
<path d="M0 46.1664V40.3506H1.80345C2.19636 40.344 2.58727 40.4081 2.95765 40.54C3.28724 40.6582 3.57482 40.8714 3.78446 41.1527C4.00333 41.4669 4.11258 41.8449 4.09521 42.2279C4.09274 42.5194 4.02042 42.806 3.88435 43.0635C3.75318 43.308 3.56223 43.5151 3.32944 43.6651C3.0994 43.824 2.84424 43.9427 2.57477 44.0161C2.2892 44.0951 1.99421 44.1344 1.69801 44.1331H1.10981V46.1664H0ZM1.10981 41.292V43.2362H1.79235C1.99115 43.2402 2.18889 43.2062 2.375 43.1359C2.53703 43.0758 2.67657 42.9668 2.77453 42.824C2.88019 42.6576 2.93605 42.4642 2.93546 42.2669C2.93175 42.0702 2.87622 41.878 2.77453 41.7098C2.68117 41.5637 2.54283 41.4522 2.38055 41.3923C2.17856 41.3246 1.9664 41.2925 1.7535 41.2976H1.10981V41.292Z" fill="#080705"/>
<path d="M6.02647 41.7989C6.32122 41.7962 6.61418 41.8452 6.89212 41.9438C7.13735 42.027 7.35325 42.1799 7.51362 42.3839C7.68391 42.5967 7.77426 42.8629 7.76887 43.1359C7.77314 43.3837 7.70147 43.6267 7.56356 43.8323C7.4287 44.0236 7.24719 44.1771 7.0364 44.2779L8.07407 46.1664H7.21397L6.29837 44.4952H5.50486V46.1664H4.68359V41.8156H6.02647V41.7989ZM5.49931 42.4897V43.8211H6.02092C6.17027 43.8247 6.31898 43.8002 6.4593 43.7487C6.57641 43.7095 6.68022 43.6381 6.75894 43.5426C6.8382 43.4371 6.87753 43.3068 6.86993 43.1749C6.87723 43.0352 6.84033 42.8968 6.76449 42.7794C6.69066 42.6775 6.58828 42.5999 6.47039 42.5566C6.32012 42.5065 6.16258 42.482 6.00427 42.4841H5.49931V42.4897Z" fill="#080705"/>
<path d="M8.55127 46.1667V41.8159H9.37253V46.1667H8.55127Z" fill="#080705"/>
<path d="M12.2078 44.8241L11.1479 43.4927V46.1667H10.3267V41.8159H10.8427L12.3132 43.8214L13.645 41.8159H14.15V46.1667H13.3176V43.6598L12.5019 44.8074L12.1856 44.8464L12.2078 44.8241Z" fill="#080705"/>
<path d="M15.1045 46.1667V41.8159H17.6904L17.818 42.4677H15.9258V43.6375H17.3408L17.4739 44.2949H15.9258V45.5149H17.9956L18.1343 46.1667H15.1045Z" fill="#080705"/>
<path d="M26.7857 41.7989C27.0805 41.7962 27.3735 41.8452 27.6514 41.9438C27.8966 42.027 28.1125 42.1799 28.2729 42.3839C28.4352 42.5998 28.5177 42.8657 28.506 43.1359C28.5102 43.3837 28.4386 43.6267 28.3006 43.8323C28.1581 44.0274 27.9667 44.1811 27.7457 44.2779L28.8555 46.1664H27.9566L27.041 44.4952H26.2641V46.1664H25.4429V41.8156H26.7857V41.7989ZM26.2308 42.4897V43.8211H26.7525C26.9018 43.8247 27.0505 43.8002 27.1908 43.7487C27.3079 43.7095 27.4118 43.6381 27.4905 43.5426C27.5697 43.4371 27.6091 43.3068 27.6015 43.1749C27.6088 43.0352 27.5719 42.8968 27.496 42.7794C27.4222 42.6775 27.3198 42.5999 27.2019 42.5566C27.0517 42.5065 26.8941 42.482 26.7358 42.4841H26.2308V42.4897Z" fill="#080705"/>
<path d="M31.1083 46.2391C30.7065 46.2502 30.3099 46.1459 29.9652 45.9383C29.6518 45.7424 29.4014 45.46 29.2438 45.1249C29.0772 44.7774 28.9918 44.3964 28.9941 44.0108C28.983 43.5998 29.0726 43.1924 29.2549 42.8242C29.4262 42.493 29.683 42.214 29.9985 42.0165C30.3336 41.8146 30.7174 41.7086 31.1083 41.7101C31.5138 41.6971 31.9145 41.8015 32.2625 42.0109C32.5736 42.2093 32.8235 42.491 32.9839 42.8242C33.1498 43.1717 33.2334 43.553 33.228 43.9384C33.2372 44.3498 33.1457 44.7572 32.9617 45.1249C32.792 45.4541 32.537 45.7312 32.2236 45.9271C31.8876 46.1269 31.5044 46.2327 31.1138 46.2335L31.1083 46.2391ZM31.1083 45.5427C31.3317 45.5445 31.551 45.4827 31.7409 45.3645C31.9407 45.2348 32.1003 45.0515 32.2014 44.8352C32.3286 44.5559 32.3894 44.2508 32.379 43.9439C32.3846 43.6708 32.3335 43.3996 32.2292 43.1473C32.1395 42.9247 31.9896 42.7318 31.7964 42.5902C31.6 42.4524 31.3644 42.382 31.1249 42.3897C30.907 42.399 30.6966 42.4727 30.5201 42.6014C30.3179 42.7419 30.157 42.9343 30.054 43.1585C29.9306 43.4193 29.8698 43.7054 29.8764 43.9941C29.8705 44.2713 29.9235 44.5467 30.0318 44.8018C30.1208 45.0264 30.2731 45.22 30.4701 45.3589C30.6665 45.4968 30.9021 45.5671 31.1416 45.5594L31.1083 45.5427Z" fill="#080705"/>
<path d="M33.8496 46.1665V41.8157H35.198C35.4925 41.8112 35.7854 41.8584 36.0637 41.955C36.3093 42.0403 36.5251 42.1951 36.6852 42.4007C36.85 42.6365 36.932 42.9207 36.9182 43.2084C36.9234 43.4313 36.8719 43.6518 36.7684 43.849C36.6739 44.0299 36.5367 44.1848 36.3689 44.3003C36.2 44.4184 36.0124 44.507 35.814 44.5621C35.5986 44.6201 35.3767 44.6501 35.1536 44.6512H34.6764V46.1665H33.8496ZM34.6709 42.5065V43.9382H35.1925C35.3401 43.9423 35.487 43.9177 35.6253 43.8658C35.7438 43.8206 35.8461 43.7411 35.9194 43.6374C35.9951 43.517 36.0372 43.3785 36.0415 43.2363C36.0502 43.0806 36.0136 42.9257 35.9361 42.7906C35.8667 42.6807 35.7634 42.5965 35.642 42.5511C35.4899 42.5006 35.3304 42.4761 35.1703 42.4786H34.6709V42.5065Z" fill="#080705"/>
<path d="M37.5171 46.1667V41.8159H40.103L40.2306 42.4677H38.3383V43.6375H39.7534L39.8865 44.2949H38.3383V45.5149H40.4082L40.5469 46.1667H37.5171Z" fill="#080705"/>
<path d="M42.4391 41.7989C42.7338 41.7962 43.0268 41.8452 43.3047 41.9438C43.5499 42.027 43.7658 42.1799 43.9262 42.3839C44.0886 42.5998 44.171 42.8657 44.1593 43.1359C44.1635 43.3837 44.0919 43.6267 43.954 43.8323C43.8191 44.0236 43.6376 44.1771 43.4268 44.2779L44.4867 46.1664H43.6099L42.6943 44.4952H41.9175V46.1664H41.0962V41.8156H42.4391V41.7989ZM41.8842 42.4897V43.8211H42.4058C42.5551 43.8247 42.7038 43.8002 42.8441 43.7487C42.9613 43.7095 43.0651 43.6381 43.1438 43.5426C43.223 43.4371 43.2624 43.3068 43.2548 43.1749C43.2621 43.0352 43.2252 42.8968 43.1493 42.7794C43.0755 42.6775 42.9731 42.5999 42.8552 42.5566C42.705 42.5065 42.5474 42.482 42.3891 42.4841H41.8842V42.4897Z" fill="#080705"/>
<path d="M48.1216 42.4508H46.6123V46.1665H45.7799V42.4731H44.4814V41.8213H47.9829L48.1161 42.4731L48.1216 42.4508Z" fill="#080705"/>
<path d="M48.5991 46.1667V41.8159H49.4204V46.1667H48.5991Z" fill="#080705"/>
<path d="M50.3745 46.1667V41.8159H52.9604L53.088 42.4677H51.1958V43.6375H52.6108L52.744 44.2949H51.1958V45.5149H53.2711L53.4043 46.1667H50.3745Z" fill="#080705"/>
<path d="M53.8925 45.1918C53.9953 45.2423 54.1009 45.287 54.2088 45.3255C54.3335 45.3737 54.4614 45.4128 54.5917 45.4425C54.7168 45.4749 54.8454 45.4917 54.9746 45.4926C55.1205 45.4962 55.2662 45.4793 55.4074 45.4425C55.5071 45.4158 55.5974 45.3618 55.6682 45.2865C55.7301 45.2139 55.7619 45.1201 55.757 45.0247C55.7575 44.9746 55.7467 44.9251 55.7256 44.8798C55.7045 44.8345 55.6735 44.7945 55.6349 44.7628C55.5374 44.6763 55.4314 44.5998 55.3186 44.5344L54.9302 44.306L54.4752 44.0164C54.3298 43.9195 54.1908 43.8135 54.059 43.6988C53.9374 43.5901 53.8343 43.4621 53.7538 43.32C53.6758 43.1806 53.6356 43.0231 53.6373 42.8632C53.636 42.6495 53.702 42.4409 53.8259 42.2672C53.9554 42.0841 54.1318 41.9398 54.3364 41.8494C54.5885 41.7484 54.8587 41.701 55.13 41.7101C55.3501 41.711 55.5689 41.7448 55.7792 41.8104C55.9693 41.871 56.1548 41.9455 56.3341 42.0332L56.0566 42.6961C55.9734 42.6515 55.8791 42.6125 55.7847 42.5735C55.6837 42.5327 55.5798 42.4992 55.474 42.4733C55.3596 42.4456 55.2421 42.4325 55.1244 42.4343C54.9619 42.4287 54.8009 42.4672 54.6583 42.5457C54.5998 42.5788 54.5517 42.6276 54.5193 42.6866C54.487 42.7457 54.4717 42.8126 54.4752 42.8799C54.4755 42.9863 54.5173 43.0883 54.5917 43.164C54.6953 43.2528 54.8112 43.326 54.9357 43.3813C55.0634 43.4537 55.1965 43.5317 55.3297 43.6208L55.7903 43.8938C55.9404 43.9799 56.0817 44.0806 56.212 44.1946C56.3333 44.2994 56.4364 44.4237 56.5172 44.5623C56.5875 44.7155 56.6162 44.8846 56.6005 45.0525C56.6045 45.2718 56.5384 45.4866 56.4118 45.6653C56.2685 45.8544 56.0767 46.0007 55.8569 46.0887C55.5789 46.2029 55.2804 46.2579 54.9801 46.2502C54.8757 46.2487 54.7717 46.2375 54.6694 46.2168C54.5475 46.1944 54.427 46.1646 54.3087 46.1277C54.1916 46.0963 54.0767 46.0572 53.9646 46.0107C53.8726 45.9729 53.7836 45.9282 53.6983 45.877L53.8814 45.2029L53.8925 45.1918Z" fill="#080705"/>
<path d="M57.982 45.119C58.1149 45.2732 58.1844 45.4723 58.1762 45.6761C58.1707 45.9025 58.1217 46.1257 58.032 46.3334C57.9367 46.5702 57.8015 46.7888 57.6324 46.9796C57.4756 47.171 57.2881 47.3348 57.0775 47.4643L56.8223 46.9351C56.9552 46.826 57.0795 46.7068 57.1941 46.5785C57.2978 46.4547 57.3701 46.3075 57.4049 46.1496C57.3282 46.145 57.2555 46.1134 57.1996 46.0605C57.1241 45.9958 57.0602 45.9185 57.0109 45.8321C56.9606 45.7418 56.9339 45.6402 56.9332 45.5368C56.9341 45.4309 56.9629 45.3272 57.0165 45.236C57.0692 45.1386 57.1455 45.0562 57.2384 44.9964C57.3309 44.9364 57.4391 44.9054 57.5492 44.9073C57.6358 44.9075 57.7213 44.9265 57.7998 44.9631C57.8784 44.9996 57.9481 45.0528 58.0042 45.119H57.982Z" fill="#080705"/>
<path d="M61.7498 43.9384C61.7407 44.2094 61.7959 44.4786 61.9107 44.7239C62.008 44.9192 62.1657 45.0776 62.3602 45.1752C62.5645 45.2732 62.7886 45.3228 63.015 45.32C63.2447 45.3246 63.4718 45.271 63.6753 45.164C63.8677 45.0601 64.0229 44.8984 64.1193 44.7016C64.233 44.4619 64.2882 44.1983 64.2802 43.9329V40.3286H65.39V44.022C65.3945 44.4133 65.2928 44.7985 65.0959 45.1362C64.9006 45.4698 64.6161 45.7419 64.2747 45.9216C63.8845 46.1201 63.4524 46.2214 63.015 46.2169C62.5802 46.2321 62.1487 46.1363 61.7609 45.9383C61.4177 45.7565 61.1315 45.4827 60.9341 45.1473C60.7424 44.8077 60.6429 44.4235 60.6456 44.0332V40.3398H61.7554V43.9384H61.7498Z" fill="#080705"/>
<path d="M66.3999 46.1667V41.8159H67.2212L68.9525 44.3283L69.2244 44.7183V41.8159H70.0512V46.1667H69.2244L67.3821 43.5039L67.2156 43.2532V46.1667H66.3999Z" fill="#080705"/>
<path d="M71.0283 46.1667V41.8159H71.8496V46.1667H71.0283Z" fill="#080705"/>
<path d="M75.7504 41.9995C76.0623 42.197 76.3124 42.4789 76.4718 42.8128C76.6372 43.1605 76.7207 43.5417 76.7159 43.927C76.7251 44.3384 76.6336 44.7458 76.4496 45.1135C76.2799 45.4427 76.0249 45.7198 75.7115 45.9157C75.3755 46.1155 74.9923 46.2213 74.6017 46.2221C74.198 46.2343 73.7994 46.1299 73.4531 45.9213C73.1397 45.7254 72.8893 45.443 72.7317 45.108C72.5651 44.7605 72.4797 44.3794 72.482 43.9938C72.4735 43.5842 72.565 43.1788 72.7483 42.8128C72.9197 42.4816 73.1765 42.2026 73.4919 42.0051C73.8271 41.8032 74.2109 41.6972 74.6017 41.6987C75.0054 41.6868 75.404 41.7911 75.7504 41.9995ZM73.4864 44.7849C73.5737 45.0104 73.7264 45.2045 73.9247 45.3419C74.1196 45.4786 74.353 45.5489 74.5906 45.5425C74.8159 45.545 75.0372 45.4832 75.2288 45.3642C75.4286 45.2346 75.5882 45.0512 75.6893 44.835C75.8165 44.5557 75.8773 44.2506 75.8669 43.9437C75.8725 43.6706 75.8214 43.3993 75.7171 43.1471C75.6274 42.9245 75.4775 42.7315 75.2843 42.59C75.0879 42.4521 74.8523 42.3818 74.6128 42.3894C74.3865 42.39 74.1658 42.46 73.9802 42.59C73.7781 42.7305 73.6171 42.9229 73.5141 43.1471C73.3908 43.4079 73.33 43.694 73.3365 43.9827C73.3306 44.2581 73.3836 44.5317 73.4919 44.7849H73.4864ZM76.6049 45.9436L76.1222 46.3725L74.5851 44.9408L75.14 44.5119L76.6049 45.9436Z" fill="#080705"/>
<path d="M78.1255 44.4956C78.117 44.6996 78.159 44.9024 78.2476 45.0861C78.3213 45.2328 78.4399 45.3519 78.5861 45.426C78.7378 45.5013 78.9051 45.5395 79.0744 45.5374C79.2461 45.5402 79.4159 45.5 79.5682 45.4204C79.7129 45.3436 79.8295 45.2227 79.9012 45.075C79.9836 44.9011 80.0254 44.7105 80.0233 44.5179V41.8105H80.8556V44.5959C80.8605 44.8915 80.7837 45.1827 80.6337 45.4371C80.4864 45.6871 80.2733 45.8915 80.0177 46.0276C79.7241 46.1781 79.3985 46.2546 79.0688 46.2504C78.7417 46.2601 78.4174 46.1873 78.1255 46.0387C77.8685 45.9021 77.655 45.6955 77.5095 45.4427C77.3638 45.1847 77.2891 44.8924 77.2931 44.5959V41.8105H78.1199V44.4956H78.1255Z" fill="#080705"/>
<path d="M81.749 46.1667V41.8159H84.346L84.4736 42.4677H82.5703V43.6375H83.9853L84.1185 44.2949H82.5703V45.5149H84.6401L84.7788 46.1611H81.749V46.1667Z" fill="#080705"/>
<path d="M91.0603 46.1664H87.248V40.3506H88.3579V45.2863H90.916L91.0603 46.1664Z" fill="#080705"/>
<path d="M98.8846 42.5903L98.5683 42.4956L98.2964 42.4343C98.1902 42.415 98.0824 42.4057 97.9745 42.4064C97.7562 42.4032 97.5425 42.4695 97.3641 42.5958C97.1707 42.7371 97.0207 42.9302 96.9313 43.1529C96.818 43.4204 96.7631 43.7091 96.7704 43.9997C96.7705 44.2009 96.7966 44.4012 96.848 44.5957C96.8972 44.7729 96.972 44.9418 97.07 45.0971C97.1615 45.2376 97.2852 45.3541 97.4307 45.4369C97.5834 45.5215 97.7558 45.5639 97.9301 45.5595C98.1019 45.5621 98.2734 45.5434 98.4406 45.5038C98.5882 45.4682 98.7328 45.4217 98.8735 45.3645L99.1842 45.9773C99.0617 46.0383 98.9335 46.0868 98.8013 46.1221C98.6597 46.1661 98.515 46.1996 98.3685 46.2224C98.2363 46.2435 98.1028 46.2546 97.969 46.2558C97.6641 46.2632 97.3612 46.2043 97.0811 46.0831C96.8333 45.9742 96.6132 45.8104 96.4374 45.604C96.2613 45.3922 96.1275 45.1482 96.0434 44.8854C95.9529 44.6029 95.9079 44.3076 95.9103 44.0108C95.9077 43.6985 95.9564 43.388 96.0545 43.0916C96.1457 42.8245 96.2891 42.5783 96.4763 42.3674C96.6607 42.1647 96.8857 42.0033 97.1366 41.8939C97.4088 41.7793 97.7016 41.7224 97.9967 41.7268C98.1063 41.7298 98.2156 41.7391 98.3241 41.7547C98.4647 41.7748 98.6037 41.8046 98.7403 41.8438C98.8808 41.8826 99.0166 41.9367 99.1454 42.0053L98.8901 42.6014L98.8846 42.5903Z" fill="#080705"/>
<path d="M101.598 41.7988L103.263 46.0939L102.436 46.2109L102.047 45.1246H100.383L100.039 46.1663H99.2119L100.877 41.8155L101.598 41.7988ZM101.226 42.913L100.671 44.4226H101.82L101.265 42.913H101.226Z" fill="#080705"/>
<path d="M106.919 42.4564H105.432V46.1665H104.6V42.4731H103.279V41.8213H106.781L106.914 42.4731L106.919 42.4564Z" fill="#080705"/>
<path d="M107.397 46.1667V41.8159H108.207V46.1667H107.397Z" fill="#080705"/>
<path d="M110.981 46.239C110.577 46.2512 110.179 46.1468 109.832 45.9382C109.519 45.7423 109.269 45.4599 109.111 45.1248C108.945 44.7774 108.859 44.3963 108.861 44.0107C108.853 43.6011 108.944 43.1957 109.128 42.8297C109.297 42.4923 109.554 42.2073 109.871 42.0052C110.206 41.8034 110.59 41.6974 110.981 41.6988C111.387 41.6858 111.787 41.7903 112.135 41.9997C112.446 42.1966 112.695 42.4762 112.857 42.8074C113.023 43.1549 113.106 43.5362 113.101 43.9216C113.11 44.333 113.019 44.7404 112.835 45.1081C112.666 45.4441 112.409 45.7273 112.091 45.927C111.755 46.1268 111.372 46.2326 110.981 46.2334V46.239ZM110.981 45.5426C111.205 45.5444 111.424 45.4826 111.614 45.3644C111.814 45.2347 111.973 45.0514 112.074 44.8352C112.201 44.5559 112.262 44.2507 112.252 43.9438C112.257 43.6708 112.206 43.3995 112.102 43.1472C112.012 42.9246 111.862 42.7317 111.669 42.5902C111.473 42.4523 111.237 42.3819 110.998 42.3896C110.771 42.3901 110.551 42.4601 110.365 42.5902C110.163 42.7307 110.002 42.9231 109.899 43.1472C109.776 43.408 109.715 43.6942 109.721 43.9828C109.716 44.2601 109.769 44.5354 109.877 44.7906C109.966 45.0151 110.118 45.2087 110.315 45.3477C110.512 45.4855 110.747 45.5559 110.987 45.5482L110.981 45.5426Z" fill="#080705"/>
<path d="M113.756 46.1667V41.8159H114.577L116.308 44.3283L116.58 44.7183V41.8159H117.407V46.1667H116.58L114.738 43.5039L114.572 43.2532V46.1667H113.756Z" fill="#080705"/>
<path d="M118.295 45.1917C118.398 45.2423 118.503 45.2869 118.611 45.3254C118.736 45.3736 118.864 45.4127 118.994 45.4424C119.119 45.4748 119.248 45.4917 119.377 45.4926C119.523 45.4961 119.668 45.4793 119.81 45.4424C119.909 45.4158 120 45.3618 120.07 45.2865C120.132 45.2138 120.164 45.1201 120.159 45.0246C120.16 44.9746 120.149 44.9251 120.128 44.8798C120.107 44.8345 120.076 44.7945 120.037 44.7628C119.94 44.6762 119.834 44.5997 119.721 44.5344L119.332 44.306L118.877 44.0163C118.732 43.9195 118.593 43.8134 118.461 43.6988C118.34 43.59 118.237 43.4621 118.156 43.32C118.078 43.1806 118.038 43.0231 118.039 42.8632C118.028 42.6531 118.083 42.4448 118.195 42.2671C118.325 42.0843 118.501 41.94 118.705 41.8493C118.96 41.743 119.234 41.6918 119.51 41.6989C119.73 41.6998 119.949 41.7336 120.159 41.7992C120.349 41.8598 120.535 41.9343 120.714 42.022L120.437 42.6849C120.353 42.6404 120.259 42.6014 120.165 42.5624C120.064 42.5215 119.96 42.488 119.854 42.4621C119.74 42.4344 119.622 42.4213 119.504 42.4231C119.342 42.4175 119.181 42.456 119.038 42.5345C118.98 42.5676 118.932 42.6164 118.899 42.6755C118.867 42.7345 118.852 42.8015 118.855 42.8688C118.856 42.9751 118.897 43.0771 118.972 43.1529C119.071 43.2446 119.183 43.3215 119.305 43.3813C119.432 43.4537 119.565 43.5317 119.699 43.6208L120.159 43.8938C120.309 43.9798 120.451 44.0806 120.581 44.1946C120.702 44.2994 120.805 44.4236 120.886 44.5623C120.967 44.7107 121.007 44.8779 121.003 45.0469C121.007 45.2662 120.941 45.4809 120.814 45.6597C120.671 45.8487 120.479 45.9951 120.259 46.0831C119.981 46.1973 119.683 46.2523 119.382 46.2446C119.278 46.2431 119.174 46.2319 119.072 46.2112C118.95 46.1887 118.829 46.159 118.711 46.1221C118.594 46.0907 118.479 46.0516 118.367 46.0051C118.275 45.9673 118.186 45.9226 118.101 45.8714L118.284 45.1973L118.295 45.1917Z" fill="#080705"/>
<path d="M122.384 45.119C122.517 45.2732 122.587 45.4723 122.579 45.6761C122.573 45.9025 122.524 46.1257 122.434 46.3334C122.339 46.5702 122.204 46.7888 122.035 46.9796C121.878 47.171 121.69 47.3348 121.48 47.4643L121.225 46.9351C121.358 46.826 121.482 46.7068 121.596 46.5785C121.7 46.4547 121.772 46.3075 121.807 46.1496C121.731 46.145 121.658 46.1134 121.602 46.0605C121.526 45.9958 121.463 45.9185 121.413 45.8321C121.363 45.7418 121.336 45.6402 121.336 45.5368C121.336 45.4309 121.365 45.3272 121.419 45.236C121.472 45.1386 121.548 45.0562 121.641 44.9964C121.733 44.9364 121.841 44.9054 121.952 44.9073C122.038 44.9075 122.124 44.9265 122.202 44.9631C122.281 44.9996 122.35 45.0528 122.407 45.119H122.384Z" fill="#080705"/>
<path d="M126.153 43.9382C126.144 44.2092 126.199 44.4784 126.314 44.7237C126.411 44.919 126.569 45.0774 126.763 45.175C126.967 45.273 127.191 45.3226 127.418 45.3198C127.648 45.3244 127.875 45.2708 128.078 45.1638C128.271 45.0599 128.426 44.8982 128.522 44.7014C128.635 44.4633 128.69 44.2018 128.683 43.9382V40.334H129.793V44.0274C129.797 44.4187 129.696 44.8038 129.499 45.1415C129.303 45.4752 129.019 45.7473 128.677 45.927C128.287 46.1255 127.855 46.2268 127.418 46.2223C126.983 46.2375 126.552 46.1417 126.164 45.9437C125.821 45.7619 125.534 45.4881 125.337 45.1527C125.145 44.8131 125.046 44.4289 125.048 44.0385V40.3451H126.158V43.9382H126.153Z" fill="#080705"/>
<path d="M130.802 46.1667V41.8159H131.624L133.355 44.3283L133.627 44.7183V41.8159H134.454V46.1667H133.627L131.784 43.5039L131.618 43.2532V46.1667H130.802Z" fill="#080705"/>
<path d="M135.397 46.1662V41.8155H137.062C137.315 41.8098 137.567 41.8513 137.805 41.938C138.009 42.0101 138.186 42.1445 138.31 42.3224C138.442 42.5339 138.506 42.7808 138.493 43.0299C138.494 43.1893 138.441 43.3442 138.344 43.47C138.251 43.5945 138.143 43.7068 138.022 43.8042C138.214 43.9026 138.379 44.0459 138.504 44.222C138.636 44.4174 138.702 44.6495 138.693 44.8849C138.701 45.0763 138.665 45.2668 138.588 45.442C138.516 45.5979 138.41 45.7352 138.277 45.8431C138.132 45.9581 137.966 46.0433 137.789 46.0938C137.585 46.1534 137.374 46.1834 137.162 46.1829H135.397V46.1662ZM136.218 42.5062V43.5869H136.829C136.968 43.5896 137.106 43.5708 137.239 43.5312C137.348 43.4997 137.446 43.4379 137.522 43.353C137.591 43.2662 137.627 43.1574 137.622 43.0466C137.627 42.9337 137.6 42.8217 137.544 42.7235C137.49 42.6429 137.41 42.5838 137.317 42.5564C137.2 42.5206 137.078 42.5037 136.956 42.5062H136.218ZM136.218 44.261V45.481H137.112C137.243 45.4856 137.374 45.4609 137.495 45.4086C137.598 45.3687 137.686 45.2989 137.75 45.208C137.813 45.1142 137.845 45.0035 137.844 44.8905C137.852 44.8036 137.84 44.7159 137.808 44.6346C137.776 44.5533 137.726 44.4807 137.661 44.4226C137.525 44.3084 137.35 44.2506 137.173 44.261H136.218Z" fill="#080705"/>
<path d="M139.282 46.1667V41.8159H141.868L141.995 42.4677H140.114V43.6375H141.529L141.662 44.2949H140.114V45.5149H142.184L142.323 46.1611H139.282V46.1667Z" fill="#080705"/>
<path d="M144.775 41.7988L146.44 46.0939L145.613 46.2109L145.225 45.1246H143.56L143.216 46.1663H142.389L144.054 41.8155L144.775 41.7988ZM144.403 42.913L143.849 44.4226H144.997L144.442 42.913H144.403Z" fill="#080705"/>
<path d="M150.097 42.4564H148.61V46.1665H147.777V42.4731H146.457V41.8213H149.958L150.091 42.4731L150.097 42.4564Z" fill="#080705"/>
<path d="M152.483 41.7988L154.148 46.0939L153.321 46.2109L152.932 45.1246H151.268L150.935 46.1663H150.108L151.773 41.8155L152.483 41.7988ZM152.111 42.913L151.556 44.4226H152.705L152.15 42.913H152.111Z" fill="#080705"/>
<path d="M154.641 46.1662V41.8155H156.306C156.559 41.8098 156.811 41.8513 157.049 41.938C157.254 42.0101 157.43 42.1445 157.554 42.3224C157.686 42.5339 157.75 42.7808 157.738 43.0299C157.738 43.1893 157.685 43.3442 157.588 43.47C157.495 43.5945 157.387 43.7068 157.266 43.8042C157.458 43.9026 157.623 44.0459 157.749 44.222C157.88 44.4174 157.946 44.6495 157.937 44.8849C157.945 45.0763 157.909 45.2668 157.832 45.442C157.76 45.5979 157.654 45.7352 157.521 45.8431C157.376 45.9581 157.21 46.0433 157.033 46.0938C156.829 46.1534 156.618 46.1834 156.406 46.1829H154.625L154.641 46.1662ZM155.462 42.5062V43.5869H156.073C156.212 43.5896 156.35 43.5708 156.483 43.5312C156.593 43.4997 156.691 43.4379 156.766 43.353C156.835 43.2662 156.871 43.1574 156.866 43.0466C156.871 42.9337 156.844 42.8217 156.789 42.7235C156.734 42.6429 156.654 42.5838 156.561 42.5564C156.444 42.5206 156.323 42.5037 156.2 42.5062H155.462ZM155.462 44.261V45.481H156.356C156.487 45.4856 156.618 45.4609 156.739 45.4086C156.842 45.3687 156.931 45.2989 156.994 45.208C157.057 45.1142 157.09 45.0035 157.088 44.8905C157.096 44.8036 157.084 44.7159 157.052 44.6346C157.021 44.5533 156.97 44.4807 156.905 44.4226C156.769 44.3084 156.594 44.2506 156.417 44.261H155.462Z" fill="#080705"/>
<path d="M161.378 46.1667H158.52V41.8159H159.341V45.5205H161.256L161.378 46.1667Z" fill="#080705"/>
<path d="M161.861 46.1667V41.8159H164.447L164.574 42.4677H162.682V43.6375H164.097L164.23 44.2949H162.682V45.5149H164.752L164.891 46.1611H161.861V46.1667Z" fill="#080705"/>
<path d="M169.452 44.6348L171.039 40.3621H172.149L169.89 46.1668H168.958L166.738 40.4289L167.848 40.2729L169.48 44.6404L169.452 44.6348Z" fill="#080705"/>
<path d="M180.589 46.1667H177.731V41.8159H178.552V45.5205H180.467L180.589 46.1667Z" fill="#080705"/>
<path d="M181.837 44.4956C181.829 44.6996 181.871 44.9024 181.959 45.0861C182.033 45.2328 182.152 45.3519 182.298 45.426C182.45 45.5013 182.617 45.5395 182.786 45.5374C182.958 45.5402 183.128 45.5 183.28 45.4204C183.425 45.3436 183.541 45.2227 183.613 45.075C183.696 44.9011 183.737 44.7105 183.735 44.5179V41.8105H184.568V44.5959C184.572 44.8915 184.496 45.1827 184.346 45.4371C184.198 45.6871 183.985 45.8915 183.73 46.0276C183.436 46.1781 183.11 46.2546 182.781 46.2504C182.454 46.2601 182.129 46.1873 181.837 46.0387C181.58 45.9021 181.367 45.6955 181.221 45.4427C181.076 45.1847 181.001 44.8924 181.005 44.5959V41.8105H181.832V44.4956H181.837Z" fill="#080705"/>
<path d="M185.461 46.1667V41.8159H188.047L188.174 42.4677H186.282V43.6375H187.697L187.83 44.2949H186.282V45.5149H188.352L188.491 46.1611H185.461V46.1667Z" fill="#080705"/>
<path d="M189.817 45.086C189.877 45.1431 189.925 45.2124 189.956 45.2892C189.988 45.366 190.003 45.4486 190 45.5316C190.002 45.6146 189.987 45.697 189.955 45.7737C189.924 45.8504 189.877 45.9197 189.817 45.9773C189.698 46.0932 189.539 46.1573 189.373 46.1555C189.292 46.1566 189.211 46.1414 189.136 46.1108C189.061 46.0801 188.992 46.0348 188.935 45.9773C188.875 45.9201 188.827 45.8508 188.796 45.7741C188.764 45.6973 188.749 45.6146 188.752 45.5316C188.75 45.4481 188.765 45.3651 188.798 45.2883C188.831 45.2114 188.879 45.1424 188.94 45.086C188.997 45.0284 189.064 44.9829 189.139 44.9522C189.213 44.9216 189.293 44.9064 189.373 44.9077C189.455 44.9062 189.537 44.9212 189.613 44.9518C189.689 44.9824 189.759 45.028 189.817 45.086ZM188.796 40.167H189.945L189.828 44.4955L188.946 44.0832L188.802 40.1837L188.796 40.167Z" fill="#080705"/>
<path d="M20.6094 42.596C20.6094 42.6573 20.6094 42.7241 20.6094 42.7743C20.7703 42.6238 20.9312 42.4734 21.081 42.323C21.111 42.289 21.1286 42.2458 21.131 42.2005V41.3927C21.131 41.3259 21.131 41.2924 21.2142 41.2924C21.4029 41.2924 21.5916 41.2924 21.7691 41.2924C21.7691 41.2924 21.8302 41.3314 21.8357 41.3593C21.8413 41.4149 21.8413 41.4708 21.8357 41.5264L22.6792 40.6518L24.7989 42.7743C24.8095 42.6519 24.8095 42.5289 24.7989 42.4066V41.1532C24.8101 40.9842 24.7642 40.8163 24.6685 40.6768C24.5728 40.5372 24.433 40.4342 24.2718 40.3844C24.1163 40.3424 23.9553 40.3255 23.7945 40.3343H21.475C21.3614 40.3262 21.2475 40.3425 21.1406 40.382C21.0337 40.4215 20.9364 40.4833 20.8551 40.5633C20.7738 40.6433 20.7104 40.7398 20.669 40.8463C20.6276 40.9528 20.6091 41.0669 20.6149 41.181C20.6149 41.6434 20.6149 42.1113 20.6149 42.5737L20.6094 42.596Z" fill="#FF0006"/>
<path d="M21.7025 45.381C21.7025 45.1637 21.7025 44.9521 21.7025 44.7348C21.7025 44.6401 21.7025 44.6234 21.8134 44.6234H24.0331C24.0827 44.6316 24.1333 44.6316 24.1829 44.6234C24.3862 44.5791 24.5645 44.4574 24.6804 44.2839C24.7962 44.1105 24.8407 43.8987 24.8044 43.6931C24.7991 43.6583 24.7813 43.6266 24.7544 43.6039L23.4671 42.3171L22.6846 41.5483L22.4516 41.7712L20.637 43.5984C20.6018 43.6361 20.582 43.6859 20.5815 43.7376V46.0773C20.5815 46.1553 20.6148 46.1721 20.6759 46.1609C20.8734 46.1271 21.0681 46.0787 21.2585 46.0161C21.392 45.9743 21.508 45.8894 21.5883 45.7745C21.6686 45.6596 21.7088 45.5212 21.7025 45.381ZM22.9565 42.7126C23.1452 42.7126 23.1508 42.7126 23.1452 42.9076C23.1397 43.1026 23.1785 43.0803 22.951 43.0914C22.9248 43.0954 22.8981 43.093 22.873 43.0846C22.8479 43.0761 22.8252 43.0617 22.8067 43.0426C22.7883 43.0236 22.7746 43.0004 22.7669 42.9749C22.7592 42.9495 22.7576 42.9226 22.7623 42.8965C22.7623 42.7071 22.7235 42.7126 22.951 42.7126H22.9565ZM22.7512 43.4257C22.746 43.3935 22.7487 43.3605 22.759 43.3296C22.7694 43.2987 22.787 43.2708 22.8105 43.2483C22.834 43.2258 22.8627 43.2094 22.8939 43.2005C22.9251 43.1916 22.9581 43.1905 22.9898 43.1973H23.1341V43.5037C23.1341 43.5037 23.0897 43.5649 23.062 43.5649C23.0066 43.5705 22.9509 43.5705 22.8955 43.5649C22.8012 43.5649 22.7568 43.5148 22.7568 43.4201L22.7512 43.4257ZM22.4627 43.5705C22.2407 43.5705 22.2851 43.5705 22.2796 43.3811C22.274 43.1917 22.2796 43.1917 22.4738 43.1917C22.668 43.1917 22.6458 43.2586 22.6458 43.3867C22.6458 43.5148 22.6902 43.5705 22.4627 43.5649V43.5705ZM22.274 42.8797C22.273 42.8568 22.277 42.8339 22.2858 42.8126C22.2946 42.7914 22.3079 42.7724 22.3249 42.757C22.3418 42.7415 22.362 42.7301 22.3839 42.7234C22.4058 42.7166 22.4289 42.7149 22.4516 42.7182C22.5681 42.7182 22.6291 42.785 22.6458 42.9132V43.1026H22.3295C22.3295 43.1026 22.274 43.0636 22.2685 43.0357C22.2629 42.9857 22.2629 42.9353 22.2685 42.8853L22.274 42.8797Z" fill="#FF0006"/>
<path d="M93.352 46.2389C93.6436 45.9685 93.9161 45.6781 94.1677 45.3699C94.5982 44.8228 94.9806 44.2395 95.3108 43.6262C95.5198 43.238 95.6014 42.7935 95.5439 42.3561C95.4924 41.8484 95.2645 41.375 94.9002 41.0191C94.5981 40.7165 94.2155 40.5077 93.7982 40.4178C93.3809 40.3279 92.9466 40.3606 92.5474 40.5122C92.1582 40.6583 91.8176 40.9113 91.5645 41.2422C91.3114 41.5731 91.1559 41.9687 91.1157 42.3839C91.0672 42.8315 91.1583 43.2831 91.3766 43.6763C91.5349 43.9542 91.7071 44.2238 91.8926 44.4841C92.2603 45.0286 92.6684 45.5444 93.1134 46.0272L93.3298 46.2556L93.352 46.2389ZM92.0369 42.5956C92.0354 42.4216 92.0684 42.249 92.1339 42.0878C92.1994 41.9266 92.2961 41.7801 92.4185 41.6568C92.5408 41.5335 92.6863 41.4357 92.8466 41.3693C93.0068 41.3029 93.1786 41.269 93.352 41.2698C93.5245 41.2705 93.6951 41.3054 93.854 41.3725C94.013 41.4396 94.1572 41.5376 94.2784 41.6608C94.3996 41.7839 94.4953 41.9299 94.5601 42.0904C94.6249 42.2508 94.6575 42.4225 94.6561 42.5956C94.6517 42.9419 94.512 43.2726 94.267 43.5165C94.022 43.7603 93.6914 43.8977 93.3465 43.8992C93.0001 43.8992 92.6678 43.7614 92.4224 43.5161C92.177 43.2707 92.0384 42.9378 92.0369 42.5901V42.5956Z" fill="#FF0006"/>
<path d="M175.628 45.5369L175.234 44.7793L174.84 45.2361L175.329 46.1218H177.254L176.938 45.5369H175.628Z" fill="#FF0006"/>
<path d="M172.509 45.5369H171.205L170.889 46.1218H172.809L173.314 45.1915L172.926 44.7793L172.509 45.5369Z" fill="#FF0006"/>
<path d="M175.972 44.9354H176.616L174.08 40.2393L171.533 44.9354H172.166L174.08 41.4147L175.972 44.9354Z" fill="#FF0006"/>
<path d="M174.735 44.7458C174.681 44.8367 174.604 44.9116 174.513 44.963C174.405 45.0211 174.285 45.0553 174.163 45.0633V45.2973H173.98V45.0522C173.811 45.0422 173.649 44.9821 173.514 44.8795C173.458 44.8287 173.412 44.7669 173.381 44.6979C173.349 44.6289 173.332 44.5542 173.331 44.4784H173.763C173.763 44.5386 173.784 44.5971 173.822 44.6432C173.861 44.6892 173.915 44.7197 173.974 44.7291V44.172C173.86 44.1475 173.749 44.112 173.641 44.0662C173.556 44.0307 173.481 43.973 173.425 43.899C173.359 43.807 173.325 43.695 173.331 43.5815C173.33 43.5042 173.346 43.4276 173.376 43.3566C173.407 43.2857 173.452 43.2218 173.508 43.1693C173.64 43.0594 173.803 42.995 173.974 42.9854V42.7515H174.157V42.9854C174.319 42.9933 174.474 43.0518 174.601 43.1526C174.657 43.2034 174.703 43.2652 174.734 43.3341C174.766 43.4031 174.783 43.4778 174.784 43.5536H174.352C174.347 43.5002 174.325 43.4497 174.291 43.4088C174.256 43.3669 174.209 43.3359 174.157 43.3197V43.8768C174.272 43.9057 174.385 43.9411 174.496 43.9826C174.582 44.018 174.656 44.0757 174.712 44.1497C174.779 44.2396 174.812 44.3499 174.807 44.4617C174.807 44.5617 174.78 44.6598 174.729 44.7458H174.735ZM173.808 43.7263C173.855 43.771 173.912 43.8035 173.974 43.821V43.3197C173.912 43.3272 173.854 43.3545 173.808 43.3977C173.767 43.4454 173.745 43.5071 173.747 43.5704C173.744 43.6277 173.764 43.6837 173.802 43.7263H173.808ZM174.329 44.6455C174.37 44.5995 174.392 44.5398 174.391 44.4784C174.392 44.4503 174.387 44.4223 174.377 44.3963C174.366 44.3703 174.35 44.3469 174.329 44.328C174.28 44.2833 174.221 44.2508 174.157 44.2333V44.7402C174.223 44.73 174.283 44.6987 174.329 44.6511V44.6455Z" fill="#FF0006"/>
<path d="M13.2678 0.235873L0.0388435 19.2098C0.0144694 19.2461 0.00098701 19.2886 0 19.3323L0 31.0309C0.00515889 31.0735 0.023121 31.1136 0.0515001 31.1458C0.0798792 31.1779 0.117332 31.2006 0.158883 31.2109C0.200434 31.2212 0.244116 31.2185 0.284127 31.2033C0.324137 31.1881 0.358582 31.161 0.382886 31.1256L21.7634 0.486554C21.7843 0.454922 21.7964 0.418228 21.7983 0.380318C21.8002 0.342408 21.792 0.304676 21.7744 0.271072C21.7568 0.237469 21.7305 0.209236 21.6983 0.189321C21.6662 0.169407 21.6292 0.158549 21.5914 0.157883H13.4398C13.4071 0.156573 13.3745 0.162935 13.3446 0.176473C13.3148 0.190011 13.2885 0.210351 13.2678 0.235873Z" fill="#FF0006"/>
<path d="M7.94737e-05 0.358258V14.8422C-0.00116234 14.8876 0.0121769 14.9322 0.0381263 14.9694C0.0640758 15.0066 0.101259 15.0344 0.144183 15.0488C0.187107 15.0632 0.233495 15.0633 0.276494 15.0492C0.319492 15.035 0.356821 15.0074 0.382965 14.9703L10.4878 0.486386C10.5087 0.454754 10.5208 0.41806 10.5227 0.38015C10.5246 0.34224 10.5163 0.304508 10.4988 0.270905C10.4812 0.237302 10.4549 0.209068 10.4227 0.189153C10.3905 0.169239 10.3536 0.158381 10.3158 0.157715H0.210944C0.15689 0.15764 0.104871 0.178405 0.0656308 0.215725C0.0263901 0.253046 0.00292437 0.304068 7.94737e-05 0.358258Z" fill="#FF0006"/>
<path d="M24.5494 0.235705L0.233388 35.1029C0.212487 35.1346 0.200442 35.1713 0.198516 35.2092C0.19659 35.2471 0.204853 35.2848 0.22244 35.3184C0.240027 35.352 0.266292 35.3803 0.298482 35.4002C0.330672 35.4201 0.367604 35.4309 0.405409 35.4316H10.4326C10.4662 35.4316 10.4994 35.4235 10.5294 35.408C10.5593 35.3925 10.5851 35.37 10.6046 35.3425L34.915 0.486386C34.9359 0.454754 34.948 0.41806 34.9499 0.38015C34.9518 0.34224 34.9436 0.304507 34.926 0.270904C34.9084 0.237301 34.8821 0.209067 34.85 0.189153C34.8178 0.169239 34.7808 0.15838 34.743 0.157715H24.7159C24.6822 0.157701 24.649 0.165783 24.6191 0.18129C24.5891 0.196798 24.5633 0.219276 24.5438 0.246844L24.5494 0.235705Z" fill="#FF0006"/>
<path d="M26.5243 31.6828L38.7933 35.2982C38.8347 35.3089 38.8783 35.3067 38.9184 35.2919C38.9586 35.2771 38.9933 35.2504 39.018 35.2154C39.0426 35.1803 39.0561 35.1386 39.0566 35.0957C39.0571 35.0528 39.0446 35.0107 39.0208 34.9751L26.6353 17.2323C26.6158 17.2047 26.59 17.1822 26.5601 17.1667C26.5301 17.1512 26.4969 17.1431 26.4632 17.1431C26.4296 17.1431 26.3964 17.1512 26.3664 17.1667C26.3365 17.1822 26.3107 17.2047 26.2912 17.2323L13.7059 35.2759C13.6969 35.2908 13.6923 35.308 13.6929 35.3255C13.6935 35.3429 13.6992 35.3598 13.7092 35.374C13.7192 35.3882 13.7332 35.3992 13.7494 35.4055C13.7656 35.4119 13.7833 35.4133 13.8003 35.4096L26.4022 31.6828H26.5243Z" fill="#FF0006"/>
<path d="M50.8514 28.1843C50.524 27.8433 50.1339 27.569 49.7028 27.3765C49.2816 27.1972 48.8284 27.1062 48.371 27.1091C47.8763 27.1032 47.3861 27.2047 46.934 27.4066C46.482 27.6086 46.0787 27.9061 45.7518 28.279C45.0171 29.1009 44.6309 30.1782 44.6753 31.2816C44.6549 31.824 44.7425 32.365 44.9331 32.873C45.1237 33.3809 45.4134 33.8456 45.7851 34.2397C46.1161 34.6149 46.5228 34.9152 46.9782 35.1207C47.4335 35.3263 47.9272 35.4323 48.4265 35.4318C48.8602 35.435 49.2903 35.3517 49.6917 35.1867C50.1238 34.9951 50.517 34.7251 50.8514 34.3901V35.2257H52.8324V27.3097H50.857V28.1843H50.8514ZM50.2965 32.9584C50.0992 33.171 49.8591 33.339 49.5922 33.4514C49.3253 33.5638 49.0377 33.6179 48.7483 33.6102C48.4622 33.6169 48.178 33.561 47.9155 33.4466C47.653 33.3321 47.4184 33.1617 47.2279 32.9473C46.8141 32.4917 46.5932 31.8923 46.6119 31.276C46.5866 30.6608 46.804 30.0603 47.2168 29.6048C47.4098 29.3928 47.646 29.2249 47.9092 29.1125C48.1725 29 48.4568 28.9456 48.7428 28.953C49.0319 28.9452 49.3195 28.9982 49.5871 29.1085C49.8547 29.2188 50.0963 29.3841 50.2965 29.5937C50.5042 29.8175 50.6656 30.0804 50.7713 30.3673C50.8771 30.6542 50.925 30.9593 50.9125 31.2649C50.937 31.8921 50.7159 32.504 50.2965 32.9695V32.9584Z" fill="black"/>
<path d="M58.8479 27.1089C58.467 27.1087 58.0897 27.1845 57.7381 27.3317C57.2936 27.5317 56.8819 27.7984 56.5173 28.1228V27.3094H54.5308V35.2254H56.5118V32.0501C56.4913 31.5137 56.521 30.9766 56.6006 30.4458C56.6842 30.0235 56.8908 29.6357 57.1943 29.3316C57.4732 29.0681 57.8435 28.9242 58.2264 28.9305C58.5055 28.9219 58.7793 29.0083 59.0033 29.1756C59.2239 29.3558 59.3782 29.6048 59.4417 29.8831C59.5511 30.5044 59.5939 31.1356 59.5693 31.766V35.231H61.5281V30.0112C61.5561 29.6381 61.5097 29.2631 61.3915 28.9083C61.2734 28.5534 61.0859 28.2257 60.8401 27.9445C60.5815 27.6781 60.2714 27.4675 59.9288 27.3257C59.5862 27.1839 59.2184 27.1139 58.8479 27.12V27.1089Z" fill="black"/>
<path d="M68.9637 28.1842C68.6363 27.8432 68.2462 27.5689 67.8151 27.3764C67.3939 27.1972 66.9407 27.1062 66.4833 27.1091C65.9886 27.1032 65.4984 27.2047 65.0463 27.4066C64.5943 27.6085 64.191 27.906 63.8641 28.2789C63.1294 29.1008 62.7432 30.1781 62.7876 31.2815C62.7672 31.8239 62.8548 32.365 63.0454 32.8729C63.236 33.3809 63.5257 33.8455 63.8974 34.2396C64.2285 34.6148 64.6351 34.9151 65.0905 35.1207C65.5458 35.3262 66.0395 35.4322 66.5388 35.4317C66.9725 35.435 67.4026 35.3517 67.804 35.1866C68.2361 34.9951 68.6293 34.725 68.9637 34.39V35.2256H70.9448V24.2568H68.9637V28.1564V28.1842ZM68.4088 32.9583C68.2115 33.1709 67.9715 33.339 67.7045 33.4513C67.4376 33.5637 67.15 33.6178 66.8606 33.6101C66.5745 33.6168 66.2903 33.561 66.0278 33.4465C65.7653 33.332 65.5307 33.1617 65.3402 32.9472C64.9264 32.4916 64.7055 31.8922 64.7243 31.276C64.6989 30.6607 64.9163 30.0602 65.3291 29.6047C65.5221 29.3927 65.7583 29.2248 66.0215 29.1124C66.2848 28.9999 66.5691 28.9456 66.8551 28.953C67.1442 28.9452 67.4318 28.9981 67.6994 29.1084C67.967 29.2188 68.2086 29.384 68.4088 29.5936C68.6165 29.8174 68.7779 30.0804 68.8836 30.3672C68.9894 30.6541 69.0373 30.9592 69.0248 31.2648C69.0493 31.892 68.8282 32.5039 68.4088 32.9695V32.9583Z" fill="black"/>
<path d="M81.5211 29.337C81.8679 29.0933 82.1545 28.7732 82.359 28.4012C82.5333 28.0562 82.6209 27.6737 82.6143 27.287C82.629 26.6956 82.4321 26.1185 82.0594 25.6604C81.6644 25.1893 81.1296 24.8575 80.5334 24.7133C79.8338 24.561 79.1179 24.4974 78.4025 24.5239H76.7378V35.2253H79.7287C80.4229 35.2577 81.1153 35.132 81.7542 34.8576C82.2496 34.6061 82.6649 34.2201 82.9528 33.7435C83.2625 33.2522 83.4244 32.6815 83.4189 32.1001C83.4299 31.5255 83.2737 30.9602 82.9694 30.4735C82.6115 29.9657 82.1195 29.5683 81.5488 29.3259L81.5211 29.337ZM78.7466 26.4737H79.2682C79.638 26.4455 80.0057 26.5502 80.3058 26.7689C80.4193 26.8671 80.5092 26.9897 80.5688 27.1277C80.6283 27.2656 80.6561 27.4153 80.6499 27.5655C80.6564 27.7256 80.6275 27.8851 80.5651 28.0325C80.5027 28.1799 80.4085 28.3115 80.2892 28.4179C79.9681 28.6512 79.5745 28.7618 79.1794 28.7298H78.7355V26.4737H78.7466ZM80.9662 32.9692C80.4388 33.2321 79.8488 33.3421 79.2626 33.2867H78.7521V30.5682H79.1738C79.7732 30.5166 80.3735 30.657 80.8885 30.9693C81.0591 31.0981 81.1955 31.2671 81.2855 31.4615C81.3755 31.6558 81.4164 31.8694 81.4046 32.0834C81.4148 32.2629 81.38 32.4421 81.3035 32.6046C81.2269 32.7672 81.1109 32.9078 80.9662 33.0137V32.9692Z" fill="black"/>
<path d="M89.7506 31.1921C89.7778 31.6819 89.7367 32.1732 89.6285 32.6516C89.5359 32.9336 89.3573 33.1791 89.118 33.3535C88.8689 33.5152 88.5766 33.5968 88.2801 33.5875C87.9844 33.5977 87.6931 33.5139 87.4477 33.348C87.217 33.1818 87.0458 32.9454 86.9594 32.6739C86.8352 32.1695 86.7847 31.6497 86.8096 31.1308V27.3204H84.8119V30.6183C84.7719 31.4976 84.8503 32.3783 85.045 33.2365C85.2262 33.8852 85.6165 34.4553 86.1548 34.8576C86.7769 35.263 87.5119 35.4582 88.2523 35.4147C88.9435 35.4428 89.6279 35.2686 90.2222 34.9133C90.7505 34.5675 91.1609 34.068 91.3987 33.4817C91.6716 32.5629 91.7824 31.6033 91.726 30.6462V27.3037H89.745V31.2032L89.7506 31.1921Z" fill="black"/>
<path d="M94.1898 24.0564C94.0241 24.053 93.8595 24.0844 93.7066 24.1487C93.5536 24.213 93.4158 24.3087 93.302 24.4296C93.1834 24.5463 93.0898 24.686 93.0268 24.8402C92.9638 24.9944 92.9328 25.1599 92.9358 25.3265C92.9327 25.4978 92.964 25.668 93.0279 25.8269C93.0918 25.9858 93.1869 26.1301 93.3075 26.2513C93.4227 26.3743 93.5621 26.472 93.7168 26.5382C93.8716 26.6043 94.0383 26.6375 94.2065 26.6357C94.3714 26.639 94.5352 26.6075 94.6872 26.5432C94.8392 26.4789 94.976 26.3833 95.0888 26.2624C95.2077 26.1437 95.3014 26.002 95.3644 25.846C95.4273 25.6899 95.4582 25.5227 95.455 25.3544C95.4585 25.1847 95.4273 25.0161 95.3634 24.8589C95.2994 24.7018 95.2041 24.5595 95.0832 24.4408C94.9682 24.3195 94.8295 24.2232 94.6758 24.158C94.5221 24.0929 94.3567 24.0602 94.1898 24.062V24.0564Z" fill="black"/>
<path d="M95.1832 27.3154H93.2021V35.2314H95.1832V27.3154Z" fill="black"/>
<path d="M98.4405 24.2568H96.4595V35.2256H98.4405V24.2568Z" fill="black"/>
<path d="M105.76 28.1842C105.432 27.8432 105.042 27.5689 104.611 27.3764C104.19 27.1972 103.737 27.1062 103.279 27.1091C102.784 27.1032 102.294 27.2047 101.842 27.4066C101.39 27.6085 100.987 27.906 100.66 28.2789C99.9253 29.1008 99.5391 30.1781 99.5835 31.2815C99.5631 31.8239 99.6507 32.365 99.8413 32.8729C100.032 33.3809 100.322 33.8455 100.693 34.2396C101.024 34.6148 101.431 34.9151 101.886 35.1207C102.342 35.3262 102.835 35.4322 103.335 35.4317C103.768 35.435 104.198 35.3517 104.6 35.1866C105.032 34.9951 105.425 34.725 105.76 34.39V35.2256H107.741V24.2568H105.765V28.1564L105.76 28.1842ZM105.205 32.9583C105.008 33.1708 104.769 33.3388 104.503 33.4512C104.237 33.5635 103.951 33.6177 103.662 33.6101C103.376 33.6168 103.092 33.561 102.829 33.4465C102.567 33.332 102.332 33.1617 102.142 32.9472C101.728 32.4916 101.507 31.8922 101.526 31.276C101.5 30.6607 101.718 30.0602 102.131 29.6047C102.324 29.3927 102.56 29.2248 102.823 29.1124C103.086 28.9999 103.371 28.9456 103.657 28.953C103.946 28.9452 104.233 28.9981 104.501 29.1084C104.768 29.2188 105.01 29.384 105.21 29.5936C105.418 29.8174 105.579 30.0804 105.685 30.3672C105.791 30.6541 105.839 30.9592 105.826 31.2648C105.851 31.892 105.63 32.5039 105.21 32.9695L105.205 32.9583Z" fill="black"/>
<path d="M113.151 27.1093C112.608 27.095 112.069 27.1941 111.566 27.4003C111.064 27.6065 110.609 27.9152 110.232 28.307C109.847 28.7041 109.545 29.1751 109.344 29.692C109.144 30.2088 109.05 30.7609 109.067 31.3152C109.048 31.8596 109.142 32.4021 109.343 32.9083C109.543 33.4146 109.846 33.8736 110.232 34.2565C110.629 34.6496 111.103 34.9568 111.623 35.1589C112.143 35.3611 112.699 35.454 113.256 35.4319C113.968 35.4514 114.674 35.3066 115.321 35.0086C115.922 34.7059 116.436 34.2532 116.813 33.6939L115.149 32.9084C114.899 33.1595 114.602 33.3579 114.276 33.4919C113.949 33.6258 113.598 33.6926 113.245 33.6883C112.694 33.709 112.154 33.5334 111.719 33.1925C111.316 32.8519 111.053 32.3736 110.981 31.85H117.335V31.4711C117.36 30.898 117.27 30.3257 117.071 29.7879C116.871 29.2502 116.567 28.758 116.175 28.3404C115.78 27.9415 115.307 27.6291 114.785 27.4229C114.264 27.2168 113.705 27.1214 113.145 27.1427L113.151 27.1093ZM111.07 30.279C111.225 29.8827 111.475 29.5306 111.797 29.254C112.216 28.9405 112.728 28.7759 113.251 28.786C113.729 28.7771 114.197 28.9215 114.588 29.1983C114.96 29.4579 115.232 29.8373 115.359 30.2734H111.07V30.279Z" fill="black"/>
<path d="M120.609 27.4151C120.277 27.6452 120.017 27.9661 119.86 28.3398V27.3427H118.195V35.2587H120.16V31.6711C120.1 30.915 120.204 30.1547 120.465 29.4428C120.529 29.2873 120.636 29.1528 120.772 29.0544C120.908 28.9561 121.069 28.8977 121.236 28.8858C121.432 28.902 121.621 28.9609 121.791 29.0585L122.407 27.3482C122.157 27.2208 121.883 27.1504 121.602 27.1421C121.246 27.1397 120.898 27.2466 120.604 27.4485L120.609 27.4151Z" fill="black"/>
<path d="M126.064 30.4235L125.337 30.0614C125.122 29.9714 124.924 29.8473 124.749 29.6938C124.674 29.6136 124.63 29.5086 124.627 29.3985C124.626 29.3289 124.644 29.2603 124.677 29.199C124.71 29.1377 124.757 29.0856 124.815 29.0476C124.97 28.9458 125.153 28.8969 125.337 28.9083C125.867 28.9693 126.353 29.235 126.691 29.6492L127.917 28.4181C127.617 28.0079 127.223 27.6756 126.769 27.4488C126.32 27.2246 125.827 27.1082 125.326 27.109C124.648 27.0857 123.988 27.3273 123.484 27.783C123.255 27.9821 123.072 28.2287 122.947 28.5057C122.823 28.7827 122.76 29.0835 122.762 29.3874C122.762 30.3567 123.4 31.1645 124.677 31.8107L125.342 32.1449C125.897 32.4346 126.203 32.7354 126.203 33.0418C126.199 33.1278 126.176 33.2118 126.134 33.2872C126.093 33.3626 126.035 33.4273 125.964 33.4763C125.781 33.6104 125.558 33.6773 125.331 33.6657C125.04 33.6513 124.756 33.5652 124.505 33.415C124.194 33.249 123.917 33.0261 123.689 32.7577L122.474 34.0891C122.791 34.5252 123.209 34.8766 123.693 35.1126C124.177 35.3485 124.711 35.4619 125.248 35.4428C126.003 35.4822 126.744 35.2289 127.318 34.7353C127.567 34.5163 127.765 34.2452 127.898 33.9411C128.031 33.6369 128.097 33.3071 128.089 32.9749C128.099 32.4802 127.949 31.9955 127.662 31.5934C127.234 31.0918 126.696 30.6954 126.092 30.4347L126.064 30.4235Z" fill="black"/>
<path d="M136.718 24.0564H134.72C134.171 24.8595 133.742 25.7399 133.45 26.669C133.174 27.6396 133.043 28.6458 133.061 29.6549C133.045 30.6753 133.169 31.693 133.427 32.6799C133.727 33.6555 134.162 34.5838 134.72 35.4374H136.718C136.109 34.7161 135.611 33.9067 135.242 33.0364C134.852 31.9665 134.663 30.833 134.687 29.6939C134.668 28.6339 134.839 27.5791 135.192 26.5799C135.544 25.65 136.063 24.7928 136.724 24.0508L136.718 24.0564Z" fill="black"/>
<path d="M143.399 24.8529C142.585 24.5932 141.732 24.4837 140.88 24.5298H138.727V35.2312H140.758V30.6966C141.474 30.7256 142.191 30.6695 142.894 30.5295C143.516 30.3621 144.07 30.0014 144.475 29.4989C144.877 28.9643 145.083 28.3073 145.058 27.6383C145.075 27.0304 144.921 26.43 144.614 25.9058C144.33 25.4364 143.904 25.0697 143.399 24.8585V24.8529ZM142.927 28.2399C142.816 28.4086 142.652 28.5358 142.461 28.602C142.116 28.6933 141.758 28.7309 141.401 28.7134H140.758V26.5185H141.312C141.752 26.4836 142.194 26.5563 142.6 26.7302C142.755 26.8216 142.881 26.9543 142.966 27.1137C143.05 27.273 143.088 27.4527 143.077 27.6327C143.085 27.8482 143.025 28.0607 142.905 28.2399H142.927Z" fill="black"/>
<path d="M149.697 31.9837L147.705 27.3154H145.691L149.054 35.2259H150.335L153.693 27.3154H151.684L149.697 31.9837Z" fill="black"/>
<path d="M156.767 24.396H154.786V27.3151H153.776V29.0197H154.786V35.2255H156.767V29.0197H157.938V27.3151H156.767V24.396Z" fill="black"/>
<path d="M160.806 24.0562H158.809C159.418 24.7807 159.917 25.5916 160.29 26.4627C160.682 27.5322 160.87 28.666 160.845 29.8052C160.864 30.867 160.693 31.9236 160.34 32.9248C159.989 33.8536 159.47 34.7092 158.809 35.4483H160.806C161.354 34.6457 161.782 33.7675 162.077 32.8412C162.353 31.8706 162.484 30.8644 162.465 29.8553C162.481 28.8349 162.358 27.8172 162.099 26.8304C161.8 25.8547 161.364 24.9264 160.806 24.0729V24.0562Z" fill="black"/>
<path d="M170.146 24.5239H168.115V35.2253H173.098V33.2867H170.146V24.5239Z" fill="black"/>
<path d="M176.344 24.396H174.369V27.3151H173.353V29.0197H174.369V35.2255H176.344V29.0197H177.52V27.3151H176.344V24.396Z" fill="black"/>
<path d="M184.101 28.1842C183.774 27.8432 183.384 27.5689 182.953 27.3764C182.532 27.1972 182.078 27.1062 181.621 27.1091C181.126 27.1032 180.636 27.2047 180.184 27.4066C179.732 27.6085 179.329 27.906 179.002 28.2789C178.267 29.1008 177.881 30.1781 177.925 31.2815C177.905 31.8239 177.993 32.365 178.183 32.8729C178.374 33.3809 178.663 33.8455 179.035 34.2396C179.366 34.6148 179.773 34.9151 180.228 35.1207C180.684 35.3262 181.177 35.4322 181.676 35.4317C182.11 35.435 182.54 35.3517 182.942 35.1866C183.374 34.9951 183.767 34.725 184.101 34.39V35.2256H186.082V24.2568H184.101V28.1564V28.1842ZM183.574 32.9583C183.376 33.1736 183.133 33.3434 182.863 33.4558C182.593 33.5683 182.302 33.6209 182.009 33.6101C181.723 33.6168 181.439 33.561 181.177 33.4465C180.914 33.332 180.679 33.1617 180.489 32.9472C180.075 32.4916 179.854 31.8922 179.873 31.276C179.848 30.6607 180.065 30.0602 180.478 29.6047C180.67 29.389 180.906 29.2175 181.171 29.1021C181.435 28.9867 181.721 28.9301 182.009 28.9363C182.299 28.9284 182.586 28.9814 182.854 29.0917C183.121 29.202 183.363 29.3673 183.563 29.5769C183.771 29.8007 183.932 30.0637 184.038 30.3505C184.144 30.6374 184.192 30.9425 184.179 31.2481C184.204 31.8753 183.983 32.4872 183.563 32.9528L183.574 32.9583Z" fill="black"/>
<path d="M189.667 33.4875C189.562 33.3812 189.437 33.2973 189.298 33.2408C189.16 33.1844 189.012 33.1565 188.863 33.1588C188.713 33.1565 188.565 33.1844 188.427 33.2408C188.289 33.2973 188.163 33.3812 188.058 33.4875C187.952 33.592 187.868 33.7169 187.811 33.8547C187.753 33.9925 187.724 34.1404 187.725 34.2897C187.724 34.4399 187.752 34.5889 187.809 34.7277C187.867 34.8665 187.951 34.9923 188.058 35.0974C188.163 35.2047 188.288 35.2897 188.426 35.3471C188.565 35.4045 188.713 35.4333 188.863 35.4317C189.012 35.4333 189.161 35.4045 189.299 35.3471C189.437 35.2897 189.563 35.2047 189.667 35.0974C189.774 34.9923 189.859 34.8665 189.916 34.7277C189.973 34.5889 190.002 34.4399 190 34.2897C190.003 34.1401 189.975 33.9915 189.918 33.8533C189.861 33.7152 189.775 33.5906 189.667 33.4875Z" fill="black"/>
<path d="M54.914 11.9733L47.7335 0.893066H44.6704V17.7334H47.8667V6.68663L55.0361 17.7334H58.1102V0.893066H54.914V11.9733Z" fill="black"/>
<path d="M66.9054 8.40799L72.7597 0.893066H68.9253L64.3751 6.69777V0.893066H61.1455V17.7334H64.3751V10.2519L69.5468 17.7334H73.3313L66.9054 8.40799Z" fill="black"/>
<path d="M84.2793 0.893066L77.8091 17.7557H81.1385L82.5036 14.2851H89.34L90.6552 17.7557H93.9846L87.5199 0.893066H84.2793ZM83.6689 11.1432L85.9218 5.36079L88.1414 11.1432H83.6689Z" fill="black"/>
<path d="M99.9555 10.1794L98.8457 9.62231C98.508 9.48628 98.1935 9.29834 97.9134 9.06523C97.7943 8.94075 97.7269 8.77544 97.7247 8.60286C97.7254 8.49247 97.7531 8.38394 97.8054 8.28681C97.8576 8.18967 97.9328 8.10691 98.0244 8.04579C98.2667 7.88375 98.555 7.80551 98.8457 7.82296C99.4819 7.82296 100.192 8.21291 100.976 8.99281L102.902 7.05977C102.426 6.39735 101.795 5.86188 101.065 5.49996C100.361 5.13687 99.5817 4.94599 98.7902 4.94289C97.7243 4.90254 96.6843 5.27785 95.888 5.99019C95.528 6.30332 95.2399 6.69107 95.0435 7.12672C94.8472 7.56236 94.7472 8.03556 94.7504 8.51373C94.7504 10.0401 95.7548 11.3102 97.7636 12.3241L98.8124 12.8812C99.7169 13.338 100.166 13.8115 100.166 14.2906C100.163 14.4269 100.128 14.5606 100.062 14.6799C99.9962 14.7993 99.9025 14.9008 99.789 14.9758C99.5017 15.1862 99.1508 15.2905 98.7957 15.271C98.3355 15.2475 97.8879 15.1118 97.4917 14.8755C97.0052 14.6183 96.5706 14.2726 96.2098 13.8561L94.2954 15.9507C94.7914 16.6319 95.4453 17.1817 96.2003 17.5524C96.9554 17.9232 97.7891 18.1038 98.6292 18.0787C99.8166 18.1363 100.981 17.7379 101.887 16.9645C102.28 16.6177 102.592 16.1885 102.802 15.7073C103.012 15.226 103.114 14.7044 103.102 14.1792C103.119 13.401 102.883 12.6383 102.43 12.0066C101.757 11.2156 100.91 10.592 99.9555 10.185V10.1794Z" fill="black"/>
<path d="M109.417 10.1794L108.273 9.62231C107.936 9.48849 107.623 9.30032 107.347 9.06523C107.23 8.93928 107.163 8.77489 107.158 8.60286C107.159 8.49306 107.186 8.38503 107.237 8.28802C107.288 8.191 107.362 8.10789 107.452 8.04579C107.694 7.88375 107.983 7.80551 108.273 7.82296C108.913 7.82296 109.624 8.21291 110.404 8.99281L112.33 7.05977C111.861 6.40082 111.24 5.86562 110.521 5.49996C109.816 5.13961 109.037 4.94889 108.246 4.94289C107.18 4.90254 106.14 5.27785 105.344 5.99019C104.988 6.30568 104.705 6.69453 104.514 7.1301C104.322 7.56566 104.227 8.03766 104.234 8.51373C104.234 10.0401 105.238 11.3102 107.247 12.3241L108.296 12.8812C109.2 13.338 109.655 13.8115 109.655 14.2906C109.651 14.4267 109.614 14.5598 109.549 14.6789C109.483 14.7981 109.39 14.8998 109.278 14.9758C108.99 15.1862 108.64 15.2905 108.285 15.271C107.824 15.2475 107.377 15.1118 106.98 14.8755C106.485 14.6226 106.042 14.2765 105.676 13.8561L103.768 15.9228C104.264 16.6041 104.917 17.1538 105.672 17.5246C106.428 17.8953 107.261 18.076 108.101 18.0508C109.289 18.1084 110.453 17.7101 111.359 16.9367C111.752 16.5898 112.064 16.1607 112.274 15.6794C112.484 15.1982 112.587 14.6765 112.574 14.1513C112.591 13.3731 112.356 12.6104 111.903 11.9787C111.228 11.189 110.381 10.5658 109.428 10.1571L109.417 10.1794Z" fill="black"/>
<path d="M123.328 5.83997C122.325 5.25533 121.186 4.94601 120.027 4.94309C118.433 4.92986 116.895 5.52761 115.726 6.61431C115.039 7.22108 114.492 7.9712 114.124 8.81219C113.756 9.65319 113.576 10.5647 113.595 11.4831C113.579 12.3431 113.738 13.1973 114.062 13.9934C114.387 14.7895 114.87 15.5106 115.482 16.1124C116.071 16.7263 116.779 17.2121 117.563 17.5398C118.346 17.8676 119.189 18.0302 120.038 18.0176C121.204 18.0308 122.353 17.7328 123.367 17.1541C124.363 16.5854 125.186 15.7554 125.748 14.7531C126.324 13.7506 126.624 12.6126 126.619 11.4553C126.626 10.3091 126.327 9.18194 125.753 8.19083C125.18 7.18721 124.346 6.35914 123.339 5.79541L123.328 5.83997ZM122.501 14.1292C122.19 14.4615 121.811 14.724 121.392 14.8997C120.972 15.0753 120.52 15.1602 120.065 15.1487C119.613 15.1643 119.162 15.0824 118.744 14.9084C118.326 14.7345 117.949 14.4726 117.64 14.1404C117.316 13.786 117.065 13.3708 116.901 12.9186C116.737 12.4664 116.664 11.9861 116.686 11.5054C116.664 11.0307 116.738 10.5564 116.902 10.1105C117.066 9.66467 117.317 9.25628 117.64 8.90945C117.95 8.5792 118.326 8.31821 118.742 8.1435C119.159 7.9688 119.608 7.88432 120.06 7.89558C120.513 7.88228 120.964 7.96466 121.384 8.13739C121.803 8.31012 122.182 8.56935 122.496 8.89831C122.819 9.24807 123.069 9.65854 123.233 10.106C123.397 10.5535 123.471 11.0291 123.45 11.5054C123.472 11.984 123.4 12.4622 123.237 12.9125C123.074 13.3628 122.824 13.7763 122.501 14.1292Z" fill="black"/>
<path d="M134.77 7.8622C135.339 7.85126 135.904 7.95153 136.435 8.15745C136.984 8.40773 137.475 8.77009 137.878 9.22146L140.469 7.78978C139.86 6.89284 139.031 6.16932 138.061 5.68961C137.024 5.1839 135.884 4.9301 134.731 4.94871C133.475 4.93002 132.235 5.22887 131.124 5.81774C130.08 6.36523 129.21 7.19496 128.611 8.21316C128.012 9.22359 127.701 10.3798 127.712 11.5556C127.71 12.397 127.875 13.2304 128.196 14.0077C128.517 14.785 128.988 15.4908 129.582 16.0846C130.817 17.3844 132.526 18.0325 134.709 18.0288C137.136 18.0288 139.013 17.1598 140.341 15.4217L137.889 13.7505C137.494 14.2267 136.994 14.604 136.428 14.8525C135.863 15.101 135.248 15.2139 134.631 15.1821C134.132 15.2047 133.634 15.1272 133.165 14.9541C132.696 14.7809 132.267 14.5157 131.901 14.1738C131.557 13.8381 131.287 13.4336 131.108 12.9864C130.929 12.5393 130.846 12.0594 130.864 11.5779C130.85 11.0805 130.939 10.5856 131.125 10.1244C131.311 9.66326 131.591 9.24581 131.946 8.89836C132.323 8.54386 132.768 8.26863 133.253 8.08879C133.738 7.90895 134.254 7.82813 134.77 7.85106V7.8622Z" fill="black"/>
<path d="M145.241 5.27734H142.128V17.7335H145.241V5.27734Z" fill="black"/>
<path d="M143.682 0.146709C143.424 0.139627 143.166 0.185354 142.926 0.281116C142.686 0.376877 142.467 0.520675 142.284 0.703783C142.09 0.891229 141.938 1.11766 141.838 1.36824C141.737 1.61881 141.691 1.88786 141.701 2.15774C141.698 2.42755 141.748 2.69536 141.848 2.94582C141.948 3.19628 142.096 3.42446 142.284 3.61728C142.469 3.81087 142.693 3.96305 142.94 4.06384C143.188 4.16464 143.454 4.21179 143.721 4.2022C143.981 4.20714 144.238 4.15711 144.477 4.05536C144.716 3.95362 144.931 3.80245 145.108 3.61171C145.297 3.42603 145.445 3.20387 145.545 2.95872C145.646 2.71357 145.695 2.45054 145.691 2.1856C145.695 1.91817 145.646 1.65262 145.546 1.40475C145.446 1.15688 145.297 0.931761 145.108 0.742778C144.925 0.548592 144.704 0.395171 144.458 0.29248C144.213 0.18979 143.948 0.140125 143.682 0.146709Z" fill="black"/>
<path d="M156.412 6.65335C155.897 6.11315 155.28 5.68137 154.597 5.38322C153.934 5.09842 153.22 4.95427 152.5 4.95984C151.721 4.95073 150.949 5.11079 150.237 5.42905C149.526 5.74732 148.891 6.21626 148.377 6.80375C147.219 8.09841 146.61 9.79504 146.679 11.5333C146.647 12.3877 146.786 13.2397 147.088 14.0394C147.389 14.8391 147.846 15.5704 148.432 16.1904C148.955 16.7813 149.597 17.2538 150.315 17.5765C151.034 17.8992 151.812 18.0648 152.599 18.0622C153.281 18.0689 153.956 17.9382 154.586 17.6778C155.265 17.3751 155.884 16.9503 156.412 16.4244V17.7558H159.525V5.27737H156.412V6.65335ZM155.585 14.1683C155.276 14.5028 154.899 14.7673 154.48 14.944C154.061 15.1208 153.609 15.2058 153.154 15.1933C152.704 15.2047 152.257 15.1173 151.844 14.9374C151.431 14.7575 151.062 14.4893 150.763 14.1516C150.104 13.4282 149.755 12.4737 149.792 11.4943C149.769 11.0111 149.842 10.5281 150.006 10.0731C150.17 9.61815 150.421 9.20002 150.746 8.84264C151.053 8.51213 151.426 8.25155 151.842 8.07856C152.257 7.90556 152.705 7.82417 153.154 7.83991C153.609 7.82862 154.06 7.91244 154.481 8.08604C154.901 8.25964 155.281 8.51921 155.596 8.84822C155.923 9.20113 156.177 9.61586 156.343 10.0683C156.508 10.5206 156.583 11.0016 156.561 11.4832C156.598 12.472 156.248 13.4359 155.585 14.1683Z" fill="black"/>
<path d="M165.345 0.687012H162.232V5.2773H160.634V7.96796H162.232V17.7335H165.345V7.96796H167.193V5.2773H165.345V0.687012Z" fill="black"/>
<path d="M173.88 4.94319C173.027 4.92007 172.178 5.07555 171.388 5.39973C170.598 5.7239 169.884 6.20966 169.291 6.8261C168.685 7.45158 168.21 8.19317 167.896 9.00669C167.581 9.8202 167.433 10.689 167.46 11.5612C167.431 12.4184 167.579 13.2723 167.895 14.0691C168.211 14.8658 168.688 15.5882 169.296 16.1905C169.922 16.808 170.666 17.2906 171.484 17.6087C172.302 17.9267 173.176 18.0735 174.052 18.04C175.172 18.0681 176.284 17.8395 177.304 17.3715C178.251 16.8963 179.062 16.1847 179.656 15.3048L177.015 14.0792C176.622 14.4754 176.154 14.7881 175.638 14.9987C175.123 15.2093 174.57 15.3134 174.013 15.3048C173.144 15.3394 172.292 15.0607 171.61 14.5193C170.976 13.9849 170.562 13.2321 170.451 12.408H180.439V11.8119C180.481 10.9014 180.34 9.99183 180.024 9.13722C179.709 8.2826 179.225 7.50043 178.602 6.83724C177.986 6.21372 177.249 5.72388 176.437 5.39807C175.625 5.07226 174.754 4.91743 173.88 4.94319ZM170.606 9.95685C170.85 9.33283 171.243 8.77822 171.749 8.34134C172.41 7.85078 173.214 7.59411 174.035 7.61157C174.789 7.5974 175.528 7.82579 176.144 8.26335C176.725 8.66669 177.154 9.25572 177.359 9.93457L170.606 9.95685Z" fill="black"/>
<path d="M189.323 11.9954C188.65 11.2044 187.803 10.5809 186.848 10.1738L185.705 9.61673C185.368 9.48292 185.055 9.29475 184.779 9.05966C184.659 8.93581 184.591 8.7701 184.59 8.59729C184.591 8.48749 184.618 8.37946 184.669 8.28245C184.72 8.18543 184.794 8.10231 184.884 8.04022C185.126 7.87818 185.415 7.79994 185.705 7.81739C186.342 7.81739 187.052 8.20734 187.836 8.98724L189.778 7.0152C189.3 6.37045 188.674 5.85075 187.953 5.49996C187.249 5.13687 186.469 4.94599 185.678 4.94289C184.612 4.90254 183.572 5.27785 182.775 5.99019C182.415 6.30332 182.127 6.69107 181.931 7.12672C181.735 7.56236 181.635 8.03556 181.638 8.51373C181.638 10.0401 182.642 11.3102 184.651 12.3241L185.7 12.8812C186.604 13.338 187.059 13.8115 187.059 14.2906C187.055 14.4267 187.019 14.5598 186.953 14.6789C186.887 14.7981 186.795 14.8998 186.682 14.9758C186.394 15.1838 186.044 15.2878 185.689 15.271C185.228 15.2475 184.781 15.1118 184.385 14.8755C183.9 14.6085 183.471 14.2512 183.12 13.8226L181.205 15.9172C181.701 16.5988 182.355 17.1488 183.11 17.5196C183.865 17.8904 184.699 18.0709 185.539 18.0453C186.726 18.1028 187.891 17.7045 188.796 16.9311C189.189 16.5843 189.502 16.1551 189.712 15.6738C189.922 15.1926 190.024 14.671 190.011 14.1457C190.016 13.3737 189.775 12.6202 189.323 11.9954Z" fill="black"/>
</g>
<defs>
<clipPath id="clip0_451_7271">
<rect width="190" height="47.3123" fill="white" transform="translate(0 0.146484)"/>
</clipPath>
</defs>
</svg>
