<svg width="176" height="53" viewBox="0 0 176 53" fill="none" xmlns="http://www.w3.org/2000/svg">
<g id="Social Button / App Store">
<g id="App Store">
<rect id="Placeholder" x="0.77832" y="0.771423" width="174.857" height="51.4286" rx="5.14286" fill="#E74451"/>
<g id="Content">
<g id="Text">
<path id="layer" fill-rule="evenodd" clip-rule="evenodd" d="M66.4375 41.2394H63.6411L62.1093 36.6265H56.7851L55.326 41.2394H52.6035L57.8785 25.535H61.1366L66.4375 41.2394ZM61.6478 34.6907L60.2626 30.59C60.1161 30.1711 59.8415 29.1845 59.4364 27.6316H59.3871C59.2258 28.2995 58.966 29.286 58.6089 30.59L57.2483 34.6907H61.6478Z" fill="white"/>
<path id="layer_2" fill-rule="evenodd" clip-rule="evenodd" d="M80.0027 35.4381C80.0027 37.364 79.4597 38.8863 78.3737 40.0038C77.4009 40.9986 76.193 41.4954 74.7511 41.4954C73.1947 41.4954 72.0767 40.9597 71.3957 39.8882H71.3465V45.8534H68.7213V33.6432C68.7213 32.4325 68.6881 31.1899 68.624 29.9154H70.9328L71.0793 31.7103H71.1285C72.004 30.3579 73.3326 29.6829 75.1156 29.6829C76.5094 29.6829 77.673 30.2104 78.6039 31.2666C79.5373 32.3239 80.0027 33.714 80.0027 35.4381ZM77.328 35.5302C77.328 34.428 77.0694 33.5194 76.5498 32.8043C75.9822 32.0585 75.22 31.6856 74.2645 31.6856C73.6168 31.6856 73.0282 31.8933 72.5025 32.3027C71.9755 32.7158 71.6307 33.2551 71.4694 33.923C71.3881 34.2345 71.3475 34.4894 71.3475 34.69V36.5781C71.3475 37.4018 71.611 38.0969 72.138 38.6645C72.665 39.2321 73.3496 39.5153 74.1918 39.5153C75.1806 39.5153 75.9502 39.1495 76.5006 38.4202C77.0522 37.6898 77.328 36.7268 77.328 35.5302Z" fill="white"/>
<path id="layer_3" fill-rule="evenodd" clip-rule="evenodd" d="M93.593 35.4381C93.593 37.364 93.05 38.8863 91.9627 40.0038C90.9912 40.9986 89.7833 41.4954 88.3414 41.4954C86.785 41.4954 85.667 40.9597 84.9873 39.8882H84.938V45.8534H82.3129V33.6432C82.3129 32.4325 82.2796 31.1899 82.2156 29.9154H84.5243L84.6708 31.7103H84.7201C85.5943 30.3579 86.9229 29.6829 88.7071 29.6829C90.0998 29.6829 91.2634 30.2104 92.1967 31.2666C93.1263 32.3239 93.593 33.714 93.593 35.4381ZM90.9187 35.5302C90.9187 34.428 90.6589 33.5194 90.1392 32.8043C89.5716 32.0585 88.8119 31.6856 87.8551 31.6856C87.2062 31.6856 86.6189 31.8933 86.0919 32.3027C85.5649 32.7158 85.2213 33.2551 85.06 33.923C84.98 34.2345 84.9381 34.4894 84.9381 34.69V36.5781C84.9381 37.4018 85.2016 38.0969 85.7262 38.6645C86.2532 39.2309 86.9378 39.5153 87.7825 39.5153C88.7712 39.5153 89.5408 39.1495 90.0912 38.4202C90.6428 37.6898 90.9187 36.7268 90.9187 35.5302Z" fill="white"/>
<path id="layer_4" fill-rule="evenodd" clip-rule="evenodd" d="M108.788 36.8354C108.788 38.1713 108.304 39.2581 107.332 40.0971C106.265 41.014 104.778 41.4719 102.869 41.4719C101.105 41.4719 99.6918 41.1462 98.6218 40.4936L99.2301 38.3966C100.383 39.0646 101.647 39.3997 103.025 39.3997C104.014 39.3997 104.783 39.1849 105.336 38.7578C105.887 38.3306 106.161 37.757 106.161 37.0419C106.161 36.4047 105.935 35.8678 105.48 35.4323C105.028 34.9969 104.274 34.5921 103.22 34.218C100.351 33.1925 98.9173 31.6903 98.9173 29.7149C98.9173 28.4239 99.4197 27.3653 100.426 26.5416C101.428 25.7168 102.765 25.3049 104.437 25.3049C105.929 25.3049 107.167 25.5539 108.156 26.0507L107.5 28.1017C106.576 27.6202 105.532 27.3795 104.363 27.3795C103.44 27.3795 102.718 27.5978 102.201 28.0321C101.764 28.4203 101.545 28.8935 101.545 29.4541C101.545 30.0748 101.795 30.5881 102.297 30.9917C102.734 31.3646 103.529 31.7682 104.681 32.2036C106.091 32.7476 107.127 33.3837 107.793 34.113C108.456 34.8399 108.788 35.7497 108.788 36.8354Z" fill="white"/>
<path id="layer_5" fill-rule="evenodd" clip-rule="evenodd" d="M117.467 31.8036H114.573V37.3016C114.573 38.6999 115.083 39.3985 116.105 39.3985C116.574 39.3985 116.963 39.3596 117.271 39.2817L117.344 41.1923C116.827 41.3775 116.146 41.4707 115.302 41.4707C114.266 41.4707 113.455 41.1675 112.871 40.5621C112.288 39.9555 111.995 38.9383 111.995 37.5092V31.8012H110.271V29.9131H111.995V27.8397L114.573 27.0939V29.9131H117.467V31.8036Z" fill="white"/>
<path id="layer_6" fill-rule="evenodd" clip-rule="evenodd" d="M130.523 35.484C130.523 37.2246 130.003 38.6536 128.967 39.7712C127.879 40.9217 126.436 41.4952 124.637 41.4952C122.903 41.4952 121.523 40.9441 120.494 39.842C119.464 38.7398 118.95 37.3485 118.95 35.6716C118.95 33.9168 119.479 32.4795 120.542 31.362C121.602 30.2433 123.033 29.6839 124.832 29.6839C126.565 29.6839 127.961 30.235 129.013 31.3384C130.021 32.4087 130.523 33.7905 130.523 35.484ZM127.799 35.5651C127.799 34.5207 127.566 33.6251 127.095 32.8781C126.544 31.9741 125.758 31.5234 124.738 31.5234C123.683 31.5234 122.881 31.9753 122.331 32.8781C121.859 33.6262 121.626 34.5361 121.626 35.6123C121.626 36.6567 121.859 37.5523 122.331 38.2981C122.898 39.2021 123.691 39.6529 124.715 39.6529C125.717 39.6529 126.504 39.1926 127.071 38.2745C127.555 37.5134 127.799 36.6083 127.799 35.5651Z" fill="white"/>
<path id="layer_7" fill-rule="evenodd" clip-rule="evenodd" d="M139.056 32.128C138.796 32.082 138.519 32.0584 138.229 32.0584C137.305 32.0584 136.591 32.3924 136.089 33.0615C135.652 33.6515 135.432 34.3973 135.432 35.2977V41.2394H132.808L132.833 33.4816C132.833 32.1764 132.8 30.9881 132.735 29.9166H135.021L135.117 32.0832H135.19C135.467 31.3386 135.904 30.7391 136.502 30.2895C137.087 29.8847 137.719 29.6829 138.4 29.6829C138.643 29.6829 138.862 29.6994 139.056 29.7289V32.128Z" fill="white"/>
<path id="layer_8" fill-rule="evenodd" clip-rule="evenodd" d="M150.797 35.0418C150.797 35.4925 150.766 35.8725 150.701 36.1829H142.825C142.856 37.3016 143.237 38.1571 143.968 38.7472C144.632 39.2747 145.49 39.539 146.544 39.539C147.71 39.539 148.774 39.3608 149.731 39.0033L150.142 40.7498C149.024 41.2171 147.704 41.4495 146.181 41.4495C144.348 41.4495 142.91 40.9327 141.864 39.9001C140.819 38.8675 140.296 37.481 140.296 35.7415C140.296 34.034 140.783 32.612 141.756 31.4779C142.776 30.2672 144.154 29.6618 145.888 29.6618C147.591 29.6618 148.88 30.2672 149.755 31.4779C150.448 32.4397 150.797 33.6292 150.797 35.0418ZM148.294 34.3894C148.311 33.6436 148.14 32.9993 147.784 32.4553C147.33 31.7555 146.631 31.4062 145.692 31.4062C144.834 31.4062 144.136 31.7472 143.602 32.4317C143.165 32.9757 142.905 33.6283 142.825 34.3882H148.294V34.3894Z" fill="white"/>
<path id="layer_9" fill-rule="evenodd" clip-rule="evenodd" d="M60.7795 15.8735C60.7795 17.2624 60.3448 18.308 59.4768 19.0101C58.6727 19.658 57.53 19.9825 56.05 19.9825C55.3161 19.9825 54.6881 19.9518 54.1624 19.8905V12.3014C54.8482 12.1952 55.587 12.1409 56.3849 12.1409C57.7948 12.1409 58.8574 12.4348 59.574 13.0224C60.3769 13.6868 60.7795 14.6368 60.7795 15.8735ZM59.4187 15.9073C59.4187 15.0069 59.1699 14.3165 58.6725 13.8351C58.175 13.3548 57.4486 13.114 56.4918 13.114C56.0855 13.114 55.7395 13.14 55.4526 13.1943V18.9636C55.6114 18.9872 55.902 18.9979 56.3244 18.9979C57.3119 18.9979 58.0741 18.7347 58.6109 18.2084C59.1478 17.6821 59.4187 16.915 59.4187 15.9073Z" fill="white"/>
<path id="layer_10" fill-rule="evenodd" clip-rule="evenodd" d="M67.9941 17.087C67.9941 17.9425 67.7392 18.6435 67.2295 19.1934C66.6951 19.7587 65.9871 20.0407 65.103 20.0407C64.2509 20.0407 63.5724 19.7705 63.0663 19.2276C62.5615 18.686 62.3091 18.0027 62.3091 17.179C62.3091 16.3176 62.5689 15.6107 63.091 15.062C63.6131 14.5132 64.3149 14.2383 65.199 14.2383C66.0511 14.2383 66.7357 14.5085 67.2541 15.0502C67.7466 15.5765 67.9941 16.2562 67.9941 17.087ZM66.6559 17.1268C66.6559 16.6135 66.5401 16.1733 66.3099 15.8063C66.039 15.3626 65.6536 15.1407 65.1524 15.1407C64.634 15.1407 64.24 15.3626 63.9691 15.8063C63.7376 16.1733 63.6231 16.6205 63.6231 17.1492C63.6231 17.6625 63.7389 18.1027 63.9691 18.4697C64.2486 18.9134 64.6377 19.1353 65.1401 19.1353C65.6327 19.1353 66.0193 18.9099 66.2976 18.4579C66.5364 18.0838 66.6559 17.6401 66.6559 17.1268Z" fill="white"/>
<path id="layer_11" fill-rule="evenodd" clip-rule="evenodd" d="M77.6668 14.3513L75.8506 19.9141H74.6685L73.9162 17.4985C73.7253 16.8955 73.5702 16.296 73.4495 15.7013H73.4261C73.3141 16.3125 73.1589 16.9108 72.9594 17.4985L72.1603 19.9141H70.9647L69.2568 14.3513H70.583L71.2393 16.9958C71.3981 17.6212 71.5286 18.2172 71.6333 18.7812H71.6567C71.7527 18.3163 71.9116 17.7239 72.1357 17.0076L72.9594 14.3524H74.011L74.8003 16.951C74.9911 17.5847 75.1463 18.1948 75.2657 18.7824H75.3014C75.3888 18.2101 75.5206 17.6 75.6954 16.951L76.3998 14.3524H77.6668V14.3513Z" fill="white"/>
<path id="layer_12" fill-rule="evenodd" clip-rule="evenodd" d="M84.3569 19.9144H83.0664V16.7282C83.0664 15.7464 82.6774 15.2555 81.8967 15.2555C81.5137 15.2555 81.2047 15.39 80.9646 15.6603C80.7269 15.9305 80.6063 16.2491 80.6063 16.6138V19.9132H79.3158V15.9411C79.3158 15.4526 79.2998 14.9227 79.269 14.3492H80.4031L80.4634 15.2189H80.4991C80.6494 14.9487 80.8735 14.7257 81.1677 14.5475C81.5174 14.3398 81.909 14.2347 82.3375 14.2347C82.8793 14.2347 83.33 14.4023 83.6883 14.7386C84.134 15.1505 84.3569 15.7653 84.3569 16.5819V19.9144Z" fill="white"/>
<path id="layer_13" fill-rule="evenodd" clip-rule="evenodd" d="M87.9154 19.9143H86.6262V11.799H87.9154V19.9143Z" fill="white"/>
<path id="layer_14" fill-rule="evenodd" clip-rule="evenodd" d="M95.5129 17.087C95.5129 17.9425 95.258 18.6435 94.7483 19.1934C94.2139 19.7587 93.5046 20.0407 92.6218 20.0407C91.7684 20.0407 91.09 19.7705 90.5851 19.2276C90.0803 18.686 89.8279 18.0027 89.8279 17.179C89.8279 16.3176 90.0877 15.6107 90.6098 15.062C91.1319 14.5132 91.8337 14.2383 92.7166 14.2383C93.5699 14.2383 94.2533 14.5085 94.7729 15.0502C95.2654 15.5765 95.5129 16.2562 95.5129 17.087ZM94.1732 17.1268C94.1732 16.6135 94.0575 16.1733 93.8272 15.8063C93.5576 15.3626 93.1709 15.1407 92.671 15.1407C92.1514 15.1407 91.7574 15.3626 91.4877 15.8063C91.2562 16.1733 91.1417 16.6205 91.1417 17.1492C91.1417 17.6625 91.2574 18.1027 91.4877 18.4697C91.7672 18.9134 92.1563 19.1353 92.6587 19.1353C93.1512 19.1353 93.5366 18.9099 93.8149 18.4579C94.055 18.0838 94.1732 17.6401 94.1732 17.1268Z" fill="white"/>
<path id="layer_15" fill-rule="evenodd" clip-rule="evenodd" d="M101.758 19.9144H100.599L100.503 19.2736H100.467C100.071 19.7846 99.5058 20.0407 98.7719 20.0407C98.224 20.0407 97.7807 19.8719 97.447 19.5368C97.1441 19.2323 96.9927 18.8535 96.9927 18.4039C96.9927 17.7242 97.2882 17.2062 97.8829 16.8474C98.4764 16.4887 99.3113 16.3128 100.386 16.3211V16.2173C100.386 15.4844 99.9848 15.1186 99.1807 15.1186C98.6082 15.1186 98.1033 15.2567 97.6674 15.5305L97.4052 14.7186C97.9445 14.3988 98.6106 14.2383 99.3962 14.2383C100.913 14.2383 101.674 15.0053 101.674 16.5394V18.588C101.674 19.1438 101.702 19.5864 101.758 19.9144ZM100.418 18.0026V17.1447C98.9944 17.1211 98.2827 17.4952 98.2827 18.2657C98.2827 18.556 98.364 18.7732 98.5302 18.9183C98.6964 19.0635 98.9082 19.1355 99.1606 19.1355C99.4438 19.1355 99.7086 19.0493 99.9499 18.8782C100.192 18.7059 100.341 18.4876 100.397 18.2197C100.41 18.1595 100.418 18.0864 100.418 18.0026Z" fill="white"/>
<path id="layer_16" fill-rule="evenodd" clip-rule="evenodd" d="M109.09 19.9143H107.945L107.885 19.021H107.849C107.483 19.7007 106.86 20.0406 105.985 20.0406C105.285 20.0406 104.703 19.7774 104.241 19.2511C103.78 18.7248 103.549 18.0415 103.549 17.2025C103.549 16.3021 103.799 15.5728 104.302 15.0158C104.788 14.4966 105.384 14.237 106.093 14.237C106.873 14.237 107.418 14.4883 107.728 14.9922H107.753V11.799H109.045V18.4156C109.045 18.9573 109.059 19.4564 109.09 19.9143ZM107.753 17.5682V16.6406C107.753 16.4802 107.741 16.3504 107.717 16.2512C107.645 15.9538 107.488 15.7037 107.25 15.5019C107.01 15.3001 106.721 15.1986 106.387 15.1986C105.906 15.1986 105.529 15.3815 105.252 15.7485C104.977 16.1155 104.838 16.584 104.838 17.1563C104.838 17.7063 104.97 18.1523 105.235 18.4957C105.514 18.8615 105.891 19.0445 106.363 19.0445C106.786 19.0445 107.125 18.8922 107.382 18.5866C107.631 18.3046 107.753 17.9647 107.753 17.5682Z" fill="white"/>
<path id="layer_17" fill-rule="evenodd" clip-rule="evenodd" d="M120.127 17.087C120.127 17.9425 119.872 18.6435 119.362 19.1934C118.828 19.7587 118.121 20.0407 117.236 20.0407C116.385 20.0407 115.706 19.7705 115.199 19.2276C114.694 18.686 114.442 18.0027 114.442 17.179C114.442 16.3176 114.701 15.6107 115.224 15.062C115.746 14.5132 116.447 14.2383 117.333 14.2383C118.184 14.2383 118.869 14.5085 119.387 15.0502C119.879 15.5765 120.127 16.2562 120.127 17.087ZM118.79 17.1268C118.79 16.6135 118.674 16.1733 118.444 15.8063C118.171 15.3626 117.787 15.1407 117.285 15.1407C116.768 15.1407 116.374 15.3626 116.102 15.8063C115.87 16.1733 115.756 16.6205 115.756 17.1492C115.756 17.6625 115.871 18.1027 116.102 18.4697C116.381 18.9134 116.77 19.1353 117.273 19.1353C117.765 19.1353 118.153 18.9099 118.431 18.4579C118.669 18.0838 118.79 17.6401 118.79 17.1268Z" fill="white"/>
<path id="layer_18" fill-rule="evenodd" clip-rule="evenodd" d="M127.065 19.9144H125.776V16.7282C125.776 15.7464 125.387 15.2555 124.605 15.2555C124.222 15.2555 123.913 15.39 123.674 15.6603C123.435 15.9305 123.316 16.2491 123.316 16.6138V19.9132H122.024V15.9411C122.024 15.4526 122.01 14.9227 121.979 14.3492H123.112L123.172 15.2189H123.208C123.359 14.9487 123.583 14.7257 123.876 14.5475C124.227 14.3398 124.617 14.2347 125.047 14.2347C125.588 14.2347 126.038 14.4023 126.397 14.7386C126.844 15.1505 127.065 15.7653 127.065 16.5819V19.9144Z" fill="white"/>
<path id="layer_19" fill-rule="evenodd" clip-rule="evenodd" d="M135.75 15.2779H134.329V17.9803C134.329 18.6671 134.581 19.0105 135.081 19.0105C135.313 19.0105 135.505 18.9916 135.656 18.9526L135.69 19.8908C135.435 19.9828 135.1 20.0289 134.687 20.0289C134.178 20.0289 133.781 19.8802 133.494 19.5828C133.206 19.2854 133.063 18.7851 133.063 18.0829V15.2779H132.215V14.3515H133.063V13.3319L134.328 12.9661V14.3503H135.749V15.2779H135.75Z" fill="white"/>
<path id="layer_20" fill-rule="evenodd" clip-rule="evenodd" d="M142.582 19.9143H141.29V16.7517C141.29 15.7546 140.901 15.2554 140.121 15.2554C139.523 15.2554 139.114 15.5445 138.89 16.1227C138.852 16.2443 138.83 16.393 138.83 16.5676V19.9131H137.541V11.799H138.83V15.1515H138.854C139.261 14.5414 139.843 14.237 140.598 14.237C141.132 14.237 141.574 14.4045 141.925 14.7409C142.362 15.1598 142.582 15.7829 142.582 16.6066V19.9143Z" fill="white"/>
<path id="layer_21" fill-rule="evenodd" clip-rule="evenodd" d="M149.628 16.8699C149.628 17.0918 149.611 17.2782 149.58 17.4304H145.71C145.727 17.9804 145.912 18.3993 146.27 18.6896C146.598 18.9492 147.02 19.079 147.537 19.079C148.11 19.079 148.632 18.9917 149.102 18.8158L149.304 19.6749C148.754 19.9039 148.106 20.0183 147.356 20.0183C146.458 20.0183 145.75 19.7646 145.237 19.2572C144.723 18.7498 144.468 18.0689 144.468 17.2145C144.468 16.3755 144.705 15.6769 145.184 15.1199C145.684 14.5251 146.36 14.2277 147.214 14.2277C148.048 14.2277 148.683 14.5251 149.111 15.1199C149.457 15.5919 149.628 16.176 149.628 16.8699ZM148.397 16.5503C148.407 16.1833 148.322 15.867 148.147 15.6003C147.923 15.2569 147.582 15.0847 147.12 15.0847C146.699 15.0847 146.356 15.2522 146.093 15.5885C145.879 15.8564 145.752 16.1762 145.71 16.5503H148.397Z" fill="white"/>
</g>
<g id="Icon">
<path id="layer_22" fill-rule="evenodd" clip-rule="evenodd" d="M34.9133 27.5167C34.8802 23.9208 37.9174 22.1714 38.0563 22.09C36.3362 19.6321 33.6701 19.2963 32.7333 19.2695C30.4941 19.0386 28.322 20.5827 27.1814 20.5827C26.018 20.5827 24.2614 19.2918 22.3683 19.3298C19.9322 19.3666 17.6532 20.7489 16.4032 22.8955C13.8237 27.2724 15.7475 33.7044 18.2189 37.2422C19.4552 38.9749 20.8998 40.9095 22.7907 40.8414C24.6405 40.7667 25.3315 39.6856 27.5639 39.6856C29.7758 39.6856 30.4246 40.8414 32.353 40.7979C34.3384 40.7667 35.5883 39.0575 36.7813 37.3092C38.21 35.3232 38.7837 33.3674 38.8065 33.267C38.7598 33.2514 34.9508 31.8266 34.9133 27.5167Z" fill="white"/>
<path id="layer_23" fill-rule="evenodd" clip-rule="evenodd" d="M30.4298 14.9025C31.4247 13.683 32.1055 12.024 31.9165 10.3404C30.4764 10.4029 28.6755 11.3166 27.6385 12.5093C26.7209 13.5603 25.9013 15.2829 26.113 16.9029C27.7307 17.0212 29.3916 16.1029 30.4298 14.9025Z" fill="white"/>
</g>
</g>
</g>
</g>
</svg>
