<svg width="176" height="53" viewBox="0 0 176 53" fill="none" xmlns="http://www.w3.org/2000/svg">
<rect x="0.571533" y="0.852539" width="174.857" height="51.4286" rx="10" fill="#E74451"/>
<path d="M67.7707 32.3377L65.3917 25.8884L63.022 32.3377H67.7707ZM59.4731 37.1194L64.408 24.1563H66.3847L71.3196 37.1101H69.4969L68.3177 33.7842H62.4979L61.3188 37.1101L59.4731 37.1194ZM74.6708 35.6637V40.8162H73.0779V27.4017H74.6708V28.8689C74.9673 28.3319 75.4065 27.8878 75.9396 27.5859C76.5064 27.2895 77.1393 27.1428 77.7784 27.1598C78.3351 27.148 78.8864 27.2701 79.3863 27.5157C79.8862 27.7614 80.32 28.1235 80.6516 28.5718C81.3947 29.5054 81.7656 30.7384 81.764 32.2709C81.764 33.798 81.394 35.0349 80.6516 35.9723C80.3183 36.4179 79.8838 36.7774 79.3841 37.0209C78.8844 37.2645 78.3339 37.3851 77.7784 37.3727C77.1406 37.39 76.5086 37.2475 75.9396 36.9581C75.4092 36.6516 74.971 36.2076 74.6708 35.6729V35.6637ZM80.0976 32.2709C80.0976 31.0993 79.8532 30.1779 79.3644 29.5069C79.1472 29.1848 78.8519 28.9233 78.506 28.7472C78.1602 28.5711 77.7753 28.4862 77.3877 28.5004C76.997 28.4878 76.6095 28.5733 76.2602 28.7491C75.911 28.9249 75.6111 29.1854 75.388 29.5069C74.9068 30.1779 74.667 31.0993 74.6685 32.2709C74.6701 33.4425 74.9099 34.3638 75.388 35.0348C75.6132 35.3535 75.9137 35.6112 76.2627 35.7848C76.6117 35.9585 76.9982 36.0427 77.3877 36.0299C77.7741 36.044 78.1578 35.9603 78.5033 35.7863C78.8488 35.6124 79.145 35.3539 79.3644 35.0348C79.8532 34.3684 80.0976 33.4471 80.0976 32.2709ZM85.9404 35.6729V40.8254H84.3314V27.4017H85.9404V28.8689C86.234 28.3337 86.669 27.8898 87.1977 27.5859C87.7649 27.2906 88.3975 27.144 89.0365 27.1598C89.5914 27.1489 90.1408 27.2715 90.6386 27.5171C91.1365 27.7628 91.5684 28.1244 91.8981 28.5718C92.6413 29.5054 93.0121 30.7384 93.0106 32.2709C93.0106 33.798 92.6406 35.0349 91.8981 35.9723C91.5668 36.4171 91.1343 36.7762 90.6366 37.0198C90.1388 37.2634 89.5903 37.3844 89.0365 37.3727C88.3988 37.3887 87.7671 37.2463 87.1977 36.9581C86.6712 36.6504 86.2369 36.2065 85.9404 35.6729ZM91.3557 32.2801C91.3557 31.1085 91.1113 30.1872 90.6225 29.5161C90.4053 29.194 90.11 28.9325 89.7641 28.7564C89.4183 28.5803 89.0334 28.4954 88.6457 28.5096C88.2551 28.497 87.8676 28.5825 87.5183 28.7583C87.1691 28.9341 86.8692 29.1946 86.6461 29.5161C86.1726 30.1872 85.9358 31.1085 85.9358 32.2801C85.9358 33.4517 86.1726 34.373 86.6461 35.0441C86.8713 35.3627 87.1718 35.6204 87.5208 35.794C87.8698 35.9677 88.2563 36.0519 88.6457 36.0391C89.0322 36.0533 89.4159 35.9695 89.7614 35.7955C90.1069 35.6216 90.4031 35.3632 90.6225 35.0441C91.1097 34.3715 91.3542 33.4471 91.3557 32.2709V32.2801ZM104.478 35.2744V31.7964H101.63V30.3522H106.227V35.9216C105.545 36.4056 104.789 36.7751 103.988 37.0157C103.144 37.2602 102.268 37.3813 101.389 37.375C99.3645 37.375 97.7816 36.7831 96.64 35.5992C95.4984 34.4153 94.9306 32.7676 94.9368 30.6562C94.9368 28.5418 95.5045 26.8934 96.64 25.711C97.7754 24.5287 99.3583 23.9337 101.389 23.926C102.197 23.9224 103.002 24.0293 103.781 24.2438C104.526 24.4407 105.236 24.7515 105.887 25.1652V27.0354C105.275 26.5021 104.575 26.0797 103.818 25.7871C103.084 25.5095 102.305 25.369 101.52 25.3725C99.9414 25.3725 98.7515 25.8132 97.9501 26.6946C97.1487 27.576 96.7556 28.8958 96.771 30.654C96.771 32.4022 97.1617 33.722 97.9501 34.6018C98.7385 35.4817 99.9406 35.9239 101.52 35.9239C102.077 35.9298 102.633 35.8788 103.179 35.7719C103.638 35.6769 104.079 35.5081 104.485 35.2721L104.478 35.2744ZM115.288 32.2179H113.706C112.415 32.2179 111.525 32.3653 111.029 32.6786C110.532 32.9918 110.286 33.4732 110.286 34.1895C110.274 34.4425 110.318 34.6951 110.415 34.9292C110.511 35.1633 110.658 35.3732 110.845 35.5439C111.272 35.8927 111.814 36.0686 112.364 36.0368C112.767 36.052 113.168 35.9753 113.536 35.8125C113.905 35.6497 114.232 35.405 114.493 35.097C115.026 34.4705 115.292 33.6344 115.29 32.5887V32.2179H115.288ZM116.881 31.5638V37.1101H115.288V35.6337C114.964 36.1869 114.496 36.6414 113.934 36.9489C113.309 37.2424 112.624 37.3844 111.934 37.3635C110.946 37.3635 110.153 37.0848 109.567 36.5297C109.273 36.2354 109.043 35.8828 108.893 35.4945C108.742 35.1063 108.674 34.6908 108.693 34.2748C108.693 33.1876 109.057 32.3622 109.785 31.7987C110.513 31.2352 111.604 30.958 113.058 30.9672H115.288V30.8359C115.306 30.5147 115.25 30.1936 115.125 29.8973C115 29.601 114.809 29.3374 114.566 29.1269C114.086 28.7276 113.411 28.528 112.539 28.528C111.997 28.5281 111.456 28.5938 110.93 28.7238C110.399 28.8572 109.889 29.0593 109.411 29.3249V27.8416C109.963 27.6259 110.533 27.4572 111.114 27.3372C111.637 27.2233 112.171 27.1654 112.707 27.1644C114.11 27.1644 115.159 27.5284 115.853 28.2562C116.527 28.9933 116.871 30.0896 116.871 31.573L116.881 31.5638ZM120.165 37.1101V23.6196H121.758V37.1194L120.165 37.1101ZM125.093 37.1101V23.6196H126.686V37.1194L125.093 37.1101ZM138.268 31.8471V32.6371H130.943C131.01 33.7289 131.336 34.5696 131.927 35.1523C132.517 35.7351 133.349 36.0045 134.407 36.0045C135.004 36.0008 135.598 35.9235 136.177 35.7742C136.773 35.6172 137.349 35.3891 137.891 35.0947V36.6057C137.324 36.8464 136.735 37.0337 136.133 37.1654C135.533 37.289 134.923 37.3515 134.31 37.352C132.766 37.352 131.552 36.8913 130.633 35.9953C129.713 35.0994 129.279 33.8809 129.279 32.34C129.279 30.7446 129.709 29.4831 130.568 28.5556C131.426 27.6136 132.586 27.1437 134.039 27.1437C135.345 27.1437 136.374 27.5675 137.128 28.4151C137.882 29.2627 138.259 30.4098 138.259 31.8563L138.268 31.8471ZM130.987 31.3864H136.664C136.687 30.6178 136.423 29.8682 135.922 29.2858C135.681 29.027 135.388 28.8236 135.062 28.6895C134.736 28.5555 134.384 28.4941 134.032 28.5096C133.248 28.4722 132.48 28.7433 131.892 29.2651C131.364 29.7787 131.06 30.4858 130.977 31.3979L130.987 31.3864ZM146.437 27.2404V28.8804C146.252 28.7751 146.052 28.6975 145.844 28.6501C145.618 28.5958 145.387 28.5695 145.155 28.5718C144.254 28.5718 143.559 28.8689 143.07 29.4562C142.58 30.0436 142.35 30.882 142.35 31.9899V37.1124H140.758V27.4017H142.35V28.9127C142.651 28.3557 143.107 27.8986 143.663 27.5975C144.267 27.2898 144.939 27.1393 145.617 27.1598C145.741 27.161 145.865 27.1726 145.987 27.1944C146.135 27.2031 146.282 27.2215 146.428 27.2497L146.437 27.2404ZM156.415 27.3925L152.158 38.0061C151.708 39.167 151.268 39.9256 150.839 40.2818C150.346 40.6522 149.739 40.838 149.124 40.807H147.844V39.4733H148.784C149.153 39.495 149.518 39.3821 149.811 39.1555C150.041 38.9505 150.317 38.4645 150.609 37.6768L150.905 36.9558L146.973 27.3925H148.664L151.701 34.9934L154.723 27.3925H156.415Z" fill="white"/>
<path d="M59.3743 19.6115V12.9319H63.5874V13.6874H60.2684V15.6682H63.4472V16.4352H60.2684V18.8583H63.6748V19.6253H59.3743V19.6115ZM66.9088 16.046L64.8401 12.9273H65.8124L67.4788 15.4034L69.1383 12.9181H70.1106L67.9707 16.1266L70.2508 19.6023H69.2785L67.4121 16.76L65.5136 19.6023H64.5413L66.9088 16.046ZM73.4595 13.6713H72.3241V16.1796H73.4549C73.8103 16.2008 74.1607 16.0874 74.4364 15.8617C74.5551 15.7368 74.6466 15.5886 74.7051 15.4265C74.7637 15.2643 74.788 15.0917 74.7766 14.9197C74.7869 14.7508 74.762 14.5817 74.7035 14.423C74.6449 14.2644 74.5539 14.1198 74.4364 13.9983C74.164 13.7658 73.812 13.6486 73.4549 13.6713H73.4595ZM71.4299 19.6115V12.9319H73.4549C74.2043 12.9319 74.7697 13.0977 75.1581 13.4363C75.3546 13.6285 75.5073 13.8609 75.6057 14.1178C75.7041 14.3746 75.7459 14.6497 75.7282 14.9243C75.7282 15.5876 75.5397 16.0874 75.1581 16.4237C74.7766 16.76 74.2043 16.9281 73.4549 16.9281H72.3195V19.6207H71.4254L71.4299 19.6115ZM76.9464 19.6115V12.9319H77.852V18.8583H81.1044V19.623L76.9464 19.6115ZM84.4349 13.5423C84.1339 13.532 83.8346 13.593 83.5615 13.7202C83.2883 13.8475 83.049 14.0374 82.8628 14.2747C82.4858 14.7653 82.295 15.4264 82.295 16.2786C82.295 17.1308 82.4835 17.7873 82.8628 18.2825C83.0488 18.5201 83.2881 18.7104 83.5613 18.838C83.8344 18.9657 84.1337 19.0271 84.4349 19.0173C84.7331 19.0285 85.0295 18.9676 85.2992 18.8397C85.5688 18.7118 85.8038 18.5207 85.9841 18.2825C86.368 17.7873 86.5633 17.1193 86.5633 16.2786C86.5633 15.4379 86.3703 14.7653 85.9841 14.2747C85.8044 14.0355 85.5691 13.8438 85.2988 13.7161C85.0285 13.5885 84.7312 13.5288 84.4326 13.5423H84.4349ZM84.4349 12.8098C84.854 12.7925 85.2718 12.8677 85.6586 13.0301C86.0455 13.1925 86.392 13.4381 86.6737 13.7496C87.2368 14.3761 87.5126 15.2191 87.5126 16.2832C87.5126 17.3474 87.2322 18.1835 86.6737 18.8169C86.3922 19.1286 86.0457 19.3746 85.6588 19.5374C85.272 19.7002 84.8542 19.7758 84.4349 19.7589C84.0123 19.7761 83.5909 19.7007 83.2003 19.538C82.8097 19.3753 82.4592 19.1292 82.1732 18.8169C81.6101 18.1927 81.3342 17.3474 81.3342 16.2832C81.3342 15.2191 81.6147 14.383 82.1732 13.7496C82.4588 13.4375 82.8089 13.1917 83.1992 13.0293C83.5895 12.867 84.0104 12.7921 84.4326 12.8098H84.4349ZM92.0889 16.4721C92.3138 16.5601 92.5108 16.7073 92.659 16.8982C92.8779 17.1705 93.0645 17.4673 93.2152 17.7827L94.1346 19.6092H93.1624L92.3119 17.8909C92.1662 17.5515 91.9472 17.2486 91.6706 17.0042C91.4149 16.8488 91.1189 16.7735 90.8202 16.7876H89.8364V19.6092H88.9308V12.9296H90.9719C91.7373 12.9296 92.305 13.0885 92.6866 13.411C93.0681 13.7335 93.2451 14.2079 93.2451 14.8552C93.2585 15.2285 93.1548 15.5966 92.9486 15.9078C92.7353 16.1904 92.4306 16.3899 92.0867 16.4721H92.0889ZM90.965 13.6713H89.8295V16.046H90.965C91.3198 16.0724 91.6714 15.9629 91.9487 15.7396C92.0651 15.6246 92.1557 15.486 92.2143 15.333C92.273 15.1801 92.2984 15.0164 92.2889 14.8529C92.3007 14.6894 92.2763 14.5254 92.2175 14.3725C92.1587 14.2196 92.0669 14.0816 91.9487 13.9684C91.6679 13.7509 91.3167 13.645 90.9627 13.6713H90.965ZM95.2908 19.6115V12.9319H99.5039V13.6874H96.1964V15.6682H99.3752V16.4352H96.1964V18.8583H99.5936V19.6253H95.2908V19.6115ZM103.981 19.6115V12.9319H104.887V19.6115H103.981ZM105.763 13.6828V12.9273H111.406V13.6828H109.036V19.6115H108.13V13.6828H105.763ZM117.892 13.5423C117.593 13.5312 117.295 13.5919 117.024 13.7193C116.753 13.8467 116.516 14.0371 116.334 14.2747C115.947 14.7653 115.752 15.4264 115.752 16.2786C115.752 17.1308 115.945 17.7873 116.334 18.2825C116.524 18.5124 116.762 18.6974 117.032 18.8245C117.301 18.9515 117.595 19.0173 117.893 19.0173C118.191 19.0173 118.485 18.9515 118.755 18.8245C119.024 18.6974 119.263 18.5124 119.453 18.2825C119.83 17.7873 120.02 17.1193 120.02 16.2786C120.02 15.4379 119.832 14.7653 119.453 14.2747C119.269 14.0362 119.031 13.8451 118.759 13.7177C118.487 13.5902 118.188 13.5301 117.887 13.5423H117.892ZM117.892 12.8098C118.313 12.7916 118.733 12.8663 119.122 13.0287C119.51 13.1911 119.859 13.4372 120.142 13.7496C120.705 14.3761 120.981 15.2191 120.981 16.2832C120.981 17.3474 120.701 18.1835 120.142 18.8169C119.848 19.1153 119.498 19.3523 119.111 19.5141C118.725 19.6758 118.311 19.7591 117.892 19.7591C117.473 19.7591 117.059 19.6758 116.673 19.5141C116.286 19.3523 115.936 19.1153 115.642 18.8169C115.079 18.1927 114.803 17.3474 114.803 16.2832C114.803 15.2191 115.083 14.383 115.642 13.7496C115.924 13.4376 116.272 13.1916 116.66 13.0292C117.048 12.8668 117.467 12.7919 117.887 12.8098H117.892ZM122.39 19.6115V12.9319H123.602L126.551 18.5197V12.9273H127.435V19.6069H126.21L123.257 14.0214V19.6138L122.39 19.6115Z" fill="white"/>
<path d="M42.4597 10.6211H28.5487C21.9889 10.6211 19.5852 13.0137 19.5852 19.5898V33.5299C19.5852 40.1061 21.9889 42.5121 28.5487 42.5121H42.4597C49.0087 42.5121 51.4098 40.1061 51.4098 33.5299V19.5898C51.4098 13.0137 49.0222 10.6211 42.4597 10.6211Z" fill="white"/>
<path fill-rule="evenodd" clip-rule="evenodd" d="M33.1678 29.8642L32.7829 30.7247H31.9242L33.7519 26.5599H34.4921L36.3198 30.7247H35.4477L35.0762 29.8642H33.1678ZM33.4693 29.109H34.7479L34.1072 27.6227L33.4693 29.109ZM47.0276 26.5599H47.8701V30.7247H47.0222L47.0276 26.5599ZM43.7167 29.9694H46.0316V30.7247H42.885V26.5599H45.9455V27.3287H43.7221V28.173H45.2564V28.9417H43.7221L43.7167 29.9694ZM41.3211 26.5599H42.204L40.7585 30.7355H40.0452L39.0977 27.9949L38.1395 30.7355H37.445L35.9887 26.5599H36.8959L37.8191 29.43L38.7532 26.5599H39.4449L40.3924 29.43L41.3211 26.5599ZM30.6483 26.5599H31.4935V28.9201C31.4935 30.1124 30.8394 30.8083 29.6874 30.8083C28.5353 30.8083 27.9081 30.1259 27.9081 28.9498V26.5707H28.7533V28.9282C28.7533 29.6322 29.0871 30.0072 29.7008 30.0072C30.3145 30.0072 30.6483 29.635 30.6483 28.9579V26.5599ZM25.892 26.5599H26.7345V30.7355H25.892V29.0334H23.9863V30.7355H23.1437V26.5599H23.9863V28.2377H25.892V26.5599ZM35.5042 21.2542C34.8093 21.2542 34.1211 21.1171 33.4791 20.8505C32.837 20.584 32.2536 20.1934 31.7622 19.701C31.2708 19.2086 30.881 18.6239 30.6151 17.9806C30.3491 17.3372 30.2123 16.6476 30.2123 15.9512H30.9525C30.9814 17.142 31.4738 18.2744 32.3245 19.1064C33.1752 19.9384 34.3168 20.4042 35.5056 20.4042C36.6943 20.4042 37.836 19.9384 38.6867 19.1064C39.5374 18.2744 40.0298 17.142 40.0587 15.9512H40.7989C40.7961 17.3572 40.2372 18.7048 39.2448 19.6988C38.2524 20.6928 36.9073 21.2521 35.5042 21.2542Z" fill="#E74451"/>
</svg>
