<svg width="176" height="53" viewBox="0 0 176 53" fill="none" xmlns="http://www.w3.org/2000/svg">
<g id="Social Button / Google Play">
<g id="Google Play">
<rect id="Placeholder" x="0.77832" y="0.799866" width="174.857" height="51.4286" rx="5.14286" fill="#E74451"/>
<g id="Content">
<g id="Text">
<path id="layer" fill-rule="evenodd" clip-rule="evenodd" d="M67.4013 31.0496H60.1898V33.1638H65.3043C65.0515 36.1288 62.5549 37.3931 60.1983 37.3931C57.1833 37.3931 54.5523 35.0492 54.5523 31.764C54.5523 28.5639 57.0604 26.0992 60.2049 26.0992C62.6311 26.0992 64.0607 27.6273 64.0607 27.6273L65.5592 26.0942C65.5592 26.0942 63.6359 23.9789 60.1283 23.9789C55.6619 23.9787 52.2065 27.7034 52.2065 31.7264C52.2065 35.6685 55.4568 39.5123 60.2422 39.5123C64.4508 39.5122 67.5317 36.6637 67.5317 32.4512C67.5317 31.5624 67.4011 31.049 67.4011 31.049L67.4013 31.0496Z" fill="#FFFFFE"/>
<path id="layer_2" fill-rule="evenodd" clip-rule="evenodd" d="M73.5319 29.5185C70.5725 29.5185 68.4519 31.804 68.4519 34.4701C68.4519 37.1752 70.5087 39.5035 73.5663 39.5035C76.3343 39.5035 78.602 37.413 78.602 34.5282C78.602 31.2213 75.9642 29.5185 73.5319 29.5185ZM73.5609 31.4792C75.0162 31.4792 76.3951 32.6416 76.3951 34.5146C76.3951 36.3479 75.0219 37.5435 73.5542 37.5435C71.9416 37.5435 70.6692 36.2674 70.6692 34.5002C70.6692 32.7707 71.9259 31.4792 73.5609 31.4792Z" fill="#FFFFFE"/>
<path id="layer_3" fill-rule="evenodd" clip-rule="evenodd" d="M84.6993 29.5185C81.7402 29.5185 79.6194 31.804 79.6194 34.4701C79.6194 37.1752 81.6763 39.5035 84.7341 39.5035C87.5019 39.5035 89.7696 37.413 89.7696 34.5282C89.7696 31.2213 87.132 29.5185 84.6993 29.5185ZM84.7289 31.4792C86.184 31.4792 87.5631 32.6416 87.5631 34.5146C87.5631 36.3479 86.1899 37.5435 84.7221 37.5435C83.1096 37.5435 81.8374 36.2674 81.8374 34.5002C81.8374 32.7707 83.0937 31.4792 84.7289 31.4792Z" fill="#FFFFFE"/>
<path id="layer_4" fill-rule="evenodd" clip-rule="evenodd" d="M95.6382 29.5235C92.9223 29.5235 90.7871 31.874 90.7871 34.512C90.7871 37.517 93.2623 39.5099 95.5914 39.5099C97.0318 39.5099 97.7974 38.945 98.3627 38.2967V39.2812C98.3627 41.0036 97.3042 42.035 95.7065 42.035C94.1631 42.035 93.3889 40.9012 93.1199 40.2576L91.1777 41.0598C91.8669 42.4992 93.2537 44.0002 95.7226 44.0002C98.4232 44.0002 100.481 42.3196 100.481 38.7948V29.8236H98.3629V30.6694C97.7115 29.9758 96.8207 29.5237 95.6382 29.5237V29.5235ZM95.8344 31.4808C97.1662 31.4808 98.5337 32.6043 98.5337 34.5227C98.5337 36.4728 97.1691 37.5476 95.8051 37.5476C94.3572 37.5476 93.0098 36.3859 93.0098 34.5414C93.0098 32.6247 94.4092 31.4808 95.8344 31.4808Z" fill="#FFFFFE"/>
<path id="layer_5" fill-rule="evenodd" clip-rule="evenodd" d="M110.347 29.512C107.785 29.512 105.634 31.5261 105.634 34.4978C105.634 37.6424 108.031 39.5075 110.593 39.5075C112.731 39.5075 114.043 38.352 114.826 37.3164L113.079 36.1682C112.626 36.8632 111.868 37.5426 110.603 37.5426C109.183 37.5425 108.53 36.7739 108.125 36.0295L114.901 33.2517L114.549 32.4376C113.894 30.8435 112.368 29.5123 110.347 29.5123L110.347 29.512ZM110.436 31.4318C111.359 31.4318 112.023 31.9167 112.305 32.4982L107.78 34.3667C107.585 32.9202 108.973 31.4318 110.435 31.4318H110.436Z" fill="#FFFFFE"/>
<path id="layer_6" fill-rule="evenodd" clip-rule="evenodd" d="M102.18 39.2106H104.406V24.4952H102.18V39.2106Z" fill="#FFFFFE"/>
<path id="layer_7" fill-rule="evenodd" clip-rule="evenodd" d="M132.019 39.2106H134.245V24.4952H132.019V39.2106Z" fill="#FFFFFE"/>
<path id="layer_8" fill-rule="evenodd" clip-rule="evenodd" d="M120.218 39.2106H122.443V24.4952H120.218V39.2106Z" fill="#FFFFFE"/>
<path id="layer_9" fill-rule="evenodd" clip-rule="evenodd" d="M122.443 26.6946V31.6724H125.601C126.982 31.6724 128.12 30.5482 128.12 29.1834C128.12 27.8188 126.982 26.6946 125.601 26.6946H122.443ZM120.218 24.4952H125.601C128.211 24.4952 130.346 26.6048 130.346 29.1831C130.346 31.7615 128.211 33.8708 125.601 33.8708H120.218V24.4952Z" fill="#FFFFFE"/>
<path id="layer_10" fill-rule="evenodd" clip-rule="evenodd" d="M150.677 44.0002L157.121 29.512H154.69L148.246 44.0002H150.677Z" fill="#FFFFFE"/>
<path id="layer_11" fill-rule="evenodd" clip-rule="evenodd" d="M151.396 40.684L146.427 29.512H148.858L152.285 37.2173H151.396V40.684Z" fill="#FFFFFE"/>
<path id="layer_12" fill-rule="evenodd" clip-rule="evenodd" d="M143.354 34.957C143.069 36.1807 142.109 37.0608 140.891 37.3887C138.317 38.0818 137.677 33.9505 141.502 34.5186C142.158 34.5969 142.731 34.7577 143.354 34.957ZM143.354 39.2109H145.579V33.9185C145.927 28.4599 138.923 27.176 136.273 31.111L138.064 32.2985C139.36 30.0599 143.057 30.5749 143.301 32.9739C142.189 32.6832 140.989 32.4721 139.892 32.5818C138.179 32.753 136.714 33.8275 136.481 35.5871C136.355 36.5377 136.569 37.7101 137.241 38.4244C138.288 39.537 140.007 39.6872 141.42 39.307C142.215 39.0927 142.841 38.6262 143.354 38.0232V39.2109Z" fill="#FFFFFE"/>
<path id="layer_13" fill-rule="evenodd" clip-rule="evenodd" d="M61.055 14.2135H57.6714V15.1487H60.0713C59.9526 16.4602 58.7812 17.0194 57.6755 17.0194C56.2608 17.0194 55.0263 15.9826 55.0263 14.5296C55.0263 13.1141 56.203 12.0238 57.6784 12.0238C58.8171 12.0238 59.4878 12.6998 59.4878 12.6998L60.1908 12.0217C60.1908 12.0217 59.2884 11.0861 57.6426 11.0861C55.5469 11.0859 53.9258 12.7335 53.9258 14.5128C53.9258 16.2565 55.4508 17.9567 57.696 17.9567C59.6708 17.9567 61.1164 16.6967 61.1164 14.8335C61.1164 14.4404 61.055 14.2132 61.055 14.2132V14.2135Z" fill="#FFFFFE"/>
<path id="layer_14" fill-rule="evenodd" clip-rule="evenodd" d="M75.4983 17.9567H76.6967V11.0861H75.4983V17.9567Z" fill="#FFFFFE"/>
<path id="layer_15" fill-rule="evenodd" clip-rule="evenodd" d="M68.9461 17.9567H70.0654V12.1126H71.9027V11.0861C70.3048 11.0861 68.7069 11.0861 67.1089 11.0861V12.1126H68.9461V17.9567Z" fill="#FFFFFE"/>
<path id="layer_16" fill-rule="evenodd" clip-rule="evenodd" d="M62.3152 17.9567H65.9105V16.9301H63.2527V15.0348H65.5905V14.0081H63.2527V12.1126H65.9105V11.0861H62.3152C62.3152 13.3763 62.3152 15.6664 62.3152 17.9567Z" fill="#FFFFFE"/>
<path id="layer_17" fill-rule="evenodd" clip-rule="evenodd" d="M79.7321 17.9567H80.8513V12.1126H82.6885V11.0861C81.0906 11.0861 79.4927 11.0861 77.8948 11.0861V12.1126H79.7321V17.9567Z" fill="#FFFFFE"/>
<path id="layer_18" fill-rule="evenodd" clip-rule="evenodd" d="M88.681 11.0861C86.6539 11.0859 85.0857 12.7335 85.0857 14.5131C85.0857 16.2431 86.5375 17.93 88.681 17.9567C90.8245 17.93 92.2764 16.2431 92.2764 14.5131C92.2764 12.7335 90.7081 11.0859 88.681 11.0861ZM88.6812 17.0196C87.3262 17.0036 86.1505 15.9718 86.1505 14.53C86.1505 13.1258 87.2704 12.042 88.6812 12.0244C90.0922 12.042 91.2119 13.1258 91.2119 14.53C91.2119 15.9718 90.0363 17.0036 88.6812 17.0196Z" fill="#FFFFFE"/>
<path id="layer_19" fill-rule="evenodd" clip-rule="evenodd" d="M93.4746 17.9567H94.3948V12.952L97.3498 17.9567H98.2684V11.0861H97.3482V16.0881L94.3948 11.0861H93.4746V17.9567Z" fill="#FFFFFE"/>
</g>
<g id="Icon">
<path id="layer_20" fill-rule="evenodd" clip-rule="evenodd" d="M15.7614 14.3183L27.6403 26.5326L15.8185 38.8534C15.4735 38.6282 15.2885 38.1392 15.2854 37.5076C15.2795 36.297 15.1853 17.0813 15.1783 15.6395C15.175 14.948 15.4192 14.526 15.7614 14.3183ZM31.5574 22.4502L17.1126 14.3349C16.9583 14.248 16.7831 14.1952 16.6086 14.1716L28.1316 26.0205L31.5574 22.4502ZM32.1998 30.2033L28.6265 26.5291L32.1962 22.809L37.1121 25.5703C38.3231 26.2503 37.7036 27.101 37.1121 27.4345L32.1998 30.2033ZM16.7979 38.8572C16.8986 38.8182 17.0038 38.7685 17.1129 38.707L31.5607 30.5634L28.1354 27.0413L16.7979 38.8572Z" fill="#FFFFFE"/>
</g>
</g>
</g>
</g>
</svg>
