<svg width="39" height="39" viewBox="0 0 39 39" fill="none" xmlns="http://www.w3.org/2000/svg">
<rect x="0.757812" width="38.1153" height="38.1153" rx="19.0577" fill="url(#paint0_linear_439_4322)"/>
<g clip-path="url(#clip0_439_4322)">
<path d="M19.8155 11.2462C22.3613 11.2462 22.6601 11.2575 23.6663 11.3029C24.5969 11.3445 25.1 11.4996 25.4367 11.632C25.8831 11.806 26.2008 12.0103 26.5337 12.3432C26.8666 12.6761 27.0746 12.9938 27.2449 13.4402C27.3735 13.7769 27.5324 14.28 27.574 15.2106C27.6194 16.2168 27.6307 16.5156 27.6307 19.0614C27.6307 21.6072 27.6194 21.9061 27.574 22.9123C27.5324 23.8429 27.3773 24.346 27.2449 24.6826C27.0709 25.129 26.8666 25.4468 26.5337 25.7797C26.2008 26.1125 25.8831 26.3206 25.4367 26.4908C25.1 26.6194 24.5969 26.7783 23.6663 26.8199C22.6601 26.8653 22.3613 26.8767 19.8155 26.8767C17.2696 26.8767 16.9708 26.8653 15.9646 26.8199C15.034 26.7783 14.5309 26.6232 14.1942 26.4908C13.7479 26.3168 13.4301 26.1125 13.0972 25.7797C12.7643 25.4468 12.5563 25.129 12.3861 24.6826C12.2575 24.346 12.0986 23.8429 12.057 22.9123C12.0116 21.9061 12.0002 21.6072 12.0002 19.0614C12.0002 16.5156 12.0116 16.2168 12.057 15.2106C12.0986 14.28 12.2537 13.7769 12.3861 13.4402C12.5601 12.9938 12.7643 12.6761 13.0972 12.3432C13.4301 12.0103 13.7479 11.8023 14.1942 11.632C14.5309 11.5034 15.034 11.3445 15.9646 11.3029C16.9708 11.2538 17.2734 11.2462 19.8155 11.2462ZM19.8155 9.52881C17.228 9.52881 16.9027 9.54016 15.8851 9.58555C14.8714 9.63094 14.1791 9.7936 13.5739 10.0281C12.9459 10.2702 12.4163 10.5993 11.8867 11.1289C11.3572 11.6585 11.0318 12.1919 10.7859 12.816C10.5514 13.4213 10.3888 14.1135 10.3434 15.1311C10.298 16.1449 10.2866 16.4702 10.2866 19.0576C10.2866 21.6451 10.298 21.9704 10.3434 22.988C10.3888 24.0017 10.5514 24.694 10.7859 25.303C11.028 25.931 11.3572 26.4606 11.8867 26.9901C12.4163 27.5197 12.9497 27.8451 13.5739 28.0909C14.1791 28.3255 14.8714 28.4881 15.8889 28.5335C16.9065 28.5789 17.228 28.5903 19.8192 28.5903C22.4105 28.5903 22.732 28.5789 23.7496 28.5335C24.7634 28.4881 25.4556 28.3255 26.0646 28.0909C26.6926 27.8488 27.2222 27.5197 27.7518 26.9901C28.2813 26.4606 28.6067 25.9272 28.8525 25.303C29.0871 24.6978 29.2497 24.0055 29.2951 22.988C29.3405 21.9704 29.3519 21.6489 29.3519 19.0576C29.3519 16.4664 29.3405 16.1449 29.2951 15.1273C29.2497 14.1135 29.0871 13.4213 28.8525 12.8123C28.6104 12.1843 28.2813 11.6547 27.7518 11.1251C27.2222 10.5956 26.6888 10.2702 26.0646 10.0244C25.4594 9.78982 24.7671 9.62716 23.7496 9.58177C22.7282 9.54016 22.4029 9.52881 19.8155 9.52881Z" fill="white"/>
<path d="M19.8155 11.2462C22.3613 11.2462 22.6601 11.2575 23.6663 11.3029C24.5969 11.3445 25.1 11.4996 25.4367 11.632C25.8831 11.806 26.2008 12.0103 26.5337 12.3432C26.8666 12.6761 27.0746 12.9938 27.2449 13.4402C27.3735 13.7769 27.5324 14.28 27.574 15.2106C27.6194 16.2168 27.6307 16.5156 27.6307 19.0614C27.6307 21.6072 27.6194 21.9061 27.574 22.9123C27.5324 23.8429 27.3773 24.346 27.2449 24.6826C27.0709 25.129 26.8666 25.4468 26.5337 25.7797C26.2008 26.1125 25.8831 26.3206 25.4367 26.4908C25.1 26.6194 24.5969 26.7783 23.6663 26.8199C22.6601 26.8653 22.3613 26.8767 19.8155 26.8767C17.2696 26.8767 16.9708 26.8653 15.9646 26.8199C15.034 26.7783 14.5309 26.6232 14.1942 26.4908C13.7479 26.3168 13.4301 26.1125 13.0972 25.7797C12.7643 25.4468 12.5563 25.129 12.3861 24.6826C12.2575 24.346 12.0986 23.8429 12.057 22.9123C12.0116 21.9061 12.0002 21.6072 12.0002 19.0614C12.0002 16.5156 12.0116 16.2168 12.057 15.2106C12.0986 14.28 12.2537 13.7769 12.3861 13.4402C12.5601 12.9938 12.7643 12.6761 13.0972 12.3432C13.4301 12.0103 13.7479 11.8023 14.1942 11.632C14.5309 11.5034 15.034 11.3445 15.9646 11.3029C16.9708 11.2538 17.2734 11.2462 19.8155 11.2462Z" fill="white"/>
<path d="M19.8153 14.1665C17.1144 14.1665 14.9204 16.3567 14.9204 19.0614C14.9204 21.7661 17.1106 23.9563 19.8153 23.9563C22.52 23.9563 24.7103 21.7661 24.7103 19.0614C24.7103 16.3567 22.52 14.1665 19.8153 14.1665ZM19.8153 22.2352C18.0601 22.2352 16.6378 20.8129 16.6378 19.0576C16.6378 17.3024 18.0601 15.8801 19.8153 15.8801C21.5705 15.8801 22.9929 17.3024 22.9929 19.0576C22.9929 20.8129 21.5705 22.2352 19.8153 22.2352Z" fill="url(#paint1_linear_439_4322)"/>
<path d="M24.9036 15.112C25.5346 15.112 26.046 14.6005 26.046 13.9695C26.046 13.3386 25.5346 12.8271 24.9036 12.8271C24.2727 12.8271 23.7612 13.3386 23.7612 13.9695C23.7612 14.6005 24.2727 15.112 24.9036 15.112Z" fill="url(#paint2_linear_439_4322)"/>
</g>
<defs>
<linearGradient id="paint0_linear_439_4322" x1="19.8155" y1="0" x2="19.8155" y2="38.1153" gradientUnits="userSpaceOnUse">
<stop stop-color="#E4404A"/>
<stop offset="1" stop-color="#EB4B5E"/>
</linearGradient>
<linearGradient id="paint1_linear_439_4322" x1="19.8153" y1="14.1665" x2="19.8153" y2="23.9563" gradientUnits="userSpaceOnUse">
<stop stop-color="#E4404A"/>
<stop offset="1" stop-color="#EB4B5E"/>
</linearGradient>
<linearGradient id="paint2_linear_439_4322" x1="24.9036" y1="12.8271" x2="24.9036" y2="15.112" gradientUnits="userSpaceOnUse">
<stop stop-color="#E4404A"/>
<stop offset="1" stop-color="#EB4B5E"/>
</linearGradient>
<clipPath id="clip0_439_4322">
<rect width="19.0577" height="19.0577" fill="white" transform="translate(10.2866 9.52881)"/>
</clipPath>
</defs>
</svg>
