<svg width="130" height="116" viewBox="0 0 130 116" fill="none" xmlns="http://www.w3.org/2000/svg">
<g id="Layer_2" clip-path="url(#clip0_439_4161)">
<g id="Layer 1-2">
<path id="Vector" d="M44.1583 0.293022L0.12928 62.67C0.0481576 62.7893 0.00328512 62.9291 1.25833e-07 63.0729V101.532C-8.90361e-05 101.68 0.0472075 101.824 0.135047 101.943C0.222887 102.062 0.346714 102.151 0.488615 102.195C0.630515 102.24 0.78313 102.239 0.92438 102.192C1.06563 102.146 1.18819 102.055 1.27433 101.935L72.4336 1.08052C72.5032 0.976526 72.5432 0.855899 72.5497 0.73127C72.5561 0.606641 72.5286 0.482595 72.47 0.372125C72.4115 0.261654 72.3241 0.168823 72.2169 0.103355C72.1098 0.037886 71.9869 0.00218818 71.8611 6.2714e-08H44.7308C44.6187 -4.71218e-05 44.5082 0.0265317 44.4086 0.0775119C44.309 0.128492 44.2232 0.20239 44.1583 0.293022Z" fill="#E74451"/>
<path id="Vector_2" d="M1.25833e-07 0.695927V48.312C-8.90361e-05 48.4597 0.0472075 48.6035 0.135047 48.7228C0.222887 48.8421 0.346714 48.9306 0.488615 48.9754C0.630515 49.0203 0.78313 49.0192 0.92438 48.9724C1.06563 48.9255 1.18819 48.8354 1.27433 48.7149L34.9055 1.08052C34.9751 0.976526 35.0152 0.855899 35.0216 0.73127C35.028 0.606641 35.0005 0.482595 34.942 0.372125C34.8834 0.261654 34.796 0.168823 34.6889 0.103355C34.5817 0.0378859 34.4588 0.00218812 34.333 0H0.701804C0.515674 0 0.337168 0.0733206 0.205554 0.203832C0.07394 0.334344 1.25833e-07 0.511356 1.25833e-07 0.695927Z" fill="#E74451"/>
<path id="Vector_3" d="M81.7048 0.293022L0.775666 114.919C0.7061 115.023 0.666013 115.144 0.659603 115.269C0.653192 115.393 0.680694 115.517 0.739228 115.628C0.797762 115.738 0.885175 115.831 0.992311 115.897C1.09945 115.962 1.22236 115.998 1.34819 116H34.7208C34.8329 116 34.9434 115.973 35.043 115.922C35.1426 115.872 35.2285 115.798 35.2934 115.707L116.204 1.08052C116.274 0.976526 116.314 0.855899 116.32 0.73127C116.326 0.606641 116.299 0.482595 116.24 0.372125C116.182 0.261654 116.094 0.168823 115.987 0.103355C115.88 0.037886 115.757 0.00218818 115.631 6.2714e-08H82.2588C82.1467 -4.71218e-05 82.0363 0.0265317 81.9367 0.0775119C81.8371 0.128492 81.7512 0.20239 81.6863 0.293022H81.7048Z" fill="#E74451"/>
<path id="Vector_4" d="M88.2795 103.73L129.113 115.615C129.251 115.651 129.397 115.643 129.53 115.595C129.664 115.546 129.779 115.458 129.861 115.343C129.943 115.228 129.988 115.091 129.99 114.95C129.992 114.809 129.95 114.67 129.871 114.553L88.6489 56.1686C88.5841 56.0779 88.4982 56.0039 88.3986 55.9529C88.299 55.9018 88.1885 55.8752 88.0764 55.8752C87.9642 55.8752 87.8538 55.9018 87.7541 55.9529C87.6545 56.0039 87.5687 56.0779 87.5039 56.1686L45.6172 115.487C45.587 115.536 45.572 115.593 45.5739 115.65C45.5758 115.707 45.5947 115.763 45.6281 115.81C45.6615 115.856 45.708 115.892 45.7619 115.913C45.8158 115.934 45.8747 115.939 45.9312 115.927L87.8732 103.73H88.2795Z" fill="#E74451"/>
</g>
</g>
<defs>
<clipPath id="clip0_439_4161">
<rect width="130" height="116" fill="white"/>
</clipPath>
</defs>
</svg>
