<svg width="39" height="39" viewBox="0 0 39 39" fill="none" xmlns="http://www.w3.org/2000/svg">
<rect x="0.136719" width="38.1153" height="38.1153" rx="19.0577" fill="url(#paint0_linear_439_4324)"/>
<g clip-path="url(#clip0_439_4324)">
<path d="M27.3164 9.52881H11.0724C10.6992 9.52881 10.3414 9.67703 10.0776 9.94086C9.81375 10.2047 9.66553 10.5625 9.66553 10.9356V27.1797C9.66553 27.5528 9.81375 27.9106 10.0776 28.1744C10.3414 28.4383 10.6992 28.5865 11.0724 28.5865H27.3164C27.6895 28.5865 28.0473 28.4383 28.3112 28.1744C28.575 27.9106 28.7232 27.5528 28.7232 27.1797V10.9356C28.7232 10.5625 28.575 10.2047 28.3112 9.94086C28.0473 9.67703 27.6895 9.52881 27.3164 9.52881ZM15.3458 25.7636H12.4805V16.6622H15.3458V25.7636ZM13.9112 15.401C13.5861 15.3991 13.2689 15.3011 12.9996 15.1191C12.7303 14.9372 12.5209 14.6796 12.3978 14.3787C12.2748 14.0779 12.2436 13.7474 12.3082 13.4288C12.3728 13.1103 12.5304 12.8181 12.7609 12.589C12.9915 12.3599 13.2848 12.2042 13.6037 12.1417C13.9226 12.0791 14.253 12.1124 14.553 12.2374C14.853 12.3623 15.1093 12.5734 15.2895 12.8439C15.4697 13.1144 15.5657 13.4322 15.5655 13.7572C15.5685 13.9748 15.5278 14.1908 15.4456 14.3923C15.3634 14.5938 15.2415 14.7767 15.0871 14.9301C14.9327 15.0835 14.749 15.2042 14.547 15.2851C14.345 15.366 14.1287 15.4054 13.9112 15.401ZM25.9069 25.7715H23.043V20.7993C23.043 19.3329 22.4196 18.8803 21.615 18.8803C20.7653 18.8803 19.9315 19.5209 19.9315 20.8364V25.7715H17.0663V16.6688H19.8217V17.9301H19.8587C20.1353 17.3702 21.1041 16.4134 22.5824 16.4134C24.1811 16.4134 25.9082 17.3623 25.9082 20.1416L25.9069 25.7715Z" fill="white"/>
</g>
<defs>
<linearGradient id="paint0_linear_439_4324" x1="19.1944" y1="0" x2="19.1944" y2="38.1153" gradientUnits="userSpaceOnUse">
<stop stop-color="#E4404A"/>
<stop offset="1" stop-color="#EB4B5E"/>
</linearGradient>
<clipPath id="clip0_439_4324">
<rect width="19.0577" height="19.0577" fill="white" transform="translate(9.66553 9.52881)"/>
</clipPath>
</defs>
</svg>
