   <svg
      width="13"
      height="19"
      viewBox="0 0 13 19"
      fill="none"
      xmlns="http://www.w3.org/2000/svg"
    >
      <path
        d="M6.86528 9.04736C6.28539 9.04736 5.72926 8.817 5.31921 8.40696C4.90917 7.99692 4.67881 7.44078 4.67881 6.86089C4.67881 6.281 4.90917 5.72487 5.31921 5.31482C5.72926 4.90478 6.28539 4.67442 6.86528 4.67442C7.44517 4.67442 8.00131 4.90478 8.41135 5.31482C8.82139 5.72487 9.05175 6.281 9.05175 6.86089C9.05175 7.14802 8.9952 7.43234 8.88532 7.69762C8.77544 7.96289 8.61438 8.20393 8.41135 8.40696C8.20832 8.60999 7.96728 8.77105 7.70201 8.88093C7.43673 8.99081 7.15241 9.04736 6.86528 9.04736ZM6.86528 0.73877C5.24159 0.73877 3.68441 1.38378 2.53629 2.5319C1.38817 3.68002 0.743164 5.2372 0.743164 6.86089C0.743164 11.4525 6.86528 18.2305 6.86528 18.2305C6.86528 18.2305 12.9874 11.4525 12.9874 6.86089C12.9874 5.2372 12.3424 3.68002 11.1943 2.5319C10.0462 1.38378 8.48897 0.73877 6.86528 0.73877Z"
        fill="#E74451"
      />
    </svg>