<svg width="39" height="39" viewBox="0 0 39 39" fill="none" xmlns="http://www.w3.org/2000/svg">
<rect y="0.115234" width="38.1153" height="38.1153" rx="19.0577" fill="url(#paint0_linear_439_4326)"/>
<path d="M27.3877 23.4628C24.3803 22.0302 23.901 19.8184 23.8797 19.6543C23.8539 19.4556 23.8246 19.2994 24.0474 19.0972C24.2622 18.9019 25.2154 18.3214 25.4799 18.1398C25.917 17.839 26.1095 17.5387 25.9676 17.1696C25.8684 16.9142 25.6267 16.8181 25.3722 16.8181C25.2919 16.8183 25.2119 16.8271 25.1335 16.8444C24.6532 16.947 24.1868 17.1838 23.9169 17.2477C23.8845 17.256 23.8511 17.2604 23.8176 17.2609C23.6738 17.2609 23.6192 17.1979 23.6331 17.0275C23.6668 16.5109 23.7383 15.5027 23.6554 14.5608C23.5418 13.265 23.117 12.6229 22.6134 12.0551C22.3698 11.7797 21.2385 10.5967 19.0553 10.5967C16.8721 10.5967 15.7423 11.7797 15.5002 12.0517C14.9951 12.6195 14.5708 13.2616 14.4582 14.5574C14.3753 15.4993 14.4498 16.507 14.4805 17.0241C14.4905 17.1862 14.4399 17.2575 14.296 17.2575C14.2625 17.2569 14.2292 17.2525 14.1967 17.2443C13.9273 17.1803 13.4609 16.9435 12.9806 16.841C12.9022 16.8237 12.8222 16.8149 12.7419 16.8146C12.4864 16.8146 12.2457 16.9123 12.1465 17.1662C12.0046 17.5353 12.1961 17.8356 12.6348 18.1364C12.8992 18.318 13.8524 18.898 14.0672 19.0938C14.2895 19.296 14.2607 19.4522 14.2349 19.6509C14.2136 19.8174 13.7338 22.0292 10.7269 23.4593C10.5508 23.5433 10.2511 23.721 10.7795 24.0081C11.6091 24.4593 12.1614 24.411 12.5906 24.6829C12.9548 24.9139 12.7394 25.4119 13.0044 25.5916C13.3299 25.8127 14.292 25.5759 15.5349 25.9797C16.5769 26.3176 17.21 27.2721 19.0578 27.2721C20.9056 27.2721 21.5571 26.3132 22.5807 25.9797C23.8211 25.5759 24.7852 25.8127 25.1112 25.5916C25.3757 25.4119 25.1608 24.9139 25.525 24.6829C25.9542 24.411 26.506 24.4593 27.3361 24.0081C27.8635 23.7245 27.5638 23.5467 27.3877 23.4628Z" fill="white"/>
<defs>
<linearGradient id="paint0_linear_439_4326" x1="19.0577" y1="0.115234" x2="19.0577" y2="38.2306" gradientUnits="userSpaceOnUse">
<stop stop-color="#E4404A"/>
<stop offset="1" stop-color="#EB4B5E"/>
</linearGradient>
</defs>
</svg>
