<svg width="20" height="20" viewBox="0 0 20 20" fill="none" xmlns="http://www.w3.org/2000/svg">
<g clip-path="url(#clip0_648_2140)">
<path d="M17.6291 6.23082C17.6364 6.39853 17.6364 6.55862 17.6364 6.72632C17.6438 11.8109 13.9081 17.6807 7.07652 17.6807C5.06161 17.6807 3.08347 17.0785 1.38477 15.9503C1.67891 15.9884 1.97306 16.0036 2.26721 16.0036C3.9365 16.0036 5.56166 15.4243 6.87797 14.3494C5.28958 14.3189 3.89237 13.2441 3.40703 11.6737C3.96591 11.7881 4.5395 11.7652 5.08367 11.6051C3.35555 11.2544 2.11278 9.67646 2.10543 7.8393C2.10543 7.82405 2.10543 7.8088 2.10543 7.79356C2.62019 8.09086 3.20113 8.25857 3.78942 8.27381C2.16426 7.14559 1.65685 4.89678 2.64225 3.13585C4.53215 5.54474 7.31184 7.00075 10.2974 7.16084C9.99594 5.8268 10.4077 4.42415 11.3711 3.47889C12.8639 2.02287 15.2171 2.09911 16.629 3.64659C17.4599 3.47889 18.2615 3.15872 18.9895 2.70895C18.7101 3.60085 18.1291 4.35554 17.357 4.8358C18.0924 4.74432 18.813 4.5385 19.4896 4.23357C18.9895 5.01113 18.3571 5.68196 17.6291 6.23082Z" fill="white"/>
</g>
<defs>
<clipPath id="clip0_648_2140">
<rect width="19.0577" height="19.0577" fill="white" transform="translate(0.908203 0.528809)"/>
</clipPath>
</defs>
</svg>
