<svg width="39" height="39" viewBox="0 0 39 39" fill="none" xmlns="http://www.w3.org/2000/svg">
<rect x="0.378906" width="38.1153" height="38.1153" rx="19.0577" fill="url(#paint0_linear_439_4320)"/>
<g clip-path="url(#clip0_439_4320)">
<path d="M26.6286 15.2308C26.6359 15.3985 26.6359 15.5586 26.6359 15.7263C26.6433 20.8109 22.9076 26.6807 16.076 26.6807C14.0611 26.6807 12.083 26.0785 10.3843 24.9503C10.6784 24.9884 10.9726 25.0036 11.2667 25.0036C12.936 25.0036 14.5612 24.4243 15.8775 23.3494C14.2891 23.3189 12.8919 22.2441 12.4065 20.6737C12.9654 20.7881 13.539 20.7652 14.0832 20.6051C12.3551 20.2544 11.1123 18.6765 11.1049 16.8393C11.1049 16.824 11.1049 16.8088 11.1049 16.7936C11.6197 17.0909 12.2006 17.2586 12.7889 17.2738C11.1638 16.1456 10.6564 13.8968 11.6418 12.1358C13.5317 14.5447 16.3114 16.0008 19.297 16.1608C18.9955 14.8268 19.4073 13.4241 20.3706 12.4789C21.8634 11.0229 24.2166 11.0991 25.6285 12.6466C26.4594 12.4789 27.261 12.1587 27.989 11.709C27.7096 12.6009 27.1286 13.3555 26.3565 13.8358C27.0919 13.7443 27.8125 13.5385 28.4891 13.2336C27.989 14.0111 27.3566 14.682 26.6286 15.2308Z" fill="white"/>
</g>
<defs>
<linearGradient id="paint0_linear_439_4320" x1="19.4366" y1="0" x2="19.4366" y2="38.1153" gradientUnits="userSpaceOnUse">
<stop stop-color="#E4404A"/>
<stop offset="1" stop-color="#EB4B5E"/>
</linearGradient>
<clipPath id="clip0_439_4320">
<rect width="19.0577" height="19.0577" fill="white" transform="translate(9.90771 9.52881)"/>
</clipPath>
</defs>
</svg>
