<svg width="39" height="39" viewBox="0 0 39 39" fill="none" xmlns="http://www.w3.org/2000/svg">
<rect x="0.378906" y="0.115234" width="38.1153" height="38.1153" rx="19.0577" fill="url(#paint0_linear_439_4328)"/>
<g clip-path="url(#clip0_439_4328)">
<path d="M28.5729 14.5908C28.3531 13.7745 27.7095 13.1309 26.8931 12.9111C25.4018 12.5029 19.4365 12.5029 19.4365 12.5029C19.4365 12.5029 13.4712 12.5029 11.9799 12.8954C11.1793 13.1152 10.5199 13.7745 10.3002 14.5908C9.90771 16.0821 9.90771 19.1747 9.90771 19.1747C9.90771 19.1747 9.90771 22.2829 10.3002 23.7585C10.5199 24.5748 11.1636 25.2185 11.9799 25.4382C13.4869 25.8464 19.4365 25.8464 19.4365 25.8464C19.4365 25.8464 25.4018 25.8464 26.8931 25.4539C27.7095 25.2342 28.3531 24.5905 28.5729 23.7742C28.9653 22.2829 28.9653 19.1904 28.9653 19.1904C28.9653 19.1904 28.981 16.0821 28.5729 14.5908Z" fill="white"/>
<path d="M17.5371 22.0315L22.4977 19.1745L17.5371 16.3174V22.0315Z" fill="url(#paint1_linear_439_4328)"/>
</g>
<defs>
<linearGradient id="paint0_linear_439_4328" x1="19.4366" y1="0.115234" x2="19.4366" y2="38.2306" gradientUnits="userSpaceOnUse">
<stop stop-color="#E4404A"/>
<stop offset="1" stop-color="#EB4B5E"/>
</linearGradient>
<linearGradient id="paint1_linear_439_4328" x1="20.0174" y1="16.3174" x2="20.0174" y2="22.0315" gradientUnits="userSpaceOnUse">
<stop stop-color="#E4404A"/>
<stop offset="1" stop-color="#EB4B5E"/>
</linearGradient>
<clipPath id="clip0_439_4328">
<rect width="19.0577" height="19.0577" fill="white" transform="translate(9.90771 9.64404)"/>
</clipPath>
</defs>
</svg>
