<svg width="20" height="20" viewBox="0 0 20 20" fill="none" xmlns="http://www.w3.org/2000/svg">
<g clip-path="url(#clip0_648_2148)">
<path d="M19.5733 5.59079C19.3536 4.77448 18.7099 4.13086 17.8936 3.91108C16.4023 3.50293 10.437 3.50293 10.437 3.50293C10.437 3.50293 4.47169 3.50293 2.98036 3.89538C2.17976 4.11516 1.52043 4.77448 1.30066 5.59079C0.908203 7.08211 0.908203 10.1747 0.908203 10.1747C0.908203 10.1747 0.908203 13.2829 1.30066 14.7585C1.52043 15.5748 2.16406 16.2185 2.98036 16.4382C4.48739 16.8464 10.437 16.8464 10.437 16.8464C10.437 16.8464 16.4023 16.8464 17.8936 16.4539C18.7099 16.2342 19.3536 15.5905 19.5733 14.7742C19.9658 13.2829 19.9658 10.1904 19.9658 10.1904C19.9658 10.1904 19.9815 7.08211 19.5733 5.59079Z" fill="white"/>
<path d="M8.5376 13.0315L13.4982 10.1745L8.5376 7.31738V13.0315Z" fill="url(#paint0_linear_648_2148)"/>
</g>
<defs>
<linearGradient id="paint0_linear_648_2148" x1="11.0179" y1="7.31738" x2="11.0179" y2="13.0315" gradientUnits="userSpaceOnUse">
<stop stop-color="#E4404A"/>
<stop offset="1" stop-color="#EB4B5E"/>
</linearGradient>
<clipPath id="clip0_648_2148">
<rect width="19.0577" height="19.0577" fill="white" transform="translate(0.908203 0.644043)"/>
</clipPath>
</defs>
</svg>
