<svg width="136" height="36" viewBox="0 0 136 36" fill="none" xmlns="http://www.w3.org/2000/svg">
<path fill-rule="evenodd" clip-rule="evenodd" d="M51.437 31.2393H48.6406L47.1089 26.6264H41.7846L40.3255 31.2393H37.603L42.878 15.5349H46.1361L51.437 31.2393ZM46.6473 24.6907L45.2621 20.5899C45.1156 20.171 44.841 19.1845 44.4359 17.6315H44.3866C44.2253 18.2994 43.9655 19.286 43.6084 20.5899L42.2478 24.6907H46.6473Z" fill="white"/>
<path fill-rule="evenodd" clip-rule="evenodd" d="M65.0027 25.4381C65.0027 27.3639 64.4597 28.8862 63.3737 30.0038C62.4009 30.9986 61.193 31.4954 59.7511 31.4954C58.1947 31.4954 57.0767 30.9596 56.3957 29.8881H56.3465V35.8534H53.7213V23.6432C53.7213 22.4324 53.6881 21.1898 53.624 19.9153H55.9328L56.0793 21.7102H56.1285C57.004 20.3579 58.3326 19.6829 60.1156 19.6829C61.5094 19.6829 62.673 20.2104 63.6039 21.2665C64.5373 22.3239 65.0027 23.714 65.0027 25.4381ZM62.328 25.5302C62.328 24.428 62.0694 23.5193 61.5498 22.8042C60.9822 22.0584 60.22 21.6855 59.2645 21.6855C58.6168 21.6855 58.0282 21.8932 57.5025 22.3027C56.9755 22.7157 56.6307 23.255 56.4694 23.9229C56.3881 24.2345 56.3475 24.4893 56.3475 24.69V26.5781C56.3475 27.4018 56.611 28.0968 57.138 28.6644C57.665 29.2321 58.3496 29.5153 59.1918 29.5153C60.1806 29.5153 60.9502 29.1495 61.5006 28.4202C62.0522 27.6897 62.328 26.7268 62.328 25.5302Z" fill="white"/>
<path fill-rule="evenodd" clip-rule="evenodd" d="M78.5928 25.4381C78.5928 27.3639 78.0498 28.8862 76.9625 30.0038C75.991 30.9986 74.7831 31.4954 73.3412 31.4954C71.7848 31.4954 70.6667 30.9596 69.987 29.8881H69.9378V35.8534H67.3126V23.6432C67.3126 22.4324 67.2794 21.1898 67.2153 19.9153H69.5241L69.6706 21.7102H69.7198C70.5941 20.3579 71.9227 19.6829 73.7069 19.6829C75.0995 19.6829 76.2631 20.2104 77.1965 21.2665C78.1261 22.3239 78.5928 23.714 78.5928 25.4381ZM75.9184 25.5302C75.9184 24.428 75.6586 23.5193 75.139 22.8042C74.5714 22.0584 73.8116 21.6855 72.8549 21.6855C72.206 21.6855 71.6186 21.8932 71.0916 22.3027C70.5646 22.7157 70.2211 23.255 70.0598 23.9229C69.9797 24.2345 69.9379 24.4893 69.9379 24.69V26.5781C69.9379 27.4018 70.2014 28.0968 70.7259 28.6644C71.2529 29.2309 71.9375 29.5153 72.7822 29.5153C73.771 29.5153 74.5406 29.1495 75.091 28.4202C75.6426 27.6897 75.9184 26.7268 75.9184 25.5302Z" fill="white"/>
<path fill-rule="evenodd" clip-rule="evenodd" d="M93.7874 26.8354C93.7874 28.1713 93.3035 29.2581 92.332 30.0971C91.2644 31.014 89.7782 31.4719 87.8684 31.4719C86.1052 31.4719 84.6916 31.1462 83.6216 30.4936L84.2299 28.3966C85.3824 29.0646 86.6469 29.3997 88.0248 29.3997C89.0136 29.3997 89.7831 29.1849 90.336 28.7578C90.8864 28.3306 91.161 27.757 91.161 27.0419C91.161 26.4047 90.9344 25.8678 90.4801 25.4323C90.0282 24.9969 89.2734 24.5921 88.2193 24.218C85.3504 23.1925 83.9171 21.6903 83.9171 19.7149C83.9171 18.4239 84.4195 17.3653 85.4255 16.5416C86.4278 15.7168 87.765 15.3049 89.4371 15.3049C90.9283 15.3049 92.167 15.5539 93.1557 16.0507L92.4994 18.1017C91.5759 17.6202 90.5318 17.3795 89.3633 17.3795C88.4398 17.3795 87.7182 17.5978 87.201 18.0321C86.7639 18.4203 86.5447 18.8935 86.5447 19.4541C86.5447 20.0748 86.7947 20.5881 87.2971 20.9917C87.7342 21.3646 88.5284 21.7682 89.6809 22.2036C91.0908 22.7476 92.1263 23.3837 92.7925 24.113C93.4562 24.8399 93.7874 25.7497 93.7874 26.8354Z" fill="white"/>
<path fill-rule="evenodd" clip-rule="evenodd" d="M102.467 21.8034H99.5732V27.3014C99.5732 28.6998 100.083 29.3984 101.105 29.3984C101.574 29.3984 101.963 29.3594 102.271 29.2815L102.344 31.1921C101.827 31.3773 101.146 31.4706 100.302 31.4706C99.2654 31.4706 98.4552 31.1673 97.8703 30.5619C97.2879 29.9554 96.9949 28.9381 96.9949 27.5091V21.8011H95.271V19.9129H96.9949V17.8396L99.5732 17.0938V19.9129H102.467V21.8034Z" fill="white"/>
<path fill-rule="evenodd" clip-rule="evenodd" d="M115.523 25.4839C115.523 27.2245 115.003 28.6536 113.967 29.7711C112.879 30.9217 111.436 31.4952 109.637 31.4952C107.903 31.4952 106.523 30.9441 105.494 29.8419C104.464 28.7397 103.95 27.3484 103.95 25.6715C103.95 23.9168 104.479 22.4794 105.542 21.3619C106.602 20.2432 108.033 19.6838 109.832 19.6838C111.565 19.6838 112.961 20.2349 114.013 21.3383C115.021 22.4086 115.523 23.7905 115.523 25.4839ZM112.799 25.565C112.799 24.5207 112.566 23.625 112.095 22.878C111.544 21.9741 110.758 21.5233 109.738 21.5233C108.683 21.5233 107.881 21.9753 107.331 22.878C106.859 23.6262 106.626 24.536 106.626 25.6122C106.626 26.6566 106.859 27.5523 107.331 28.2981C107.898 29.202 108.691 29.6528 109.715 29.6528C110.717 29.6528 111.504 29.1926 112.071 28.2745C112.555 27.5133 112.799 26.6082 112.799 25.565Z" fill="white"/>
<path fill-rule="evenodd" clip-rule="evenodd" d="M124.056 22.128C123.796 22.0819 123.519 22.0583 123.229 22.0583C122.305 22.0583 121.591 22.3923 121.089 23.0614C120.651 23.6514 120.432 24.3972 120.432 25.2976V31.2393H117.808L117.833 23.4815C117.833 22.1764 117.8 20.988 117.734 19.9165H120.021L120.117 22.0831H120.19C120.467 21.3385 120.904 20.739 121.502 20.2894C122.087 19.8847 122.719 19.6829 123.4 19.6829C123.642 19.6829 123.861 19.6994 124.056 19.7289V22.128Z" fill="white"/>
<path fill-rule="evenodd" clip-rule="evenodd" d="M135.797 25.0418C135.797 25.4926 135.766 25.8726 135.701 26.1829H127.825C127.856 27.3017 128.236 28.1572 128.968 28.7472C129.631 29.2747 130.49 29.5391 131.544 29.5391C132.71 29.5391 133.774 29.3609 134.73 29.0033L135.142 30.7498C134.024 31.2171 132.704 31.4496 131.18 31.4496C129.348 31.4496 127.91 30.9327 126.863 29.9002C125.819 28.8676 125.296 27.481 125.296 25.7416C125.296 24.034 125.782 22.612 126.756 21.478C127.776 20.2672 129.154 19.6619 130.887 19.6619C132.59 19.6619 133.879 20.2672 134.755 21.478C135.448 22.4398 135.797 23.6293 135.797 25.0418ZM133.293 24.3895C133.311 23.6437 133.14 22.9994 132.784 22.4553C132.329 21.7556 131.631 21.4063 130.692 21.4063C129.833 21.4063 129.135 21.7473 128.602 22.4317C128.165 22.9758 127.905 23.6283 127.825 24.3883H133.293V24.3895Z" fill="white"/>
<path fill-rule="evenodd" clip-rule="evenodd" d="M45.7793 5.87344C45.7793 7.26238 45.3446 8.30792 44.4765 9.01007C43.6725 9.65793 42.5298 9.98245 41.0497 9.98245C40.3159 9.98245 39.6879 9.95176 39.1621 9.8904V2.30136C39.848 2.19515 40.5868 2.14087 41.3847 2.14087C42.7945 2.14087 43.8572 2.43471 44.5738 3.02238C45.3766 3.68676 45.7793 4.63672 45.7793 5.87344ZM44.4184 5.9072C44.4184 5.00681 44.1697 4.31646 43.6722 3.835C43.1748 3.35471 42.4483 3.11397 41.4916 3.11397C41.0852 3.11397 40.7392 3.13993 40.4523 3.19422V8.96359C40.6112 8.98719 40.9018 8.99781 41.3241 8.99781C42.3116 8.99781 43.0738 8.73465 43.6107 8.20834C44.1475 7.68203 44.4184 6.91498 44.4184 5.9072Z" fill="white"/>
<path fill-rule="evenodd" clip-rule="evenodd" d="M52.9936 7.08697C52.9936 7.94253 52.7387 8.64349 52.229 9.1934C51.6946 9.75866 50.9866 10.0407 50.1025 10.0407C49.2504 10.0407 48.5719 9.77046 48.0659 9.22762C47.561 8.68597 47.3086 8.00271 47.3086 7.17902C47.3086 6.31757 47.5684 5.6107 48.0905 5.06197C48.6126 4.51324 49.3144 4.23828 50.1985 4.23828C51.0506 4.23828 51.7352 4.50852 52.2536 5.05017C52.7461 5.57648 52.9936 6.2562 52.9936 7.08697ZM51.6554 7.12678C51.6554 6.61345 51.5397 6.17329 51.3094 5.80628C51.0385 5.36258 50.6531 5.14072 50.1519 5.14072C49.6336 5.14072 49.2395 5.36258 48.9686 5.80628C48.7372 6.17329 48.6226 6.62053 48.6226 7.1492C48.6226 7.66254 48.7384 8.1027 48.9686 8.46971C49.2482 8.91341 49.6373 9.13527 50.1396 9.13527C50.6322 9.13527 51.0188 8.90987 51.2971 8.4579C51.536 8.08382 51.6554 7.64011 51.6554 7.12678Z" fill="white"/>
<path fill-rule="evenodd" clip-rule="evenodd" d="M62.6668 4.35132L60.8506 9.91418H59.6685L58.9162 7.49857C58.7253 6.89555 58.5702 6.29608 58.4495 5.70132H58.4261C58.3141 6.3126 58.1589 6.91089 57.9594 7.49857L57.1603 9.91418H55.9647L54.2568 4.35132H55.583L56.2393 6.99586C56.3981 7.6213 56.5286 8.21723 56.6333 8.78131H56.6567C56.7527 8.31636 56.9116 7.72396 57.1357 7.00766L57.9594 4.3525H59.011L59.8003 6.95102C59.9911 7.58471 60.1463 8.19481 60.2657 8.78249H60.3014C60.3888 8.21015 60.5206 7.60006 60.6954 6.95102L61.3998 4.3525H62.6668V4.35132Z" fill="white"/>
<path fill-rule="evenodd" clip-rule="evenodd" d="M69.3564 9.9143H68.066V6.72811C68.066 5.74629 67.6769 5.25538 66.8962 5.25538C66.5133 5.25538 66.2042 5.38991 65.9641 5.66015C65.7264 5.93038 65.6058 6.249 65.6058 6.61364V9.91312H64.3153V5.941C64.3153 5.45245 64.2993 4.9226 64.2686 4.34909H65.4026L65.4629 5.2188H65.4986C65.6489 4.94856 65.873 4.72553 66.1673 4.54734C66.517 4.33965 66.9085 4.23462 67.337 4.23462C67.8788 4.23462 68.3295 4.40219 68.6878 4.73851C69.1335 5.15035 69.3564 5.76517 69.3564 6.58178V9.9143Z" fill="white"/>
<path fill-rule="evenodd" clip-rule="evenodd" d="M72.9152 9.91418H71.626V1.79883H72.9152V9.91418Z" fill="white"/>
<path fill-rule="evenodd" clip-rule="evenodd" d="M80.5127 7.08697C80.5127 7.94253 80.2578 8.64349 79.748 9.1934C79.2136 9.75866 78.5044 10.0407 77.6215 10.0407C76.7682 10.0407 76.0897 9.77046 75.5849 9.22762C75.0801 8.68597 74.8276 8.00271 74.8276 7.17902C74.8276 6.31757 75.0874 5.6107 75.6095 5.06197C76.1316 4.51324 76.8335 4.23828 77.7163 4.23828C78.5696 4.23828 79.253 4.50852 79.7726 5.05017C80.2652 5.57648 80.5127 6.2562 80.5127 7.08697ZM79.173 7.12678C79.173 6.61345 79.0572 6.17329 78.827 5.80628C78.5573 5.36258 78.1707 5.14072 77.6708 5.14072C77.1511 5.14072 76.7571 5.36258 76.4875 5.80628C76.256 6.17329 76.1414 6.62053 76.1414 7.1492C76.1414 7.66254 76.2572 8.1027 76.4875 8.46971C76.767 8.91341 77.1561 9.13527 77.6584 9.13527C78.151 9.13527 78.5364 8.90987 78.8147 8.4579C79.0548 8.08382 79.173 7.64011 79.173 7.12678Z" fill="white"/>
<path fill-rule="evenodd" clip-rule="evenodd" d="M86.7579 9.91443H85.5992L85.5032 9.27365H85.4675C85.071 9.78462 84.5058 10.0407 83.7719 10.0407C83.224 10.0407 82.7807 9.87194 82.447 9.5368C82.1441 9.23235 81.9927 8.85354 81.9927 8.40393C81.9927 7.72421 82.2882 7.20616 82.8829 6.84742C83.4764 6.48868 84.3113 6.31285 85.3862 6.32111V6.21726C85.3862 5.48444 84.9848 5.11861 84.1807 5.11861C83.6082 5.11861 83.1033 5.25668 82.6674 5.53046L82.4052 4.71857C82.9445 4.39877 83.6106 4.23828 84.3962 4.23828C85.9132 4.23828 86.6742 5.00533 86.6742 6.53942V8.58803C86.6742 9.14384 86.7025 9.58637 86.7579 9.91443ZM85.4178 8.00259V7.14468C83.9944 7.12107 83.2827 7.49516 83.2827 8.26574C83.2827 8.55604 83.364 8.77317 83.5302 8.91832C83.6964 9.06347 83.9082 9.13546 84.1606 9.13546C84.4438 9.13546 84.7086 9.04931 84.9499 8.8782C85.1925 8.70591 85.3415 8.4876 85.3969 8.21972C85.4104 8.15954 85.4178 8.08637 85.4178 8.00259Z" fill="white"/>
<path fill-rule="evenodd" clip-rule="evenodd" d="M94.0903 9.91418H92.9451L92.8848 9.02087H92.8491C92.4834 9.70059 91.8603 10.0405 90.9849 10.0405C90.2855 10.0405 89.7031 9.77729 89.2413 9.25098C88.7796 8.72467 88.5493 8.04141 88.5493 7.20238C88.5493 6.30198 88.7993 5.5727 89.3017 5.0157C89.788 4.49647 90.384 4.23686 91.0932 4.23686C91.8727 4.23686 92.4181 4.48821 92.7284 4.9921H92.7531V1.79883H94.0447V8.41549C94.0447 8.95714 94.0595 9.45631 94.0903 9.91418ZM92.7529 7.56806V6.64053C92.7529 6.48004 92.7406 6.35023 92.7172 6.2511C92.6445 5.95373 92.4881 5.70355 92.2505 5.50176C92.0104 5.29997 91.721 5.19848 91.3873 5.19848C90.9059 5.19848 90.5291 5.38139 90.252 5.74839C89.9775 6.1154 89.8383 6.58388 89.8383 7.15622C89.8383 7.70613 89.9701 8.1522 90.2348 8.4956C90.5143 8.86142 90.8911 9.04433 91.3627 9.04433C91.7863 9.04433 92.1249 8.8921 92.3822 8.58647C92.631 8.30443 92.7529 7.96457 92.7529 7.56806Z" fill="white"/>
<path fill-rule="evenodd" clip-rule="evenodd" d="M105.126 7.08697C105.126 7.94253 104.872 8.64349 104.362 9.1934C103.827 9.75866 103.121 10.0407 102.235 10.0407C101.384 10.0407 100.706 9.77046 100.199 9.22762C99.6938 8.68597 99.4414 8.00271 99.4414 7.17902C99.4414 6.31757 99.7012 5.6107 100.223 5.06197C100.745 4.51324 101.447 4.23828 102.333 4.23828C103.183 4.23828 103.869 4.50852 104.386 5.05017C104.879 5.57648 105.126 6.2562 105.126 7.08697ZM103.789 7.12678C103.789 6.61345 103.674 6.17329 103.443 5.80628C103.171 5.36258 102.787 5.14072 102.285 5.14072C101.767 5.14072 101.373 5.36258 101.101 5.80628C100.87 6.17329 100.755 6.62053 100.755 7.1492C100.755 7.66254 100.871 8.1027 101.101 8.46971C101.381 8.91341 101.77 9.13527 102.272 9.13527C102.765 9.13527 103.153 8.90987 103.431 8.4579C103.669 8.08382 103.789 7.64011 103.789 7.12678Z" fill="white"/>
<path fill-rule="evenodd" clip-rule="evenodd" d="M112.065 9.9143H110.776V6.72811C110.776 5.74629 110.387 5.25538 109.605 5.25538C109.222 5.25538 108.913 5.38991 108.674 5.66015C108.435 5.93038 108.316 6.249 108.316 6.61364V9.91312H107.024V5.941C107.024 5.45245 107.009 4.9226 106.979 4.34909H108.111L108.172 5.2188H108.207C108.359 4.94856 108.583 4.72553 108.876 4.54734C109.227 4.33965 109.617 4.23462 110.047 4.23462C110.588 4.23462 111.038 4.40219 111.397 4.73851C111.843 5.15035 112.065 5.76517 112.065 6.58178V9.9143Z" fill="white"/>
<path fill-rule="evenodd" clip-rule="evenodd" d="M120.749 5.27783H119.329V7.98019C119.329 8.66699 119.581 9.01039 120.081 9.01039C120.312 9.01039 120.504 8.99151 120.656 8.95257L120.689 9.89073C120.434 9.98277 120.099 10.0288 119.687 10.0288C119.177 10.0288 118.781 9.88011 118.494 9.58273C118.206 9.28535 118.063 8.785 118.063 8.08286V5.27783H117.214V4.35147H118.063V3.33189L119.327 2.96606V4.35029H120.748V5.27783H120.749Z" fill="white"/>
<path fill-rule="evenodd" clip-rule="evenodd" d="M127.581 9.91418H126.289V6.75159C126.289 5.75443 125.9 5.25526 125.121 5.25526C124.522 5.25526 124.114 5.54438 123.89 6.12261C123.851 6.24416 123.829 6.39285 123.829 6.5675V9.913H122.54V1.79883H123.829V5.15141H123.854C124.26 4.54132 124.843 4.23686 125.597 4.23686C126.132 4.23686 126.574 4.40443 126.925 4.74075C127.362 5.15967 127.581 5.78275 127.581 6.60644V9.91418Z" fill="white"/>
<path fill-rule="evenodd" clip-rule="evenodd" d="M134.628 6.86996C134.628 7.09182 134.611 7.27827 134.58 7.4305H130.71C130.727 7.98041 130.912 8.39934 131.27 8.68963C131.597 8.94925 132.02 9.07906 132.537 9.07906C133.11 9.07906 133.632 8.99173 134.102 8.8159L134.304 9.67499C133.754 9.90393 133.106 10.0184 132.356 10.0184C131.457 10.0184 130.749 9.76468 130.237 9.25725C129.722 8.74982 129.467 8.06892 129.467 7.21454C129.467 6.37551 129.705 5.67691 130.184 5.11992C130.684 4.52516 131.36 4.22778 132.213 4.22778C133.048 4.22778 133.682 4.52516 134.111 5.11992C134.457 5.59195 134.628 6.17608 134.628 6.86996ZM133.397 6.55037C133.407 6.18336 133.322 5.8671 133.147 5.60041C132.923 5.25701 132.582 5.08472 132.12 5.08472C131.699 5.08472 131.355 5.25229 131.093 5.58861C130.879 5.85648 130.752 6.17628 130.71 6.55037H133.397Z" fill="white"/>
<path fill-rule="evenodd" clip-rule="evenodd" d="M19.9133 17.5166C19.8802 13.9207 22.9174 12.1713 23.0563 12.0899C21.3362 9.63199 18.6701 9.29617 17.7333 9.26939C15.4941 9.03845 13.322 10.5826 12.1814 10.5826C11.018 10.5826 9.26145 9.29171 7.36833 9.32964C4.9322 9.36646 2.65317 10.7488 1.40323 12.8954C-1.17634 17.2723 0.747521 23.7042 3.21894 27.2421C4.45522 28.9748 5.89982 30.9094 7.79066 30.8413C9.64053 30.7666 10.3315 29.6855 12.5639 29.6855C14.7758 29.6855 15.4246 30.8413 17.353 30.7978C19.3384 30.7666 20.5883 29.0573 21.7813 27.309C23.21 25.3231 23.7837 23.3673 23.8065 23.2669C23.7598 23.2513 19.9508 21.8265 19.9133 17.5166Z" fill="white"/>
<path fill-rule="evenodd" clip-rule="evenodd" d="M15.4295 4.9024C16.4245 3.68295 17.1052 2.02391 16.9162 0.340332C15.4762 0.402811 13.6753 1.31656 12.6382 2.50924C11.7207 3.56022 10.9011 5.28285 11.1128 6.90284C12.7304 7.0211 14.3913 6.10289 15.4295 4.9024Z" fill="white"/>
</svg>
