<svg width="138" height="33" viewBox="0 0 138 33" fill="none" xmlns="http://www.w3.org/2000/svg">
<path d="M48.7707 22.3382L46.3917 15.8889L44.022 22.3382H48.7707ZM40.4731 27.1198L45.408 14.1568H47.3847L52.3196 27.1106H50.4969L49.3177 23.7846H43.4979L42.3188 27.1106L40.4731 27.1198ZM55.6708 25.6642V30.8167H54.0779V17.4022H55.6708V18.8694C55.9673 18.3324 56.4065 17.8883 56.9396 17.5864C57.5064 17.29 58.1393 17.1433 58.7784 17.1603C59.3351 17.1485 59.8864 17.2706 60.3863 17.5162C60.8862 17.7619 61.32 18.124 61.6516 18.5722C62.3947 19.5059 62.7656 20.7389 62.764 22.2714C62.764 23.7985 62.394 25.0353 61.6516 25.9728C61.3183 26.4184 60.8838 26.7778 60.3841 27.0214C59.8844 27.265 59.3339 27.3856 58.7784 27.3732C58.1406 27.3905 57.5086 27.248 56.9396 26.9586C56.4092 26.6521 55.971 26.2081 55.6708 25.6734V25.6642ZM61.0976 22.2714C61.0976 21.0997 60.8532 20.1784 60.3644 19.5074C60.1472 19.1852 59.8519 18.9238 59.506 18.7477C59.1602 18.5716 58.7753 18.4867 58.3877 18.5008C57.997 18.4883 57.6095 18.5738 57.2602 18.7496C56.911 18.9254 56.6111 19.1859 56.388 19.5074C55.9068 20.1784 55.667 21.0997 55.6685 22.2714C55.6701 23.443 55.9099 24.3643 56.388 25.0353C56.6132 25.354 56.9137 25.6117 57.2627 25.7853C57.6117 25.959 57.9982 26.0432 58.3877 26.0304C58.7741 26.0445 59.1578 25.9608 59.5033 25.7868C59.8488 25.6129 60.145 25.3544 60.3644 25.0353C60.8532 24.3689 61.0976 23.4476 61.0976 22.2714ZM66.9404 25.6734V30.8259H65.3314V17.4022H66.9404V18.8694C67.234 18.3342 67.669 17.8903 68.1977 17.5864C68.7649 17.2911 69.3975 17.1445 70.0365 17.1603C70.5914 17.1494 71.1408 17.2719 71.6386 17.5176C72.1365 17.7633 72.5684 18.1249 72.8981 18.5722C73.6413 19.5059 74.0121 20.7389 74.0106 22.2714C74.0106 23.7985 73.6406 25.0353 72.8981 25.9728C72.5668 26.4176 72.1343 26.7767 71.6366 27.0203C71.1388 27.2638 70.5903 27.3848 70.0365 27.3732C69.3988 27.3892 68.7671 27.2468 68.1977 26.9586C67.6712 26.6509 67.2369 26.207 66.9404 25.6734ZM72.3557 22.2806C72.3557 21.109 72.1113 20.1876 71.6225 19.5166C71.4053 19.1945 71.11 18.933 70.7641 18.7569C70.4183 18.5808 70.0334 18.4959 69.6457 18.5101C69.2551 18.4975 68.8676 18.583 68.5183 18.7588C68.1691 18.9346 67.8692 19.1951 67.6461 19.5166C67.1726 20.1876 66.9358 21.109 66.9358 22.2806C66.9358 23.4522 67.1726 24.3735 67.6461 25.0446C67.8713 25.3632 68.1718 25.6209 68.5208 25.7945C68.8698 25.9682 69.2563 26.0524 69.6457 26.0396C70.0322 26.0537 70.4159 25.97 70.7614 25.796C71.1069 25.6221 71.4031 25.3636 71.6225 25.0446C72.1097 24.372 72.3542 23.4476 72.3557 22.2714V22.2806ZM85.4779 25.2749V21.7969H82.63V20.3527H87.227V25.9221C86.5449 26.406 85.7888 26.7756 84.9883 27.0162C84.1435 27.2607 83.268 27.3818 82.3887 27.3755C80.3645 27.3755 78.7816 26.7836 77.64 25.5997C76.4984 24.4157 75.9306 22.7681 75.9368 20.6567C75.9368 18.5423 76.5045 16.8939 77.64 15.7115C78.7754 14.5292 80.3583 13.9341 82.3887 13.9265C83.197 13.9229 84.002 14.0298 84.7814 14.2443C85.5263 14.4412 86.2365 14.7519 86.8869 15.1656V17.0359C86.2749 16.5026 85.5749 16.0802 84.8182 15.7875C84.0837 15.51 83.3047 15.3695 82.5197 15.3729C80.9414 15.3729 79.7515 15.8136 78.9501 16.695C78.1487 17.5765 77.7556 18.8962 77.771 20.6544C77.771 22.4027 78.1617 23.7224 78.9501 24.6023C79.7385 25.4822 80.9406 25.9244 82.5197 25.9244C83.0766 25.9303 83.6326 25.8793 84.1792 25.7724C84.6384 25.6773 85.0793 25.5086 85.4848 25.2726L85.4779 25.2749ZM96.2878 22.2184H94.7064C93.4146 22.2184 92.5251 22.3658 92.0286 22.6791C91.5322 22.9923 91.2862 23.4737 91.2862 24.19C91.2742 24.443 91.3181 24.6956 91.4146 24.9297C91.5112 25.1638 91.658 25.3737 91.8448 25.5444C92.2719 25.8932 92.814 26.0691 93.3641 26.0373C93.7667 26.0525 94.1675 25.9757 94.5362 25.8129C94.9049 25.6501 95.232 25.4055 95.4925 25.0975C96.0258 24.471 96.2916 23.6349 96.2901 22.5892V22.2184H96.2878ZM97.8807 21.5642V27.1106H96.2878V25.6342C95.9637 26.1873 95.4957 26.6419 94.934 26.9494C94.3091 27.2428 93.6241 27.3849 92.9343 27.364C91.9459 27.364 91.1529 27.0853 90.5668 26.5302C90.2727 26.2359 90.0431 25.8833 89.8927 25.495C89.7424 25.1068 89.6744 24.6913 89.6934 24.2752C89.6934 23.1881 90.0573 22.3627 90.7852 21.7992C91.513 21.2356 92.604 20.9585 94.0582 20.9677H96.2878V20.8364C96.306 20.5152 96.2503 20.1941 96.1252 19.8978C96.0001 19.6015 95.8088 19.3379 95.566 19.1273C95.0864 18.7281 94.4107 18.5285 93.5388 18.5285C92.9965 18.5286 92.4563 18.5943 91.9298 18.7243C91.3995 18.8577 90.8888 19.0598 90.4105 19.3254V17.8421C90.9631 17.6264 91.5328 17.4576 92.1137 17.3377C92.637 17.2238 93.171 17.1659 93.7066 17.1649C95.1102 17.1649 96.1591 17.5288 96.8532 18.2567C97.5267 18.9937 97.8715 20.0901 97.8715 21.5735L97.8807 21.5642ZM101.165 27.1106V13.6201H102.758V27.1198L101.165 27.1106ZM106.093 27.1106V13.6201H107.686V27.1198L106.093 27.1106ZM119.268 21.8476V22.6376H111.943C112.01 23.7294 112.336 24.5701 112.927 25.1528C113.517 25.7355 114.349 26.005 115.407 26.005C116.004 26.0013 116.598 25.924 117.177 25.7747C117.773 25.6177 118.349 25.3896 118.891 25.0952V26.6062C118.324 26.8468 117.735 27.0342 117.133 27.1659C116.533 27.2895 115.923 27.352 115.31 27.3525C113.766 27.3525 112.552 26.8918 111.633 25.9958C110.713 25.0998 110.279 23.8814 110.279 22.3405C110.279 20.745 110.709 19.4836 111.568 18.5561C112.426 17.6141 113.586 17.1442 115.039 17.1442C116.345 17.1442 117.374 17.568 118.128 18.4156C118.882 19.2632 119.259 20.4103 119.259 21.8568L119.268 21.8476ZM111.987 21.3869H117.664C117.687 20.6183 117.423 19.8687 116.922 19.2863C116.681 19.0275 116.388 18.824 116.062 18.69C115.736 18.556 115.384 18.4946 115.032 18.5101C114.248 18.4727 113.48 18.7437 112.892 19.2655C112.364 19.7792 112.06 20.4863 111.977 21.3984L111.987 21.3869ZM127.437 17.2409V18.8809C127.252 18.7756 127.052 18.698 126.844 18.6506C126.618 18.5962 126.387 18.5699 126.155 18.5722C125.254 18.5722 124.559 18.8694 124.07 19.4567C123.58 20.0441 123.35 20.8825 123.35 21.9904V27.1129H121.758V17.4022H123.35V18.9131C123.651 18.3561 124.107 17.8991 124.663 17.5979C125.267 17.2902 125.939 17.1398 126.617 17.1603C126.741 17.1615 126.865 17.1731 126.987 17.1949C127.135 17.2036 127.282 17.222 127.428 17.2501L127.437 17.2409ZM137.415 17.3929L133.158 28.0066C132.708 29.1675 132.268 29.926 131.839 30.2823C131.346 30.6527 130.739 30.8385 130.124 30.8074H128.844V29.4738H129.784C130.153 29.4954 130.518 29.3826 130.811 29.156C131.041 28.951 131.317 28.465 131.609 27.6772L131.905 26.9563L127.973 17.3929H129.664L132.701 24.9939L135.723 17.3929H137.415Z" fill="white"/>
<path d="M40.3743 9.61225V2.93263H44.5874V3.68812H41.2684V5.66897H44.4472V6.43598H41.2684V8.85906H44.6748V9.62607H40.3743V9.61225ZM47.9088 6.04672L45.8401 2.92803H46.8124L48.4788 5.40409L50.1383 2.91881H51.1106L48.9707 6.12733L51.2508 9.60302H50.2785L48.4121 6.76074L46.5136 9.60302H45.5413L47.9088 6.04672ZM54.4595 3.672H53.3241V6.1803H54.4549C54.8103 6.20155 55.1607 6.08809 55.4364 5.86245C55.5551 5.73756 55.6466 5.58934 55.7051 5.42719C55.7637 5.26503 55.788 5.09246 55.7766 4.92039C55.7869 4.75156 55.762 4.58242 55.7035 4.42378C55.6449 4.26514 55.5539 4.12049 55.4364 3.99907C55.164 3.76658 54.812 3.6493 54.4549 3.672H54.4595ZM52.4299 9.61225V2.93263H54.4549C55.2043 2.93263 55.7697 3.09847 56.1581 3.43706C56.3546 3.6292 56.5073 3.86166 56.6057 4.1185C56.7041 4.37533 56.7459 4.65046 56.7282 4.925C56.7282 5.58836 56.5397 6.08817 56.1581 6.42445C55.7766 6.76074 55.2043 6.92888 54.4549 6.92888H53.3195V9.62145H52.4254L52.4299 9.61225ZM57.9464 9.61225V2.93263H58.852V8.85906H62.1044V9.62376L57.9464 9.61225ZM65.4349 3.54301C65.1339 3.53273 64.8346 3.59369 64.5615 3.72094C64.2883 3.8482 64.049 4.03818 63.8628 4.27547C63.4858 4.76607 63.295 5.42712 63.295 6.27935C63.295 7.13157 63.4835 7.78802 63.8628 8.28323C64.0488 8.5208 64.2881 8.71111 64.5613 8.83877C64.8344 8.96642 65.1337 9.02781 65.4349 9.01799C65.7331 9.02921 66.0295 8.9683 66.2992 8.8404C66.5688 8.71251 66.8038 8.52139 66.9841 8.28323C67.368 7.78802 67.5633 7.12005 67.5633 6.27935C67.5633 5.43864 67.3703 4.76607 66.9841 4.27547C66.8044 4.03623 66.5691 3.84451 66.2988 3.71688C66.0285 3.58925 65.7312 3.52958 65.4326 3.54301H65.4349ZM65.4349 2.81056C65.854 2.79321 66.2718 2.8684 66.6586 3.03079C67.0455 3.19319 67.392 3.43883 67.6737 3.75031C68.2368 4.37681 68.5126 5.21983 68.5126 6.28396C68.5126 7.34809 68.2322 8.18419 67.6737 8.8176C67.3922 9.12938 67.0457 9.37536 66.6588 9.53815C66.272 9.70093 65.8542 9.77655 65.4349 9.75965C65.0123 9.7768 64.5909 9.70141 64.2003 9.53871C63.8097 9.37601 63.4592 9.12992 63.1732 8.8176C62.6101 8.1934 62.3342 7.34809 62.3342 6.28396C62.3342 5.21983 62.6147 4.38372 63.1732 3.75031C63.4588 3.43821 63.8089 3.1924 64.1992 3.03008C64.5895 2.86775 65.0104 2.79283 65.4326 2.81056H65.4349ZM73.0889 6.47283C73.3138 6.56083 73.5108 6.70804 73.659 6.89894C73.8779 7.17123 74.0645 7.46803 74.2152 7.78341L75.1346 9.60994H74.1624L73.3119 7.89166C73.1662 7.5522 72.9472 7.24934 72.6706 7.00489C72.4149 6.84957 72.1189 6.77419 71.8202 6.78838H70.8364V9.60994H69.9308V2.93033H71.9719C72.7373 2.93033 73.305 3.08926 73.6866 3.41172C74.0681 3.73419 74.2451 4.20867 74.2451 4.8559C74.2585 5.2292 74.1548 5.59731 73.9486 5.90851C73.7353 6.19113 73.4306 6.39063 73.0867 6.47283H73.0889ZM71.965 3.672H70.8295V6.04672H71.965C72.3198 6.07316 72.6714 5.96367 72.9487 5.74037C73.0651 5.62531 73.1557 5.4867 73.2143 5.33378C73.273 5.18086 73.2984 5.01715 73.2889 4.85359C73.3007 4.69016 73.2763 4.52613 73.2175 4.37324C73.1587 4.22034 73.0669 4.08235 72.9487 3.96912C72.6679 3.75158 72.3167 3.64576 71.9627 3.672H71.965ZM76.2908 9.61225V2.93263H80.5039V3.68812H77.1964V5.66897H80.3752V6.43598H77.1964V8.85906H80.5936V9.62607H76.2908V9.61225ZM84.9815 9.61225V2.93263H85.8871V9.61225H84.9815ZM86.7628 3.68351V2.92803H92.4056V3.68351H90.0359V9.61225H89.1303V3.68351H86.7628ZM98.892 3.54301C98.5928 3.53195 98.2953 3.59264 98.0243 3.72004C97.7532 3.84744 97.5164 4.03786 97.3336 4.27547C96.9475 4.76607 96.7521 5.42712 96.7521 6.27935C96.7521 7.13157 96.9452 7.78802 97.3336 8.28323C97.5237 8.51312 97.7619 8.69818 98.0315 8.8252C98.3011 8.95222 98.5953 9.01808 98.8932 9.01808C99.1911 9.01808 99.4853 8.95222 99.7549 8.8252C100.024 8.69818 100.263 8.51312 100.453 8.28323C100.83 7.78802 101.02 7.12005 101.02 6.27935C101.02 5.43864 100.832 4.76607 100.453 4.27547C100.269 4.03689 100.031 3.84586 99.759 3.71842C99.4866 3.59098 99.1878 3.53083 98.8874 3.54301H98.892ZM98.892 2.81056C99.3129 2.7923 99.7327 2.86701 100.122 3.02942C100.51 3.19182 100.859 3.43793 101.142 3.75031C101.705 4.37681 101.981 5.21983 101.981 6.28396C101.981 7.34809 101.701 8.18419 101.142 8.8176C100.848 9.11608 100.498 9.35306 100.111 9.51481C99.7251 9.67655 99.3107 9.75983 98.892 9.75983C98.4734 9.75983 98.0589 9.67655 97.6726 9.51481C97.2864 9.35306 96.936 9.11608 96.6418 8.8176C96.0787 8.1934 95.8028 7.34809 95.8028 6.28396C95.8028 5.21983 96.0833 4.38372 96.6418 3.75031C96.9245 3.43829 97.2722 3.19237 97.6602 3.02997C98.0483 2.86757 98.4673 2.79266 98.8874 2.81056H98.892ZM103.39 9.61225V2.93263H104.602L107.551 8.52047V2.92803H108.435V9.60764H107.21L104.257 4.0221V9.61455L103.39 9.61225Z" fill="white"/>
<path d="M23.4597 0.621582H9.54874C2.98895 0.621582 0.585205 3.01414 0.585205 9.59034V23.5304C0.585205 30.1066 2.98895 32.5126 9.54874 32.5126H23.4597C30.0087 32.5126 32.4098 30.1066 32.4098 23.5304V9.59034C32.4098 3.01414 30.0222 0.621582 23.4597 0.621582Z" fill="white"/>
<path fill-rule="evenodd" clip-rule="evenodd" d="M14.1678 19.8645L13.7829 20.7249H12.9242L14.7519 16.5602H15.4921L17.3198 20.7249H16.4477L16.0762 19.8645H14.1678ZM14.4693 19.1092H15.7479L15.1072 17.623L14.4693 19.1092ZM28.0276 16.5602H28.8701V20.7249H28.0222L28.0276 16.5602ZM24.7167 19.9697H27.0316V20.7249H23.885V16.5602H26.9455V17.3289H24.7221V18.1732H26.2564V18.942H24.7221L24.7167 19.9697ZM22.3211 16.5602H23.204L21.7585 20.7357H21.0452L20.0977 17.9952L19.1395 20.7357H18.445L16.9887 16.5602H17.8959L18.8191 19.4302L19.7532 16.5602H20.4449L21.3924 19.4302L22.3211 16.5602ZM11.6483 16.5602H12.4935V18.9204C12.4935 20.1126 11.8394 20.8085 10.6874 20.8085C9.53529 20.8085 8.90812 20.1261 8.90812 18.9501V16.571H9.75333V18.9285C9.75333 19.6325 10.0871 20.0074 10.7008 20.0074C11.3145 20.0074 11.6483 19.6352 11.6483 18.9582V16.5602ZM6.892 16.5602H7.73452V20.7357H6.892V19.0337H4.98626V20.7357H4.14374V16.5602H4.98626V18.2379H6.892V16.5602ZM16.5042 11.2545C15.8093 11.2545 15.1211 11.1173 14.4791 10.8508C13.837 10.5843 13.2536 10.1937 12.7622 9.70123C12.2708 9.2088 11.881 8.62419 11.6151 7.9808C11.3491 7.33741 11.2123 6.64782 11.2123 5.95142H11.9525C11.9814 7.14229 12.4738 8.27465 13.3245 9.10667C14.1752 9.93869 15.3168 10.4044 16.5056 10.4044C17.6943 10.4044 18.836 9.93869 19.6867 9.10667C20.5374 8.27465 21.0298 7.14229 21.0587 5.95142H21.7989C21.7961 7.35746 21.2372 8.70505 20.2448 9.69903C19.2524 10.693 17.9073 11.2523 16.5042 11.2545Z" fill="#E74451"/>
</svg>
