<svg width="71" height="71" viewBox="0 0 71 71" fill="none" xmlns="http://www.w3.org/2000/svg">
<path d="M44.3751 6.35086C34.3842 6.355 25.8217 13.3935 24.021 23.0823C32.6207 18.4427 43.407 21.5547 48.1129 30.0333C51.0182 35.2676 51.0182 41.6006 48.1129 46.8349C59.3584 44.8039 66.8047 34.1696 64.7447 23.0825C62.9434 13.3876 54.372 6.34713 44.3751 6.35086Z" fill="#FFEDEF"/>
<path d="M20.7084 64.6842C28.8776 64.6842 35.5001 58.155 35.5001 50.1008C35.5001 42.0467 28.8776 35.5175 20.7084 35.5175C12.5392 35.5175 5.91675 42.0467 5.91675 50.1008C5.91675 58.155 12.5392 64.6842 20.7084 64.6842Z" fill="#E74451"/>
<path d="M32.5416 20.9342C23.4199 20.9351 15.7838 27.7521 14.8804 36.7011C22.3821 33.5235 31.0763 36.9431 34.2994 44.3392C35.9002 48.0127 35.9002 52.1732 34.2994 55.8467C44.0539 54.8904 51.1752 46.319 50.2053 36.7019C49.3026 27.7514 41.6647 20.9334 32.5416 20.9342Z" fill="#EB4B5E" fill-opacity="0.5"/>
</svg>
