<svg width="436" height="110" viewBox="0 0 436 110" fill="none" xmlns="http://www.w3.org/2000/svg">
<g clip-path="url(#clip0_392_596)">
<path d="M0 106.539V93.1788H4.13843C5.04007 93.1637 5.9371 93.3115 6.78703 93.6152C7.53854 93.8771 8.1979 94.3544 8.68435 94.9884C9.18658 95.7122 9.43729 96.5831 9.39743 97.4654C9.38973 98.1326 9.22383 98.7882 8.91355 99.3777C8.61257 99.941 8.17438 100.418 7.64019 100.764C7.11232 101.13 6.52679 101.403 5.90841 101.572C5.28652 101.781 4.64001 101.906 3.98563 101.944H2.54673V106.603H0V106.539ZM2.54673 95.3093V99.7883H4.11297C4.56916 99.7977 5.02293 99.7193 5.45 99.5573C5.82009 99.4222 6.14011 99.1758 6.36682 98.8515C6.60928 98.4681 6.73745 98.0227 6.7361 97.568C6.73442 97.1018 6.60675 96.6448 6.36682 96.2461C6.16042 95.9207 5.85741 95.6692 5.50094 95.5274C5.03742 95.3714 4.55057 95.2976 4.06203 95.3093H2.54673Z" fill="white"/>
<path d="M13.8289 96.5156C14.5052 96.5094 15.1775 96.6223 15.8153 96.8493C16.378 97.041 16.8735 97.3933 17.2415 97.8632C17.6322 98.3537 17.8396 98.9669 17.8272 99.5958C17.837 100.167 17.6725 100.727 17.3561 101.2C17.0466 101.641 16.6301 101.994 16.1464 102.227L18.5785 106.539H16.5539L14.4528 102.689H12.6319V106.539H10.7473V96.5156H13.8289ZM12.6192 98.0942V101.174H13.8161C14.1589 101.183 14.5001 101.126 14.8221 101.008C15.0908 100.917 15.329 100.753 15.5097 100.533C15.6916 100.29 15.7818 99.9895 15.7644 99.6856C15.7811 99.3638 15.6965 99.0448 15.5224 98.7744C15.353 98.5396 15.1181 98.3609 14.8475 98.2611C14.5027 98.1458 14.1412 98.0894 13.7779 98.0942H12.6192Z" fill="white"/>
<path d="M19.6226 106.539V96.5156H21.5071V106.539H19.6226Z" fill="white"/>
<path d="M28.014 103.484L25.6328 100.417V106.526H23.6973V96.5027H24.8815L28.2559 101.123L31.312 96.5027H32.4707V106.526H30.5607V100.751L28.6889 103.395L28.014 103.484Z" fill="white"/>
<path d="M34.6609 106.539V96.5156H40.5948L40.8876 98.0172H36.5455V100.661H39.7925L40.0982 102.175H36.5455V104.986H41.2951L41.6135 106.475H34.6609V106.539Z" fill="white"/>
<path d="M61.4653 96.5156C62.1417 96.5094 62.814 96.6223 63.4518 96.8493C64.0145 97.041 64.5099 97.3933 64.878 97.8632C65.2505 98.3606 65.4396 98.9732 65.4128 99.5958C65.4226 100.167 65.2581 100.727 64.9416 101.2C64.6145 101.65 64.1752 102.004 63.6683 102.227L66.215 106.539H64.1521L62.0511 102.689H60.2684V106.539H58.3838V96.5156H61.4653ZM60.192 98.1071V101.174H61.3889C61.7317 101.183 62.0729 101.126 62.3949 101.008C62.6636 100.917 62.9019 100.753 63.0825 100.533C63.2644 100.29 63.3546 99.9895 63.3372 99.6856C63.354 99.3638 63.2693 99.0448 63.0952 98.7744C62.9258 98.5396 62.6909 98.3609 62.4204 98.2611C62.0755 98.1458 61.714 98.0894 61.3507 98.0942H60.192V98.1071Z" fill="white"/>
<path d="M71.3848 106.744C70.4628 106.77 69.5527 106.53 68.7617 106.051C68.0427 105.6 67.4679 104.949 67.1063 104.177C66.7162 103.345 66.5139 102.435 66.5139 101.514C66.5139 100.593 66.7162 99.684 67.1063 98.8513C67.4994 98.0881 68.0887 97.4454 68.8126 96.9903C69.5817 96.5253 70.4625 96.2812 71.3594 96.2845C72.2899 96.2546 73.2094 96.4951 74.008 96.9775C74.7202 97.4312 75.2933 98.0755 75.6633 98.8385C76.0485 99.6748 76.2481 100.586 76.2481 101.508C76.2481 102.43 76.0485 103.341 75.6633 104.177C75.2739 104.936 74.6889 105.574 73.9698 106.026C73.1986 106.486 72.3193 106.73 71.423 106.731L71.3848 106.744ZM71.3848 105.14C71.8975 105.144 72.4008 105.002 72.8365 104.729C73.3043 104.413 73.6714 103.968 73.8934 103.446C74.389 102.211 74.389 100.83 73.8934 99.5957C73.6876 99.0828 73.3435 98.6383 72.9001 98.3123C72.4495 97.9946 71.909 97.8325 71.3594 97.8502C70.8401 97.8515 70.3336 98.0127 69.9077 98.3123C69.4438 98.6361 69.0745 99.0792 68.8381 99.5957C68.5551 100.197 68.4155 100.856 68.4306 101.521C68.4172 102.16 68.5387 102.794 68.7872 103.382C68.9915 103.899 69.3411 104.345 69.7931 104.665C70.2438 104.983 70.7843 105.145 71.3339 105.127L71.3848 105.14Z" fill="white"/>
<path d="M77.6753 106.539V96.5155H80.7696C81.448 96.4954 82.1246 96.5953 82.7688 96.8107C83.3324 97.0072 83.8276 97.3638 84.1949 97.8374C84.5079 98.3304 84.6899 98.8963 84.7233 99.4806C84.7568 100.065 84.6406 100.648 84.3859 101.174C84.1689 101.591 83.8542 101.948 83.4691 102.214C83.0815 102.486 82.651 102.69 82.1957 102.817C81.7015 102.951 81.1922 103.02 80.6804 103.022H79.5853V106.513H77.6753V106.539ZM79.6108 98.0941V101.457H80.8078C81.1464 101.466 81.4837 101.409 81.801 101.29C82.0728 101.186 82.3077 101.003 82.4759 100.764C82.6483 100.468 82.7392 100.131 82.7392 99.7882C82.7392 99.4452 82.6483 99.1085 82.4759 98.8128C82.3167 98.5595 82.0797 98.3657 81.801 98.2609C81.452 98.1447 81.0861 98.0883 80.7186 98.0941H79.5726H79.6108Z" fill="white"/>
<path d="M86.0923 106.539V96.5156H92.0262L92.319 98.0172H87.9769V100.661H91.2239L91.5295 102.175H87.9769V104.986H92.7265L93.0449 106.475H86.0923V106.539Z" fill="white"/>
<path d="M97.387 96.5155C98.0441 96.5028 98.6985 96.6026 99.3225 96.8107C99.8852 97.0024 100.381 97.3546 100.749 97.8246C101.121 98.3219 101.31 98.9346 101.283 99.5572C101.293 100.128 101.129 100.688 100.812 101.161C100.503 101.602 100.086 101.956 99.6026 102.188L102.035 106.5H100.074L97.9727 102.65H96.19V106.5H94.3054V96.5155H97.387ZM96.1136 98.1069V101.174H97.3106C97.6533 101.183 97.9945 101.126 98.3165 101.007C98.5853 100.917 98.8235 100.753 99.0041 100.533C99.186 100.29 99.2763 99.9894 99.2588 99.6855C99.2756 99.3636 99.1909 99.0447 99.0169 98.7743C98.8474 98.5395 98.6125 98.3608 98.342 98.2609C97.9972 98.1456 97.6356 98.0892 97.2724 98.0941H96.1136V98.1069Z" fill="white"/>
<path d="M110.426 98.0172H106.963V106.526H105.053V98.0172H102.073V96.5156H110.108L110.414 98.0172H110.426Z" fill="white"/>
<path d="M111.521 106.539V96.5156H113.406V106.539H111.521Z" fill="white"/>
<path d="M115.596 106.539V96.5156H121.53L121.823 98.0172H117.481V100.661H120.728L121.033 102.175H117.481V104.986H122.243L122.561 106.475H115.596V106.539Z" fill="white"/>
<path d="M123.669 104.331C123.905 104.448 124.147 104.551 124.395 104.639C124.681 104.751 124.975 104.841 125.274 104.909C125.888 105.065 126.531 105.065 127.145 104.909C127.374 104.848 127.581 104.723 127.744 104.55C127.886 104.382 127.959 104.166 127.948 103.946C127.949 103.831 127.924 103.717 127.876 103.613C127.827 103.508 127.756 103.416 127.667 103.343C127.444 103.144 127.2 102.968 126.942 102.817L126.05 102.291L125.006 101.623C124.673 101.4 124.354 101.156 124.051 100.892C123.772 100.641 123.536 100.347 123.351 100.019C123.172 99.698 123.08 99.3351 123.083 98.9668C123.08 98.4745 123.232 97.9939 123.516 97.5935C123.813 97.1719 124.218 96.8393 124.688 96.631C125.272 96.3861 125.901 96.268 126.534 96.2845C127.039 96.2866 127.542 96.3644 128.024 96.5155C128.46 96.6552 128.886 96.8268 129.297 97.0288L128.661 98.5561C128.47 98.4534 128.253 98.3636 128.037 98.2738C127.808 98.1976 127.574 98.1376 127.336 98.0941C127.074 98.0304 126.804 98.0002 126.534 98.0042C126.161 97.9913 125.792 98.08 125.465 98.2609C125.33 98.3371 125.22 98.4496 125.146 98.5856C125.071 98.7217 125.036 98.8759 125.044 99.031C125.045 99.276 125.141 99.511 125.312 99.6855C125.521 99.892 125.756 100.069 126.012 100.212C126.305 100.379 126.611 100.558 126.916 100.764L127.973 101.392C128.318 101.591 128.642 101.823 128.941 102.085C129.219 102.327 129.456 102.613 129.641 102.933C129.827 103.274 129.919 103.66 129.909 104.049C129.918 104.554 129.766 105.049 129.476 105.461C129.147 105.896 128.707 106.234 128.202 106.436C127.564 106.699 126.879 106.826 126.19 106.808C125.951 106.805 125.712 106.779 125.477 106.731C125.198 106.68 124.921 106.611 124.65 106.526C124.381 106.454 124.117 106.364 123.86 106.257C123.649 106.17 123.445 106.067 123.249 105.949L123.669 104.396V104.331Z" fill="white"/>
<path d="M133.054 104.165C133.359 104.52 133.518 104.979 133.5 105.448C133.487 105.97 133.374 106.484 133.169 106.962C132.95 107.508 132.64 108.012 132.252 108.451C131.892 108.892 131.461 109.27 130.978 109.568L130.393 108.284C130.698 108.033 130.983 107.759 131.246 107.463C131.484 107.178 131.65 106.839 131.73 106.475C131.554 106.464 131.387 106.391 131.258 106.269C131.085 106.12 130.939 105.942 130.826 105.743C130.71 105.535 130.649 105.301 130.647 105.063C130.649 104.819 130.715 104.58 130.838 104.37C130.959 104.146 131.134 103.956 131.348 103.818C131.56 103.68 131.808 103.608 132.061 103.613C132.259 103.613 132.456 103.657 132.636 103.741C132.816 103.825 132.976 103.948 133.105 104.1L133.054 104.165Z" fill="white"/>
<path d="M141.7 101.482C141.679 102.106 141.806 102.727 142.069 103.292C142.292 103.742 142.654 104.107 143.101 104.331C143.569 104.557 144.084 104.672 144.603 104.665C145.13 104.676 145.651 104.552 146.118 104.306C146.56 104.066 146.916 103.694 147.137 103.241C147.398 102.688 147.525 102.081 147.506 101.469V93.1658H150.053V101.675C150.063 102.576 149.83 103.464 149.378 104.242C148.93 105.01 148.277 105.637 147.494 106.051C146.598 106.509 145.607 106.742 144.603 106.731C143.605 106.767 142.615 106.546 141.725 106.09C140.938 105.671 140.281 105.04 139.828 104.267C139.388 103.485 139.16 102.6 139.166 101.7V93.1914H141.713V101.495L141.7 101.482Z" fill="white"/>
<path d="M152.371 106.539V96.5156H154.255L158.228 102.304L158.852 103.202V96.5156H160.75V106.539H158.852L154.625 100.404L154.243 99.8268V106.526H152.371V106.539Z" fill="white"/>
<path d="M162.991 106.539V96.5156H164.875V106.539H162.991Z" fill="white"/>
<path d="M173.827 96.9775C174.543 97.4326 175.117 98.0821 175.482 98.8513C175.868 99.6877 176.067 100.599 176.067 101.521C176.067 102.443 175.868 103.354 175.482 104.19C175.093 104.949 174.508 105.587 173.789 106.038C173.018 106.499 172.138 106.742 171.242 106.744C170.316 106.772 169.401 106.532 168.606 106.051C167.887 105.6 167.312 104.949 166.951 104.177C166.561 103.345 166.358 102.435 166.358 101.514C166.358 100.593 166.561 99.684 166.951 98.8513C167.344 98.0881 167.933 97.4454 168.657 96.9904C169.426 96.5253 170.307 96.2812 171.204 96.2845C172.126 96.2595 173.036 96.4999 173.827 96.9775ZM168.632 103.395C168.832 103.914 169.182 104.361 169.638 104.678C170.085 104.993 170.62 105.155 171.166 105.14C171.683 105.146 172.19 105.003 172.63 104.729C173.098 104.413 173.465 103.968 173.687 103.446C174.183 102.211 174.183 100.83 173.687 99.5957C173.481 99.0829 173.137 98.6383 172.694 98.3123C172.243 97.9946 171.703 97.8326 171.153 97.8502C170.634 97.8515 170.127 98.0127 169.701 98.3123C169.237 98.6361 168.868 99.0792 168.632 99.5957C168.349 100.197 168.209 100.856 168.224 101.521C168.211 102.155 168.332 102.786 168.581 103.369L168.632 103.395ZM175.788 106.064L174.68 107.052L171.153 103.754L172.426 102.766L175.788 106.064Z" fill="white"/>
<path d="M179.277 102.753C179.258 103.223 179.354 103.69 179.557 104.113C179.726 104.451 179.999 104.726 180.334 104.896C180.682 105.07 181.066 105.158 181.455 105.153C181.849 105.159 182.238 105.067 182.588 104.883C182.92 104.706 183.187 104.428 183.352 104.088C183.541 103.687 183.637 103.248 183.632 102.804V96.5283H185.542V102.945C185.553 103.626 185.377 104.297 185.033 104.883C184.695 105.459 184.206 105.93 183.619 106.244C182.946 106.59 182.198 106.767 181.442 106.757C180.691 106.779 179.947 106.612 179.277 106.269C178.687 105.955 178.197 105.479 177.864 104.896C177.529 104.302 177.358 103.629 177.367 102.945V96.5283H179.264V102.766L179.277 102.753Z" fill="white"/>
<path d="M187.592 106.539V96.5156H193.551L193.844 98.0172H189.477V100.661H192.724L193.029 102.175H189.477V104.986H194.226L194.545 106.475H187.592V106.539Z" fill="white"/>
<path d="M208.959 106.539H200.211V93.1787H202.758V104.511H208.628L208.959 106.539Z" fill="white"/>
<path d="M226.914 98.338L226.188 98.1198L225.564 97.9787C225.318 97.9556 225.071 97.9556 224.825 97.9787C224.324 97.9711 223.834 98.1239 223.425 98.415C222.981 98.7405 222.637 99.1852 222.431 99.6984C222.171 100.315 222.045 100.98 222.062 101.649C222.062 102.113 222.122 102.574 222.24 103.022C222.353 103.431 222.525 103.82 222.75 104.178C222.96 104.501 223.243 104.77 223.577 104.96C223.928 105.155 224.323 105.253 224.723 105.243C225.118 105.249 225.511 105.206 225.895 105.114C226.233 105.033 226.565 104.925 226.888 104.794L227.601 106.205C227.32 106.346 227.026 106.458 226.723 106.539C226.398 106.64 226.066 106.717 225.729 106.77C225.426 106.819 225.12 106.844 224.813 106.847C224.113 106.864 223.418 106.728 222.775 106.449C222.206 106.198 221.701 105.821 221.298 105.345C220.894 104.857 220.587 104.295 220.394 103.69C220.186 103.039 220.083 102.359 220.088 101.675C220.082 100.955 220.194 100.24 220.419 99.5572C220.629 98.9417 220.958 98.3745 221.387 97.8888C221.81 97.4217 222.327 97.0499 222.902 96.7979C223.527 96.5339 224.199 96.4028 224.876 96.4129C225.126 96.3985 225.377 96.3985 225.627 96.4129C225.95 96.4593 226.269 96.5279 226.583 96.6182C226.905 96.7076 227.217 96.8324 227.512 96.9904L226.926 98.3637L226.914 98.338Z" fill="white"/>
<path d="M233.14 96.5156L236.96 106.411L235.063 106.68L234.172 104.113H230.352L229.473 106.475H227.576L231.396 96.4514L233.14 96.5156ZM232.287 99.0824L231.014 102.56H233.65L232.376 99.0824H232.287Z" fill="white"/>
<path d="M245.352 98.0941H241.939V106.603H240.029V98.0941H236.999V96.5283H245.033L245.339 98.0299L245.352 98.0941Z" fill="white"/>
<path d="M246.447 106.539V96.5156H248.306V106.539H246.447Z" fill="white"/>
<path d="M254.673 106.744C253.747 106.772 252.832 106.532 252.037 106.051C251.318 105.6 250.743 104.949 250.382 104.177C249.992 103.345 249.789 102.435 249.789 101.514C249.789 100.593 249.992 99.684 250.382 98.8513C250.785 98.0832 251.388 97.44 252.126 96.9903C252.895 96.5253 253.776 96.2812 254.673 96.2845C255.604 96.2546 256.523 96.4951 257.322 96.9775C258.034 97.4312 258.607 98.0755 258.977 98.8385C259.362 99.6748 259.562 100.586 259.562 101.508C259.562 102.43 259.362 103.341 258.977 104.177C258.57 104.944 257.962 105.583 257.22 106.026C256.449 106.486 255.569 106.73 254.673 106.731V106.744ZM254.673 105.14C255.186 105.144 255.689 105.002 256.125 104.729C256.592 104.413 256.96 103.968 257.181 103.446C257.677 102.211 257.677 100.83 257.181 99.5957C256.976 99.0828 256.632 98.6383 256.188 98.3123C255.738 97.9946 255.197 97.8325 254.647 97.8502C254.128 97.8515 253.622 98.0127 253.196 98.3123C252.732 98.6361 252.363 99.0792 252.126 99.5957C251.843 100.197 251.704 100.856 251.719 101.521C251.705 102.16 251.827 102.794 252.075 103.382C252.28 103.899 252.629 104.345 253.081 104.665C253.532 104.983 254.072 105.145 254.622 105.127L254.673 105.14Z" fill="white"/>
<path d="M261.04 106.539V96.5156H262.924L266.897 102.304L267.521 103.202V96.5156H269.419V106.539H267.521L263.294 100.404L262.912 99.8268V106.526H261.04V106.539Z" fill="white"/>
<path d="M271.456 104.331C271.692 104.448 271.934 104.551 272.182 104.639C272.468 104.751 272.761 104.841 273.06 104.909C273.675 105.065 274.318 105.065 274.932 104.909C275.161 104.848 275.368 104.723 275.531 104.55C275.673 104.382 275.746 104.166 275.734 103.946C275.735 103.831 275.711 103.717 275.662 103.613C275.614 103.508 275.543 103.416 275.454 103.343C275.23 103.144 274.987 102.968 274.728 102.817L273.837 102.291L272.793 101.623C272.459 101.4 272.14 101.156 271.838 100.892C271.559 100.641 271.322 100.347 271.138 100.019C270.959 99.698 270.866 99.3351 270.87 98.9668C270.86 98.4773 271.002 97.9969 271.278 97.5936C271.575 97.1724 271.98 96.8398 272.449 96.631C273.034 96.3861 273.663 96.268 274.296 96.2845C274.801 96.2866 275.303 96.3644 275.785 96.5155C276.222 96.6552 276.647 96.8268 277.059 97.0288L276.422 98.5561C276.231 98.4534 276.015 98.3636 275.798 98.2738C275.566 98.1796 275.328 98.1024 275.085 98.0427C274.822 97.979 274.553 97.9488 274.283 97.9529C273.91 97.94 273.54 98.0287 273.213 98.2096C273.079 98.2858 272.969 98.3983 272.894 98.5343C272.82 98.6704 272.785 98.8246 272.793 98.9796C272.794 99.2247 272.89 99.4596 273.06 99.6342C273.269 99.8407 273.505 100.018 273.761 100.16C274.054 100.327 274.359 100.507 274.665 100.712L275.722 101.341C276.066 101.539 276.39 101.772 276.689 102.034C276.968 102.276 277.204 102.562 277.39 102.881C277.575 103.223 277.667 103.608 277.657 103.998C277.666 104.503 277.515 104.998 277.224 105.41C276.895 105.845 276.455 106.182 275.951 106.385C275.313 106.648 274.628 106.775 273.939 106.757C273.699 106.754 273.461 106.728 273.226 106.68C272.946 106.628 272.67 106.56 272.398 106.475C272.129 106.402 271.866 106.312 271.609 106.205C271.398 106.118 271.193 106.015 270.997 105.897L271.418 104.344L271.456 104.331Z" fill="white"/>
<path d="M280.841 104.165C281.146 104.52 281.305 104.979 281.286 105.448C281.274 105.97 281.161 106.484 280.955 106.962C280.736 107.508 280.426 108.012 280.038 108.451C279.678 108.892 279.248 109.27 278.765 109.568L278.179 108.284C278.484 108.033 278.769 107.759 279.032 107.463C279.27 107.178 279.436 106.839 279.516 106.475C279.34 106.464 279.173 106.391 279.045 106.269C278.872 106.12 278.725 105.942 278.612 105.743C278.497 105.535 278.435 105.301 278.434 105.063C278.436 104.819 278.502 104.58 278.625 104.37C278.746 104.146 278.921 103.956 279.134 103.818C279.346 103.68 279.595 103.608 279.847 103.613C280.046 103.613 280.242 103.657 280.422 103.741C280.603 103.825 280.763 103.948 280.891 104.1L280.841 104.165Z" fill="white"/>
<path d="M289.487 101.495C289.466 102.119 289.592 102.74 289.856 103.305C290.079 103.755 290.441 104.12 290.887 104.344C291.356 104.57 291.87 104.684 292.39 104.678C292.917 104.689 293.438 104.565 293.905 104.319C294.347 104.079 294.703 103.707 294.924 103.253C295.185 102.701 295.312 102.094 295.293 101.482V93.1787H297.84V101.688C297.85 102.589 297.617 103.477 297.165 104.255C296.717 105.023 296.064 105.65 295.281 106.064C294.385 106.521 293.394 106.755 292.39 106.744C291.392 106.779 290.402 106.559 289.512 106.103C288.725 105.684 288.068 105.053 287.615 104.28C287.175 103.498 286.947 102.613 286.953 101.713V93.2044H289.499V101.508L289.487 101.495Z" fill="white"/>
<path d="M300.157 106.539V96.5156H302.042L306.015 102.304L306.639 103.202V96.5156H308.536V106.539H306.639L302.411 100.404L302.029 99.8268V106.526H300.157V106.539Z" fill="white"/>
<path d="M310.701 106.539V96.5156H314.521C315.102 96.5025 315.681 96.5982 316.227 96.7979C316.696 96.9641 317.101 97.2737 317.386 97.6835C317.688 98.1707 317.835 98.7396 317.806 99.3134C317.807 99.6806 317.686 100.038 317.462 100.327C317.249 100.614 317.001 100.873 316.724 101.097C317.165 101.324 317.544 101.654 317.832 102.06C318.133 102.51 318.284 103.045 318.265 103.587C318.282 104.028 318.2 104.467 318.023 104.871C317.859 105.23 317.615 105.546 317.31 105.795C316.977 106.06 316.597 106.256 316.189 106.372C315.722 106.51 315.237 106.579 314.75 106.578H310.701V106.539ZM312.624 98.0942V100.661H314.024C314.343 100.667 314.661 100.624 314.967 100.533C315.217 100.46 315.442 100.318 315.616 100.122C315.765 99.9047 315.829 99.6394 315.794 99.3776C315.805 99.1175 315.744 98.8595 315.616 98.6332C315.492 98.4476 315.307 98.3114 315.094 98.2482C314.826 98.1658 314.547 98.1268 314.266 98.1327L312.624 98.0942ZM312.624 102.137V104.948H314.674C314.975 104.958 315.275 104.901 315.552 104.781C315.789 104.689 315.993 104.528 316.138 104.319C316.282 104.103 316.358 103.848 316.355 103.587C316.373 103.387 316.345 103.185 316.272 102.998C316.199 102.81 316.083 102.643 315.934 102.509C315.621 102.246 315.221 102.113 314.814 102.137H312.624Z" fill="white"/>
<path d="M319.615 106.539V96.5156H325.548L325.841 98.0172H321.525V100.661H324.772L325.077 102.175H321.525V104.986H326.274L326.593 106.475H319.615V106.539Z" fill="white"/>
<path d="M332.221 96.5156L336.041 106.411L334.144 106.68L333.252 104.113H329.432L328.554 106.475H326.745L330.565 96.4514L332.221 96.5156ZM331.368 99.0824L330.094 102.56H332.73L331.457 99.0824H331.368Z" fill="white"/>
<path d="M344.432 98.0941H341.02V106.603H339.11V98.0941H336.079V96.5283H344.114L344.42 98.0299L344.432 98.0941Z" fill="white"/>
<path d="M349.908 96.5156L353.728 106.411L351.831 106.68L350.939 104.113H347.119L346.355 106.539H344.458L348.278 96.5156H349.908ZM349.055 99.0824L347.781 102.56H350.417L349.144 99.0824H349.055Z" fill="white"/>
<path d="M354.861 106.539V96.5156H358.681C359.262 96.5025 359.841 96.5982 360.388 96.7979C360.856 96.9641 361.261 97.2737 361.546 97.6835C361.848 98.1707 361.995 98.7396 361.967 99.3134C361.968 99.6806 361.847 100.038 361.623 100.327C361.41 100.614 361.162 100.873 360.884 101.097C361.325 101.324 361.705 101.654 361.992 102.06C362.293 102.51 362.445 103.045 362.425 103.587C362.443 104.028 362.36 104.467 362.183 104.871C362.019 105.23 361.775 105.546 361.47 105.795C361.138 106.06 360.757 106.256 360.349 106.372C359.882 106.51 359.397 106.579 358.91 106.578H354.823L354.861 106.539ZM356.746 98.0942V100.661H358.146C358.465 100.667 358.783 100.624 359.089 100.533C359.339 100.46 359.564 100.318 359.738 100.122C359.896 99.922 359.977 99.6715 359.967 99.4161C359.979 99.156 359.917 98.898 359.789 98.6717C359.665 98.4861 359.48 98.3499 359.267 98.2867C358.999 98.2043 358.72 98.1653 358.439 98.1712L356.746 98.0942ZM356.746 102.137V104.948H358.796C359.097 104.958 359.398 104.901 359.675 104.781C359.911 104.689 360.115 104.528 360.26 104.319C360.404 104.103 360.48 103.848 360.477 103.587C360.495 103.387 360.467 103.185 360.394 102.998C360.321 102.81 360.206 102.643 360.057 102.509C359.743 102.246 359.343 102.113 358.936 102.137H356.746Z" fill="white"/>
<path d="M370.32 106.539H363.762V96.5156H365.647V105.05H370.04L370.32 106.539Z" fill="white"/>
<path d="M371.428 106.539V96.5156H377.362L377.654 98.0172H373.312V100.661H376.559L376.865 102.175H373.312V104.986H378.062L378.38 106.475H371.428V106.539Z" fill="white"/>
<path d="M388.847 103.048L392.489 93.2043H395.036L389.853 106.565H387.714L382.621 93.3454L385.167 92.9861L388.911 103.048H388.847Z" fill="white"/>
<path d="M414.404 106.539H407.846V96.5156H409.731V105.05H414.124L414.404 106.539Z" fill="white"/>
<path d="M417.269 102.753C417.249 103.223 417.346 103.69 417.549 104.113C417.718 104.451 417.99 104.726 418.326 104.896C418.674 105.07 419.058 105.158 419.446 105.153C419.84 105.159 420.23 105.067 420.58 104.883C420.912 104.706 421.179 104.428 421.344 104.088C421.533 103.687 421.628 103.248 421.624 102.804V96.5283H423.534V102.945C423.545 103.626 423.369 104.297 423.024 104.883C422.687 105.459 422.197 105.93 421.611 106.244C420.937 106.59 420.19 106.767 419.434 106.757C418.683 106.779 417.939 106.612 417.269 106.269C416.679 105.955 416.189 105.479 415.855 104.896C415.521 104.302 415.35 103.629 415.359 102.945V96.5283H417.256V102.766L417.269 102.753Z" fill="white"/>
<path d="M425.584 106.539V96.5156H431.518L431.811 98.0172H427.469V100.661H430.716L431.021 102.175H427.469V104.986H432.218L432.537 106.475H425.584V106.539Z" fill="white"/>
<path d="M435.58 104.088C435.717 104.219 435.826 104.379 435.899 104.556C435.971 104.733 436.005 104.923 436 105.114C436.004 105.305 435.969 105.495 435.896 105.672C435.824 105.849 435.716 106.008 435.58 106.141C435.307 106.408 434.941 106.556 434.561 106.552C434.375 106.554 434.19 106.519 434.017 106.449C433.844 106.378 433.687 106.274 433.555 106.141C433.417 106.009 433.309 105.85 433.236 105.673C433.164 105.496 433.129 105.306 433.135 105.114C433.13 104.922 433.166 104.731 433.241 104.554C433.316 104.377 433.427 104.218 433.568 104.088C433.697 103.955 433.852 103.85 434.023 103.78C434.193 103.709 434.376 103.674 434.561 103.677C434.749 103.674 434.937 103.708 435.112 103.779C435.286 103.849 435.446 103.954 435.58 104.088ZM433.237 92.7551H435.873L435.605 102.689L433.581 101.739L433.249 92.7551H433.237Z" fill="white"/>
<path d="M47.2927 98.3507C47.2927 98.4919 47.2927 98.6459 47.2927 98.7614C47.662 98.4149 48.0313 98.0684 48.3751 97.7219C48.4439 97.6436 48.4843 97.544 48.4897 97.4395V95.5272C48.4897 95.3732 48.4897 95.2962 48.6807 95.2962C49.1136 95.2962 49.5466 95.2962 49.9541 95.2962C49.9541 95.2962 50.0941 95.3861 50.1069 95.4502C50.1196 95.5783 50.1196 95.7072 50.1069 95.8353L52.0424 93.8203L56.9066 98.7101C56.9308 98.4283 56.9308 98.1449 56.9066 97.8631V95.0781C56.9324 94.6887 56.8269 94.3019 56.6073 93.9805C56.3878 93.659 56.067 93.4217 55.6969 93.3069C55.3403 93.2103 54.9706 93.1713 54.6018 93.1914H49.2792C49.0185 93.1729 48.7569 93.2104 48.5117 93.3014C48.2665 93.3923 48.0433 93.5347 47.8567 93.7191C47.6701 93.9035 47.5245 94.1257 47.4295 94.371C47.3345 94.6163 47.2922 94.8792 47.3055 95.1422C47.3055 96.2074 47.3055 97.2855 47.3055 98.3507H47.2927Z" fill="#E74451"/>
<path d="M49.8013 104.768C49.8013 104.267 49.8013 103.78 49.8013 103.279C49.8013 103.061 49.8013 103.022 50.056 103.022H55.1494C55.2633 103.041 55.3794 103.041 55.4932 103.022C55.9598 102.92 56.3689 102.64 56.6348 102.24C56.9007 101.841 57.0027 101.353 56.9194 100.879C56.9072 100.799 56.8665 100.726 56.8048 100.674L53.8506 97.7091L52.0551 95.938L51.5203 96.4514L47.4074 100.661C47.3264 100.748 47.281 100.863 47.28 100.982V106.372C47.28 106.552 47.3564 106.59 47.4965 106.565C47.9497 106.487 48.3966 106.375 48.8335 106.231C49.1304 106.126 49.3853 105.926 49.5598 105.662C49.7344 105.398 49.8191 105.084 49.8013 104.768ZM52.6791 98.6203C53.112 98.6203 53.1248 98.6203 53.112 99.0695C53.0993 99.5187 53.1884 99.4674 52.6664 99.493C52.6063 99.5022 52.5449 99.4967 52.4873 99.4772C52.4298 99.4576 52.3777 99.4245 52.3353 99.3806C52.293 99.3367 52.2617 99.2832 52.2439 99.2247C52.2262 99.1661 52.2226 99.1041 52.2334 99.0438C52.2334 98.6075 52.1443 98.6203 52.6664 98.6203H52.6791ZM52.2079 100.263C52.196 100.189 52.2021 100.113 52.2258 100.042C52.2496 99.9706 52.2901 99.9063 52.3441 99.8545C52.398 99.8026 52.4637 99.7649 52.5353 99.7444C52.607 99.7239 52.6826 99.7213 52.7555 99.7369H53.0866V100.443C53.0866 100.443 52.9847 100.584 52.921 100.584C52.794 100.597 52.666 100.597 52.539 100.584C52.3225 100.584 52.2207 100.468 52.2207 100.25L52.2079 100.263ZM51.5713 100.661C51.0619 100.661 51.1638 100.661 51.1511 100.225C51.1383 99.7882 51.1511 99.7882 51.5967 99.7882C52.0424 99.7882 51.9915 99.9422 51.9915 100.237C51.9915 100.533 52.0933 100.661 51.5713 100.648V100.661ZM51.1383 99.0695C51.1359 99.0166 51.1451 98.9638 51.1653 98.9149C51.1855 98.866 51.2161 98.8222 51.2551 98.7867C51.294 98.7511 51.3402 98.7246 51.3905 98.7092C51.4408 98.6938 51.4938 98.6897 51.5458 98.6973C51.8132 98.6973 51.9533 98.8513 51.9915 99.1465V99.5829H51.2657C51.2657 99.5829 51.1383 99.493 51.1256 99.4289C51.1129 99.3137 51.1129 99.1975 51.1256 99.0823L51.1383 99.0695Z" fill="#E74451"/>
<path d="M214.218 106.744C214.887 106.121 215.513 105.452 216.09 104.742C217.094 103.463 217.985 102.097 218.751 100.661C219.231 99.7668 219.418 98.7427 219.286 97.7349C219.168 96.5652 218.645 95.4747 217.809 94.6547C217.126 93.9623 216.262 93.4804 215.317 93.2656C214.372 93.0509 213.386 93.1121 212.474 93.4422C211.563 93.7722 210.763 94.3574 210.17 95.1291C209.577 95.9008 209.214 96.827 209.125 97.799C209.013 98.8301 209.222 99.8705 209.723 100.777C210.086 101.417 210.482 102.038 210.907 102.638C211.751 103.892 212.688 105.08 213.709 106.193L214.205 106.719L214.218 106.744ZM211.2 98.3509C211.195 97.7508 211.367 97.1627 211.694 96.6612C212.021 96.1598 212.489 95.7676 213.038 95.5344C213.586 95.3012 214.191 95.2376 214.776 95.3515C215.36 95.4655 215.898 95.7519 216.321 96.1744C216.744 96.597 217.033 97.1366 217.151 97.7248C217.269 98.3131 217.211 98.9234 216.984 99.4783C216.757 100.033 216.372 100.508 215.878 100.842C215.383 101.176 214.801 101.354 214.205 101.354C213.413 101.354 212.652 101.039 212.089 100.476C211.527 99.9136 211.207 99.1498 211.2 98.3509Z" fill="#E74451"/>
<path d="M403.02 105.127L402.116 103.382L401.212 104.434L402.332 106.475H406.751L406.025 105.127H403.02Z" fill="#E74451"/>
<path d="M395.864 105.127H392.871L392.145 106.475H396.551L397.71 104.332L396.819 103.382L395.864 105.127Z" fill="#E74451"/>
<path d="M403.809 103.741H405.287L399.467 92.9221L393.623 103.741H395.074L399.467 95.6301L403.809 103.741Z" fill="#E74451"/>
<path d="M400.97 103.305C400.847 103.514 400.671 103.687 400.46 103.805C400.212 103.939 399.939 104.018 399.658 104.036V104.575H399.238V104.023C398.85 104.001 398.478 103.862 398.168 103.626C398.04 103.509 397.936 103.366 397.864 103.207C397.791 103.048 397.752 102.876 397.748 102.702H398.741C398.74 102.84 398.788 102.975 398.877 103.081C398.965 103.187 399.089 103.258 399.225 103.279V101.996C398.963 101.939 398.708 101.858 398.461 101.752C398.265 101.67 398.093 101.537 397.965 101.367C397.812 101.155 397.736 100.897 397.748 100.635C397.747 100.457 397.783 100.281 397.853 100.117C397.923 99.9537 398.026 99.8067 398.156 99.6856C398.458 99.4325 398.833 99.2841 399.225 99.262V98.7358H399.645V99.2749C400.017 99.2931 400.373 99.4277 400.664 99.6599C400.793 99.777 400.897 99.9193 400.969 100.078C401.041 100.237 401.08 100.409 401.084 100.584H400.091C400.079 100.461 400.031 100.344 399.951 100.25C399.871 100.154 399.765 100.082 399.645 100.045V101.328C399.909 101.395 400.168 101.477 400.422 101.572C400.619 101.654 400.79 101.787 400.919 101.957C401.071 102.164 401.148 102.418 401.135 102.676C401.135 102.906 401.074 103.132 400.957 103.33L400.97 103.305ZM398.843 100.956C398.951 101.059 399.082 101.134 399.225 101.174V100.019C399.082 100.036 398.948 100.099 398.843 100.199C398.748 100.309 398.698 100.451 398.703 100.597C398.697 100.729 398.743 100.858 398.83 100.956H398.843ZM400.04 103.074C400.133 102.968 400.183 102.83 400.18 102.689C400.184 102.624 400.173 102.56 400.149 102.5C400.125 102.44 400.088 102.386 400.04 102.342C399.927 102.239 399.792 102.164 399.645 102.124V103.292C399.796 103.268 399.934 103.196 400.04 103.087V103.074Z" fill="#E74451"/>
<path d="M30.4461 0.760277L0.0891356 44.4732C0.0332036 44.5568 0.00226502 44.6548 8.67588e-08 44.7556V71.7072C-6.13884e-05 71.8107 0.0325485 71.9115 0.093112 71.9951C0.153675 72.0787 0.239052 72.1407 0.336889 72.1721C0.434726 72.2036 0.539951 72.2028 0.63734 72.17C0.734729 72.1372 0.819231 72.074 0.878622 71.9895L49.9414 1.31214C49.9893 1.23927 50.017 1.15473 50.0214 1.0674C50.0258 0.980057 50.0068 0.893128 49.9665 0.815712C49.9261 0.738295 49.8659 0.673241 49.792 0.627361C49.7181 0.581482 49.6334 0.556465 49.5466 0.554932H30.8409C30.7636 0.554899 30.6874 0.573525 30.6188 0.609251C30.5501 0.644977 30.4909 0.696764 30.4461 0.760277Z" fill="#E74451"/>
<path d="M8.67588e-08 1.04263V34.4113C-6.13884e-05 34.5148 0.0325485 34.6156 0.093112 34.6992C0.153675 34.7828 0.239052 34.8448 0.336889 34.8762C0.434726 34.9077 0.539951 34.9069 0.63734 34.8741C0.734729 34.8413 0.819231 34.7781 0.878622 34.6936L24.0666 1.31214C24.1146 1.23927 24.1422 1.15473 24.1466 1.0674C24.151 0.980057 24.1321 0.893128 24.0917 0.815712C24.0514 0.738295 23.9911 0.673241 23.9172 0.627361C23.8433 0.581482 23.7586 0.556465 23.6718 0.554932H0.483879C0.355546 0.554932 0.23247 0.606314 0.141725 0.697774C0.05098 0.789235 8.67588e-08 0.913282 8.67588e-08 1.04263Z" fill="#E74451"/>
<path d="M56.3336 0.760277L0.534753 81.0889C0.486789 81.1618 0.45915 81.2463 0.45473 81.3337C0.45031 81.421 0.469272 81.5079 0.50963 81.5853C0.549988 81.6628 0.610257 81.7278 0.684125 81.7737C0.757993 81.8196 0.842742 81.8446 0.929496 81.8461H23.9392C24.0165 81.8462 24.0926 81.8275 24.1613 81.7918C24.23 81.7561 24.2892 81.7043 24.3339 81.6408L80.12 1.31214C80.168 1.23927 80.1956 1.15473 80.2001 1.0674C80.2045 0.980057 80.1855 0.893128 80.1451 0.815712C80.1048 0.738295 80.0445 0.673241 79.9707 0.627361C79.8968 0.581482 79.812 0.556465 79.7253 0.554932H56.7156C56.6383 0.554899 56.5621 0.573525 56.4935 0.609251C56.4248 0.644977 56.3656 0.696764 56.3208 0.760277H56.3336Z" fill="#E74451"/>
<path d="M60.8668 73.2472L89.0209 81.5765C89.1159 81.6012 89.2161 81.5961 89.3082 81.562C89.4003 81.5279 89.4799 81.4665 89.5365 81.3857C89.5931 81.305 89.6241 81.2088 89.6252 81.11C89.6264 81.0111 89.5977 80.9142 89.543 80.8322L61.1215 39.9171C61.0768 39.8535 61.0176 39.8017 60.9489 39.7659C60.8803 39.7301 60.8041 39.7114 60.7268 39.7114C60.6494 39.7114 60.5733 39.7301 60.5046 39.7659C60.4359 39.8017 60.3767 39.8535 60.332 39.9171L31.4521 81.4867C31.4313 81.521 31.4209 81.5606 31.4222 81.6008C31.4236 81.641 31.4366 81.6799 31.4596 81.7126C31.4826 81.7454 31.5147 81.7707 31.5519 81.7853C31.589 81.7999 31.6296 81.8032 31.6686 81.7947L60.5867 73.2472H60.8668Z" fill="#E74451"/>
<path d="M116.691 65.1489C115.94 64.3633 115.045 63.7314 114.055 63.288C113.089 62.8749 112.049 62.6653 110.999 62.6719C109.864 62.6584 108.739 62.8922 107.702 63.3574C106.664 63.8225 105.739 64.5081 104.989 65.3671C103.303 67.2607 102.417 69.7425 102.519 72.2847C102.472 73.5343 102.673 74.7807 103.11 75.951C103.548 77.1212 104.212 78.1917 105.065 79.0996C105.825 79.9641 106.758 80.656 107.803 81.1295C108.848 81.6029 109.981 81.8472 111.127 81.8461C112.122 81.8535 113.109 81.6616 114.03 81.2814C115.022 80.8401 115.924 80.2179 116.691 79.4461V81.4097H121.237V63.134H116.704V65.1489H116.691ZM115.418 76.1477C114.965 76.6375 114.414 77.0246 113.802 77.2835C113.189 77.5424 112.529 77.6671 111.865 77.6493C111.209 77.6647 110.556 77.5361 109.954 77.2724C109.352 77.0087 108.813 76.6162 108.376 76.1221C107.427 75.0724 106.92 73.6916 106.963 72.2718C106.905 70.8544 107.403 69.4709 108.351 68.4216C108.794 67.9332 109.335 67.5463 109.94 67.2873C110.544 67.0282 111.196 66.903 111.852 66.92C112.516 66.902 113.176 67.024 113.79 67.2782C114.404 67.5324 114.958 67.9131 115.418 68.396C115.894 68.9116 116.265 69.5174 116.507 70.1783C116.75 70.8392 116.86 71.5421 116.831 72.2462C116.888 73.6911 116.38 75.1009 115.418 76.1734V76.1477Z" fill="white"/>
<path d="M135.04 62.672C134.166 62.6716 133.3 62.8461 132.494 63.1853C131.473 63.646 130.529 64.2606 129.692 65.0078V63.134H125.134V81.4098H129.679V74.0943C129.632 72.8585 129.701 71.621 129.883 70.3981C130.075 69.4253 130.549 68.5319 131.246 67.8313C131.886 67.2242 132.735 66.8926 133.614 66.9072C134.255 66.8874 134.883 67.0864 135.397 67.4719C135.903 67.8871 136.257 68.4608 136.403 69.1019C136.654 70.5331 136.752 71.9874 136.696 73.4398V81.4098H141.191V69.3329C141.255 68.4733 141.148 67.6094 140.877 66.7918C140.606 65.9742 140.176 65.2194 139.612 64.5714C139.018 63.9576 138.307 63.4725 137.521 63.1458C136.735 62.8192 135.891 62.6579 135.04 62.672Z" fill="white"/>
<path d="M158.254 65.1491C157.502 64.3635 156.607 63.7316 155.618 63.2882C154.651 62.8751 153.611 62.6655 152.562 62.6721C151.426 62.6586 150.302 62.8924 149.264 63.3576C148.227 63.8227 147.302 64.5083 146.551 65.3673C144.866 67.2608 143.979 69.7427 144.081 72.2849C144.034 73.5345 144.235 74.7809 144.673 75.9512C145.11 77.1214 145.775 78.1918 146.628 79.0998C147.387 79.9642 148.321 80.6561 149.366 81.1296C150.411 81.6031 151.543 81.8474 152.689 81.8463C153.684 81.8537 154.671 81.6618 155.592 81.2816C156.584 80.8403 157.486 80.2181 158.254 79.4463V81.4099H162.8V56.1011H158.254V65.0849V65.1491ZM156.98 76.1479C156.528 76.6377 155.977 77.0248 155.364 77.2837C154.752 77.5426 154.092 77.6673 153.428 77.6495C152.771 77.6649 152.119 77.5363 151.517 77.2726C150.914 77.0089 150.376 76.6164 149.939 76.1223C148.989 75.0726 148.482 73.6918 148.525 72.272C148.467 70.8545 148.966 69.4711 149.913 68.4218C150.356 67.9334 150.898 67.5465 151.502 67.2875C152.106 67.0284 152.759 66.9032 153.415 66.9202C154.078 66.9022 154.738 67.0242 155.352 67.2784C155.966 67.5326 156.521 67.9133 156.98 68.3961C157.457 68.9118 157.827 69.5176 158.07 70.1785C158.313 70.8394 158.423 71.5423 158.394 72.2464C158.45 73.6913 157.943 75.1011 156.98 76.1736V76.1479Z" fill="white"/>
<path d="M187.07 67.8058C187.866 67.2443 188.523 66.5068 188.993 65.6497C189.393 64.8549 189.594 63.9738 189.578 63.0828C189.612 61.7204 189.161 60.3908 188.305 59.3353C187.399 58.2501 186.172 57.4856 184.803 57.1535C183.198 56.8026 181.555 56.656 179.914 56.7171H176.094V81.4099H182.957C184.55 81.4846 186.139 81.195 187.605 80.5629C188.742 79.9833 189.695 79.0941 190.355 77.9961C191.066 76.8642 191.437 75.5495 191.425 74.21C191.45 72.8863 191.092 71.5838 190.393 70.4624C189.572 69.2926 188.443 68.377 187.134 67.8186L187.07 67.8058ZM180.703 61.2091H181.9C182.749 61.1442 183.593 61.3853 184.281 61.8893C184.542 62.1154 184.748 62.3979 184.885 62.7157C185.021 63.0336 185.085 63.3784 185.071 63.7245C185.086 64.0932 185.019 64.4606 184.876 64.8002C184.733 65.1398 184.517 65.4431 184.243 65.6882C183.506 66.2257 182.603 66.4806 181.696 66.4069H180.678V61.2091H180.703ZM185.797 76.1736C184.586 76.7794 183.233 77.0328 181.887 76.9052H180.716V70.5908H181.684C183.059 70.472 184.437 70.7955 185.618 71.5148C186.01 71.8116 186.323 72.2011 186.529 72.6488C186.736 73.0965 186.83 73.5887 186.803 74.0817C186.826 74.4952 186.746 74.9081 186.57 75.2825C186.395 75.6569 186.129 75.981 185.797 76.225V76.1736Z" fill="white"/>
<path d="M205.954 72.0794C206.016 73.208 205.922 74.3398 205.674 75.442C205.459 76.0868 205.049 76.6478 204.502 77.0462C203.931 77.4187 203.26 77.6067 202.579 77.5853C201.901 77.6087 201.233 77.4156 200.669 77.0334C200.14 76.6506 199.747 76.1061 199.549 75.4805C199.264 74.3185 199.148 73.121 199.205 71.9254V63.1469H194.621V70.7447C194.529 72.7705 194.709 74.7994 195.156 76.7767C195.572 78.2711 196.467 79.5845 197.702 80.5114C199.13 81.4454 200.817 81.8951 202.516 81.7948C204.102 81.8596 205.672 81.4583 207.036 80.6398C208.248 79.843 209.19 78.6923 209.736 77.3414C210.362 75.2247 210.616 73.0139 210.487 70.8089V63.1084H205.941V72.0923L205.954 72.0794Z" fill="white"/>
<path d="M216.141 55.639C215.761 55.6311 215.383 55.7035 215.032 55.8516C214.681 55.9997 214.365 56.2202 214.104 56.4989C213.831 56.7676 213.617 57.0895 213.472 57.4447C213.328 57.8 213.256 58.1813 213.263 58.5652C213.256 58.9599 213.328 59.3519 213.475 59.7179C213.621 60.084 213.839 60.4165 214.116 60.6957C214.381 60.9791 214.7 61.2042 215.056 61.3566C215.411 61.509 215.793 61.5855 216.179 61.5812C216.558 61.5889 216.933 61.5164 217.282 61.3683C217.631 61.2201 217.945 60.9997 218.204 60.7213C218.747 60.1603 219.052 59.4072 219.052 58.6229C219.052 57.8387 218.747 57.0856 218.204 56.5246C217.94 56.245 217.622 56.0233 217.269 55.8732C216.916 55.723 216.537 55.6477 216.154 55.6519L216.141 55.639Z" fill="white"/>
<path d="M218.42 63.147H213.874V81.3842H218.42V63.147Z" fill="white"/>
<path d="M225.895 56.1011H221.349V81.3714H225.895V56.1011Z" fill="white"/>
<path d="M242.69 65.1491C241.939 64.3635 241.044 63.7316 240.055 63.2882C239.088 62.8751 238.048 62.6655 236.999 62.6721C235.863 62.6586 234.738 62.8924 233.701 63.3576C232.664 63.8227 231.738 64.5083 230.988 65.3673C229.302 67.2608 228.416 69.7427 228.518 72.2849C228.471 73.5345 228.672 74.7809 229.109 75.9512C229.547 77.1214 230.212 78.1918 231.065 79.0998C231.824 79.9642 232.757 80.6561 233.802 81.1296C234.847 81.6031 235.98 81.8474 237.126 81.8463C238.121 81.8537 239.108 81.6618 240.029 81.2816C241.021 80.8403 241.923 80.2181 242.69 79.4463V81.4099H247.236V56.1011H242.703V65.0849L242.69 65.1491ZM241.417 76.1479C240.967 76.6374 240.418 77.0244 239.808 77.2833C239.197 77.5423 238.539 77.6671 237.877 77.6495C237.221 77.6649 236.568 77.5363 235.966 77.2726C235.364 77.0089 234.825 76.6164 234.388 76.1223C233.439 75.0726 232.932 73.6918 232.975 72.272C232.917 70.8545 233.415 69.4711 234.363 68.4218C234.806 67.9334 235.347 67.5465 235.952 67.2875C236.556 67.0284 237.208 66.9032 237.864 66.9202C238.528 66.9022 239.188 67.0242 239.802 67.2784C240.416 67.5326 240.97 67.9133 241.43 68.3961C241.906 68.9118 242.277 69.5176 242.519 70.1785C242.762 70.8394 242.872 71.5423 242.843 72.2464C242.9 73.6913 242.392 75.1011 241.43 76.1736L241.417 76.1479Z" fill="white"/>
<path d="M259.652 62.672C258.407 62.6392 257.168 62.8675 256.015 63.3425C254.862 63.8175 253.82 64.5289 252.954 65.4314C252.069 66.3463 251.376 67.4315 250.917 68.6222C250.457 69.813 250.241 71.0848 250.28 72.3618C250.237 73.6162 250.452 74.8659 250.913 76.0322C251.373 77.1985 252.068 78.2561 252.954 79.1382C253.865 80.0439 254.952 80.7515 256.145 81.2173C257.339 81.6831 258.615 81.8971 259.894 81.8462C261.526 81.8911 263.147 81.5574 264.631 80.8708C266.011 80.1735 267.19 79.1305 268.056 77.842L264.236 76.0323C263.664 76.6109 262.983 77.068 262.233 77.3766C261.482 77.6852 260.678 77.8391 259.868 77.8291C258.604 77.8768 257.363 77.4722 256.366 76.6869C255.442 75.9022 254.839 74.8004 254.673 73.5939H269.253V72.7211C269.318 71.3901 269.116 70.0594 268.659 68.8089C268.202 67.5585 267.498 66.414 266.592 65.4442C265.685 64.5251 264.599 63.8055 263.402 63.3305C262.205 62.8556 260.924 62.6358 259.639 62.6849L259.652 62.672ZM254.877 69.9746C255.232 69.0615 255.805 68.2505 256.545 67.6132C257.507 66.8909 258.681 66.5117 259.881 66.5351C260.978 66.5146 262.053 66.8473 262.95 67.4848C263.803 68.0831 264.427 68.957 264.72 69.9618H254.877V69.9746Z" fill="white"/>
<path d="M276.766 63.4421C276.021 63.9375 275.426 64.6302 275.047 65.4442V63.1469H271.227V81.4099H275.734V73.119C275.596 71.3769 275.835 69.6254 276.435 67.9854C276.582 67.627 276.826 67.3172 277.139 67.0906C277.452 66.8639 277.82 66.7294 278.205 66.702C278.653 66.7394 279.087 66.8752 279.478 67.0998L280.891 63.1598C280.318 62.866 279.688 62.7039 279.045 62.6849C278.227 62.6793 277.428 62.9256 276.753 63.3908L276.766 63.4421Z" fill="white"/>
<path d="M289.283 70.3082L287.615 69.474C287.123 69.2665 286.667 68.9805 286.265 68.6269C286.092 68.4423 285.993 68.2003 285.985 67.9467C285.984 67.7863 286.024 67.6282 286.099 67.487C286.175 67.3458 286.284 67.2259 286.418 67.1382C286.772 66.9037 287.192 66.7911 287.615 66.8173C288.839 66.9709 289.954 67.6022 290.722 68.5756L293.536 65.7393C292.854 64.7709 291.949 63.9828 290.9 63.442C289.872 62.9254 288.738 62.6574 287.589 62.6591C286.037 62.5985 284.522 63.1458 283.362 64.1863C282.837 64.645 282.417 65.2131 282.131 65.8512C281.845 66.4894 281.7 67.1824 281.706 67.8826C281.706 70.1157 283.171 71.9766 286.099 73.4654L287.627 74.2354C288.901 74.9028 289.601 75.5959 289.601 76.3017C289.593 76.4999 289.539 76.6934 289.444 76.8671C289.349 77.0408 289.215 77.1899 289.054 77.3028C288.634 77.6117 288.121 77.7658 287.602 77.7392C286.932 77.7059 286.281 77.5076 285.705 77.1616C284.992 76.7792 284.357 76.2655 283.833 75.6472L281.044 78.7145C281.772 79.7192 282.733 80.5288 283.843 81.0724C284.952 81.6161 286.178 81.8773 287.411 81.8332C289.143 81.924 290.843 81.3405 292.161 80.2033C293.137 79.296 293.755 78.0634 293.9 76.733C294.045 75.4026 293.708 74.0642 292.95 72.9649C291.967 71.8092 290.734 70.8959 289.347 70.2954L289.283 70.3082Z" fill="white"/>
<path d="M313.731 55.6389H309.147C307.887 57.4852 306.904 59.5092 306.231 61.6452C305.599 63.8813 305.298 66.1995 305.34 68.5243C305.303 70.875 305.586 73.2198 306.18 75.4932C306.862 77.7633 307.861 79.9239 309.147 81.9103H313.731C312.324 80.2172 311.182 78.3172 310.344 76.2761C309.449 73.8114 309.017 71.1999 309.071 68.5757C309.027 66.1335 309.42 63.7034 310.23 61.4014C311.038 59.259 312.229 57.2841 313.744 55.5747L313.731 55.6389Z" fill="white"/>
<path d="M329.063 57.4743C327.196 56.8759 325.238 56.6237 323.282 56.7299H318.341V81.4099H323.002V70.9373C324.645 71.0041 326.291 70.8749 327.904 70.5523C329.332 70.1667 330.602 69.3356 331.533 68.178C332.454 66.9463 332.926 65.4326 332.87 63.8914C332.909 62.4909 332.556 61.1078 331.851 59.9C331.199 58.8185 330.222 57.9737 329.063 57.4872V57.4743ZM327.98 65.2775C327.724 65.6661 327.348 65.9592 326.911 66.1117C326.118 66.322 325.298 66.4086 324.479 66.3684H323.002V61.3117H324.275C325.284 61.2313 326.298 61.3986 327.229 61.7994C327.585 62.0099 327.875 62.3157 328.069 62.6828C328.262 63.0499 328.35 63.4638 328.324 63.8785C328.342 64.3751 328.204 64.8646 327.929 65.2775H327.98Z" fill="white"/>
<path d="M343.515 73.9019L338.944 63.147H334.322L342.038 81.3714H344.98L352.684 63.147H348.074L343.515 73.9019Z" fill="white"/>
<path d="M359.738 56.4219H355.192V63.1469H352.875V67.0742H355.192V81.3714H359.738V67.0742H362.425V63.1469H359.738V56.4219Z" fill="white"/>
<path d="M369.008 55.6389H364.424C365.822 57.3082 366.968 59.1765 367.824 61.1833C368.723 63.6471 369.155 66.2592 369.098 68.8837C369.141 71.33 368.749 73.7643 367.939 76.0708C367.133 78.2107 365.942 80.1819 364.424 81.8846H369.008C370.264 80.0357 371.247 78.0124 371.924 75.8783C372.557 73.6422 372.857 71.324 372.816 68.9992C372.852 66.6485 372.57 64.3038 371.975 62.0303C371.288 59.7825 370.289 57.6438 369.008 55.6774V55.6389Z" fill="white"/>
<path d="M390.439 56.717H385.779V81.3713H397.213V76.9051H390.439V56.717Z" fill="white"/>
<path d="M404.663 56.4219H400.129V63.1469H397.799V67.0742H400.129V81.3714H404.663V67.0742H407.362V63.1469H404.663V56.4219Z" fill="white"/>
<path d="M422.464 65.1491C421.713 64.3635 420.818 63.7316 419.828 63.2882C418.862 62.8751 417.822 62.6655 416.772 62.6721C415.637 62.6586 414.512 62.8924 413.475 63.3576C412.437 63.8227 411.512 64.5083 410.762 65.3673C409.076 67.2608 408.19 69.7427 408.292 72.2849C408.245 73.5345 408.446 74.7809 408.883 75.9512C409.32 77.1214 409.985 78.1918 410.838 79.0998C411.598 79.9642 412.531 80.6561 413.576 81.1296C414.621 81.6031 415.754 81.8474 416.9 81.8463C417.895 81.8537 418.882 81.6618 419.803 81.2816C420.794 80.8403 421.697 80.2181 422.464 79.4463V81.4099H427.01V56.1011H422.464V65.0849V65.1491ZM421.254 76.1479C420.798 76.644 420.241 77.035 419.622 77.2941C419.002 77.5533 418.334 77.6745 417.664 77.6495C417.007 77.6649 416.355 77.5363 415.752 77.2726C415.15 77.0089 414.612 76.6164 414.175 76.1223C413.225 75.0726 412.718 73.6918 412.761 72.272C412.703 70.8545 413.202 69.4711 414.149 68.4218C414.59 67.9247 415.132 67.5297 415.739 67.2638C416.346 66.998 417.002 66.8676 417.664 66.8817C418.327 66.8637 418.987 66.9857 419.601 67.2399C420.215 67.4941 420.77 67.8748 421.229 68.3576C421.706 68.8733 422.076 69.4791 422.319 70.14C422.561 70.8009 422.671 71.5038 422.642 72.2079C422.699 73.6528 422.191 75.0626 421.229 76.1351L421.254 76.1479Z" fill="white"/>
<path d="M435.236 77.3671C434.994 77.1223 434.707 76.929 434.389 76.7989C434.072 76.6688 433.732 76.6045 433.39 76.6099C433.047 76.6045 432.707 76.6688 432.39 76.7989C432.073 76.929 431.785 77.1223 431.543 77.3671C431.299 77.6079 431.106 77.8955 430.975 78.213C430.844 78.5305 430.777 78.8713 430.779 79.2153C430.779 79.913 431.054 80.5822 431.544 81.0757C432.033 81.5691 432.697 81.8462 433.39 81.8462C434.082 81.8462 434.746 81.5691 435.235 81.0757C435.725 80.5822 436 79.913 436 79.2153C436.007 78.8706 435.943 78.5282 435.811 78.2099C435.68 77.8917 435.484 77.6046 435.236 77.3671Z" fill="white"/>
<path d="M126.012 27.8017L109.535 2.27466H102.506V41.0721H109.84V15.6221L126.292 41.0721H133.347V2.27466H126.012V27.8017Z" fill="white"/>
<path d="M153.53 19.5879L166.964 2.27466H158.165L147.723 15.6478V2.27466H140.312V41.0721H147.723V23.8359L159.591 41.0721H168.275L153.53 19.5879Z" fill="white"/>
<path d="M193.399 2.27466L178.551 41.0721H186.191L189.324 33.0765H205.012L208.03 41.0721H215.67L200.835 2.27466H193.399ZM191.998 25.8894L197.168 12.5676L202.261 25.8894H191.998Z" fill="white"/>
<path d="M229.371 23.6565L226.825 22.3731C226.05 22.0597 225.328 21.6267 224.685 21.0896C224.528 20.9282 224.409 20.7337 224.335 20.5202C224.262 20.3066 224.237 20.0793 224.261 19.8546C224.285 19.6299 224.359 19.4135 224.476 19.2209C224.594 19.0283 224.752 18.8644 224.94 18.741C225.496 18.3677 226.158 18.1874 226.825 18.2276C228.285 18.2276 229.915 19.126 231.714 20.9228L236.133 16.4694C235.049 14.9632 233.623 13.7396 231.976 12.9003C230.328 12.061 228.505 11.6302 226.659 11.6438C224.213 11.5508 221.827 12.4154 219.999 14.0566C219.173 14.778 218.512 15.6713 218.061 16.6749C217.611 17.6786 217.381 18.7688 217.389 19.8704C217.389 23.387 219.694 26.3131 224.303 28.6489L226.71 29.8682C228.785 30.9206 229.817 32.0115 229.817 33.1152C229.81 33.4294 229.728 33.7372 229.577 34.0122C229.426 34.2872 229.212 34.5211 228.951 34.6938C228.292 35.1785 227.487 35.4188 226.672 35.374C225.616 35.3198 224.589 35.0071 223.679 34.4628C222.56 33.8588 221.562 33.0492 220.738 32.0756L216.345 36.9013C217.483 38.4707 218.983 39.7373 220.716 40.5915C222.449 41.4456 224.362 41.8618 226.29 41.8039C229.014 41.9366 231.687 41.0188 233.764 39.2371C234.666 38.438 235.384 37.4492 235.865 36.3405C236.347 35.2318 236.582 34.0301 236.553 32.82C236.593 31.0272 236.052 29.2701 235.012 27.8147C233.473 26.0111 231.543 24.5884 229.371 23.6565Z" fill="white"/>
<path d="M251.082 23.6564L248.459 22.373C247.685 22.0647 246.967 21.6312 246.332 21.0896C246.064 20.7994 245.91 20.4207 245.899 20.0244C245.901 19.7714 245.963 19.5225 246.08 19.299C246.198 19.0755 246.367 18.884 246.574 18.741C247.13 18.3677 247.792 18.1874 248.459 18.2276C249.927 18.2276 251.557 19.126 253.349 20.9228L257.767 16.4693C256.682 14.9793 255.259 13.7734 253.616 12.9528C251.998 12.1226 250.211 11.6832 248.395 11.6694C245.949 11.5764 243.563 12.4411 241.735 14.0822C240.92 14.809 240.271 15.7049 239.831 16.7084C239.392 17.7118 239.172 18.7992 239.189 19.896C239.189 23.4126 241.494 26.3388 246.103 28.6746L248.51 29.8938C250.585 30.9462 251.63 32.0371 251.63 33.1408C251.62 33.4543 251.536 33.761 251.386 34.0355C251.235 34.31 251.022 34.5444 250.764 34.7194C250.104 35.2042 249.299 35.4445 248.484 35.3996C247.428 35.3455 246.401 35.0327 245.492 34.4884C244.369 33.8888 243.371 33.0786 242.55 32.1013L238.119 36.9012C239.257 38.4707 240.758 39.7372 242.49 40.5914C244.223 41.4456 246.136 41.8617 248.064 41.8039C250.789 41.9365 253.461 41.0188 255.539 39.237C256.441 38.4379 257.158 37.4492 257.64 36.3405C258.122 35.2318 258.356 34.03 258.327 32.82C258.367 31.0271 257.826 29.2701 256.787 27.8147C255.23 26.0078 253.283 24.5852 251.095 23.6564H251.082Z" fill="white"/>
<path d="M283.005 13.6713C280.7 12.3379 278.087 11.6386 275.429 11.6436C271.773 11.6131 268.243 12.9902 265.56 15.4938C263.984 16.8917 262.729 18.6199 261.885 20.5574C261.04 22.4949 260.626 24.595 260.671 26.7108C260.633 28.692 260.998 30.66 261.742 32.4941C262.487 34.3281 263.595 35.9894 265 37.3759C266.351 38.7901 267.977 39.9095 269.775 40.6645C271.573 41.4195 273.506 41.7942 275.454 41.7652C278.131 41.7956 280.767 41.1092 283.094 39.7759C285.379 38.4656 287.268 36.5535 288.557 34.2444C289.879 31.9347 290.569 29.3129 290.556 26.6466C290.567 23.9948 289.875 21.3883 288.552 19.0961C287.229 16.8039 285.323 14.9091 283.031 13.6072L283.005 13.6713ZM281.108 32.7685C280.392 33.534 279.525 34.1388 278.561 34.5435C277.598 34.9482 276.561 35.1436 275.518 35.1171C274.48 35.1531 273.446 34.9644 272.486 34.5637C271.526 34.163 270.662 33.5596 269.953 32.7942C269.209 31.9778 268.633 31.0212 268.257 29.9794C267.881 28.9375 267.713 27.8311 267.763 26.7236C267.714 25.6299 267.882 24.5372 268.258 23.51C268.634 22.4828 269.211 21.542 269.953 20.7429C271.431 19.2547 273.435 18.4187 275.524 18.4187C277.614 18.4187 279.617 19.2547 281.095 20.7429C281.836 21.5487 282.411 22.4944 282.786 23.5253C283.162 24.5562 283.332 25.652 283.285 26.7493C283.333 27.8476 283.165 28.9444 282.791 29.9772C282.417 31.01 281.845 31.9585 281.108 32.7685Z" fill="white"/>
<path d="M309.262 18.3302C310.567 18.305 311.864 18.536 313.082 19.0104C314.342 19.587 315.47 20.4218 316.393 21.4617L322.339 18.1633C320.938 16.1222 319.039 14.4782 316.826 13.3891C314.447 12.224 311.83 11.6393 309.186 11.6821C306.304 11.6391 303.457 12.3276 300.909 13.6842C298.513 14.9456 296.515 16.8571 295.14 19.2029C293.477 22.0548 292.791 25.3788 293.186 28.6627C293.582 31.9467 295.038 35.0083 297.33 37.376C300.166 40.3621 304.088 41.8551 309.096 41.8551C314.665 41.8551 318.973 39.853 322.021 35.8487L316.393 31.9985C315.48 33.0757 314.333 33.9258 313.041 34.4824C311.749 35.039 310.347 35.287 308.944 35.207C307.799 35.2591 306.655 35.0804 305.579 34.6815C304.503 34.2827 303.517 33.6716 302.679 32.8841C301.889 32.1106 301.268 31.1787 300.858 30.1484C300.448 29.1182 300.257 28.0127 300.297 26.9034C300.266 25.7574 300.471 24.6173 300.898 23.5548C301.325 22.4924 301.966 21.5306 302.78 20.7302C303.647 19.9135 304.667 19.2794 305.78 18.8651C306.893 18.4507 308.077 18.2645 309.262 18.3174V18.3302Z" fill="white"/>
<path d="M333.291 12.3752H326.147V41.0723H333.291V12.3752Z" fill="white"/>
<path d="M329.712 0.555044C329.114 0.547067 328.521 0.662511 327.969 0.894267C327.418 1.12602 326.919 1.46919 326.503 1.90262C326.072 2.3227 325.73 2.82767 325.5 3.38622C325.27 3.94477 325.157 4.54499 325.166 5.14965C325.159 5.77124 325.273 6.38823 325.502 6.96525C325.732 7.54227 326.072 8.06797 326.503 8.51219C326.925 8.96516 327.436 9.32292 328.005 9.56185C328.573 9.80078 329.186 9.91544 329.801 9.89827C330.397 9.90964 330.988 9.79436 331.537 9.55996C332.085 9.32556 332.579 8.97729 332.985 8.53785C333.417 8.11009 333.758 7.59827 333.988 7.03348C334.218 6.46869 334.331 5.8627 334.322 5.25232C334.331 4.63621 334.218 4.02443 333.988 3.45338C333.759 2.88233 333.417 2.36368 332.985 1.92829C332.565 1.48092 332.057 1.12746 331.493 0.89088C330.93 0.654297 330.323 0.539875 329.712 0.555044Z" fill="white"/>
<path d="M358.923 15.5452C357.742 14.3007 356.326 13.306 354.759 12.6191C353.239 11.9629 351.6 11.6308 349.946 11.6437C348.153 11.6306 346.379 12.0094 344.746 12.7538C343.113 13.4983 341.659 14.5907 340.485 15.9559C337.829 18.9386 336.431 22.8474 336.588 26.8521C336.517 28.8204 336.836 30.7833 337.527 32.6257C338.218 34.4681 339.267 36.1529 340.612 37.5814C341.817 38.931 343.293 40.0075 344.941 40.7398C346.59 41.4721 348.374 41.8435 350.175 41.8295C351.738 41.8448 353.288 41.5437 354.734 40.9439C356.293 40.2465 357.713 39.2679 358.923 38.0562V41.0851H366.067V12.3752H358.923V15.5452ZM357.026 32.8584C356.315 33.6268 355.45 34.2338 354.488 34.6388C353.527 35.0437 352.49 35.2375 351.449 35.2071C350.416 35.2333 349.39 35.0321 348.442 34.6176C347.494 34.2031 346.647 33.5853 345.96 32.8071C344.449 31.1405 343.649 28.9416 343.732 26.6852C343.643 24.4542 344.43 22.2776 345.922 20.6275C346.622 19.8591 347.478 19.2516 348.431 18.8463C349.385 18.441 350.414 18.2475 351.449 18.2789C352.491 18.2529 353.528 18.446 354.493 18.8459C355.457 19.2459 356.329 19.8439 357.051 20.6019C357.802 21.4149 358.384 22.3704 358.765 23.4126C359.145 24.4549 359.316 25.563 359.267 26.6724C359.352 28.9505 358.547 31.1712 357.026 32.8584Z" fill="white"/>
<path d="M379.424 1.7998H372.281V12.3751H368.614V18.574H372.281V41.0721H379.424V18.574H383.665V12.3751H379.424V1.7998Z" fill="white"/>
<path d="M399.009 11.6309C397.052 11.576 395.105 11.9321 393.292 12.6767C391.479 13.4214 389.839 14.5381 388.478 15.956C387.087 17.397 385.998 19.1055 385.276 20.9797C384.554 22.8539 384.214 24.8554 384.276 26.8649C384.209 28.8397 384.549 30.807 385.275 32.6426C386 34.4783 387.095 36.1424 388.491 37.5301C389.925 38.9527 391.633 40.0646 393.51 40.7973C395.387 41.5301 397.392 41.8682 399.403 41.791C401.974 41.8558 404.526 41.3291 406.865 40.2509C409.04 39.1562 410.899 37.5166 412.264 35.4894L406.203 32.6403C405.302 33.5531 404.227 34.2736 403.044 34.7587C401.86 35.2438 400.592 35.4836 399.314 35.4638C397.321 35.5435 395.365 34.9016 393.801 33.6542C392.358 32.4166 391.423 30.6831 391.177 28.7901H414.098V27.4168C414.202 25.3237 413.889 23.2308 413.176 21.2621C412.463 19.2934 411.365 17.4891 409.947 15.956C408.518 14.5135 406.809 13.3846 404.927 12.6403C403.044 11.8959 401.029 11.5523 399.009 11.6309ZM391.496 23.1815C392.056 21.7439 392.957 20.4662 394.119 19.4597C395.635 18.3295 397.48 17.7382 399.365 17.7784C401.096 17.7458 402.791 18.2719 404.204 19.28C405.538 20.2092 406.521 21.5663 406.993 23.1302L391.496 23.1815Z" fill="white"/>
<path d="M434.446 27.8531C432.901 26.0307 430.957 24.5942 428.767 23.6564L426.144 22.373C425.371 22.0647 424.652 21.6312 424.018 21.0895C423.742 20.8042 423.587 20.4224 423.585 20.0243C423.586 19.7714 423.648 19.5225 423.766 19.299C423.883 19.0754 424.053 18.884 424.26 18.7409C424.816 18.3676 425.477 18.1873 426.144 18.2275C427.604 18.2275 429.234 19.1259 431.034 20.9227L435.491 16.3794C434.408 14.9016 432.996 13.7015 431.368 12.8765C429.739 12.0515 427.941 11.6247 426.119 11.6308C423.673 11.5378 421.286 12.4025 419.459 14.0436C418.632 14.7558 417.968 15.6392 417.511 16.6337C417.054 17.6281 416.815 18.7102 416.81 19.8061C416.81 23.3227 419.115 26.2489 423.725 28.5847L426.131 29.8039C428.207 30.8563 429.251 31.9472 429.251 33.0509C429.241 33.3644 429.158 33.6711 429.007 33.9456C428.857 34.2201 428.644 34.4545 428.385 34.6295C427.723 35.1086 426.92 35.3483 426.106 35.3097C425.05 35.2556 424.023 34.9428 423.114 34.3985C422.009 33.8101 421.024 33.0177 420.21 32.0627L415.817 36.8883C416.955 38.4586 418.455 39.7258 420.188 40.58C421.921 41.4343 423.834 41.8499 425.762 41.7909C428.487 41.9236 431.159 41.0059 433.237 39.2241C434.776 37.8006 435.752 35.8643 435.986 33.7723C436.22 31.6802 435.696 29.5735 434.51 27.8403L434.446 27.8531Z" fill="white"/>
</g>
<defs>
<clipPath id="clip0_392_596">
<rect width="436" height="109" fill="white" transform="translate(0 0.554932)"/>
</clipPath>
</defs>
</svg>
