<svg width="39" height="29" viewBox="0 0 39 29" fill="none" xmlns="http://www.w3.org/2000/svg">
<path d="M0.564941 2.66554C0.564941 2.0378 0.81431 1.43577 1.25819 0.991892C1.70207 0.548014 2.30409 0.298645 2.93183 0.298645H5.29873C5.92647 0.298645 6.52849 0.548014 6.97237 0.991892C7.41625 1.43577 7.66562 2.0378 7.66562 2.66554C7.66562 3.29328 7.41625 3.8953 6.97237 4.33918C6.52849 4.78306 5.92647 5.03243 5.29873 5.03243H2.93183C2.30409 5.03243 1.70207 4.78306 1.25819 4.33918C0.81431 3.8953 0.564941 3.29328 0.564941 2.66554ZM12.3994 2.66554C12.3994 2.0378 12.6488 1.43577 13.0927 0.991892C13.5365 0.548014 14.1386 0.298645 14.7663 0.298645H36.0683C36.6961 0.298645 37.2981 0.548014 37.742 0.991892C38.1859 1.43577 38.4352 2.0378 38.4352 2.66554C38.4352 3.29328 38.1859 3.8953 37.742 4.33918C37.2981 4.78306 36.6961 5.03243 36.0683 5.03243H14.7663C14.1386 5.03243 13.5365 4.78306 13.0927 4.33918C12.6488 3.8953 12.3994 3.29328 12.3994 2.66554ZM0.564941 14.5C0.564941 13.8723 0.81431 13.2702 1.25819 12.8264C1.70207 12.3825 2.30409 12.1331 2.93183 12.1331H5.29873C5.92647 12.1331 6.52849 12.3825 6.97237 12.8264C7.41625 13.2702 7.66562 13.8723 7.66562 14.5C7.66562 15.1277 7.41625 15.7298 6.97237 16.1736C6.52849 16.6175 5.92647 16.8669 5.29873 16.8669H2.93183C2.30409 16.8669 1.70207 16.6175 1.25819 16.1736C0.81431 15.7298 0.564941 15.1277 0.564941 14.5ZM12.3994 14.5C12.3994 13.8723 12.6488 13.2702 13.0927 12.8264C13.5365 12.3825 14.1386 12.1331 14.7663 12.1331H36.0683C36.6961 12.1331 37.2981 12.3825 37.742 12.8264C38.1859 13.2702 38.4352 13.8723 38.4352 14.5C38.4352 15.1277 38.1859 15.7298 37.742 16.1736C37.2981 16.6175 36.6961 16.8669 36.0683 16.8669H14.7663C14.1386 16.8669 13.5365 16.6175 13.0927 16.1736C12.6488 15.7298 12.3994 15.1277 12.3994 14.5ZM0.564941 26.3345C0.564941 25.7067 0.81431 25.1047 1.25819 24.6608C1.70207 24.2169 2.30409 23.9676 2.93183 23.9676H5.29873C5.92647 23.9676 6.52849 24.2169 6.97237 24.6608C7.41625 25.1047 7.66562 25.7067 7.66562 26.3345C7.66562 26.9622 7.41625 27.5642 6.97237 28.0081C6.52849 28.452 5.92647 28.7014 5.29873 28.7014H2.93183C2.30409 28.7014 1.70207 28.452 1.25819 28.0081C0.81431 27.5642 0.564941 26.9622 0.564941 26.3345ZM12.3994 26.3345C12.3994 25.7067 12.6488 25.1047 13.0927 24.6608C13.5365 24.2169 14.1386 23.9676 14.7663 23.9676H36.0683C36.6961 23.9676 37.2981 24.2169 37.742 24.6608C38.1859 25.1047 38.4352 25.7067 38.4352 26.3345C38.4352 26.9622 38.1859 27.5642 37.742 28.0081C37.2981 28.452 36.6961 28.7014 36.0683 28.7014H14.7663C14.1386 28.7014 13.5365 28.452 13.0927 28.0081C12.6488 27.5642 12.3994 26.9622 12.3994 26.3345Z" fill="white"/>
</svg>
