<svg width="63" height="64" viewBox="0 0 63 64" fill="none" xmlns="http://www.w3.org/2000/svg">
<path d="M52.3688 56C46.725 56 41.2239 54.7218 35.8654 52.1653C30.5069 49.6089 25.76 46.2311 21.6248 42.032C17.4895 37.8329 14.1645 33.0107 11.6498 27.5653C9.135 22.12 7.87675 16.5316 7.875 10.8C7.875 10 8.1375 9.33333 8.6625 8.8C9.1875 8.26667 9.84375 8 10.6313 8H21.2625C21.875 8 22.4219 8.2 22.9031 8.6C23.3844 9 23.6688 9.51111 23.7563 10.1333L25.4625 19.4667C25.55 20.0889 25.5386 20.656 25.4284 21.168C25.3181 21.68 25.067 22.1351 24.675 22.5333L18.375 29.0667C20.2125 32.2667 22.5094 35.2667 25.2656 38.0667C28.0219 40.8667 31.0625 43.2889 34.3875 45.3333L40.5562 39.0667C40.95 38.6667 41.4645 38.3671 42.0998 38.168C42.735 37.9689 43.358 37.9129 43.9688 38L53.025 39.8667C53.6375 40 54.1406 40.3004 54.5344 40.768C54.9281 41.2356 55.125 41.7796 55.125 42.4V53.2C55.125 54 54.8625 54.6667 54.3375 55.2C53.8125 55.7333 53.1563 56 52.3688 56Z" fill="url(#paint0_linear_171_3726)"/>
<defs>
<linearGradient id="paint0_linear_171_3726" x1="31.5" y1="8" x2="31.5" y2="56" gradientUnits="userSpaceOnUse">
<stop stop-color="#E4404A"/>
<stop offset="1" stop-color="#EB4B5E"/>
</linearGradient>
</defs>
</svg>
