<svg width="28" height="48" viewBox="0 0 28 48" fill="none" xmlns="http://www.w3.org/2000/svg">
<path fill-rule="evenodd" clip-rule="evenodd" d="M0.486539 44.1764C0.6932 44.5943 3.26372 47.148 3.63346 47.3026C3.99421 47.4535 4.53337 47.4537 4.89633 47.303C5.28752 47.1406 27.0365 25.392 27.3548 24.8449C27.6099 24.4066 27.6451 23.9699 27.4612 23.5246C27.2997 23.1332 5.31575 1.10949 4.86977 0.892292C4.49758 0.710922 4.09349 0.699234 3.70856 0.858524C3.35934 1.00307 0.694648 3.63196 0.481347 4.0423C0.291933 4.40687 0.29201 4.94479 0.481653 5.30898C0.565141 5.46942 4.63891 9.60428 9.86809 14.8362L19.1069 24.0801L9.83803 33.3629C3.28035 39.9306 0.53477 42.729 0.451586 42.9299C0.290562 43.319 0.304298 43.8078 0.486539 44.1764Z" fill="white"/>
</svg>
