<svg width="21" height="21" viewBox="0 0 21 21" fill="none" xmlns="http://www.w3.org/2000/svg">
<path fill-rule="evenodd" clip-rule="evenodd" d="M1.2107 0.352004C1.13712 0.391658 1.02452 0.488829 0.960453 0.567983L0.843994 0.711892V10.153V19.5941L0.940241 19.7362C0.993177 19.8144 1.10694 19.9127 1.19303 19.9548C1.34502 20.029 1.43518 20.0312 4.31883 20.0312H7.2881L7.29996 18.956C7.3112 17.9352 7.31589 17.8752 7.39235 17.7721C7.68352 17.3795 8.25354 17.3939 8.45708 17.799C8.51625 17.9168 8.52441 18.0601 8.52445 18.9821L8.52453 20.0312H9.83122H11.1379L11.1498 18.9821C11.1609 18.0051 11.1671 17.9238 11.2408 17.7984C11.4712 17.4063 12.0439 17.3778 12.2857 17.7465C12.3472 17.8402 12.3574 17.9765 12.3744 18.9322L12.3937 20.0119H13.7026H15.0116L15.0308 18.9322C15.0479 17.9765 15.0581 17.8402 15.1195 17.7465C15.3614 17.3778 15.9341 17.4063 16.1645 17.7984C16.2381 17.9238 16.2444 18.0051 16.2555 18.9821L16.2674 20.0312L18.1804 20.0306L20.0935 20.0299L20.2467 19.9431C20.3321 19.8948 20.4385 19.7886 20.4872 19.7032L20.5745 19.55L20.565 17.4065C20.5556 15.3091 20.5537 15.2606 20.4761 15.1566C20.3614 15.0031 20.2243 14.9107 20.052 14.8707C19.9643 14.8504 16.9889 14.8353 12.9615 14.8348L6.0221 14.8338L6.02125 7.83666C6.02044 1.08587 6.01786 0.833895 5.94845 0.681016C5.90887 0.593854 5.81101 0.472583 5.73093 0.411523L5.58541 0.300492L3.46496 0.290213C1.45486 0.280434 1.33751 0.283668 1.2107 0.352004ZM4.67464 8.43362V15.2385L3.42342 16.4893L2.17221 17.74V15.671V13.6019H2.56343C2.91069 13.6019 2.97302 13.5911 3.11797 13.5062C3.30469 13.3967 3.44267 13.1567 3.44267 12.9413C3.44267 12.7405 3.29018 12.4812 3.11254 12.3801C2.98353 12.3068 2.90369 12.2941 2.56682 12.2935L2.17221 12.2929V11.0224V9.75198H2.53918C2.94734 9.75198 3.09703 9.70682 3.25734 9.53535C3.54061 9.2324 3.48387 8.76579 3.13576 8.53541C2.99454 8.44194 2.93191 8.42819 2.57448 8.41233L2.17221 8.39443V7.14826V5.90209L2.52832 5.90124C2.94927 5.90024 3.14623 5.82878 3.30623 5.61896C3.57988 5.26019 3.39135 4.71724 2.95062 4.59482C2.87189 4.57295 2.66453 4.55497 2.48982 4.55485L2.17221 4.55462V3.09166V1.62871H3.42342H4.67464V8.43362Z" fill="url(#paint0_linear_451_2547)"/>
<defs>
<linearGradient id="paint0_linear_451_2547" x1="10.7092" y1="0.286133" x2="10.7092" y2="20.0312" gradientUnits="userSpaceOnUse">
<stop stop-color="#E4404A"/>
<stop offset="1" stop-color="#EB4B5E"/>
</linearGradient>
</defs>
</svg>
