<svg width="57" height="57" viewBox="0 0 57 57" fill="none" xmlns="http://www.w3.org/2000/svg">
<g id="mdi:file-upload" opacity="0.25">
<path id="Vector" d="M33.1687 4.80357H14.502C13.2643 4.80357 12.0773 5.29524 11.2022 6.17041C10.327 7.04558 9.83533 8.23256 9.83533 9.47024V46.8036C9.83533 48.0413 10.327 49.2282 11.2022 50.1034C12.0773 50.9786 13.2643 51.4702 14.502 51.4702H42.502C43.7397 51.4702 44.9267 50.9786 45.8018 50.1034C46.677 49.2282 47.1687 48.0413 47.1687 46.8036V18.8036L33.1687 4.80357ZM32.002 37.4702V44.4702H25.002V37.4702H19.1687L28.502 28.1369L37.8353 37.4702H32.002ZM30.8353 21.1369V8.30357L43.6687 21.1369H30.8353Z" fill="#969696"/>
</g>
</svg>
