<svg width="25" height="25" viewBox="0 0 25 25" fill="none" xmlns="http://www.w3.org/2000/svg">
<path d="M12.727 0.757812C19.2672 0.757812 24.5687 6.14351 24.5687 12.7875C24.5687 19.4315 19.2672 24.8172 12.727 24.8172C10.6343 24.8206 8.57844 24.258 6.77061 23.1872L0.890007 24.8172L2.49101 18.8409C1.43602 17.0038 0.881774 14.9144 0.88527 12.7875C0.88527 6.14351 6.18682 0.757812 12.727 0.757812ZM8.69134 7.13355L8.45451 7.14318C8.30118 7.15266 8.15133 7.19358 8.01399 7.26347C7.88554 7.33737 7.76827 7.42975 7.66585 7.53775C7.52375 7.67369 7.44322 7.79158 7.35678 7.90586C6.91878 8.48437 6.68295 9.19462 6.68654 9.92444C6.6889 10.5139 6.84048 11.0877 7.07731 11.6242C7.56164 12.7093 8.35859 13.8582 9.41014 14.9228C9.66355 15.179 9.91222 15.4364 10.1798 15.6758C11.4865 16.8445 13.0435 17.6873 14.7271 18.1371L15.3997 18.2418C15.6188 18.2538 15.8378 18.237 16.0581 18.2261C16.403 18.208 16.7397 18.1132 17.0445 17.9482C17.1996 17.8671 17.3509 17.7788 17.498 17.6836C17.498 17.6836 17.549 17.6499 17.6461 17.5753C17.8059 17.455 17.9042 17.3696 18.0368 17.2289C18.1351 17.1254 18.2204 17.0039 18.2855 16.8656C18.3779 16.6695 18.4702 16.2954 18.5081 15.9838C18.5366 15.7456 18.5283 15.6157 18.5247 15.5351C18.52 15.4064 18.4146 15.2728 18.2997 15.2163L17.6105 14.9023C17.6105 14.9023 16.5803 14.4464 15.9503 14.1553C15.8844 14.126 15.8138 14.1093 15.7419 14.106C15.6609 14.0975 15.579 14.1068 15.5018 14.1331C15.4246 14.1595 15.3539 14.2023 15.2943 14.2587C15.2884 14.2563 15.209 14.3249 14.3529 15.3787C14.3037 15.4458 14.236 15.4965 14.1584 15.5243C14.0808 15.5522 13.9968 15.5559 13.9171 15.5351C13.84 15.5141 13.7644 15.4875 13.6909 15.4557C13.5441 15.3931 13.4932 15.3691 13.3925 15.3258C12.7129 15.0245 12.0836 14.6174 11.5274 14.1192C11.3782 13.9869 11.2397 13.8425 11.0976 13.703C10.6317 13.2497 10.2257 12.737 9.88972 12.1776L9.81986 12.0633C9.76968 11.9865 9.7291 11.9037 9.69907 11.8167C9.65408 11.6399 9.77131 11.4979 9.77131 11.4979C9.77131 11.4979 10.0591 11.1779 10.1929 11.0047C10.3231 10.8363 10.4333 10.6727 10.5043 10.556C10.644 10.3274 10.6879 10.0929 10.6144 9.91121C10.2829 9.08838 9.93946 8.26916 9.58658 7.45595C9.51671 7.29475 9.30948 7.17926 9.1212 7.15641C9.05725 7.14919 8.99331 7.14197 8.92936 7.13716C8.77033 7.12913 8.61098 7.13074 8.45214 7.14197L8.69016 7.13235L8.69134 7.13355Z" fill="url(#paint0_linear_451_2520)"/>
<defs>
<linearGradient id="paint0_linear_451_2520" x1="12.727" y1="0.757812" x2="12.727" y2="24.8172" gradientUnits="userSpaceOnUse">
<stop stop-color="#E4404A"/>
<stop offset="1" stop-color="#EB4B5E"/>
</linearGradient>
</defs>
</svg>
